<?xml version="1.0" encoding="UTF-8" standalone="no"?>
<svg
   xmlns:dc="http://purl.org/dc/elements/1.1/"
   xmlns:cc="http://creativecommons.org/ns#"
   xmlns:rdf="http://www.w3.org/1999/02/22-rdf-syntax-ns#"
   xmlns:svg="http://www.w3.org/2000/svg"
   xmlns="http://www.w3.org/2000/svg"
   xmlns:sodipodi="http://sodipodi.sourceforge.net/DTD/sodipodi-0.dtd"
   xmlns:inkscape="http://www.inkscape.org/namespaces/inkscape"
   version="1.1"
   id="svg137816"
   width="76"
   height="76"
   viewBox="0 0 76 76"
   sodipodi:docname="jup.svg"
   inkscape:version="1.0 (4035a4f, 2020-05-01)">
  <metadata
     id="metadata137822">
    <rdf:RDF>
      <cc:Work
         rdf:about="">
        <dc:format>image/svg+xml</dc:format>
        <dc:type
           rdf:resource="http://purl.org/dc/dcmitype/StillImage" />
        <dc:title />
      </cc:Work>
    </rdf:RDF>
  </metadata>
  <defs
     id="defs137820" />
  <sodipodi:namedview
     inkscape:document-rotation="0"
     pagecolor="#ffffff"
     bordercolor="#666666"
     borderopacity="1"
     objecttolerance="10"
     gridtolerance="10"
     guidetolerance="10"
     inkscape:pageopacity="0"
     inkscape:pageshadow="2"
     inkscape:window-width="1089"
     inkscape:window-height="800"
     id="namedview137818"
     showgrid="false"
     inkscape:zoom="2.7372457"
     inkscape:cx="46.383704"
     inkscape:cy="4.5543759"
     inkscape:window-x="49"
     inkscape:window-y="23"
     inkscape:window-maximized="0"
     inkscape:current-layer="g137824" />
  <g
     inkscape:groupmode="layer"
     inkscape:label="Image"
     id="g137824">
    <g
       id="g137828"
       transform="translate(0.08698811,-0.06544251)">
      <path
         style="fill:#f7ebcf"
         d="M 26.5,74.654282 C 17.175626,71.615747 8.6692217,64.107641 3.6659491,54.5 0.74587475,48.892665 0.54139055,47.812836 0.54139055,38 c 0,-9.923502 0.18088483,-10.848682 3.29453225,-16.850698 C 7.8924563,13.329733 13.84605,7.4095613 21.598483,3.4864538 27.034634,0.73549766 28.32798,0.5 38,0.5 47.51813,0.5 49.042438,0.76635692 54.300768,3.3483875 61.702331,6.9828231 69.017177,14.297669 72.651612,21.699232 75.233643,26.957562 75.5,28.48187 75.5,38 c 0,9.51813 -0.266357,11.042438 -2.848388,16.300768 -3.633546,7.399753 -10.63053,14.384291 -18.205701,18.17332 -5.074866,2.5384 -7.264364,3.011414 -14.945911,3.228881 -5.389113,0.152568 -10.604839,-0.268175 -13,-1.048687 z"
         id="path137870"
         sodipodi:nodetypes="sssssssssssss" />
      <path
         style="fill:#f6e2ba"
         d="M 27.5,74.6552 C 16.554337,71.027535 7.9664129,63.517079 3.3098236,53.5 0.87435547,48.260913 0.52063355,46.295221 0.52063355,38 c 0,-8.295221 0.35372192,-10.260913 2.78919005,-15.5 C 6.8334615,14.920083 13.782588,7.7330279 21.5,3.6870147 27.120807,0.74019038 28.163588,0.54139055 38,0.54139055 c 9.819601,0 10.891488,0.20337113 16.541495,3.13844705 C 62.209487,7.6632201 68.317318,13.76395 72.340858,21.458505 75.310574,27.137745 75.49827,28.129592 75.471148,38 75.444269,47.78193 75.228222,48.913163 72.312005,54.541495 68.316781,62.252323 62.194835,68.358658 54.541495,72.266689 49.457228,74.862873 47.153241,75.401512 40,75.666282 34.778526,75.859549 29.957164,75.469566 27.5,74.6552 Z m 4.565741,-33.690384 c 3.829354,-2.049408 2.152608,-3.267157 -3.671021,-2.666106 -6.08251,0.627771 -6.940778,1.008733 -5.935839,2.634759 0.842657,1.363447 7.079782,1.383798 9.60686,0.03135 z M 44,35.984687 c 1.305397,-0.856938 1.311591,-1.105862 0.04775,-1.918704 C 42.304944,32.9451 41,33.584368 41,35.559017 c 0,1.676956 0.899468,1.804582 3,0.42567 z M 22.5,33.649353 c 3.85,-0.74156 9.25,-2.273084 12,-3.403388 2.75,-1.130303 5.824921,-2.323279 6.833158,-2.651057 2.315317,-0.75271 1.630316,-3.094307 -0.905896,-3.096703 -1.04531,-9.88e-4 -2.044688,-0.750173 -2.22084,-1.664857 C 38.03027,21.918665 37.311966,20.949954 36.61019,20.680658 35.005744,20.064974 15.60535,23.506615 11.803559,25.081369 8.8504456,26.304588 5.3452802,32.131624 6.4689308,33.949729 7.3596801,35.390992 14.11498,35.264417 22.5,33.649353 Z"
         id="path137868" />
      <path
         style="fill:#eadcc5"
         d="M 27.5,74.6552 C 16.554337,71.027535 7.9664129,63.517079 3.3098236,53.5 0.87435547,48.260913 0.52063355,46.295221 0.52063355,38 c 0,-8.295221 0.35372192,-10.260913 2.78919005,-15.5 C 6.8334615,14.920083 13.782588,7.7330279 21.5,3.6870147 27.120807,0.74019038 28.163588,0.54139055 38,0.54139055 c 9.819601,0 10.891488,0.20337113 16.541495,3.13844705 C 62.209487,7.6632201 68.317318,13.76395 72.340858,21.458505 75.310574,27.137745 75.49827,28.129592 75.471148,38 75.444269,47.78193 75.228222,48.913163 72.312005,54.541495 68.316781,62.252323 62.194835,68.358658 54.541495,72.266689 49.457228,74.862873 47.153241,75.401512 40,75.666282 34.778526,75.859549 29.957164,75.469566 27.5,74.6552 Z M 24,60.877555 c 0,-0.800017 0.368577,-0.816553 1.283103,-0.05756 1.207023,1.001741 2.955884,0.812765 12.466897,-1.347133 1.2375,-0.281029 2.25,-0.998855 2.25,-1.595168 0,-0.73617 -1.685279,-0.844293 -5.25,-0.336827 -2.8875,0.411059 -7.296823,0.824926 -9.798495,0.919705 -5.415645,0.205177 -7.886652,1.33219 -5.808268,2.649119 C 21.082733,62.338612 24,62.19918 24,60.877555 Z M 18.664037,44.424573 c 2.017959,0.774364 18.575064,-3.252058 19.51998,-4.746945 0.376209,-0.595175 0.425578,-1.500299 0.109709,-2.011386 -0.792196,-1.281801 -12.008437,-0.110227 -16.347013,1.707499 -2.170499,0.909371 -5.1056,1.280507 -7.542193,0.953691 -3.54975,-0.476121 -4.116326,-0.255366 -5.1462892,2.005158 -0.9817383,2.154681 -0.8994545,2.596938 0.5421923,2.914159 0.9347669,0.205687 2.9427079,-0.03667 4.4620899,-0.538573 1.519382,-0.501903 3.500068,-0.629524 4.401524,-0.283603 z m 26.804954,-8.3744 c 0.874734,-1.415348 -3.448102,-3.471062 -4.689218,-2.229946 -0.55303,0.55303 -0.70316,1.494718 -0.333624,2.092641 0.827605,1.339092 4.222737,1.431902 5.022842,0.137305 z M 26,34.807791 c 0.825,-0.04422 1.95,-0.423153 2.5,-0.842067 0.55,-0.418913 3.25,-1.441079 6,-2.27148 C 45.115394,28.488778 50.553322,25 44.934259,25 42.110153,25 38.809942,23.116537 39.546322,21.92505 39.877607,21.389018 39.777711,21.014886 39.32433,21.093644 37.299725,21.445347 35.933651,20.916372 36.5,20 c 0.760243,-1.230099 1.51671,-1.273644 -8,0.460511 -11.31687,2.062184 -11.58405,2.132172 -15.775133,4.13228 C 9.426793,26.166728 6,30.545503 6,33.185862 c 0,1.848534 4.771007,2.783475 11.5,2.253575 3.85,-0.303183 7.675,-0.587424 8.5,-0.631646 z"
         id="path137866" />
      <path
         sodipodi:nodetypes="ssssssssssssssssssssssssssssssssssssssssssssss"
         style="fill:#d4cfce"
         d="M 27.5,74.6552 C 16.554337,71.027535 7.9664129,63.517079 3.3098236,53.5 0.87435547,48.260913 0.18994816,46.200739 0.18994816,37.905518 c 0,-8.295221 0.35372192,-10.260913 2.78919004,-15.5 C 6.5027761,14.825601 13.782588,7.7330279 21.5,3.6870147 27.120807,0.74019038 28.163588,0.54139055 38,0.54139055 c 9.819601,0 10.891488,0.20337113 16.541495,3.13844705 C 62.209487,7.6632201 68.317318,13.76395 72.340858,21.458505 75.310574,27.137745 75.49827,28.129592 75.471148,38 75.444269,47.78193 75.228222,48.913163 72.312005,54.541495 68.316781,62.252323 62.194835,68.358658 54.541495,72.266689 49.457228,74.862873 47.153241,75.401512 40,75.666282 34.778526,75.859549 29.957164,75.469566 27.5,74.6552 Z M 29.25,63.526524 C 30.7625,63.511936 32,63.179845 32,62.788544 32,62.397243 33.8,61.592398 36,61 c 2.490243,-0.670553 4,-1.664073 4,-2.632266 0,-1.32033 -0.868306,-1.433088 -5.75,-0.74669 -3.1625,0.444668 -7.775,0.797323 -10.25,0.783678 -4.826663,-0.02661 -5.960598,0.79894 -5.984687,4.357096 -0.01429,2.110977 0.268118,2.212781 4.234687,1.526524 2.3375,-0.404411 5.4875,-0.747229 7,-0.761818 z M 18.664037,44.424573 c 2.017959,0.774364 18.575064,-3.252058 19.51998,-4.746945 0.376209,-0.595175 0.425578,-1.500299 0.109709,-2.011386 -0.707496,-1.144753 -12.545174,-0.137223 -15.222458,1.295616 -1.066882,0.570978 -4.331869,1.045033 -7.255527,1.053455 C 12.892084,40.023735 9.825,40.466844 9,41 c -0.825,0.533156 -1.05,0.983156 -0.5,1 0.55,0.01684 0.3358325,0.450626 -0.4759278,0.963961 -2.3726813,1.500417 2.8032858,2.992183 6.2332588,1.796488 1.522232,-0.530653 3.50525,-0.681797 4.406706,-0.335876 z M 19.5,35.444549 C 26.816476,34.52274 27.354826,34.423299 29,33.68975 31.291828,32.667872 42.224563,28.924749 44.652132,28.330811 46.71491,27.826125 48.714954,23 46.861328,23 46.387598,23 46,22.373145 46,21.606989 c 0,-3.33916 -5.331762,-3.369928 -23.441618,-0.135275 -8.488447,1.516146 -14.5429138,3.1093 -15.6607409,4.12092 -2.112285,1.911591 -4.3075699,7.896725 -3.5860721,9.776918 0.510948,1.33151 6.0130589,1.356999 16.188431,0.075 z m 25.968991,0.605624 c 0.874734,-1.415348 -3.448102,-3.471062 -4.689218,-2.229946 -0.55303,0.55303 -0.70316,1.494718 -0.333624,2.092641 0.827605,1.339092 4.222737,1.431902 5.022842,0.137305 z"
         id="path137864" />
      <path
         style="fill:#ebd4b0"
         d="M 28,74.636791 C 18.602072,71.893917 11.467829,66.520872 6.0842392,58.131275 3.0429616,53.391855 -0.68377787,40.22428 0.29455907,37.674775 0.65084253,36.746315 3.0415453,36.315784 8.210546,36.24922 c 4.07305,-0.05245 9.404425,-0.407797 11.8475,-0.789659 C 22.501121,35.0777 25.175,34.67376 26,34.561918 26.825,34.450076 28.175,34.057601 29,33.68975 31.291828,32.667872 42.224563,28.924749 44.652132,28.330811 46.71491,27.826125 48.714954,23 46.861328,23 46.387598,23 46,22.373145 46,21.606989 46,19.885475 43.831851,19 39.616599,19 33.69686,19 9.159245,23.849553 6.6024402,25.524836 3.9324131,27.274304 2.4488656,30.345855 2.8712145,33.25 3.0111906,34.2125 2.6474303,35 2.0628582,35 0.9162506,35 0.58290945,30.750424 1.6461179,29.687215 2.0014828,29.331851 2.3939912,27.747584 2.5183588,26.166623 2.8372227,22.113225 7.3230267,14.878732 12.444918,10.157538 31.463039,-7.3727545 61.681167,-1.0530745 72.809627,22.781935 75.113995,27.717445 75.479366,29.800138 75.479366,38 c 0,8.199862 -0.365371,10.282555 -2.669739,15.218065 C 69.152079,61.051826 62.048311,68.358594 54.455805,72.096372 47.06398,75.735356 35.55169,76.840823 28,74.636791 Z M 29.25,63.526524 C 30.7625,63.511936 32,63.179845 32,62.788544 32,62.397243 33.8,61.592398 36,61 c 2.490243,-0.670553 4,-1.664073 4,-2.632266 0,-1.32033 -0.868306,-1.433088 -5.75,-0.74669 -3.1625,0.444668 -7.775,0.797323 -10.25,0.783678 -4.826663,-0.02661 -5.960598,0.79894 -5.984687,4.357096 -0.01429,2.110977 0.268118,2.212781 4.234687,1.526524 2.3375,-0.404411 5.4875,-0.747229 7,-0.761818 z M 18.664037,44.424573 c 2.017959,0.774364 18.575064,-3.252058 19.51998,-4.746945 0.376209,-0.595175 0.425578,-1.500299 0.109709,-2.011386 -0.707496,-1.144753 -12.545174,-0.137223 -15.222458,1.295616 -1.066882,0.570978 -4.331869,1.045033 -7.255527,1.053455 C 12.892084,40.023735 9.825,40.466844 9,41 c -0.825,0.533156 -1.05,0.983156 -0.5,1 0.55,0.01684 0.3358325,0.450626 -0.4759278,0.963961 -2.3726813,1.500417 2.8032858,2.992183 6.2332588,1.796488 1.522232,-0.530653 3.50525,-0.681797 4.406706,-0.335876 z m 26.804954,-8.3744 c 0.874734,-1.415348 -3.448102,-3.471062 -4.689218,-2.229946 -0.55303,0.55303 -0.70316,1.494718 -0.333624,2.092641 0.827605,1.339092 4.222737,1.431902 5.022842,0.137305 z"
         id="path137862" />
      <path
         style="fill:#d9c6ab"
         d="M 27.775951,74.58531 C 20.975022,72.620418 14.793772,68.708672 10.145674,63.428154 5.0623923,57.653241 2.4727616,52.249485 0.92697934,44.191596 -0.46058275,36.95848 0.38191055,34.98202 3.9209268,37.167898 c 1.8089031,1.117271 2.0558714,1.935559 1.531376,5.073957 -0.5740534,3.434936 -0.3926854,3.830515 2.2111754,4.822762 6.0024698,2.287347 8.3452288,2.30316 10.4253928,0.07037 C 19.182843,45.960742 21.191486,45 22.552524,45 c 1.361038,0 3.256008,-0.396842 4.211045,-0.881871 0.955037,-0.485029 3.915452,-1.394407 6.578699,-2.02084 2.663248,-0.626432 5.507891,-1.80459 6.321429,-2.618129 0.813538,-0.813538 2.234517,-1.486051 3.157732,-1.494473 0.923214,-0.0084 2.324635,-0.424125 3.114269,-0.923784 1.18984,-0.7529 1.211684,-1.178393 0.127555,-2.484688 -1.749327,-2.10781 -5.138265,-2.004647 -5.7089,0.173785 -0.379779,1.449828 -1.768472,1.785117 -8.096067,1.954729 -7.171725,0.19224 -7.46996,0.117726 -4.888714,-1.22144 1.511919,-0.784393 3.959778,-1.551521 5.439686,-1.704729 1.479908,-0.153208 2.963388,-0.650182 3.296622,-1.104386 0.333234,-0.454204 2.444672,-1.07246 4.692085,-1.373901 2.481183,-0.332797 4.963003,-1.481384 6.318434,-2.924174 C 48.344125,27.069245 49.945187,26 50.674314,26 c 1.911063,0 1.630422,-1.33884 -0.620753,-2.961396 -1.070542,-0.771602 -1.750496,-1.719956 -1.511011,-2.107452 0.239486,-0.387496 -0.24711,-1.270996 -1.081325,-1.963332 -1.731518,-1.437033 -19.60748,-0.673403 -25.539056,1.090983 -1.882193,0.559871 -5.65759,1.4576 -8.389771,1.994955 -3.482787,0.68498 -5.7992606,1.887556 -7.7500002,4.023343 C 2.9791472,29.146267 2.6221542,30.049601 2.9477038,33.25 3.0456108,34.2125 2.6474303,35 2.0628582,35 0.9162506,35 0.58290945,30.750424 1.6461179,29.687215 2.0014828,29.331851 2.3939912,27.747584 2.5183588,26.166623 2.8372227,22.113225 7.3230267,14.878732 12.444918,10.157538 31.463039,-7.3727545 61.681167,-1.0530745 72.809627,22.781935 75.113995,27.717445 75.479366,29.800138 75.479366,38 c 0,8.199862 -0.365371,10.282555 -2.669739,15.218065 -3.657548,7.833761 -10.761316,15.140529 -18.353822,18.878307 -7.474181,3.679527 -18.877039,4.743289 -26.679854,2.488938 z M 33.3151,63.160842 C 34.863404,62.522379 36.793832,62 37.604938,62 c 0.811106,0 3.369311,-0.984984 5.6849,-2.188853 L 47.5,57.622294 43,56.793043 c -2.475,-0.456089 -6.250399,-0.545924 -8.389775,-0.199635 -2.139377,0.34629 -6.864377,0.5993 -10.5,0.562245 -10.48698,-0.106884 -12.151313,1.042806 -7.96321,5.500837 1.861153,1.981107 2.959588,2.244104 8.25,1.975293 3.356642,-0.170555 7.36978,-0.832478 8.918085,-1.470941 z M 20.193208,53.231069 C 19.53009,53.01003 19.2419,52.417614 19.552786,51.91459 19.863673,51.411565 19.641476,51 19.059017,51 18.476558,51 18,51.885877 18,52.968615 c 0,1.441717 0.454854,1.794072 1.699438,1.31648 1.07239,-0.411515 1.254578,-0.800423 0.49377,-1.054026 z m 4.535959,0.164764 c -0.332292,-0.332291 -1.194792,-0.367818 -1.916667,-0.07895 -0.797733,0.319226 -0.560776,0.556183 0.604167,0.604167 1.054166,0.04342 1.644791,-0.192928 1.3125,-0.52522 z M 42.5,53 C 42.839919,52.45 42.641476,52 42.059017,52 41.476558,52 41,52.45 41,53 c 0,0.55 0.198442,1 0.440983,1 0.242541,0 0.719098,-0.45 1.059017,-1 z M 24,51 c 0,-0.55 -0.198442,-1 -0.440983,-1 -0.242541,0 -0.719098,0.45 -1.059017,1 -0.339919,0.55 -0.141476,1 0.440983,1 C 23.523442,52 24,51.55 24,51 Z M 7,39 C 7,38.45 7.7015576,38 8.559017,38 9.4164763,38 9.8399187,38.45 9.5,39 9.1600813,39.55 8.4585237,40 7.940983,40 7.4234424,40 7,39.55 7,39 Z m 11,-1 c 0,-1.252922 1.061241,-1.252922 3,0 1.212959,0.783874 1.069438,0.972305 -0.75,0.984687 C 19.0125,38.993109 18,38.55 18,38 Z"
         id="path137860" />
      <path
         style="fill:#e9c793"
         d="M 27.775951,74.58531 C 17.780367,71.697434 8.4959965,63.879706 4.1153506,54.66235 1.9851793,50.180237 -0.63696565,38.303632 0.2973531,37.369314 1.6147305,36.051936 3.125417,38.364163 2.5209218,40.772663 1.8833778,43.312841 5.601997,53 7.2146417,53 7.6230061,53 7.4436716,51.873098 6.8161206,50.495774 5.2642062,47.089693 5.9646035,46.73075 11.351421,48.171504 15.66145,49.324261 16.109832,49.259232 18.024902,47.203646 19.154056,45.991641 21.191486,45 22.552524,45 c 1.361038,0 3.256008,-0.396842 4.211045,-0.881871 0.955037,-0.485029 3.915452,-1.394407 6.578699,-2.02084 2.663248,-0.626432 5.507891,-1.80459 6.321429,-2.618129 0.813538,-0.813538 2.234517,-1.486051 3.157732,-1.494473 0.923214,-0.0084 2.324635,-0.424125 3.114269,-0.923784 1.18984,-0.7529 1.211684,-1.178393 0.127555,-2.484688 -1.749327,-2.10781 -5.138265,-2.004647 -5.7089,0.173785 -0.379779,1.449828 -1.768472,1.785117 -8.096067,1.954729 -7.381365,0.197859 -7.539815,0.153967 -4.721877,-1.307996 1.60368,-0.831999 4.276539,-1.599127 5.939686,-1.704729 1.663148,-0.105602 3.643297,-0.779253 4.400332,-1.497002 0.757034,-0.717749 2.344218,-1.178175 3.527075,-1.023169 1.182856,0.155006 3.557931,-0.720245 5.277944,-1.945002 C 48.401458,28.002074 50.301774,27 50.90437,27 51.506967,27 52,26.55 52,26 c 0,-0.55 0.632871,-1 1.40638,-1 1.966346,0 0.933306,-3.332254 -1.841048,-5.938624 -2.702409,-2.538781 -6.597143,-2.793849 -16.220809,-1.062307 -7.625997,1.372111 -10.901572,0.894962 -9.999205,-1.456571 0.351644,-0.91637 0.06959,-1.255207 -0.775054,-0.931087 -0.730334,0.280255 -1.269917,1.269838 -1.199072,2.199072 0.103816,1.361713 -0.896275,1.736384 -5.154519,1.931071 C 12.192002,20.017002 8.0589651,21.838285 5.1943759,25.48002 2.6286614,28.741798 1.6121649,28.681394 2.4564923,25.317326 3.5720536,20.872576 7.8278502,14.413402 12.444918,10.157538 31.463039,-7.3727545 61.681167,-1.0530745 72.809627,22.781935 75.113995,27.717445 75.479366,29.800138 75.479366,38 c 0,8.199862 -0.365371,10.282555 -2.669739,15.218065 -3.657548,7.833761 -10.761316,15.140529 -18.353822,18.878307 -7.474181,3.679527 -18.877039,4.743289 -26.679854,2.488938 z M 33.230755,64.169245 C 33.87384,63.52616 35.239078,63 36.264619,63 39.248141,63 48,58.876854 48,57.471268 c 0,-0.987306 -2.243842,-1.175632 -9.75,-0.818319 -5.3625,0.255269 -12.65028,0.435319 -16.195068,0.400112 -10.574708,-0.105028 -12.1458996,1.155001 -7.494361,6.010161 2.371499,2.475312 3.112168,2.657989 10.030755,2.473964 4.108601,-0.109283 7.996345,-0.724857 8.639429,-1.367941 z M 20.193208,53.231069 C 19.53009,53.01003 19.2419,52.417614 19.552786,51.91459 19.863673,51.411565 19.641476,51 19.059017,51 18.476558,51 18,51.885877 18,52.968615 c 0,1.441717 0.454854,1.794072 1.699438,1.31648 1.07239,-0.411515 1.254578,-0.800423 0.49377,-1.054026 z m 4.535959,0.164764 c -0.332292,-0.332291 -1.194792,-0.367818 -1.916667,-0.07895 -0.797733,0.319226 -0.560776,0.556183 0.604167,0.604167 1.054166,0.04342 1.644791,-0.192928 1.3125,-0.52522 z M 42.5,53 C 42.839919,52.45 42.641476,52 42.059017,52 41.476558,52 41,52.45 41,53 c 0,0.55 0.198442,1 0.440983,1 0.242541,0 0.719098,-0.45 1.059017,-1 z M 24,51 c 0,-0.55 -0.198442,-1 -0.440983,-1 -0.242541,0 -0.719098,0.45 -1.059017,1 -0.339919,0.55 -0.141476,1 0.440983,1 C 23.523442,52 24,51.55 24,51 Z M 18.5,38 C 18.160081,37.45 18.358524,37 18.940983,37 19.523442,37 20,37.45 20,38 20,38.55 19.801558,39 19.559017,39 19.316476,39 18.839919,38.55 18.5,38 Z M 1,32.725684 C 1,31.291476 1.4680368,29.828771 2.0400817,29.475228 2.7222721,29.053611 2.845915,29.807527 2.3994053,31.666211 1.4789889,35.497624 1,35.860261 1,32.725684 Z"
         id="path137858" />
      <path
         style="fill:#dbc199"
         d="M 27.775951,74.58531 C 17.780367,71.697434 8.4959965,63.879706 4.1153506,54.66235 1.9851793,50.180237 -0.63696565,38.303632 0.2973531,37.369314 1.6147305,36.051936 3.125417,38.364163 2.5209218,40.772663 1.8711036,43.361746 5.6155828,53 7.2712643,53 7.7107711,53 7.6045348,52.129584 7.0351838,51.065741 5.1232636,47.493286 5.9760843,46.802089 9.0767253,49.411106 10.768924,50.834998 12.970779,52 13.969736,52 c 0.998958,0 2.093225,0.721689 2.431705,1.603754 0.33848,0.882065 1.248548,1.360799 2.022375,1.063854 0.773826,-0.296945 2.682533,-0.1805 4.24157,0.258767 2.626105,0.739917 2.466823,0.851741 -2.165386,1.520204 -9.667333,1.395071 -10.475497,2.341939 -5.75,6.736861 2.477679,2.304352 3.469584,2.539088 10.016633,2.370458 4.01004,-0.103286 7.796968,-0.717499 8.45,-1.370531 C 33.867485,63.532515 35.239078,63 36.264619,63 39.467375,63 48,58.832672 48,57.268448 48,56.198125 47.326425,55.952241 45.588965,56.388315 43.7032,56.861612 43.23206,56.624633 43.426392,55.300562 43.676103,53.599171 44.954019,52.626063 48.313382,51.579214 50.789642,50.807559 49.455436,49 46.409598,49 45.049796,49 43.690754,48.357694 43.389506,47.572653 43.088257,46.787612 42.08988,46.280677 41.170891,46.44613 40.251901,46.611584 38.6,46.385519 37.5,45.943763 c -1.919815,-0.77099 -1.912158,-0.80601 0.190983,-0.873478 1.205041,-0.03866 2.473635,-0.527625 2.819098,-1.086597 0.345464,-0.558971 1.027213,-0.769656 1.514999,-0.468188 0.487786,0.301468 2.481691,-0.118229 4.430902,-0.932661 C 48.405192,41.768407 50,41.359191 50,41.673471 c 0,0.31428 0.670045,0.01533 1.48899,-0.664333 0.818944,-0.679663 1.17319,-1.746725 0.787214,-2.371248 -0.385976,-0.624523 -0.718522,-2.021638 -0.73899,-3.1047 -0.03207,-1.697115 -0.828228,-2.001776 -5.762048,-2.204935 -3.765022,-0.155031 -6.189841,0.229277 -7.083171,1.122608 -1.399035,1.399035 -6.69003,1.635571 -6.691289,0.299137 -7.01e-4,-0.744726 1.66657,-1.143794 3.407653,-0.815635 0.499598,0.09416 1.19743,-0.296518 1.550738,-0.868182 0.353308,-0.571665 2.011056,-1.189227 3.683885,-1.372361 1.672829,-0.183133 4.419463,-1.314161 6.103633,-2.513396 C 48.430784,27.981192 50.301774,27 50.90437,27 51.506967,27 52,26.55 52,26 c 0,-0.55 0.632871,-1 1.40638,-1 1.966346,0 0.933306,-3.332254 -1.841048,-5.938624 -2.687831,-2.525086 -6.497616,-2.78349 -16.34545,-1.108654 -7.793044,1.325375 -10.761625,0.901421 -9.874564,-1.410224 0.351644,-0.91637 0.06959,-1.255207 -0.775054,-0.931087 -0.730334,0.280255 -1.269917,1.269838 -1.199072,2.199072 0.103816,1.361713 -0.896275,1.736384 -5.154519,1.931071 C 12.192002,20.017002 8.0589651,21.838285 5.1943759,25.48002 2.6286614,28.741798 1.6121649,28.681394 2.4564923,25.317326 3.5720536,20.872576 7.8278502,14.413402 12.444918,10.157538 31.463039,-7.3727545 61.681167,-1.0530745 72.809627,22.781935 75.113995,27.717445 75.479366,29.800138 75.479366,38 c 0,8.199862 -0.365371,10.282555 -2.669739,15.218065 -3.657548,7.833761 -10.761316,15.140529 -18.353822,18.878307 -7.474181,3.679527 -18.877039,4.743289 -26.679854,2.488938 z M 47,46 c 0,-0.55 -0.476558,-1 -1.059017,-1 -0.582459,0 -0.780902,0.45 -0.440983,1 0.339919,0.55 0.816476,1 1.059017,1 C 46.801558,47 47,46.55 47,46 Z m -15.979448,7.759601 c 1.386304,-0.69278 3.623932,-2.047101 4.972507,-3.009601 3.537108,-2.524493 4.459469,-2.150743 1.791909,0.7261 -1.262783,1.361855 -3.868494,2.716176 -5.790469,3.009601 -3.363749,0.51354 -3.40019,0.486372 -0.973947,-0.7261 z M 32.8125,46.316886 c 0.721875,-0.288871 1.584375,-0.253344 1.916667,0.07895 0.332291,0.332292 -0.258334,0.568641 -1.3125,0.52522 -1.164943,-0.04798 -1.4019,-0.284941 -0.604167,-0.604167 z M 1,32.725684 C 1,31.291476 1.4680368,29.828771 2.0400817,29.475228 2.7222721,29.053611 2.845915,29.807527 2.3994053,31.666211 1.4789889,35.497624 1,35.860261 1,32.725684 Z"
         id="path137856" />
      <path
         style="fill:#cbb9aa"
         d="M 27.775951,74.58531 C 17.780367,71.697434 8.4959965,63.879706 4.1153506,54.66235 1.9851793,50.180237 -0.63696565,38.303632 0.2973531,37.369314 1.6379206,36.028746 3.0776314,38.370061 2.5078738,40.964151 1.2184544,46.834839 8.1077461,56.040858 13.151598,55.187142 14.168219,55.01507 15,55.35257 15,55.937142 15,56.521714 14.325,57 13.5,57 c -2.45295,0 -1.709292,3.425303 1.387874,6.392577 2.760304,2.644538 3.235181,2.746659 10.75,2.311748 10.026034,-0.580244 12.677237,-1.20629 19.099445,-4.51008 7.57593,-3.897301 8.418011,-7.399638 1.556813,-6.475008 -3.334282,0.449335 -3.582993,0.333745 -2.385783,-1.108804 C 44.643446,52.724695 46.063232,52 47.063428,52 49.214975,52 50.465425,50.405682 49.016312,49.510081 48.45734,49.164618 48,48.368524 48,47.740983 c 0,-0.797901 0.316171,-0.824812 1.051486,-0.0895 1.47613,1.47613 5.825199,0.447447 6.943637,-1.642374 1.646161,-3.07588 -0.777578,-3.866494 -5.680023,-1.852803 -1.548305,0.635971 -3.665702,1.046994 -4.705326,0.913386 C 44.2497,44.894904 43.89031,45.271769 44.328389,46.413386 44.663252,47.286024 44.501354,48 43.968615,48 43.435877,48 43,47.575838 43,47.057418 c 0,-0.518421 -0.7875,-0.800356 -1.75,-0.626523 -0.9625,0.173833 -2.65,-0.04538 -3.75,-0.487132 -1.919815,-0.77099 -1.912158,-0.80601 0.190983,-0.873478 1.205041,-0.03866 2.473635,-0.527625 2.819098,-1.086597 0.345464,-0.558971 1.009259,-0.780752 1.475101,-0.492846 0.465842,0.287906 2.122248,0.01984 3.680902,-0.595693 C 47.224738,42.279612 49.4,41.658823 50.5,41.515618 c 1.1,-0.143204 2.323377,-0.317802 2.718615,-0.387995 0.395239,-0.07019 0.442166,-0.848039 0.104283,-1.728548 -0.337883,-0.880508 -0.0506,-1.949328 0.638397,-2.375154 0.712291,-0.44022 0.98491,-1.618054 0.631927,-2.730204 -0.5447,-1.716198 -1.313842,-1.898503 -6.274253,-1.487147 -5.601776,0.464543 -5.635927,0.450928 -3.73621,-1.489504 1.054482,-1.077083 4.132606,-3.228648 6.840273,-4.781257 l 4.923033,-2.822924 -4.09357,-3.818441 c -4.067688,-3.794298 -4.139909,-3.816427 -11.423032,-3.500028 -5.179789,0.225025 -7.800671,-0.08681 -8.936081,-1.06323 -1.373359,-1.181047 -1.791883,-1.158411 -2.882678,0.155917 C 28.06,16.63263 27.39646,16.743995 26.408281,15.92388 24.744488,14.543054 19.352617,15.638712 18.637222,17.503002 18.3458,18.262435 17.295707,18.827094 16.303682,18.757798 14.019458,18.59824 6.4001,23.386476 4.7605092,26.011878 2.9817192,28.860173 1.666782,28.463782 2.4564923,25.317326 3.5720536,20.872576 7.8278502,14.413402 12.444918,10.157538 31.463039,-7.3727545 61.681167,-1.0530745 72.809627,22.781935 75.113995,27.717445 75.479366,29.800138 75.479366,38 c 0,8.199862 -0.365371,10.282555 -2.669739,15.218065 -3.657548,7.833761 -10.761316,15.140529 -18.353822,18.878307 -7.474181,3.679527 -18.877039,4.743289 -26.679854,2.488938 z M 54.5,57 c 0.339919,-0.55 -0.05697,-1 -0.881966,-1 -0.825,0 -1.778115,0.45 -2.118034,1 -0.339919,0.55 0.05697,1 0.881966,1 0.825,0 1.778115,-0.45 2.118034,-1 z M 34,53.130919 c 0,-1.372431 2.75705,-3.333037 3.346289,-2.379629 0.288389,0.466624 -0.346548,1.392289 -1.410972,2.057033 C 34.870892,53.473066 34,53.618235 34,53.130919 Z m -1.1875,-6.814033 c 0.721875,-0.288871 1.584375,-0.253344 1.916667,0.07895 0.332291,0.332292 -0.258334,0.568641 -1.3125,0.52522 -1.164943,-0.04798 -1.4019,-0.284941 -0.604167,-0.604167 z M 1,32.725684 C 1,31.291476 1.4680368,29.828771 2.0400817,29.475228 2.7222721,29.053611 2.845915,29.807527 2.3994053,31.666211 1.4789889,35.497624 1,35.860261 1,32.725684 Z M 36.5,34 c 0.339919,-0.55 0.816476,-1 1.059017,-1 C 37.801558,33 38,33.45 38,34 38,34.55 37.523442,35 36.940983,35 36.358524,35 36.160081,34.55 36.5,34 Z"
         id="path137854" />
      <path
         sodipodi:nodetypes="sssssssssssssssssssssssssssssssssscsssssscsssssssssssssssssssssssssssssssssssss"
         style="fill:#ccb292"
         d="M 27.475186,74.13173 C 17.603333,71.303976 9.4357881,64.694863 4.9522019,55.906308 2.5301536,51.158701 2.4709909,49.754644 4.8217293,52.809912 6.1613563,54.551034 7.6333168,55.1341 10.799493,55.177796 13.109772,55.209681 15,55.63272 15,56.117884 15,56.603048 14.3801,57 13.622445,57 c -0.757656,0 -1.944761,0.683441 -2.638012,1.518758 -1.033454,1.245235 -0.920434,1.900427 0.627555,3.638016 3.196526,3.588041 7.181276,4.596658 14.888012,3.768442 9.92543,-1.066651 12.323598,-1.688763 18.237319,-4.730971 7.57593,-3.897301 8.418011,-7.399638 1.556813,-6.475008 -3.334282,0.449335 -3.582993,0.333745 -2.385783,-1.108804 C 44.643446,52.724695 46.063232,52 47.063428,52 49.214975,52 50.465425,50.405682 49.016312,49.510081 48.45734,49.164618 48,48.368524 48,47.740983 c 0,-0.797901 0.316171,-0.824812 1.051486,-0.0895 1.47613,1.47613 5.825199,0.447447 6.943637,-1.642374 1.646161,-3.07588 -0.777578,-3.866494 -5.680023,-1.852803 -1.548305,0.635971 -3.665702,1.046994 -4.705326,0.913386 C 44.2497,44.894904 43.89031,45.271769 44.328389,46.413386 44.663252,47.286024 44.501354,48 43.968615,48 43.435877,48 43,47.575838 43,47.057418 c 0,-0.518421 -0.7875,-0.800356 -1.75,-0.626523 -0.9625,0.173833 -2.65,-0.04538 -3.75,-0.487132 -1.919815,-0.77099 -1.912158,-0.80601 0.190983,-0.873478 1.205041,-0.03866 2.473635,-0.527625 2.819098,-1.086597 0.345464,-0.558971 1.009259,-0.780752 1.475101,-0.492846 0.465842,0.287906 2.122248,0.01984 3.680902,-0.595693 C 47.224738,42.279612 49.4,41.658823 50.5,41.515618 c 1.1,-0.143204 2.323377,-0.317802 2.718615,-0.387995 0.395239,-0.07019 0.442166,-0.848039 0.104283,-1.728548 -0.337883,-0.880508 -0.0506,-1.949328 0.638397,-2.375154 0.712291,-0.44022 0.98491,-1.618054 0.631927,-2.730204 -0.545189,-1.717739 -1.319468,-1.900099 -6.357012,-1.497219 L 42.5,33.255255 45.301522,30.627628 c 1.540837,-1.445196 3.340837,-2.643811 4,-2.663591 0.659163,-0.01978 2.540323,-1.132385 4.180355,-2.472457 2.899111,-2.368865 2.937486,-2.51359 1.382556,-5.214037 C 53.984806,18.749894 53.467961,16.9375 53.715889,16.25 53.963817,15.5625 53.679167,15 53.083333,15 c -0.595833,0 -1.084155,0.3375 -1.08516,0.75 -0.0032,1.324458 -18.5732,0.847586 -20.220134,-0.519248 C 30.550128,14.211676 30.027147,14.262364 29,15.5 c -0.960292,1.15708 -1.593722,1.252144 -2.627352,0.394307 -0.749098,-0.621696 -2.264392,-0.894373 -3.367322,-0.605951 -1.144101,0.299189 -2.022521,0.02778 -2.045364,-0.631976 -0.02202,-0.636009 -0.711392,0.08112 -1.531937,1.59362 -1.549084,2.855408 -4.078052,3.886327 -3.066399,1.25 0.974923,-2.540608 -1.112247,-1.687834 -7.109578,2.904826 C 6.0884216,22.82748 3.3490453,24.664025 3.1645452,24.486037 2.4978953,23.842919 6.0975504,17.337342 9.2080121,13.563813 17.523273,3.4759598 31.58214,-1.5282414 44.777292,0.90306082 74.190884,6.3227282 86.037008,41.646587 65.802619,63.598307 58.717549,71.2847 47.485874,76.126753 37.200779,75.928758 35.165351,75.889574 30.788834,75.080912 27.475186,74.13173 Z M 56,56.59362 C 56,55.675944 55.299602,55.370397 53.984416,55.714326 50.910618,56.518143 50.558297,58 53.440983,58 54.973288,58 56,57.435741 56,56.59362 Z M 34,53.130919 c 0,-1.372431 2.75705,-3.333037 3.346289,-2.379629 0.288389,0.466624 -0.346548,1.392289 -1.410972,2.057033 C 34.870892,53.473066 34,53.618235 34,53.130919 Z m -1.1875,-6.814033 c 0.721875,-0.288871 1.584375,-0.253344 1.916667,0.07895 0.332291,0.332292 -0.258334,0.568641 -1.3125,0.52522 -1.164943,-0.04798 -1.4019,-0.284941 -0.604167,-0.604167 z M 0.22820663,39.440983 c 0,-0.857459 0.45,-1.280902 0.99999997,-0.940983 0.55,0.339919 1,1.041476 1,1.559017 0,0.517541 -0.45,0.940983 -1,0.940983 C 0.67820663,41 0.22820663,40.298442 0.22820663,39.440983 Z M 36.5,34 c 0.339919,-0.55 0.816476,-1 1.059017,-1 C 37.801558,33 38,33.45 38,34 38,34.55 37.523442,35 36.940983,35 36.358524,35 36.160081,34.55 36.5,34 Z"
         id="path137852" />
      <path
         sodipodi:nodetypes="sssssssssssssssssssssssssssssssssssssssssssssssssssssssssssssssssssssssssssssss"
         style="fill:#b4abaa"
         d="M 27.475186,74.13173 C 17.603333,71.303976 9.4357881,64.694863 4.9522019,55.906308 2.2726618,50.653976 2.4955468,50.248471 6,54 c 1.65,1.766331 3,3.598262 3,4.070959 0,0.472697 1.34963,2.396592 2.999177,4.275323 3.38128,3.851065 8.559327,5.561332 19.000823,6.275818 6.397046,0.437734 6.568123,0.383158 10.800962,-3.445642 C 45.825414,61.536155 51.443316,59 55.482597,59 c 1.300861,0 1.634543,-0.60689 1.298942,-2.362474 -0.301105,-1.575129 0.172881,-2.752478 1.422226,-3.532706 1.030613,-0.643629 1.616969,-1.585862 1.303013,-2.093853 -0.663977,-1.074338 -3.320231,-0.293227 -5.58793,1.643214 -0.869633,0.742601 -1.871258,1.060075 -2.225834,0.7055 -0.354575,-0.354575 -1.218057,-0.226051 -1.918848,0.28561 -0.700791,0.511662 -2.603479,1.070023 -4.228194,1.240803 -2.606466,0.273976 -2.797959,0.122458 -1.627556,-1.287792 0.729561,-0.879066 2.058873,-1.612614 2.954029,-1.630105 0.895155,-0.01749 2.501063,-0.692492 3.568685,-1.5 C 51.508751,49.660688 53.126507,49 54.036142,49 56.16162,49 59.397468,45.452134 58.538944,44.063013 58.177606,43.478356 56.960379,43 55.833994,43 54.424417,43 53.96545,42.532419 54.361626,41.5 54.678209,40.675 54.501354,40 53.968615,40 53.435877,40 53,39.55 53,39 c 0,-0.55 0.6199,-1 1.377555,-1 2.133585,0 4.004307,-2.645962 2.519513,-3.563616 -0.868328,-0.536656 -0.693775,-1.111867 0.631472,-2.080911 1.590988,-1.163359 1.118395,-1.277091 -3.598509,-0.866001 C 50.943514,31.749754 47.15,32.23518 45.5,32.568195 c -2.998837,0.605248 -2.999127,0.604845 -0.748246,-1.039289 1.238465,-0.904624 2.620695,-1.416754 3.071622,-1.138066 0.450926,0.278688 1.570733,-0.370242 2.488458,-1.442067 C 51.229559,27.876948 52.868997,27 53.955029,27 55.041061,27 56.43402,26.057543 57.050494,24.905651 57.969632,23.188226 57.795992,22.411746 56.085678,20.5912 54.938555,19.370144 54,17.67179 54,16.817081 54,15.618332 52.76151,15.234513 48.582568,15.138174 45.60298,15.069484 42.064776,14.594927 40.719892,14.083603 38.895165,13.389843 37.87902,13.549551 36.715613,14.712958 35.303566,16.125006 34.916801,16.013271 32.61338,13.527838 30.119639,10.837047 29.967404,10.807705 24.785091,12.019017 16.479288,13.960412 13.415837,15.53204 7.8831715,20.69013 3.5149813,24.762583 2.84283,25.116717 3.4990042,23 4.4712429,19.863708 9.0391632,13.181569 12.143767,10.35409 21.11248,2.1859481 33.021486,-1.2630316 44.777292,0.90306082 74.190884,6.3227282 86.037008,41.646587 65.802619,63.598307 58.717549,71.2847 47.485874,76.126753 37.200779,75.928758 35.165351,75.889574 30.788834,75.080912 27.475186,74.13173 Z M 35,66.106989 c 0,-1.013688 3.045786,-2.394536 3.743264,-1.697059 0.251354,0.251354 0.160388,0.936947 -0.202145,1.523539 C 37.74331,67.224351 35,67.358777 35,66.106989 Z m 0.510081,-15.123301 c 0.345464,-0.558971 1.047021,-0.757414 1.559017,-0.440983 C 38.456142,51.399945 38.197509,52 36.440983,52 35.583524,52 35.164618,51.54266 35.510081,50.983688 Z m 7.60592,-3.67627 C 43.052201,46.651497 42.2125,46.257062 41.25,46.430895 c -0.9625,0.173833 -2.65,-0.04538 -3.75,-0.487132 -1.919815,-0.77099 -1.912158,-0.80601 0.190983,-0.873478 1.205041,-0.03866 2.473635,-0.527625 2.819098,-1.086597 0.345464,-0.558971 1.027213,-0.769656 1.514999,-0.468188 0.487786,0.301468 2.372859,-0.07276 4.189052,-0.83161 1.961261,-0.819467 4.110997,-1.06396 5.294018,-0.602097 1.51063,0.589764 1.598641,0.794617 0.364295,0.847922 -0.895156,0.03866 -2.149201,0.698829 -2.786768,1.46705 -0.637567,0.768221 -2.00163,1.176469 -3.031252,0.907216 -1.241902,-0.324764 -2.031991,0.130741 -2.347231,1.353235 -0.261355,1.013531 -0.527392,1.306122 -0.591193,0.650202 z M 32.8125,46.316886 c 0.721875,-0.288871 1.584375,-0.253344 1.916667,0.07895 0.332291,0.332292 -0.258334,0.568641 -1.3125,0.52522 -1.164943,-0.04798 -1.4019,-0.284941 -0.604167,-0.604167 z M 0.28344462,39.393742 c 0,-0.857459 0.45,-1.280902 0.99999998,-0.940983 0.55,0.339919 1,1.041476 1,1.559017 0,0.517541 -0.45,0.940983 -1,0.940983 -0.54999998,0 -0.99999998,-0.701558 -0.99999998,-1.559017 z"
         id="path137850" />
      <path
         style="fill:#d2ac79"
         d="M 29.23015,74.508927 C 23.390769,72.871087 18.727147,70.673577 15.112907,67.856847 12.063776,65.480531 3.9903915,55.116316 4.0304087,53.62968 4.0471335,53.008356 4.519494,53.2875 5.0800988,54.25 5.6407036,55.2125 6.7520197,56 7.5496901,56 8.8031364,56 9.4858119,57.816186 9.1319461,60.209425 8.9337246,61.550022 15.503654,65.80462 19.5,66.923638 c 2.2,0.616022 7.15,1.351426 11,1.634231 l 7,0.51419 4.300962,-3.89301 C 45.825007,61.536689 51.441738,59 55.482597,59 c 1.300861,0 1.634543,-0.60689 1.298942,-2.362474 -0.301105,-1.575129 0.172881,-2.752478 1.422226,-3.532706 1.030613,-0.643629 1.616969,-1.585862 1.303013,-2.093853 -0.663977,-1.074338 -3.320231,-0.293227 -5.58793,1.643214 -0.869633,0.742601 -1.871258,1.060075 -2.225834,0.7055 -0.354575,-0.354575 -1.218057,-0.226051 -1.918848,0.28561 -0.700791,0.511662 -2.603479,1.070023 -4.228194,1.240803 -2.606466,0.273976 -2.797959,0.122458 -1.627556,-1.287792 0.729561,-0.879066 2.058873,-1.612614 2.954029,-1.630105 0.895155,-0.01749 2.501063,-0.692492 3.568685,-1.5 C 51.508751,49.660688 53.126507,49 54.036142,49 56.16162,49 59.397468,45.452134 58.538944,44.063013 58.177606,43.478356 56.960379,43 55.833994,43 54.424417,43 53.96545,42.532419 54.361626,41.5 54.678209,40.675 54.501354,40 53.968615,40 53.435877,40 53,39.55 53,39 c 0,-0.55 0.6199,-1 1.377555,-1 2.133585,0 4.004307,-2.645962 2.519513,-3.563616 -0.868328,-0.536656 -0.693775,-1.111867 0.631472,-2.080911 1.590988,-1.163359 1.118395,-1.277091 -3.598509,-0.866001 C 50.943514,31.749754 47.15,32.23518 45.5,32.568195 c -2.998837,0.605248 -2.999127,0.604845 -0.748246,-1.039289 1.238465,-0.904624 2.620695,-1.416754 3.071622,-1.138066 0.450926,0.278688 1.570733,-0.370242 2.488458,-1.442067 C 51.229559,27.876948 52.868997,27 53.955029,27 55.041061,27 56.43402,26.057543 57.050494,24.905651 57.969632,23.188226 57.795992,22.411746 56.085678,20.5912 54.938555,19.370144 54,17.67179 54,16.817081 c 0,-1.198749 -1.23849,-1.582568 -5.417432,-1.678907 -2.979588,-0.06869 -6.517792,-0.543247 -7.862676,-1.054571 -1.824727,-0.69376 -2.840872,-0.534052 -4.004279,0.629355 -1.412047,1.412048 -1.798812,1.300313 -4.102233,-1.18512 -2.493741,-2.690791 -2.645976,-2.720133 -7.828289,-1.508821 -7.668823,1.792508 -10.748446,3.240791 -15.6689604,7.36879 C 6.7050024,21.41059 4.5096125,22.842946 4.2374862,22.57082 3.96536,22.298693 5.1966513,19.810275 6.9736891,17.041002 12.476027,8.4663519 21.090555,2.9542407 32.183304,0.9103213 45.244561,-1.4963099 59.865784,4.4246077 68.211324,15.5 80.66987,32.033774 77.237635,55.50321 60.5,68.229616 52.032368,74.667952 39.074376,77.270052 29.23015,74.508927 Z M 35,66.106989 c 0,-1.013688 3.045786,-2.394536 3.743264,-1.697059 0.251354,0.251354 0.160388,0.936947 -0.202145,1.523539 C 37.74331,67.224351 35,67.358777 35,66.106989 Z m 0.510081,-15.123301 c 0.345464,-0.558971 1.047021,-0.757414 1.559017,-0.440983 C 38.456142,51.399945 38.197509,52 36.440983,52 35.583524,52 35.164618,51.54266 35.510081,50.983688 Z m 7.60592,-3.67627 C 43.052201,46.651497 42.2125,46.257062 41.25,46.430895 c -0.9625,0.173833 -2.65,-0.04538 -3.75,-0.487132 -1.919815,-0.77099 -1.912158,-0.80601 0.190983,-0.873478 1.205041,-0.03866 2.473635,-0.527625 2.819098,-1.086597 0.345464,-0.558971 1.027213,-0.769656 1.514999,-0.468188 0.487786,0.301468 2.372859,-0.07276 4.189052,-0.83161 1.961261,-0.819467 4.110997,-1.06396 5.294018,-0.602097 1.51063,0.589764 1.598641,0.794617 0.364295,0.847922 -0.895156,0.03866 -2.149201,0.698829 -2.786768,1.46705 -0.637567,0.768221 -2.00163,1.176469 -3.031252,0.907216 -1.241902,-0.324764 -2.031991,0.130741 -2.347231,1.353235 -0.261355,1.013531 -0.527392,1.306122 -0.591193,0.650202 z M 32.8125,46.316886 c 0.721875,-0.288871 1.584375,-0.253344 1.916667,0.07895 0.332291,0.332292 -0.258334,0.568641 -1.3125,0.52522 -1.164943,-0.04798 -1.4019,-0.284941 -0.604167,-0.604167 z"
         id="path137848" />
      <path
         sodipodi:nodetypes="sssssssscssssssssssssssscsssssssssssssssssss"
         style="fill:#baa38f"
         d="M 29.23015,74.508927 C 23.390769,72.871087 18.8501,69.642863 14.565733,68.017781 11.355668,66.800187 3.4432172,55.27725 3.4832344,53.790614 3.4999592,53.16929 4.519494,53.2875 5.0800988,54.25 5.6407036,55.2125 6.7520197,56 7.5496901,56 8.8031364,56 9.4858119,57.816186 9.1319461,60.209425 8.9337246,61.550022 15.503654,65.80462 19.5,66.923638 c 2.2,0.616022 7.15,1.351426 11,1.634231 l 7,0.51419 4.300962,-3.89301 C 45.825007,61.536689 51.441738,59 55.482597,59 c 1.300861,0 1.634543,-0.60689 1.298942,-2.362474 -0.301105,-1.575129 0.172881,-2.752478 1.422226,-3.532706 1.030613,-0.643629 1.616969,-1.585862 1.303013,-2.093853 -0.692706,-1.120822 -3.33318,-0.274842 -5.902287,1.891033 -1.810702,1.526504 -1.839213,1.490847 -0.637235,-0.796963 0.692051,-1.317229 2.40464,-3.381024 3.805753,-4.586211 C 59.413562,45.247519 59.154638,43 56.252422,43 c -1.323281,0 -1.218217,-0.383211 0.559017,-2.038955 2.598355,-2.420736 2.650052,-2.857163 0.672828,-5.680044 -1.374081,-1.961775 -1.350717,-2.265373 0.25,-3.248617 1.409029,-0.865499 1.029225,-0.982767 -1.880082,-0.580496 -2.557836,0.353674 -4.030739,0.0403 -4.935698,-1.050105 -1.060728,-1.278099 -1.034823,-1.715609 0.145815,-2.462686 0.789634,-0.499659 2.207365,-0.915362 3.150514,-0.923784 0.943149,-0.0084 2.219204,-0.95777 2.835678,-2.109662 C 57.969632,23.188226 57.795992,22.411746 56.085678,20.5912 54.938555,19.370144 54,17.67179 54,16.817081 c 0,-1.198749 -1.23849,-1.582568 -5.417432,-1.678907 -2.979588,-0.06869 -6.517792,-0.543247 -7.862676,-1.054571 -1.824727,-0.69376 -2.840872,-0.534052 -4.004279,0.629355 -1.412047,1.412048 -1.798812,1.300313 -4.102233,-1.18512 -2.493741,-2.690791 -2.645976,-2.720133 -7.828289,-1.508821 -7.668823,1.792508 -10.748446,3.240791 -15.6689604,7.36879 C 6.7050024,21.41059 4.5096125,22.842946 4.2374862,22.57082 3.96536,22.298693 5.1966513,19.810275 6.9736891,17.041002 12.476027,8.4663519 21.090555,2.9542407 32.183304,0.9103213 45.244561,-1.4963099 59.865784,4.4246077 68.211324,15.5 80.66987,32.033774 77.237635,55.50321 60.5,68.229616 52.032368,74.667952 39.074376,77.270052 29.23015,74.508927 Z M 35,66.106989 c 0,-1.013688 3.045786,-2.394536 3.743264,-1.697059 0.251354,0.251354 0.160388,0.936947 -0.202145,1.523539 C 37.74331,67.224351 35,67.358777 35,66.106989 Z"
         id="path137846" />
      <path
         style="fill:#ae9788"
         d="m 29.5,74.535925 c -2.75,-0.796213 -5.364058,-1.467519 -5.809017,-1.491792 -0.444959,-0.02427 -0.534087,-0.488979 -0.198062,-1.032679 0.336025,-0.5437 0.01581,-0.760169 -0.711578,-0.481042 C 21.466855,72.034828 13,67.154841 13,65.892802 c 0,-0.363175 2.5875,0.375831 5.75,1.642235 12.63797,5.060802 22.00858,4.136107 28.315835,-2.794215 2.231868,-2.452345 4.850545,-4.180841 7,-4.620451 C 56.570358,59.608141 57.5,58.887699 57.5,57.459005 c 0,-1.077453 1.090363,-2.716577 2.423029,-3.642499 3.471535,-2.411984 4.32958,-4.36197 2.564111,-5.827179 -2.208238,-1.832675 -1.800986,-3.983742 0.76286,-4.029365 2.164188,-0.03851 2.149641,-0.09457 -0.381426,-1.46981 C 60.271969,41.0793 58.251909,38 59.922977,38 61.081819,38 62.140369,33.529372 61.423724,31.661823 61.043648,30.671361 59.8595,30.289978 57.924616,30.534852 54.102979,31.018508 54.130092,29.207607 58,25.5 c 1.65,-1.5808 3,-3.164991 3,-3.520425 0,-0.355433 -1.654949,-2.301191 -3.677665,-4.323907 -2.515583,-2.515583 -4.253494,-3.494905 -5.5,-3.099279 C 50.820051,14.874501 50,14.702596 50,14.174376 c 0,-0.528219 -0.698372,-1.228389 -1.551938,-1.555933 -0.853566,-0.327544 -1.29384,-0.177923 -0.978387,0.332491 0.315453,0.510413 -0.305,0.861845 -1.378784,0.780959 -1.073784,-0.08089 -1.767801,-0.445646 -1.54226,-0.810579 C 44.950141,12.271657 38.210736,10.861401 34.75,10.870899 33.7875,10.873541 33,10.401246 33,9.8213541 33,9.1161203 30.789526,9.0037277 26.324224,9.481921 19.051752,10.260737 14.243904,12.671415 7.6077312,18.866462 L 3.7154623,22.5 5.6077312,19.048046 C 10.582718,9.9724706 20.786391,3.0102852 32.192619,0.90860503 45.24398,-1.4962028 59.868571,4.4283074 68.211324,15.5 80.66987,32.033774 77.237635,55.50321 60.5,68.229616 c -8.405682,6.391233 -21.503773,9.055769 -31,6.306309 z m 6.3125,-9.219039 c 0.721875,-0.288871 1.584375,-0.253344 1.916667,0.07895 0.332291,0.332292 -0.258334,0.568641 -1.3125,0.52522 -1.164943,-0.04798 -1.4019,-0.284941 -0.604167,-0.604167 z m 21,-24 c 0.721875,-0.288871 1.584375,-0.253344 1.916667,0.07895 0.332291,0.332292 -0.258334,0.568641 -1.3125,0.52522 -1.164943,-0.04798 -1.4019,-0.284941 -0.604167,-0.604167 z"
         id="path137844" />
      <path
         style="fill:#aa907a"
         d="M 28.423605,74.117611 C 23.287172,72.646854 15,68.575803 15,67.523301 c 0,-0.172469 2.8125,0.57352 6.25,1.657753 8.010168,2.526512 15.719963,2.490602 23.141154,-0.107786 C 50.588739,66.903303 53,65.413735 53,63.755111 53,63.197284 52.33674,63.305567 51.5,64 50.286231,65.007339 50,64.973458 50,63.822445 c 0,-2.289781 2.154628,-3.939004 3.589905,-2.747831 1.478328,1.226904 5.538807,-2.575621 4.801653,-4.496614 -0.253818,-0.661439 0.791747,-1.834976 2.323477,-2.607861 C 63.727359,52.450172 67.919608,48.116742 67.941801,46.5 67.949351,45.95 67.075541,46.625 66,48 64.415167,50.026093 64.040257,50.168265 64.022236,48.75 64.010006,47.7875 63.55,47 63,47 c -0.55,0 -1,-0.723145 -1,-1.606989 0,-1.00201 0.552644,-1.394919 1.467975,-1.043674 0.807386,0.309823 1.71999,0.155546 2.028008,-0.342838 0.652201,-1.055283 -2.937799,-3.23135 -3.840961,-2.328187 -1.394174,1.394173 -1.756965,-2.875475 -0.419415,-4.936032 0.800531,-1.233254 1.693338,-3.509759 1.984015,-5.058901 0.523291,-2.788835 0.48911,-2.809965 -3.464913,-2.141937 -3.091424,0.522292 -3.893246,0.374168 -3.549924,-0.655796 0.243921,-0.731764 1.53513,-1.593171 2.869354,-1.914239 2.132722,-0.513218 2.38819,-1.060327 2.114113,-4.527583 -0.363386,-4.59708 -2.771996,-7.087507 -7.759608,-8.023188 C 51.54289,14.066866 50,13.377499 50,12.888709 50,12.399919 49.085877,12 47.968615,12 46.851354,12 45.665363,11.291524 45.33308,10.425609 44.90897,9.3203963 43.995799,9.0352222 42.268811,9.4686686 40.915746,9.8082663 39.175229,9.5603906 38.400996,8.9178338 37.473721,8.1482642 34.1525,7.8986524 28.669413,8.1864409 19.514397,8.6669564 15.772863,10.292563 8.6018465,16.905317 L 4.703693,20.5 7.781102,15.922648 C 13.070855,8.0546464 21.484599,2.8816352 32.204562,0.90640435 44.189969,-1.3019936 58.410396,3.8201519 66.48572,13.254351 c 15.988218,18.678638 10.461164,47.17683 -11.272635,58.123131 -4.99488,2.515688 -13.519983,4.669776 -18.012306,4.551276 -1.485428,-0.03918 -5.435157,-0.8542 -8.777174,-1.811147 z"
         id="path137842" />
      <path
         sodipodi:nodetypes="sssssssssssssssssssssssssscssssss"
         style="fill:#978c8a"
         d="M 28.423605,74.117611 C 23.230277,72.630562 15,68.572492 15,67.498886 c 0,-0.185898 1.8,0.369065 4,1.233249 2.2,0.864185 4.000031,1.840484 4.000069,2.169555 3.8e-5,0.32907 3.107822,0.724013 6.906188,0.87765 5.368202,0.217135 8.589313,-0.301919 14.464615,-2.330843 4.157173,-1.435601 8.024388,-2.322247 8.593812,-1.970323 C 53.56729,67.850604 54,67.126688 54,65.746108 54,64.416009 55.317697,62.111748 57,60.5 58.65,58.9192 60,57.260009 60,56.812909 60,56.365809 61.8,54.2 64,52 c 2.2,-2.2 4,-4.40241 4,-4.894245 0,-0.491834 -1.326987,-2.314789 -2.94886,-4.051009 -2.106374,-2.254881 -2.5695,-3.302338 -1.62103,-3.6663 0.821567,-0.315265 1.207678,-1.725579 1.012696,-3.698991 -0.173323,-1.7542 -0.343859,-4.019084 -0.37897,-5.033075 -0.03511,-1.01399 -0.974319,-2.081716 -2.087132,-2.372723 -1.920624,-0.502255 -1.93331,-0.60218 -0.25,-1.969201 1.292841,-1.04992 1.432934,-1.581688 0.517065,-1.962687 -0.690926,-0.287424 -1.025207,-0.896393 -0.742846,-1.353263 1.265928,-2.048315 -1.704662,-6.123484 -5.976625,-8.198964 C 53.035934,13.590602 51,12.241138 51,11.800734 51,11.36033 50.1551,11 49.122445,11 48.089789,11 46.71194,10.357835 46.060557,9.5729663 44.294153,7.4445806 32.727461,6.5202558 25.204923,7.9063379 17.97281,9.238907 15.382264,10.609868 9.1044134,16.426998 L 4.7088269,20.5 7.6338266,15.847727 C 12.677707,7.8253289 21.595511,1.9453915 32.204562,0.90640435 44.333701,-0.2814511 58.410396,3.8201519 66.48572,13.254351 c 15.988218,18.678638 10.461164,47.17683 -11.272635,58.123131 -4.99488,2.515688 -13.519983,4.669776 -18.012306,4.551276 -1.485428,-0.03918 -5.435157,-0.8542 -8.777174,-1.811147 z"
         id="path137840" />
      <path
         style="fill:#988477"
         d="m 33.073336,75.312079 c -1.334665,-0.273615 -3.452376,-1.169555 -4.706024,-1.990976 -1.253648,-0.821422 -2.818678,-1.160178 -3.477844,-0.75279 -0.71995,0.444953 -0.936995,0.317605 -0.543588,-0.318942 0.400846,-0.648583 2.88531,-0.861495 6.404508,-0.548849 4.529197,0.402374 7.297048,-0.03234 13.039882,-2.048025 4.009649,-1.407352 7.947149,-2.306753 8.75,-1.99867 C 53.572082,68.04977 54,67.504587 54,65.79408 54,64.410679 55.284967,62.143106 57,60.5 c 1.65,-1.5808 3,-3.43955 3,-4.130555 0,-0.691005 1.289006,-2.017808 2.864459,-2.94845 1.575452,-0.930643 3.57505,-2.895013 4.443551,-4.365268 1.5357,-2.599733 1.483151,-2.761242 -1.912308,-5.877482 -2.567113,-2.356011 -3.113676,-3.349238 -2.064582,-3.751813 0.925969,-0.355328 1.316199,-1.667101 1.111686,-3.736977 -0.173323,-1.7542 -0.343859,-4.019084 -0.37897,-5.033075 -0.03511,-1.01399 -0.974319,-2.081716 -2.087132,-2.372723 -1.915665,-0.500958 -1.928964,-0.601358 -0.25,-1.887377 C 62.831319,25.550189 63.122916,24.748028 62.5,24.269003 61.95,23.846051 61.379289,22.411215 61.231753,21.080477 60.864279,17.765951 59.280489,16.096035 54.806619,14.305948 52.712979,13.468239 51,12.381701 51,11.89142 51,11.401139 50.247933,11 49.328741,11 48.409548,11 46.891881,10.307141 45.956146,9.4603128 44.849894,8.4591688 41.324609,7.7168455 35.877405,7.3380209 26.394444,6.6785306 18.880192,8.3558325 13.610899,12.308264 7.9408232,16.561318 7.4473793,16.343761 12,11.598027 20.142642,3.1099899 32.639173,-1.0811566 43.75,0.94955914 60.855554,4.0759256 72.291974,15.838557 75.181763,33.27788 77.829022,49.253575 67.236154,66.966169 51.482422,72.906127 46.098266,74.936228 37.024555,76.122105 33.073336,75.312079 Z M 18.5,70 C 15.078817,67.73424 15.373879,67.53717 19.850777,69.097825 21.58285,69.701629 23,70.601629 23,71.097825 23,72.474741 21.791596,72.179938 18.5,70 Z"
         id="path137838" />
      <path
         sodipodi:nodetypes="sssssssssssssssssssssssssssssss"
         style="fill:#88766e"
         d="m 33.5,75.067541 c -3.436275,-0.862911 -2.990625,-1.105242 6.5,-3.534498 12.574171,-3.218533 15,-3.995221 15,-4.80261 0,-1.121725 1.814979,-3.327031 6.377801,-7.749405 2.132791,-2.067141 3.591003,-4.222487 3.240472,-4.789658 -0.350531,-0.567171 0.403381,-1.854754 1.67536,-2.861295 3.873974,-3.065549 4.045263,-5.133283 0.679867,-8.207098 -1.656631,-1.513098 -2.672374,-3.090769 -2.257208,-3.505936 0.415167,-0.415167 0.820213,-2.054538 0.900104,-3.643047 0.07989,-1.58851 0.441851,-4.069933 0.804358,-5.514275 0.52753,-2.101848 0.256654,-2.731318 -1.356934,-3.153281 -1.629105,-0.42602 -1.821943,-0.889873 -1.004745,-2.416822 C 64.627107,23.82824 64.671424,23 64.160184,23 63.659583,23 62.980369,21.651843 62.650819,20.004095 62.197577,17.737886 60.644853,16.109497 56.275819,13.318437 53.099119,11.289072 49.937771,9.0696439 49.250603,8.3863734 47.741812,6.8861409 38.765802,5.6151049 30.334896,5.7078399 25.903285,5.7565851 22.54907,6.5176436 18.405754,8.4145163 c -5.078805,2.3251547 -5.548532,2.4007327 -3.951249,0.6357551 0.997034,-1.1017099 2.107144,-2.5739463 2.583638,-2.2794566 0.476494,0.2944896 0.866353,0.042886 0.866353,-0.5591187 0,-1.4870471 7.415127,-5.29152888 14.702248,-5.81608107 C 39.527649,-0.1025756 48.968808,-0.32311143 56.137794,4.3737116 65.62878,10.591813 73.040161,20.353724 75.159348,33.142607 77.82918,49.254527 67.282584,66.972067 51.5,72.888647 45.484124,75.14388 37.603022,76.097885 33.5,75.067541 Z M 20,71 c -0.825,-0.533156 -1.05,-0.969374 -0.5,-0.969374 0.55,0 1.675,0.436218 2.5,0.969374 0.825,0.533156 1.05,0.969374 0.5,0.969374 -0.55,0 -1.675,-0.436218 -2.5,-0.969374 z"
         id="path137836" />
      <path
         sodipodi:nodetypes="ssssssssssssssssss"
         style="fill:#776764"
         d="M 35.080799,75.531168 C 33.061651,74.95036 32.629151,74.155465 37.370568,73.522781 44.686734,72.546528 53.021295,69.586529 55,67.26173 c 0.825,-0.9693 2.750129,-2.320828 4.278065,-3.003395 1.527936,-0.682568 3.072547,-2.032425 3.432469,-2.999683 0.711526,-1.912162 4.368347,-7.439889 5.476905,-8.279004 C 71.08413,50.787018 71.366256,42 68.539965,42 c -2.303951,0 -2.735274,-1.772287 -1.055314,-4.33623 1.845324,-2.816321 1.739779,-8.481975 -0.200981,-10.788611 -0.75191,-0.893662 -1.256092,-2.018662 -1.120404,-2.5 C 66.959082,21.552087 63.490229,15.821377 59.058231,12.637303 54.764092,9.5522712 48.357101,5.752283 47,5.4855626 33.688808,2.8694222 31.587128,2.6956168 27.259569,3.8530623 20.868848,5.5623196 20.816363,4.5560424 27.185217,2.4275501 45.428846,-3.6695309 65.927406,6.478391 73.225369,25.219973 76.121775,32.65811 76.018795,43.542837 72.976733,51.5 69.722669,60.011701 59.226327,68.475481 51.5,72.733132 45.021238,76.303303 38.713137,76.576009 35.080799,75.531168 Z"
         id="path137834" />
      <path
         sodipodi:nodetypes="ssssssssssssssssss"
         style="fill:#70615e"
         d="M 46.671643,73.17667 C 53.03882,70.906431 57.258952,68.22801 56.472848,66.956068 56.147863,66.430231 56.810822,66 57.946091,66 60.560888,66 69.561179,54.096359 71.067989,48.645185 72.32437,44.099991 71.733942,42.004691 68.994953,41.288429 66.839397,40.724739 66.398702,39.489657 68,38.5 c 0.55,-0.339919 1.038679,-0.02898 1.085953,0.690983 0.04727,0.719959 0.474186,0.01233 0.948693,-1.572515 1.023137,-3.417249 0.293592,-8.202249 -1.749591,-11.47537 -1.06437,-1.705091 -1.16895,-2.659203 -0.378153,-3.45 1.796014,-1.796014 1.329703,-2.698671 -4.03963,-7.819688 C 57.32984,8.6383161 46.49467,3.3040182 38,2.1386097 33.205321,1.4808137 32.41825,1.1866734 35,1.0174652 c 6.205047,-0.40667947 9.680348,-1.11565115 16.309665,1.12467 5.18695,1.7528856 8.037145,4.316947 13.362063,8.8499658 12.622571,10.745396 13.396973,27.786919 8.322269,42.782062 -3.416036,10.093981 -17.443179,20.242966 -27.22304,21.696921 -3.832127,0.569717 -4.053912,-0.527835 0.900686,-2.294414 z"
         id="path137832" />
      <path
         style="fill:#695b5a"
         d="m 47.895766,72.980708 c 2.417671,-1.11238 4.61758,-1.800695 4.888688,-1.529587 0.51841,0.518409 -2.56993,1.846233 -6.784454,2.916958 -1.375,0.349327 -0.521905,-0.27499 1.895766,-1.387371 z m 10.837567,-5.104796 c 0.678334,-0.683418 1.485241,-0.990671 1.793128,-0.682784 0.307888,0.307887 -0.247112,0.867048 -1.233333,1.242579 -1.425198,0.542685 -1.540062,0.427821 -0.559795,-0.559795 z m 8.83096,-9.16904 c 0.375531,-0.986221 0.934692,-1.541221 1.242579,-1.233333 0.307887,0.307887 6.34e-4,1.114794 -0.682784,1.793128 -0.987616,0.980267 -1.10248,0.865403 -0.559795,-0.559795 z m 2.310368,-2.165544 c -0.324478,-0.324478 0.245982,-3.12387 1.267689,-6.22087 1.021708,-3.097001 1.796368,-7.248558 1.721468,-9.225684 -0.08942,-2.360492 -0.285649,-2.817134 -0.571495,-1.329943 -0.239421,1.245657 -0.853139,2.006599 -1.363817,1.690983 C 69.45341,40.544155 69.851669,36.99415 71.5,36.361626 74.280465,35.294662 72.753367,27.707988 69.354015,25.70031 68.609307,25.26048 68,24.41788 68,23.827865 68,23.140697 68.539153,23.202568 69.5,24 c 1.923247,1.596153 1.898955,0.672174 -0.0831,-3.160692 -1.214499,-2.348582 -1.272804,-2.957942 -0.250416,-2.617146 1.545835,0.515279 4.612241,8.281033 5.819975,14.739241 0.469239,2.5092 0.431519,6.962541 -0.0862,10.177298 -0.993357,6.168183 -4.065918,14.362308 -5.025599,13.402627 z m -9.063874,-45.8764 c -1.479067,-1.1907102 -3.729067,-2.9323861 -5,-3.8703904 -1.719635,-1.2691665 -1.90572,-1.7168561 -0.727397,-1.75 0.870865,-0.024496 3.345865,1.485511 5.5,3.3555703 4.320397,3.7506451 4.518022,5.7189531 0.227397,2.2648201 z"
         id="path137830" />
    </g>
  </g>
</svg>
