<?xml version="1.0" encoding="UTF-8" standalone="no"?>
<svg
   xmlns:dc="http://purl.org/dc/elements/1.1/"
   xmlns:cc="http://creativecommons.org/ns#"
   xmlns:rdf="http://www.w3.org/1999/02/22-rdf-syntax-ns#"
   xmlns:svg="http://www.w3.org/2000/svg"
   xmlns="http://www.w3.org/2000/svg"
   xmlns:sodipodi="http://sodipodi.sourceforge.net/DTD/sodipodi-0.dtd"
   xmlns:inkscape="http://www.inkscape.org/namespaces/inkscape"
   version="1.1"
   id="svg833"
   width="76"
   height="76"
   viewBox="0 0 76 76"
   sodipodi:docname="mar.svg"
   inkscape:version="1.0 (4035a4f, 2020-05-01)">
  <metadata
     id="metadata839">
    <rdf:RDF>
      <cc:Work
         rdf:about="">
        <dc:format>image/svg+xml</dc:format>
        <dc:type
           rdf:resource="http://purl.org/dc/dcmitype/StillImage" />
        <dc:title />
      </cc:Work>
    </rdf:RDF>
  </metadata>
  <defs
     id="defs837" />
  <sodipodi:namedview
     inkscape:document-rotation="0"
     pagecolor="#ffffff"
     bordercolor="#666666"
     borderopacity="1"
     objecttolerance="10"
     gridtolerance="10"
     guidetolerance="10"
     inkscape:pageopacity="0"
     inkscape:pageshadow="2"
     inkscape:window-width="1377"
     inkscape:window-height="683"
     id="namedview835"
     showgrid="false"
     inkscape:zoom="11.016654"
     inkscape:cx="26.828779"
     inkscape:cy="42.481851"
     inkscape:window-x="104"
     inkscape:window-y="23"
     inkscape:window-maximized="0"
     inkscape:current-layer="g845" />
  <g
     inkscape:groupmode="layer"
     inkscape:label="Image"
     id="g841">
    <g
       id="g845"
       style="opacity:1">
      <path
         sodipodi:nodetypes="sscsssssscsss"
         style="fill:#faf3da"
         d="m 32.713846,50.983688 c -0.345464,-0.558971 1.467146,0.05106 0.993154,0.344003 -0.473992,0.292943 -3.670499,-0.821891 -4.068483,-1.465888 -0.494869,-0.800714 1.124935,-0.752756 2.085468,-0.173864 1.193311,0.719183 -0.20506,0.443212 -1.363366,-0.98497 -0.749819,-0.924521 0.07861,0.760743 -0.335563,1.016717 -1.383604,0.855115 -5.528304,-5.174342 -6.143181,-9.23966 -0.693716,-4.586568 2.311157,-12.82549 3.947455,-12.471654 0.60535,0.130902 -0.923401,2.326517 -1.224092,1.542927 -0.732333,-1.908428 6.858872,-5.552491 11.556517,-5.547561 1.959194,0.0021 5.028784,0.897943 6.821311,1.99086 9.915417,6.045504 9.401993,19.209345 -0.95948,24.600416 -3.129234,1.62814 -10.389505,1.877648 -11.30974,0.388674 z"
         id="path917" />
      <path
         style="fill:#f6ecd6"
         d="m 32.122197,50.474054 c -0.679663,-0.818944 -1.704292,-1.199415 -2.276953,-0.845491 -0.605263,0.374073 -0.741972,0.159334 -0.326519,-0.512883 0.431531,-0.698233 -0.243914,-1.520839 -1.704847,-2.076285 -1.607988,-0.611356 -2.63441,-1.994306 -3.060174,-4.123127 -1.076026,-5.38013 -0.720238,-9.730774 0.930784,-11.381795 0.864285,-0.864286 1.259185,-1.571429 0.877555,-1.571429 -1.618583,0 2.170714,-3.232086 5.343534,-4.557775 4.752087,-1.985549 9.108474,-1.799969 12.966622,0.552373 9.915417,6.045504 9.401993,19.209345 -0.95948,24.600416 -3.566893,1.855853 -10.219923,1.808452 -11.790522,-0.084 z"
         id="path915" />
      <path
         style="fill:#f6e7c7"
         d="m 29.056809,47.133616 c -4.475246,-4.405212 -4.94375,-5.293894 -4.94375,-9.377555 0,-2.789979 0.57231,-4.986147 1.5,-5.756061 0.825,-0.684689 1.5,-1.854287 1.5,-2.599106 0,-1.812472 7.606689,-5.401833 11.437829,-5.397156 6.639252,0.0081 13.554695,7.14883 13.554695,13.996262 0,7.190317 -6.945669,13.989041 -14.298774,13.996262 -3.212004,0.0032 -4.578086,-0.75602 -8.75,-4.862646 z"
         id="path913" />
      <path
         style="fill:#f7e3bb"
         d="m 29.63219,47.695609 c -2.816558,-2.898026 -4.520276,-5.661116 -4.88805,-7.927442 -0.630541,-3.885568 0.05732,-7.623998 1.402796,-7.623998 0.485853,0 0.883369,-0.675 0.883369,-1.5 0,-0.825 0.525,-1.5 1.166667,-1.5 0.641666,0 0.868659,-0.298007 0.504429,-0.662238 -0.944175,-0.944174 7.034928,-4.338487 10.188108,-4.334024 6.237758,0.0088 13.13332,7.357474 13.13332,13.996262 0,7.181963 -6.944971,13.989022 -14.279828,13.996262 -3.169941,0.0031 -4.492075,-0.721417 -8.110811,-4.444822 z"
         id="path911" />
      <path
         style="fill:#e7caa5"
         d="m 34.857514,51.001369 c -1.189133,-0.479522 -2.459031,-1.807532 -2.821996,-2.951134 -0.362965,-1.143602 -1.057769,-1.833403 -1.544008,-1.53289 -1.467995,0.90727 -4.40971,-4.59914 -4.689542,-8.778058 -0.224895,-3.358489 0.276568,-4.466569 3.517667,-7.772984 4.418732,-4.507779 8.276115,-6.220473 12.019337,-5.336637 13.671705,3.228113 14.475317,22.55746 1.097332,26.394216 -3.983977,1.142589 -4.694772,1.140478 -7.57879,-0.02251 z"
         id="path903" />
      <path
         style="fill:#d6c5af"
         d="m 33.25486,49 c -1.65,-1.65 -3.360791,-3 -3.801757,-3 -1.208032,0 -3.158289,-5.301014 -3.259468,-8.859593 -0.06106,-2.147429 0.670967,-3.801213 2.312871,-5.225229 1.32121,-1.145879 2.4022,-2.486897 2.4022,-2.98004 0,-1.831542 4.851377,-4.207865 8.590557,-4.207865 5.312344,0 10.5034,4.051083 11.916726,9.299774 2.067472,7.678004 -1.79799,14.905355 -9.090553,16.996835 C 37.31135,52.461902 36.545991,52.291131 33.25486,49 Z"
         id="path901" />
      <path
         style="fill:#e7c59a"
         d="m 32.817797,48.463044 c -1.375,-1.375 -2.874951,-2.5 -3.333225,-2.5 -1.234717,0 -3.188594,-5.260069 -3.290937,-8.859593 -0.06106,-2.147429 0.670967,-3.801213 2.312871,-5.225229 1.32121,-1.145879 2.4022,-2.476192 2.4022,-2.95625 0,-1.86548 4.190852,-3.896801 8.102117,-3.927125 12.123455,-0.09399 17.663716,15.518059 8.302271,23.395196 -4.24332,3.570518 -10.963934,3.604364 -14.495297,0.073 z"
         id="path899" />
      <path
         style="fill:#cab9ac"
         d="m 33.482618,49.036956 c -1.1,-1.1 -2,-2.45 -2,-3 0,-0.55 -0.644676,-1 -1.432612,-1 -1.506762,0 -2.002328,-1.179016 -3.00769,-7.155693 -0.523834,-3.114086 -0.240461,-3.950258 1.912681,-5.64392 1.390192,-1.093525 2.527621,-2.460446 2.527621,-3.037603 0,-1.903464 4.382442,-4.162784 8.074623,-4.162784 11.689037,0 16.953077,15.750238 7.829765,23.426999 -3.926834,3.304213 -10.886373,3.591016 -13.904388,0.573001 z"
         id="path897" />
      <path
         style="fill:#e1b78d"
         d="m 33.37175,49 c -1.1,-1.1 -2,-2.45 -2,-3 0,-0.55 -0.644676,-1 -1.432612,-1 -1.506762,0 -2.002328,-1.179016 -3.00769,-7.155693 -0.508602,-3.023537 -0.221085,-3.981569 1.662681,-5.5402 1.252692,-1.036478 2.774234,-2.766416 3.381206,-3.844307 2.631627,-4.673374 11.840362,-4.337071 16.453087,0.600868 C 56.119663,37.294168 50.369438,51 39.223867,51 36.705083,51 34.67949,50.30774 33.37175,49 Z"
         id="path895" />
      <path
         style="fill:#d8b696"
         d="m 33.519574,49 c -1.1,-1.1 -2,-2.45 -2,-3 0,-0.55 -0.701558,-1 -1.559017,-1 -0.857459,0 -1.300119,-0.418906 -0.983688,-0.930902 0.316431,-0.511996 0.117988,-1.213553 -0.440983,-1.559017 -2.196425,-1.357465 -1.075699,-7.674977 2.018467,-11.378066 1.669129,-1.997608 3.486871,-4.194515 4.039427,-4.882015 1.321456,-1.64418 6.175295,-1.590418 10.253509,0.113568 8.729551,3.647439 9.786733,16.964569 1.774402,22.351804 C 42.279689,51.634795 36.284605,51.765031 33.519574,49 Z m -3,-15 c 0,-0.55 -0.198442,-1 -0.440983,-1 -0.242541,0 -0.719098,0.45 -1.059017,1 -0.339919,0.55 -0.141476,1 0.440983,1 0.582459,0 1.059017,-0.45 1.059017,-1 z"
         id="path893" />
      <path
         style="fill:#d5a885"
         d="M 33.840884,46.729433 C 30.171643,43.398585 29.068985,41.650161 28.650925,38.5 c -0.463608,-3.493372 -0.107842,-4.481381 2.808893,-7.800669 1.836855,-2.090368 3.503888,-3.308214 3.704517,-2.706325 0.215232,0.645696 1.264105,0.256498 2.55841,-0.949331 2.650478,-2.469295 3.487066,-2.512479 7.920177,-0.40883 C 49.820352,28.617165 52,32.51393 52,38 c 0,5.241396 -2.242631,9.556989 -5.967267,11.483073 -4.610785,2.38433 -7.168189,1.806717 -12.191849,-2.75364 z M 31,34 c 0,-0.55 -0.198442,-1 -0.440983,-1 -0.242541,0 -0.719098,0.45 -1.059017,1 -0.339919,0.55 -0.141476,1 0.440983,1 C 30.523442,35 31,34.55 31,34 Z"
         id="path889" />
      <path
         style="fill:#d8a67a"
         d="m 34.208208,46.712148 c -3.861882,-3.934971 -5.797748,-7.812572 -3.0537,-6.116656 0.72104,0.445627 0.882825,0.273932 0.430902,-0.457295 -0.397984,-0.643952 -1.142512,-0.911923 -1.654508,-0.595492 -1.844918,1.140222 -0.884334,-2.134751 1.031074,-3.515299 1.429834,-1.030566 1.677711,-1.75663 0.91391,-2.676954 C 30.688115,31.919275 31.514924,30 33.319235,30 c 0.660661,0 2.414464,-1.125 3.897339,-2.5 3.178877,-2.94762 3.885079,-3.020128 8.426348,-0.865155 C 49.820352,28.617165 52,32.51393 52,38 c 0,5.241396 -2.242631,9.556989 -5.967267,11.483073 -4.772348,2.467877 -7.253703,1.886404 -11.824525,-2.770925 z"
         id="path887" />
      <path
         style="fill:#c9a186"
         d="m 34.208208,46.712148 c -3.861882,-3.934971 -5.797748,-7.812572 -3.0537,-6.116656 0.72104,0.445627 0.882825,0.273932 0.430902,-0.457295 C 31.187426,39.494245 30.442898,39.226274 29.930902,39.542705 28.063528,40.696805 29.058647,37.399248 31,36 32.1,35.207165 33,33.830128 33,32.939919 33,31.16569 39.268429,25 41.072221,25 c 2.687959,0 8.134547,3.499165 9.47183,6.085185 3.265977,6.315702 1.002485,15.54659 -4.511318,18.397888 -4.772348,2.467877 -7.253703,1.886404 -11.824525,-2.770925 z"
         id="path885" />
      <path
         style="fill:#b6a496"
         d="m 35.689505,47.954238 c -1.659395,-1.74144 -2.515267,-3.462399 -2.089675,-4.201846 0.396451,-0.688816 0.352578,-0.918796 -0.09749,-0.511068 -0.450074,0.407728 -1.422221,0.240128 -2.160326,-0.372445 C 29.793795,41.583975 29.503789,39.575291 31,40.5 c 0.55,0.339919 1,0.178976 1,-0.35765 0,-0.536626 -0.475753,-1.134268 -1.057229,-1.328093 C 29.50963,38.336543 30.88352,35 32.513369,35 c 0.804415,0 1.101371,-0.757231 0.779558,-1.987849 -0.349972,-1.338295 0.08907,-2.214279 1.343619,-2.680801 1.0249,-0.381124 2.777781,-1.736592 3.895291,-3.012151 2.419253,-2.761408 2.680945,-2.786593 7.111085,-0.684354 C 49.820352,28.617165 52,32.51393 52,38 c 0,5.241396 -2.242631,9.556989 -5.967267,11.483073 -4.292984,2.219988 -7.177265,1.793662 -10.343228,-1.528835 z M 35.447214,37.91459 c -0.321976,-0.520968 -1.011657,-0.683779 -1.532624,-0.361804 -0.520968,0.321976 -0.683779,1.011657 -0.361804,1.532624 0.321976,0.520968 1.011657,0.683779 1.532624,0.361804 0.520968,-0.321976 0.683779,-1.011657 0.361804,-1.532624 z"
         id="path883" />
      <path
         style="fill:#c89b85"
         d="m 39.027756,49.886625 c -3.377167,-1.347733 -6.283145,-4.645821 -5.418447,-6.149571 0.391238,-0.68038 0.343099,-0.903458 -0.106974,-0.49573 -0.450074,0.407728 -1.422221,0.240128 -2.160326,-0.372445 C 29.793795,41.583975 29.503789,39.575291 31,40.5 c 0.55,0.339919 1,0.178976 1,-0.35765 0,-0.536626 -0.475753,-1.134268 -1.057229,-1.328093 C 29.50963,38.336543 30.88352,35 32.513369,35 c 0.804415,0 1.101371,-0.757231 0.779558,-1.987849 -0.349972,-1.338295 0.08907,-2.214279 1.343619,-2.680801 1.0249,-0.381124 2.801257,-1.763913 3.94746,-3.072865 2.720584,-3.106876 6.306707,-2.285923 10.405209,2.382012 5.378148,6.125373 3.632879,16.412824 -3.346293,19.724658 -1.894849,0.899165 -3.602172,1.606321 -3.794051,1.571459 -0.191879,-0.03486 -1.461381,-0.507358 -2.821115,-1.049989 z M 36,38.5 C 36,37.675 35.576558,37 35.059017,37 33.798039,37 32.894922,38.561589 33.693853,39.36052 34.820037,40.486704 36,40.04641 36,38.5 Z M 39,38 c 0,-0.55 -0.476558,-1 -1.059017,-1 -0.582459,0 -0.780902,0.45 -0.440983,1 0.339919,0.55 0.816476,1 1.059017,1 C 38.801558,39 39,38.55 39,38 Z"
         id="path881" />
      <path
         style="fill:#c9987a"
         d="M 39.301143,49.987757 C 37.113398,49.106761 35.314804,47.497864 31.5,43.009396 30.4,41.715144 29.95,40.905728 30.5,41.210693 32.106181,42.101289 36,40.205022 36,38.532224 36,37.564518 35.078923,37 33.5,37 32.125,37 31,37.525 31,38.166667 31,38.808333 30.764408,39.097741 30.476461,38.809795 29.26712,37.600453 31.35992,34.860859 33.137906,35.325812 34.162058,35.593634 35,35.40489 35,34.90638 35,34.407871 34.55,34 34,34 c -1.708152,0 -1.096601,-3.026922 0.75,-3.712186 0.9625,-0.357179 2.687803,-1.720377 3.834006,-3.029329 2.720584,-3.106876 6.306707,-2.285923 10.405209,2.382012 5.378148,6.125373 3.632879,16.412824 -3.346293,19.724658 -1.894849,0.899165 -3.602172,1.606321 -3.794051,1.571459 -0.191879,-0.03486 -1.338356,-0.461848 -2.547728,-0.948857 z M 34,43 c 0,-0.55 -0.476558,-1 -1.059017,-1 -0.582459,0 -0.780902,0.45 -0.440983,1 0.339919,0.55 0.816476,1 1.059017,1 C 33.801558,44 34,43.55 34,43 Z m 5,-5 c 0,-0.55 -0.476558,-1 -1.059017,-1 -0.582459,0 -0.780902,0.45 -0.440983,1 0.339919,0.55 0.816476,1 1.059017,1 C 38.801558,39 39,38.55 39,38 Z"
         id="path879" />
      <path
         style="fill:#b19686"
         d="m 38.901388,49.888182 c -3.6858,-1.353019 -6.926517,-8.280826 -4.338246,-9.274038 1.467124,-0.562988 2.046765,-3.61357 0.686858,-3.61485 -0.4125,-3.89e-4 -0.815973,-1.142681 -0.896606,-2.538428 -0.09444,-1.634811 1.029108,-3.784341 3.157857,-6.041472 4.023179,-4.265813 6.932106,-3.956342 11.477964,1.221103 5.378148,6.125373 3.632879,16.412824 -3.346293,19.724658 -1.894849,0.899165 -3.602172,1.599319 -3.794051,1.555898 -0.191879,-0.04342 -1.518246,-0.508213 -2.947483,-1.032871 z M 39,38 c 0,-0.55 -0.476558,-1 -1.059017,-1 -0.582459,0 -0.780902,0.45 -0.440983,1 0.339919,0.55 0.816476,1 1.059017,1 C 38.801558,39 39,38.55 39,38 Z"
         id="path877" />
      <path
         style="fill:#b7957a"
         d="M 40.5,49.054847 C 39.4,48.612326 38.222641,48.408343 37.883647,48.601551 37.544653,48.794758 36.529657,48.137758 35.628101,47.14155 34.280682,45.652669 34.185307,44.766876 35.09228,42.165131 35.699133,40.424309 36.826629,39 37.597825,39 38.369021,39 39,38.55 39,38 c 0,-0.55 -1.0125,-1.000318 -2.25,-1.000706 -3.644018,-0.0011 -3.200296,-4.379437 0.882575,-8.708541 2.617066,-2.774899 3.70218,-3.355998 4.596606,-2.461572 C 42.873131,26.473131 44.169998,27 45.111106,27 48.305849,27 52,32.706995 52,37.642467 c 0,8.7979 -5.19178,13.950123 -11.5,11.41238 z"
         id="path875" />
      <path
         style="fill:#968d88"
         d="m 39.203626,48.739952 c -2.027999,-0.649595 -3.105736,-1.552665 -2.800927,-2.346985 0.305836,-0.796997 -0.0423,-1.08476 -0.909667,-0.75192 -1.144626,0.439235 -1.227878,-0.07879 -0.449072,-2.794325 C 35.569782,41.013287 36,39.397733 36,39.256602 36,39.115471 36.675,39 37.5,39 c 0.825,0 1.5,-0.45 1.5,-1 0,-0.55 -0.872033,-1 -1.937851,-1 -1.384563,0 -1.897759,-0.642412 -1.797431,-2.25 0.160518,-2.572022 3.507858,-6.00859 4.971493,-5.104014 0.598799,0.370078 0.70403,-0.258909 0.271378,-1.622076 -0.659106,-2.076659 -0.481191,-2.181221 2.642866,-1.553226 C 48.368181,27.519546 52,32.079389 52,37.581518 c 0,5.108995 -1.228513,8.103941 -4.36704,10.646246 -2.401112,1.944976 -3.708284,2.024403 -8.429334,0.512188 z"
         id="path873" />
      <path
         style="fill:#a68876"
         d="m 39.203626,48.739952 c -2.027999,-0.649595 -3.105736,-1.552665 -2.800927,-2.346985 0.305836,-0.796997 -0.0423,-1.08476 -0.909667,-0.75192 -1.144626,0.439235 -1.227878,-0.07879 -0.449072,-2.794325 C 35.569782,41.013287 36,39.397733 36,39.256602 36,39.115471 36.926558,39 38.059017,39 39.191476,39 39.839919,38.55 39.5,38 c -0.339919,-0.55 -1.463509,-1 -2.496868,-1 -1.32336,0 -1.837319,-0.665209 -1.738414,-2.25 0.160518,-2.572022 3.507858,-6.00859 4.971493,-5.104014 0.598799,0.370078 0.70403,-0.258909 0.271378,-1.622076 -0.660039,-2.079598 -0.485613,-2.180527 2.642866,-1.529255 1.84225,0.383512 4.474545,1.789332 5.849545,3.124047 2.111065,2.049213 2.5,3.346446 2.5,8.338363 0,5.177801 -0.364581,6.292151 -2.937091,8.977272 -3.128812,3.265776 -4.172273,3.467083 -9.359283,1.805615 z"
         id="path871" />
      <path
         style="fill:#998477"
         d="M 41.349081,48.949081 C 40.771076,48.371076 39.443284,47.833766 38.398433,47.75506 37.170342,47.662551 36.447947,46.796692 36.355138,45.305979 36.276178,44.03769 36.571841,43 37.012167,43 c 0.440327,0 0.565238,-0.9 0.277582,-2 -0.377668,-1.444204 -0.03068,-2 1.248607,-2 1.652974,0 1.660785,-0.12247 0.116632,-1.828741 -2.198117,-2.428891 -2.105795,-3.024124 0.901299,-5.811005 1.405959,-1.302998 2.279401,-2.8171 1.940983,-3.364671 -1.413284,-2.286742 5.250407,-0.893071 7.578416,1.584981 1.995763,2.124393 2.424314,3.615347 2.424314,8.434337 0,5.113814 -0.37127,6.241296 -2.937091,8.919436 -3.038995,3.172027 -5.397766,3.830806 -7.213828,2.014744 z"
         id="path869" />
      <path
         style="fill:#947d71"
         d="M 42.152852,48.394508 C 40.966854,47.563803 39.547281,47.161762 38.998246,47.501084 38.449211,47.840407 38,47.416476 38,46.559017 c 0,-0.857459 -0.5625,-1.565908 -1.25,-1.57433 -0.905184,-0.01109 -0.869843,-0.2561 0.128115,-0.888196 0.800917,-0.507292 1.051054,-1.402082 0.597225,-2.136391 -0.477589,-0.772756 -0.04184,-1.809625 1.121885,-2.669559 1.792859,-1.32483 1.801684,-1.463352 0.152775,-2.397986 -2.411039,-1.366625 -2.190524,-2.734716 0.649357,-4.028653 1.704301,-0.776531 2.323506,-1.784217 2.137514,-3.478561 -0.35608,-3.243803 3.370574,-3.229185 7.157365,0.02808 2.492659,2.14409 2.805764,3.080919 2.805764,8.395008 0,4.567054 -0.470319,6.501292 -1.988811,8.179208 -3.172114,3.505145 -4.956865,4.088928 -7.358337,2.406871 z"
         id="path867" />
      <path
         style="fill:#94796a"
         d="M 41.339573,47.442529 C 41.010861,46.585921 40.235116,46.079536 39.615694,46.31723 38.996272,46.554925 37.9116,46.130787 37.20531,45.374701 36.151333,44.246416 36.205996,44 37.510264,44 c 1.205074,0 1.358081,-0.412838 0.633121,-1.708269 -0.693275,-1.238813 -0.511193,-2.033516 0.662563,-2.891787 1.364633,-0.997844 1.409166,-1.435821 0.28386,-2.791731 C 38.135106,35.457867 38.091479,35 38.936572,35 39.586376,35 39.839919,34.55 39.5,34 c -0.339919,-0.55 0.07473,-1 0.921454,-1 1.121497,0 1.444648,-0.814539 1.190189,-3 -0.237796,-2.042349 0.08765,-3 1.01953,-3 C 43.384028,27 44,27.407871 44,27.90638 c 0,0.49851 0.805195,0.695818 1.789322,0.438463 5.581875,-1.459694 8.185467,12.859736 3.286364,18.074593 -2.698663,2.872595 -6.817374,3.41729 -7.736113,1.023093 z"
         id="path865" />
      <path
         style="fill:#8b7a72"
         d="m 41.339573,47.442529 c -0.328712,-0.856608 -1.237961,-1.311763 -2.020553,-1.011454 -0.788173,0.30245 -1.150362,0.105047 -0.811941,-0.442529 0.336025,-0.5437 0.0219,-0.995437 -0.698062,-1.003859 -0.9814,-0.01148 -1.009382,-0.205794 -0.111803,-0.776393 0.751568,-0.477779 0.871446,-1.288183 0.322048,-2.177128 -0.582025,-0.941736 -0.325772,-1.817773 0.765039,-2.615394 1.283718,-0.938677 1.384995,-1.506857 0.465976,-2.614206 C 38.32282,35.684048 38.48837,35.089521 40.038024,33.972594 41.117111,33.194832 42,31.806607 42,30.887649 c 0,-2.770189 4.947989,-3.384104 7.412408,-0.919685 3.183621,3.183621 2.984417,12.916282 -0.336722,16.451472 -2.698663,2.872595 -6.817374,3.41729 -7.736113,1.023093 z"
         id="path863" />
      <path
         style="fill:#87746a"
         d="m 41.727129,47 c -1.398423,-1.1 -3.146609,-2.006891 -3.884858,-2.015313 -1.05645,-0.01205 -1.036556,-0.208761 0.09343,-0.923784 1.18984,-0.7529 1.211684,-1.178393 0.127555,-2.484688 C 36.961681,40.248902 37.01729,40 38.415405,40 39.627139,40 39.997931,39.262819 39.787849,37.271405 39.590379,35.399532 39.970968,34.528288 41,34.49656 c 1.011444,-0.03119 1.43629,-0.951316 1.304391,-2.825049 -0.148805,-2.113921 0.210097,-2.712118 1.5,-2.500113 0.932585,0.153277 2.251178,-0.06986 2.930206,-0.495854 0.800893,-0.502449 1.962149,0.38455 3.305668,2.524958 2.760534,4.397909 2.243204,11.804406 -1.070922,15.332131 C 46.161288,49.52167 45.02605,49.594932 41.727129,47 Z"
         id="path861" />
      <path
         style="fill:#906f5b"
         d="M 43.433572,47.308644 C 40.771419,46.008468 37.011,40.020117 38.836864,39.988527 c 0.364725,-0.0063 1.523884,-1.808062 2.57591,-4.003892 1.052026,-2.195831 2.136664,-3.768531 2.410306,-3.494889 0.273642,0.273642 1.12591,-0.399606 1.893929,-1.496107 1.930383,-2.756008 2.966364,-2.506608 4.868685,1.172075 2.244705,4.340781 1.405234,11.322154 -1.726124,14.35512 -2.218873,2.149154 -2.542415,2.196129 -5.425998,0.78781 z"
         id="path859" />
      <path
         style="fill:#796a62"
         d="M 43.433572,47.308644 C 40.771419,46.008468 37.011,40.020117 38.836864,39.988527 c 0.364725,-0.0063 1.523884,-1.808062 2.57591,-4.003892 1.052026,-2.195831 2.136664,-3.768531 2.410306,-3.494889 0.273642,0.273642 1.12591,-0.399606 1.893929,-1.496107 1.930383,-2.756008 2.966364,-2.506608 4.868685,1.172075 2.244705,4.340781 1.405234,11.322154 -1.726124,14.35512 -2.218873,2.149154 -2.542415,2.196129 -5.425998,0.78781 z"
         id="path857" />
      <path
         style="fill:#74645b"
         d="m 44.339285,46.904356 c -3.280521,-0.949961 -3.719681,-2.536154 -1.457003,-5.262515 0.820691,-0.988872 1.061954,-2.764663 0.65905,-4.850882 -0.612601,-3.172018 -0.575918,-3.218675 1.014976,-1.290959 1.63481,1.980931 1.644335,1.979128 0.999062,-0.189097 -0.487312,-1.637448 -0.09233,-2.488348 1.567407,-3.376611 1.85713,-0.993906 2.435597,-0.891156 3.548058,0.630226 1.934585,2.645702 1.620518,8.445367 -0.659875,12.185482 -1.08986,1.7875 -2.100677,3.209415 -2.246262,3.159812 -0.145584,-0.0496 -1.68702,-0.502059 -3.425413,-1.005456 z"
         id="path855" />
      <path
         style="fill:#685b54"
         d="M 46.489919,46.983688 C 46.144455,46.424717 45.442898,46.226274 44.930902,46.542705 44.418906,46.859136 44,46.416476 44,45.559017 44,44.701558 43.46,44 42.8,44 c -0.933333,0 -0.933333,-0.266667 0,-1.2 0.66,-0.66 1.2,-2.01 1.2,-3 0,-0.99 0.414245,-1.8 0.920545,-1.8 0.506299,0 1.208797,-1.312407 1.561107,-2.91646 0.786287,-3.579943 3.129358,-4.678891 4.503094,-2.112043 1.611394,3.010919 1.17836,8.248729 -0.973786,11.778503 -2.144556,3.517328 -2.563466,3.783077 -3.521041,2.233688 z"
         id="path853" />
      <path
         style="fill:#61554d"
         d="m 48.654066,45.459106 c 0.352018,-0.917344 0.104441,-1.423178 -0.611804,-1.25 -0.661705,0.159992 -1.9124,-0.745102 -2.779322,-2.01132 -1.225733,-1.790294 -1.273548,-2.235013 -0.215035,-2 1.29888,0.288381 1.543004,-0.213576 1.827095,-3.756803 0.07761,-0.967907 0.598945,-1.27428 1.375,-0.808042 0.860484,0.516963 0.825389,0.227428 -0.112624,-0.929149 -1.169842,-1.442424 -1.120194,-1.773155 0.350925,-2.337676 3.516852,-1.349543 4.805479,6.23131 1.986019,11.683544 -1.601266,3.096506 -2.833892,4.050944 -1.820254,1.409446 z"
         id="path851" />
      <path
         style="fill:#5d514a"
         d="m 48.638374,45.5 c 0.316582,-0.825 0.158241,-1.5 -0.351868,-1.5 -0.766868,0 -0.936397,-4.598994 -0.39627,-10.75 0.157427,-1.792786 2.782932,-1.544095 3.502775,0.331787 1.063663,2.77186 0.655381,7.423952 -0.918691,10.467873 -1.589026,3.072836 -2.836809,4.058546 -1.835946,1.45034 z m 2.090793,-10.104167 c -0.332292,-0.332291 -1.194792,-0.367818 -1.916667,-0.07895 -0.797733,0.319226 -0.560776,0.556183 0.604167,0.604167 1.054166,0.04342 1.644791,-0.192928 1.3125,-0.52522 z"
         id="path849" />
      <path
         sodipodi:nodetypes="sssssssssssssss"
         style="fill:#584b44"
         d="m 47.792024,44.017353 c -0.961988,-1.540387 -0.75746,-2.008355 1.284364,-2.938672 1.49639,-0.681801 2.428559,-0.730918 2.428559,-0.127964 0,0.538208 -0.7875,0.985452 -1.75,0.993874 -1.18485,0.01037 -1.363368,0.261098 -0.552786,0.776393 0.658467,0.418594 0.868003,1.293753 0.465635,1.944798 -0.518588,0.839093 -1.064696,0.650311 -1.875772,-0.648429 z m -0.134006,-5.466161 c -0.330566,-0.861442 0.192537,-1.686372 1.290294,-2.034787 1.263158,-0.400911 1.712532,-1.285602 1.422849,-2.801192 -0.397297,-2.078612 -0.345939,-2.065782 0.832854,0.208075 0.990018,1.909714 0.995554,2.510189 0.02612,2.833333 C 50.553562,36.982146 50,37.804167 50,38.583333 c 0,1.850022 -1.628304,1.827675 -2.341982,-0.03214 z"
         id="path847" />
    </g>
  </g>
</svg>
