<?xml version="1.0" encoding="UTF-8" standalone="no"?>
<svg
   xmlns:dc="http://purl.org/dc/elements/1.1/"
   xmlns:cc="http://creativecommons.org/ns#"
   xmlns:rdf="http://www.w3.org/1999/02/22-rdf-syntax-ns#"
   xmlns:svg="http://www.w3.org/2000/svg"
   xmlns="http://www.w3.org/2000/svg"
   xmlns:sodipodi="http://sodipodi.sourceforge.net/DTD/sodipodi-0.dtd"
   xmlns:inkscape="http://www.inkscape.org/namespaces/inkscape"
   version="1.1"
   id="svg833"
   width="76"
   height="76"
   viewBox="0 0 76 76"
   sodipodi:docname="mer.svg"
   inkscape:version="1.0 (4035a4f, 2020-05-01)">
  <metadata
     id="metadata839">
    <rdf:RDF>
      <cc:Work
         rdf:about="">
        <dc:format>image/svg+xml</dc:format>
        <dc:type
           rdf:resource="http://purl.org/dc/dcmitype/StillImage" />
        <dc:title />
      </cc:Work>
    </rdf:RDF>
  </metadata>
  <defs
     id="defs837" />
  <sodipodi:namedview
     inkscape:document-rotation="0"
     pagecolor="#ffffff"
     bordercolor="#666666"
     borderopacity="1"
     objecttolerance="10"
     gridtolerance="10"
     guidetolerance="10"
     inkscape:pageopacity="0"
     inkscape:pageshadow="2"
     inkscape:window-width="1440"
     inkscape:window-height="803"
     id="namedview835"
     showgrid="false"
     inkscape:zoom="11.559394"
     inkscape:cx="36.434633"
     inkscape:cy="40.962124"
     inkscape:window-x="0"
     inkscape:window-y="23"
     inkscape:window-maximized="1"
     inkscape:current-layer="g841" />
  <g
     inkscape:groupmode="layer"
     inkscape:label="Image"
     id="g841">
    <g
       id="g845">
      <path
         sodipodi:nodetypes="ssssss"
         style="fill:#f5f3ec"
         d="m 32.228261,45.275075 c -2.353286,-2.002048 -3.380476,-3.858396 -3.776677,-6.825249 -0.471606,-3.5315 -0.14852,-4.498847 2.421442,-7.25 4.026905,-4.310815 8.663587,-4.451414 13.24945,-0.353946 4.670174,4.1728 4.812764,9.440955 0.37563,13.878089 -4.271073,4.271073 -7.680708,4.455294 -12.269845,0.551106 z"
         id="path883" />
      <path
         style="fill:#edeae6"
         d="M 32.223985,45.209233 C 29.643721,42.798906 29.263452,41.777869 29.434471,37.719286 29.69998,31.418277 32.800841,28 38.251237,28 c 2.980077,0 4.593591,0.690982 6.825686,2.923077 1.607692,1.607692 2.972888,3.745192 3.033768,4.75 0.291452,4.810335 -0.450122,7.044334 -3.17905,9.576923 -4.007347,3.719028 -8.698894,3.703978 -12.707656,-0.04077 z"
         id="path881" />
      <path
         style="fill:#e7e3da"
         d="m 32.309009,45.14487 c -2.812053,-2.687348 -2.947608,-3.167016 -2.306747,-8.162499 1.160493,-9.045996 8.506759,-12.045853 14.891983,-6.081161 4.319615,4.035124 4.395998,9.962393 0.182678,14.175713 -3.953663,3.953663 -8.67559,3.978792 -12.767914,0.06795 z"
         id="path879" />
      <path
         style="fill:#e1dcd2"
         d="m 34.5,46.784364 c -3.649322,-2.107152 -4.269231,-3.365703 -4.269231,-8.667481 0,-4.23352 0.473013,-5.729755 2.43007,-7.686813 C 38.220252,24.870657 48,29.843595 48,38.229933 c 0,7.212952 -7.544153,11.993392 -13.5,8.554431 z"
         id="path877" />
      <path
         style="fill:#d6d0ca"
         d="m 33.021615,45.195787 c -3.034122,-2.564923 -3.304959,-3.149452 -2.120531,-4.5766 0.862341,-1.039058 1.152303,-2.902773 0.794584,-5.107142 -0.471019,-2.90255 -0.14258,-3.801944 2.005389,-5.491537 2.911999,-2.290578 5.441813,-2.544165 8.614684,-0.863531 8.67508,4.595092 7.117062,17.004731 -2.315741,18.44492 -2.8645,0.437348 -4.131575,4.68e-4 -6.978385,-2.40611 z"
         id="path875" />
      <path
         style="fill:#d1c7b9"
         d="m 32.98384,45.127651 c -3.016004,-2.517872 -3.271364,-3.07628 -2.069193,-4.524807 0.75428,-0.908851 1.477941,-3.477182 1.608136,-5.707401 C 32.817628,29.844802 34.024561,28.6 38.626704,28.6 c 6.752936,0 11.563093,8.439811 8.292805,14.5504 C 45.869151,45.11301 40.407133,48 37.744344,48 37.018403,48 34.876177,46.707443 32.98384,45.127651 Z"
         id="path873" />
      <path
         sodipodi:nodetypes="sssssss"
         style="fill:#c4b8ad"
         d="M 33.448537,45.447115 C 30.604586,42.603165 30.437743,41.465528 32,40.5 c 0.55,-0.339919 1,-2.852614 1,-5.583768 0,-4.412416 0.286301,-5.4772 2.569398,-6.345232 3.593747,-1.36634 7.010662,0.141218 9.93355,3.614873 4.251006,5.052034 2.389562,12.610142 -3.621787,14.70571 -4.513599,1.573449 -5.474496,1.513661 -8.432624,-1.444468 z"
         id="path871" />
      <path
         sodipodi:nodetypes="ssssssssssss"
         style="fill:#b8aca7"
         d="m 34.634814,46.122721 c -2.309212,-1.816427 -2.426966,-2.522958 -1.471677,-4.913605 0.5954,-1.490014 1.07712,-4.651708 1.070488,-7.025987 -0.01024,-3.664343 0.357586,-4.457409 2.433361,-5.246617 2.621939,-0.996859 6.860626,0.584443 9.234831,3.445185 3.392493,4.087703 1.454283,12.8053 -3.14085,14.126781 -1.243532,0.357619 -2.998629,1.243916 -3.874709,1.48491 -0.876079,0.240994 -2.812186,-0.738546 -4.251444,-1.870667 z m 3.800425,-8.227506 C 37.562623,36.483292 36,36.851226 36,38.468615 c 0,0.892084 0.586597,1.243517 1.494256,0.895215 0.821841,-0.31537 1.245284,-0.976246 0.940983,-1.468615 z"
         id="path869" />
      <path
         sodipodi:nodetypes="sssssssssss"
         style="fill:#b5a49a"
         d="m 34.510859,46.352806 c -0.922787,-1.035501 -1.381568,-2.281506 -1.064406,-4.030549 0.560668,-3.0919 1.65579,-4.303664 2.287492,-2.531136 0.324495,0.910518 1.0211,0.644324 2.363095,-0.90301 C 40.560727,36.047457 40.501127,35.858974 37.5,37 35.356306,37.815031 35,37.668981 35,35.975249 35,34.888862 35.54,34 36.2,34 c 0.933333,0 0.933333,-0.266667 0,-1.2 -2.22981,-2.22981 -1.254633,-4.712593 2.245664,-4.712593 8.765876,0 12.582842,12.301008 5.640993,17.63079 -1.93486,1.485538 -6.659197,3.907461 -9.575798,0.634609 z"
         id="path867" />
      <path
         sodipodi:nodetypes="ssssssss"
         style="fill:#a99b96"
         d="M 34.631502,46.010373 C 33.41269,44.709705 33.682059,44.105773 36.64773,41 c 3.886375,-4.069971 4.164022,-5.025039 1.238415,-4.259975 -1.783988,0.466523 -2.009418,0.223734 -1.444601,-1.555847 0.36809,-1.159748 0.178492,-3.02563 -0.421329,-4.146405 -1.000194,-1.86888 -0.775363,-3.05773 2.415679,-3.05773 4.486318,0 8.277254,4.400335 9.097656,9.09907 1.21572,6.962868 -7.38907,14.81449 -12.902048,8.93126 z"
         id="path865" />
      <path
         sodipodi:nodetypes="ssssssssss"
         style="fill:#a4928c"
         d="m 35.786612,45.806937 c -1.316698,-0.901073 -1.067951,-1.560125 1.75,-4.63661 3.49342,-3.813927 4.174712,-5.474099 1.886015,-4.595844 -0.769368,0.295234 -1.695925,0.05611 -2.059017,-0.531384 -0.363093,-0.587496 -0.135465,-1.068174 0.505838,-1.068174 0.641303,0 0.89286,-0.675 0.559017,-1.5 l -1.213978,-3 c -0.737862,-1.823415 3.627752,-2.094439 6.757389,-0.419509 2.610689,1.397199 4.908922,6.929524 4.159151,10.011943 -1.398249,5.748411 -7.908405,8.77533 -12.344415,5.739578 z"
         id="path863" />
      <path
         sodipodi:nodetypes="ssssssssss"
         style="fill:#978986"
         d="m 36.821476,45.409184 c 0,-2.252812 1.954414,-5.580467 2.925173,-4.980504 0.453655,0.280374 0.824827,-0.633583 0.824827,-2.031014 0,-1.765362 -0.426698,-2.377045 -1.398139,-2.004268 -1.108673,0.425437 -1.179027,0.127102 -0.339816,-1.440978 0.721553,-1.348236 0.728916,-1.977495 0.02314,-1.977495 -0.569351,0 -1.035184,-0.9 -1.035184,-2 0,-4.32297 7.377219,-1.734772 9.493728,3.330746 1.733681,4.149284 0.874133,8.234734 -2.249466,10.691757 -3.077202,2.420528 -8.244262,2.678594 -8.244263,0.411756 z"
         id="path861" />
      <path
         sodipodi:nodetypes="ssssssss"
         style="fill:#92817d"
         d="m 36.789257,47.214073 c 0,-1.802845 2.325563,-7.175885 3.064098,-6.719446 0.406682,0.251344 0.953477,-0.662767 1.2151,-2.031357 0.261622,-1.36859 0.19793,-2.488345 -0.141539,-2.488345 -0.921422,0 -3.530533,-7.082423 -2.878667,-7.734289 0.982251,-0.982251 5.749785,0.595375 7.769308,3.378116 2.427724,3.345209 3.250618,8.601922 0.644813,12.225033 -1.980661,2.753911 -9.673113,5.600244 -9.673113,3.370288 z"
         id="path859" />
      <path
         sodipodi:nodetypes="sssssss"
         style="fill:#887876"
         d="m 37.789257,46.527263 c 0,-0.901867 0.730474,-3.342429 1.583897,-3.966468 2.129816,-1.557359 2.871155,-7.016294 1.184512,-8.722298 -2.25006,-2.275888 -2.894015,-5.245181 -1.1845,-5.245181 2.379979,0 7.141491,3.139668 7.827129,4.926411 1.418579,3.696758 0.382698,9.138996 -2.058896,11.580591 -2.840036,2.840035 -7.352142,3.960302 -7.352142,1.426945 z"
         id="path857" />
      <path
         sodipodi:nodetypes="sssssss"
         style="fill:#756867"
         d="m 39.821476,46.425265 c 0,-0.302313 0.645511,-1.797941 1.43447,-3.323618 1.553112,-3.003389 0.606289,-10.651626 -1.410921,-11.32403 -1.589154,-0.529718 -1.262921,-3.184301 0.391332,-3.184301 2.868557,0 6.536359,4.79542 7.183735,9.060609 0.548893,3.616347 0.288139,4.525154 -1.936707,6.75 -2.28676,2.28676 -5.661909,3.491711 -5.661909,2.02134 z"
         id="path855" />
      <path
         sodipodi:nodetypes="sssssssss"
         style="fill:#6b6261"
         d="m 41.821476,44.666055 c 0,-0.719879 0.627122,-2.166512 1.393605,-3.21474 0.953022,-1.303335 1.118921,-2.628346 0.524751,-4.191129 -0.47787,-1.256894 -0.622849,-2.285261 -0.322177,-2.285261 0.300673,0 -0.164601,-0.711279 -1.033942,-1.58062 -2.056871,-2.056871 -1.046676,-3.749011 1.442758,-2.416707 2.466839,1.320212 3.532792,1.981553 4.261729,6.620643 0.493238,3.139051 -0.527614,4.317835 -2.228691,6.126684 -2.370216,2.520383 -4.038033,2.909094 -4.038033,0.94113 z"
         id="path853" />
      <path
         style="fill:#6b605e"
         d="m 41,45.083333 c 0,-0.504166 0.507075,-1.085691 1.126833,-1.292277 0.619758,-0.206586 1.345689,-2.653284 1.613179,-5.437105 0.446181,-4.643497 0.291185,-5.123616 -1.876833,-5.81372 -2.010714,-0.640032 -2.095004,-0.823306 -0.56514,-1.228804 C 46.708496,29.877361 48.55044,41.524193 43.5,45.234687 42.121007,46.247816 41,46.179948 41,45.083333 Z"
         id="path851" />
      <path
         sodipodi:nodetypes="sssssssssssss"
         style="fill:#645a5a"
         d="m 42.436695,45.209612 c 1.696394,0 2.493721,-4.361518 2.605501,-8.292964 0.05413,-1.903756 0.382112,-2.584355 0.867184,-1.799492 0.429071,0.694253 0.558265,1.621263 0.287096,2.060023 -0.271169,0.43876 -0.01648,0.797746 0.565983,0.797746 0.582459,0 1.059017,0.493033 1.059017,1.09563 0,1.718013 -4.004985,6.90607 -5.318094,6.889057 -0.849093,-0.011 -1.026103,-0.75 -0.06669,-0.75 z M 41.821476,31.762121 c 0,-1.105763 2.760103,-0.984375 3.462596,0.152283 0.319347,0.516714 -0.329096,0.870952 -1.440983,0.787196 -1.111887,-0.08376 -2.021613,-0.506522 -2.021613,-0.939479 z"
         id="path849" />
      <path
         sodipodi:nodetypes="ssss"
         style="fill:#5c5352"
         d="m 44.821476,43.332721 c 0,-0.536545 0.699825,-1.849045 1.555166,-2.916666 1.466378,-1.830306 1.487191,-1.798398 0.364546,0.55887 -1.457812,3.061032 -1.919712,3.628339 -1.919712,2.357796 z"
         id="path847" />
    </g>
  </g>
</svg>
