<?xml version="1.0" encoding="UTF-8" standalone="no"?>
<svg
   xmlns:dc="http://purl.org/dc/elements/1.1/"
   xmlns:cc="http://creativecommons.org/ns#"
   xmlns:rdf="http://www.w3.org/1999/02/22-rdf-syntax-ns#"
   xmlns:svg="http://www.w3.org/2000/svg"
   xmlns="http://www.w3.org/2000/svg"
   xmlns:sodipodi="http://sodipodi.sourceforge.net/DTD/sodipodi-0.dtd"
   xmlns:inkscape="http://www.inkscape.org/namespaces/inkscape"
   inkscape:version="1.0 (4035a4f, 2020-05-01)"
   sodipodi:docname="nep.svg"
   viewBox="0 0 76 76"
   height="76"
   width="76"
   id="svg833"
   version="1.1">
  <metadata
     id="metadata839">
    <rdf:RDF>
      <cc:Work
         rdf:about="">
        <dc:format>image/svg+xml</dc:format>
        <dc:type
           rdf:resource="http://purl.org/dc/dcmitype/StillImage" />
        <dc:title />
      </cc:Work>
    </rdf:RDF>
  </metadata>
  <defs
     id="defs837" />
  <sodipodi:namedview
     inkscape:current-layer="g845"
     inkscape:window-maximized="1"
     inkscape:window-y="23"
     inkscape:window-x="0"
     inkscape:cy="44.428857"
     inkscape:cx="27.991553"
     inkscape:zoom="8.6172054"
     showgrid="false"
     id="namedview835"
     inkscape:window-height="803"
     inkscape:window-width="1440"
     inkscape:pageshadow="2"
     inkscape:pageopacity="0"
     guidetolerance="10"
     gridtolerance="10"
     objecttolerance="10"
     borderopacity="1"
     bordercolor="#666666"
     pagecolor="#ffffff"
     inkscape:document-rotation="0" />
  <g
     id="g841"
     inkscape:label="Image"
     inkscape:groupmode="layer">
    <g
       id="g845">
      <path
         id="path881"
         d="M 29.137077,61.630856 C 12.885706,55.749743 7.8123447,33.446765 19.808951,20.623522 28.858974,10.949899 45.728343,10.555847 55.369207,19.792869 60.810187,25.005935 62.956076,30.155684 62.956076,38 c 0,7.844316 -2.145889,12.994065 -7.586869,18.207131 -6.502116,6.229752 -17.64083,8.53278 -26.23213,5.423725 z M 40,35.611833 c 0,-0.550449 -4.795992,0.144049 -5.959178,0.862937 -0.590395,0.364885 -0.815568,1.080682 -0.500383,1.590661 C 34.032103,38.860961 40,36.594116 40,35.611833 Z"
         style="fill:#d0d0d4" />
      <path
         sodipodi:nodetypes="sssss"
         id="path879"
         d="M 27.5,60.616709 C 18.371878,56.301384 13.043924,47.965734 13.043924,38 c 0,-18.299522 18.918063,-30.3531818 35.511684,-22.626299 14.995541,6.982731 19.272793,26.288851 8.589442,38.769944 C 49.838352,62.679878 37.543076,65.364579 27.5,60.616709 Z"
         style="fill:#b8c3dc" />
      <path
         id="path877"
         d="M 29.747969,61.634592 C 13.75987,55.667601 8.0037113,36.231588 18.277221,22.902926 23.12157,16.617958 29.874952,13.49092 38.5,13.539114 c 8.377807,0.04681 13.559122,2.375478 18.731996,8.418818 10.239705,11.962792 6.404962,31.01383 -7.702584,38.26651 -5.041814,2.591993 -14.758778,3.284682 -19.781443,1.41015 z M 38.964286,36.392677 C 40.229636,35.189207 39.938489,35 36.821275,35 c -3.358251,0 -5.605502,1.882439 -4.074708,3.413233 0.838412,0.838413 4.443532,-0.333134 6.217719,-2.020556 z"
         style="fill:#acb3d1" />
      <path
         id="path875"
         d="M 26.268973,60.499247 C 19.952738,57.656937 17.159878,53.269072 14.10695,45.928559 9.7493881,35.451159 15.009483,21.737347 25.87957,15.759061 c 7.272894,-3.999916 16.903288,-3.647835 23.652823,-0.232912 18.517382,9.368856 17.887291,35.500916 -0.003,44.698293 -2.183823,1.122702 -6.683823,2.234984 -10,2.471737 -5.137561,0.366789 -6.494608,0.847695 -11.67708,-1.484421 z"
         style="fill:#93a3cf"
         sodipodi:nodetypes="ssssssss" />
      <path
         id="path871"
         d="M 31.993526,62.042632 C 25.189785,60.035534 20.456667,56.050369 15.909158,48.5 12.837519,43.400062 12.588692,33.368482 15.400669,28 c 2.279908,-4.352685 5.633594,-8.096858 6.675593,-7.452868 0.432048,0.267021 1.111164,-0.04138 1.509148,-0.685329 C 24.067815,19.081256 23.872678,18.960655 23,19.5 22.128119,20.038852 21.932208,19.918706 22.41334,19.140219 24.23898,16.186272 31.556544,13.573993 38,13.575976 c 21.112794,0.0065 32.33289,23.188125 19.418373,40.11993 -4.699204,6.160974 -18.015331,10.532527 -25.424847,8.346726 z M 31.44113,40.468197 C 32.508751,39.660688 34.421251,39 35.69113,39 37.980048,39 42,35.858527 42,34.069806 c 0,-0.573593 -1.243398,-0.573593 -3.243398,0 C 34.803135,35.203645 35,35.203772 35,34.067388 c 0,-0.512937 0.90138,-1.2187 2.003067,-1.568362 1.842484,-0.584781 1.873816,-0.765001 0.390824,-2.247992 -1.482992,-1.482992 -1.687644,-1.477511 -2.552757,0.06836 C 34.323851,31.243728 33.446423,32 32.891293,32 c -0.55513,0 -0.695131,-0.508379 -0.311114,-1.129732 0.440168,-0.712207 0.184796,-0.897234 -0.690983,-0.500643 -0.764058,0.345999 -2.120446,0.892152 -3.014196,1.213675 -1.889401,0.679703 -2.206941,5.218132 -0.514863,7.358658 0.876587,1.108908 0.851149,1.268505 -0.110137,0.690983 -1.299576,-0.780759 -1.750387,0.533338 -0.583333,1.700392 0.944821,0.944822 1.571346,0.801217 3.774463,-0.865136 z m -1.237459,-4.422719 c 1.379777,-2.209373 2.351258,-1.933983 1.451252,0.411394 C 31.329239,37.305592 30.594833,38 30.022911,38 c -0.658156,0 -0.591804,-0.717449 0.18076,-1.954522 z m -4.248982,-0.490882 c 0.70961,-0.855028 0.8976,-1.539625 0.417756,-1.521327 C 25.286891,34.074665 21,37.595343 21,38.445476 c 0,0.925158 3.466012,-1.097134 4.954689,-2.89088 z M 32.267972,26 c 1.620767,-1.892919 1.616604,-2 -0.07776,-2 C 30.343583,24 28,25.789758 28,27.2 c 0,1.515401 2.559035,0.795892 4.267972,-1.2 z"
         style="fill:#8795c7" />
      <path
         id="path869"
         d="M 30.885071,61.597139 C 26.534021,60.070218 21,56.27023 21,54.809461 c 0,-0.64702 0.588835,-0.56566 1.524166,0.210595 0.838291,0.69572 1.823642,0.96547 2.189668,0.599444 C 25.07986,55.253474 24.393985,54.263832 23.189668,53.420295 21.80784,52.452425 21,50.835253 21,49.036916 c 0,-2.429349 -0.331876,-2.779587 -2.25,-2.374494 -1.898102,0.400865 -1.990847,0.308392 -0.593003,-0.591262 1.011804,-0.651199 1.453109,-1.846113 1.133368,-3.068803 C 18.971721,41.783859 19.258574,41 20.023126,41 c 0.691014,0 1.854186,-0.7875 2.584828,-1.75 0.916914,-1.207883 1.338291,-1.334984 1.360243,-0.410293 0.01749,0.736839 1.04087,2.156801 2.274175,3.155471 1.757465,1.423108 2.676516,1.583415 4.25,0.741312 1.104195,-0.590947 2.120128,-0.998409 2.257628,-0.90547 0.1375,0.09294 0.3625,0.13455 0.5,0.09247 C 35.448249,41.250725 37,41.399808 37,42.283765 37,43.827611 31.895506,49 30.371926,49 c -0.689641,0 -1.561803,0.49821 -1.938138,1.107134 -0.470885,0.761908 0.05395,0.872839 1.683141,0.355754 2.113061,-0.670659 2.220789,-0.57474 1.002784,0.892866 C 30.369182,52.260089 29.108653,53 28.318538,53 c -0.837302,0 -1.136733,0.48515 -0.717796,1.163005 0.484144,0.783361 1.576442,0.212103 3.346159,-1.75 2.692735,-2.985463 4.122922,-3.834652 12.217575,-7.254324 5.403666,-2.282836 7.614133,-5.267603 5.314511,-7.176121 C 47.281145,36.98844 47,37.051712 47,38.315406 c 0,0.943848 -0.790168,1.500775 -2,1.409641 -1.1,-0.08286 -2,-0.489061 -2,-0.902668 0,-1.182678 4.019243,-3.028972 5.422017,-2.490678 0.874174,0.335452 1.122418,-0.264007 0.802457,-1.937774 -0.612239,-3.20272 -2.247531,-4.104112 -3.472984,-1.914348 -0.68391,1.222079 -1.204139,1.406053 -1.701291,0.601644 C 43.536667,32.250312 42.579523,32.209367 40.667031,32.936495 39.200164,33.494197 38,33.56042 38,33.083657 c 0,-0.476762 1.232992,-1.176302 2.739983,-1.554533 1.506991,-0.378231 3.009981,-1.124557 3.339977,-1.658503 0.329997,-0.533946 1.564959,-1.043499 2.744359,-1.132341 2.075825,-0.156367 2.056968,-0.254589 -0.589977,-3.073066 C 41.32466,20.437369 31.793618,18.133896 29,21.5 28.315311,22.325 27.198566,23 26.518345,23 24.455551,23 16.035651,31.009774 15.388668,33.587561 15.055652,34.914402 14.351643,36 13.824204,36 c -0.968414,0 -0.547207,-2.260435 1.340157,-7.192041 1.270063,-3.318625 9.716543,-10.067638 11.664348,-9.320195 2.1144,0.811371 4.457339,-1.438171 3.144913,-3.019547 -0.817491,-0.985017 -0.268578,-1.229624 2.470276,-1.100806 2.209929,0.103942 3.720198,-0.352654 4.055348,-1.226042 0.741969,-1.933541 7.297052,-0.785023 13.521388,2.369087 16.980448,8.604644 17.081026,34.372082 0.167357,42.875644 -5.842302,2.937291 -14.430296,3.920997 -19.30292,2.211039 z M 53,30 c 0,-0.55 -0.423442,-1 -0.940983,-1 -0.517541,0 -1.219098,0.45 -1.559017,1 -0.339919,0.55 0.08352,1 0.940983,1 C 52.298442,31 53,30.55 53,30 Z M 21.127555,24.25 C 22.371426,22.663944 22.336056,22.628574 20.75,23.872445 19.7875,24.627289 19,25.414789 19,25.622445 19,26.445479 19.821186,25.915748 21.127555,24.25 Z M 18,51.940983 c 0,-0.582459 0.45,-0.780902 1,-0.440983 0.55,0.339919 1,0.816476 1,1.059017 C 20,52.801558 19.55,53 19,53 18.45,53 18,52.523442 18,51.940983 Z m -3.279544,-5.27277 c -0.396251,-1.007484 -0.706772,-2.582484 -0.690047,-3.5 0.02713,-1.488326 0.142216,-1.476119 1.067273,0.113206 0.570276,0.979781 0.880797,2.554781 0.690047,3.5 -0.316735,1.569514 -0.409309,1.559694 -1.067273,-0.113206 z m 3.612877,-9.406308 c 0,-1.86938 2.1021,-4.493139 2.933615,-3.661624 0.277774,0.277774 1.396606,-0.628394 2.486293,-2.013707 1.089687,-1.385313 2.265989,-2.234011 2.614004,-1.885996 C 26.71526,30.048594 27,29.760188 27,29.059678 c 0,-0.708946 0.650866,-1.023895 1.467975,-0.710341 0.807386,0.309823 1.733944,0.132968 2.059017,-0.393011 C 31.34726,26.629105 35,26.752139 35,28.106989 35,28.715833 34.325,28.954956 33.5,28.638374 32.675,28.321791 32,28.462892 32,28.95193 32,29.440967 30.552047,30.159113 28.782327,30.547809 25.746286,31.214636 20,36.159807 20,38.105755 20,38.59759 19.625,39 19.166667,39 18.708333,39 18.333333,38.217857 18.333333,37.261905 Z m 6.745614,0.154762 c 0.04798,-1.164943 0.284941,-1.4019 0.604167,-0.604167 0.288871,0.721875 0.253344,1.584375 -0.07895,1.916667 -0.332292,0.332291 -0.568641,-0.258334 -0.52522,-1.3125 z M 34.5,26 C 32.72775,25.238438 32.813156,25.132567 35.25,25.070285 36.7625,25.031628 38,25.45 38,26 c 0,1.173714 -0.76862,1.173714 -3.5,0 z"
         style="fill:#828cc2" />
      <path
         id="path867"
         d="m 31.214361,61.848978 c -1.807101,-0.508548 -3.049444,-1.306802 -2.760762,-1.7739 0.288682,-0.467098 -0.209347,-0.787576 -1.106732,-0.712173 -0.897385,0.0754 -1.830144,-0.425711 -2.072798,-1.113585 -0.26727,-0.757656 0.124747,-1.03351 0.994451,-0.699774 0.842643,0.323353 2.107822,-0.474972 3.062985,-1.932735 0.89504,-1.366003 3.099104,-3.586375 4.89792,-4.93416 3.699664,-2.772019 8.439752,-4.574418 7.336787,-2.789785 -1.095723,1.772918 -0.0725,1.294178 3.037765,-1.421287 4.081834,-3.563714 4.779103,-4.069054 5.78422,-4.19206 1.548926,-0.189559 2.565505,-2.690098 1.3892,-3.417095 C 50.306019,37.953062 50.114158,33 51.550312,33 c 0.613995,0 1.116355,-0.757835 1.116355,-1.684077 0,-2.112003 -3.666665,-6.433958 -4.842123,-5.707485 -0.480753,0.297122 -0.791506,0.169273 -0.690562,-0.284108 0.869652,-3.905957 -4.913947,-7.313249 -11.643531,-6.859555 -3.498152,0.235838 -4.389544,0.05826 -3.160402,-0.629604 0.941609,-0.52695 1.454179,-1.37528 1.139046,-1.885177 -0.315134,-0.509897 0.06733,-0.681378 0.849925,-0.381069 0.790274,0.303257 1.709966,-0.202078 2.068576,-1.136602 1.472365,-3.836919 16.346572,1.730462 21.030777,7.871771 9.515649,12.47566 6.016405,30.422016 -7.230382,37.082006 -5.341059,2.685285 -14.129553,3.826078 -18.97363,2.462878 z M 45,57.5 C 45.941055,56.366098 45.953507,56 45.05102,56 44.39439,56 43.182147,56.675 42.357147,57.5 41.070754,58.786389 41.063489,59 42.306127,59 43.103068,59 44.315311,58.325 45,57.5 Z M 37.562909,51.902205 40.5,48.804409 36.792326,51.152205 c -2.039221,1.291287 -3.726721,2.685295 -3.75,3.097795 -0.0882,1.562898 1.6868,0.641039 4.520583,-2.347795 z m 9.011692,-0.02291 c 0.907523,-1.468403 -2.244892,-0.981495 -3.509307,0.542033 -0.968526,1.167002 -0.808714,1.324338 0.893139,0.879293 1.140004,-0.298118 2.31728,-0.937714 2.616168,-1.421326 z M 25.549973,54.755746 C 25.132225,53.796405 24.438572,53.22895 24.008522,53.494735 22.963221,54.140766 20.832007,51.489818 21.057609,49.824191 21.45106,46.919339 20.960999,46.077388 19.25,46.718618 c -1.467399,0.549936 -1.549543,0.408894 -0.508676,-0.873394 0.682728,-0.841083 0.952046,-1.818518 0.598485,-2.17208 -0.353562,-0.353561 0.550343,-1.836021 2.008676,-3.294354 C 23.238872,38.488401 24,38.166286 24,39.256648 c 0,0.841156 0.703522,1.799341 1.563382,2.1293 0.85986,0.32996 1.297841,1.029581 0.97329,1.554715 -0.33886,0.548288 0.379218,0.739014 1.686618,0.447977 5.900389,-1.313472 7.650619,-1.401677 8.259641,-0.416258 0.370563,0.599583 -0.713218,1.641463 -2.480408,2.38451 -1.726189,0.725808 -3.074176,1.718679 -2.995525,2.20638 0.07865,0.4877 -0.403386,1.068857 -1.071194,1.29146 -0.786706,0.262235 -0.932703,-0.08104 -0.414674,-0.975 0.472037,-0.814595 0.426652,-1.038399 -0.110805,-0.546399 -0.500679,0.458334 -0.94919,1.133334 -0.996692,1.5 C 28.366132,49.2 28.054979,50.175 27.722183,51 c -0.332796,0.825 -0.78679,2.4 -1.008875,3.5 -0.366576,1.815672 -0.473794,1.839242 -1.163335,0.255744 z M 25,46 c 0,-0.55 -0.476558,-1 -1.059017,-1 -0.582459,0 -0.780902,0.45 -0.440983,1 0.339919,0.55 0.816476,1 1.059017,1 C 24.801558,47 25,46.55 25,46 Z m -6.666667,-8.550583 c 0,-0.852821 1.275,-2.458463 2.833334,-3.568094 C 22.725,32.771692 24,32.340641 24,32.923432 c 0,0.582791 -0.9,1.62168 -2,2.308641 -1.1,0.686961 -2,1.815775 -2,2.508474 C 20,38.433246 19.625,39 19.166667,39 18.708333,39 18.333333,38.302238 18.333333,37.449417 Z m 6.745614,-0.03275 c 0.04798,-1.164943 0.284941,-1.4019 0.604167,-0.604167 0.288871,0.721875 0.253344,1.584375 -0.07895,1.916667 -0.332292,0.332291 -0.568641,-0.258334 -0.52522,-1.3125 z M 14.035435,31.94113 C 14.054925,31.148508 14.713979,29.375 15.5,28 c 1.263292,-2.209898 1.429551,-2.267919 1.432761,-0.5 0.002,1.1 -0.657056,2.873508 -1.464564,3.94113 -1.033458,1.366352 -1.457704,1.514404 -1.432762,0.5 z m 31.043512,0.340255 c -0.04745,-0.732424 -0.764076,-0.955707 -1.79619,-0.559648 -1.524581,0.585037 -1.552629,0.478704 -0.25,-0.947779 1.603497,-1.755955 3.514869,-0.757711 2.65869,1.388542 -0.367186,0.920457 -0.558169,0.957526 -0.6125,0.118885 z M 25,30.020438 c 0,-0.626159 0.45,-0.860357 1,-0.520438 0.55,0.339919 1,0.12175 1,-0.48482 0,-0.606569 0.5625,-1.012153 1.25,-0.901297 0.6875,0.110855 2.067748,-0.15417 3.067217,-0.588946 1.126589,-0.490074 2.266732,-0.304056 3,0.489459 0.932707,1.009339 0.82644,1.155006 -0.502609,0.68896 -0.926966,-0.325051 -1.826966,-0.221009 -2,0.231205 C 31.287232,30.312823 25,31.314665 25,30.020438 Z M 18.015313,25.75 c 0.01118,-1.643346 0.247105,-1.884184 0.875,-0.893237 0.595992,0.940598 1.068478,1.018931 1.540381,0.255377 0.374381,-0.605762 1.668131,-1.612129 2.875,-2.236372 1.792537,-0.927176 1.656537,-0.561968 -0.742785,1.994622 -3.48355,3.711888 -4.5683,3.921703 -4.547596,0.87961 z"
         style="fill:#798bc2" />
      <path
         id="path865"
         d="m 30.624794,61.50766 c -2.131363,-0.746939 -4.381363,-1.896812 -5,-2.555272 -0.871679,-0.927793 -0.623536,-0.939417 1.102701,-0.05166 1.868143,0.960741 2.133202,0.899826 1.643011,-0.377593 C 27.999424,57.556116 28.361294,57 29.361626,57 c 0.913084,0 1.357438,-0.568532 1.056763,-1.35208 -0.285364,-0.743644 0.56562,-2.062647 1.891074,-2.931118 1.325453,-0.868471 3.16418,-2.333302 4.086059,-3.255181 0.954575,-0.954576 2.533045,-1.452058 3.666658,-1.155612 1.916216,0.501102 7.364174,-3.068464 9.24928,-6.060238 0.446304,-0.70831 1.18665,-1.055956 1.645216,-0.772547 0.458565,0.283409 1.091784,-0.157127 1.407154,-0.978968 C 52.6792,39.672415 52.494206,39 51.952731,39 c -0.541475,0 -0.881634,-1.35 -0.755908,-3 0.125726,-1.65 0.507874,-3 0.849218,-3 1.737772,0 0.230462,-3.898337 -2.704034,-6.993412 -1.828563,-1.928623 -3.328563,-3.832532 -3.333333,-4.230908 -0.01348,-1.125983 -5.690178,-3.789459 -7.704706,-3.615009 -3.470456,0.300528 -4.970635,-0.171902 -4.970635,-1.56533 0,-0.772563 0.541931,-1.196701 1.204291,-0.94253 0.66236,0.254172 1.494848,-0.295048 1.849972,-1.220488 1.472365,-3.836919 16.346572,1.730462 21.030777,7.871771 7.206838,9.448652 7.206838,21.94316 0,31.391812 -5.196522,6.812992 -18.541414,10.703738 -26.793579,7.811754 z M 45,57.5 C 46.019571,56.271492 45.951235,56 44.622445,56 43.7301,56 43,56.422836 43,56.939635 c 0,0.516799 -1.6875,1.116152 -3.75,1.331897 l -3.75,0.392262 4.127555,0.168103 C 42.248677,58.938647 44.209458,58.452545 45,57.5 Z M 37.5,52 c 1.5808,-1.65 2.452491,-2.985779 1.937091,-2.968399 C 38.384949,49.067082 33,53.601546 33,54.452034 33,55.777477 34.843156,54.773147 37.5,52 Z m 9.074601,-0.120707 c 0.907523,-1.468403 -2.244892,-0.981495 -3.509307,0.542033 -0.968526,1.167002 -0.808714,1.324338 0.893139,0.879293 1.140004,-0.298118 2.31728,-0.937714 2.616168,-1.421326 z M 25.846187,49.718197 C 24.93659,49.048188 23.24909,47.838158 22.096187,47.029241 19.659448,45.319538 19.378104,44 21.45031,44 c 0.79767,0 1.855624,-0.724256 2.351008,-1.609458 0.822401,-1.469549 0.956119,-1.465034 1.538236,0.05194 0.350645,0.913768 0.239845,1.415609 -0.246224,1.115202 -0.486068,-0.300406 -1.13626,0.11181 -1.444871,0.916038 -0.867179,2.259831 1.033234,2.780949 3.720475,1.020202 2.346043,-1.537186 2.420607,-1.508559 2.278245,0.874678 C 29.566231,47.723732 29.05,48.757669 28.5,48.666238 27.95,48.574807 27.6125,49.0625 27.75,49.75 c 0.302882,1.51441 0.192817,1.512571 -1.903813,-0.0318 z M 19.8125,42.316886 c 0.721875,-0.288871 1.584375,-0.253344 1.916667,0.07895 0.332291,0.332292 -0.258334,0.568641 -1.3125,0.52522 -1.164943,-0.04798 -1.4019,-0.284941 -0.604167,-0.604167 z M 14.035435,31.94113 C 14.054925,31.148508 14.713979,29.375 15.5,28 c 1.263292,-2.209898 1.429551,-2.267919 1.432761,-0.5 0.002,1.1 -0.657056,2.873508 -1.464564,3.94113 -1.033458,1.366352 -1.457704,1.514404 -1.432762,0.5 z"
         style="fill:#838ab9" />
      <path
         id="path863"
         d="M 31.881248,62.384785 C 29.771116,61.751745 29.811894,61.171504 31.5,61.020733 33.135725,60.87464 32.999122,60.659169 30.75,59.837719 27.821287,58.768062 27.022911,57 29.468615,57 c 0.823185,0 1.240594,-0.594215 0.949774,-1.35208 -0.285364,-0.743644 0.56562,-2.062647 1.891074,-2.931118 1.325453,-0.868471 3.16418,-2.333302 4.086059,-3.255181 0.954575,-0.954576 2.533045,-1.452058 3.666658,-1.155612 1.186823,0.310362 3.090218,-0.362486 4.714167,-1.666451 6.193575,-4.97319 6.676517,-5.274194 5.839424,-3.639558 -0.422481,0.825 0.163726,0.440626 1.302681,-0.854164 1.971861,-2.241657 1.980768,-4.819619 0.01245,-3.603131 C 51.418906,38.859136 51,38.191476 51,37.059017 51,35.926558 51.63046,35 52.401023,35 53.354422,35 53.770348,33.881759 53.702835,31.5 53.648269,29.575 53.242808,28 52.801812,28 52.360815,28 52,27.25 52,26.333333 52,25.416667 51.702667,24.964 51.339259,25.327407 50.975852,25.690815 50.181796,24.991822 49.574691,23.774089 48.967585,22.556357 46.902419,20.501144 44.985431,19.206949 42.07869,17.244553 40.75286,16.964546 37,17.520477 c -2.475,0.366635 -4.125,0.287015 -3.666667,-0.176934 0.839093,-0.849373 1.331087,-0.989655 4.273656,-1.218543 0.952327,-0.07408 1.385513,-0.702157 1.063335,-1.541739 -0.818879,-2.133965 5.422123,-1.076844 11.336544,1.920219 16.992629,8.610817 16.307178,33.476007 0.339459,43.622388 -4.827582,3.067595 -14.385089,3.482914 -18.465079,2.258917 z M 50.400204,54.399469 C 51.357596,51.904544 50.620628,51.77314 48.21904,54.01056 47.044563,55.104752 45.389811,56 44.541813,56 43.693816,56 43,56.45 43,57 c 0,0.55 -1.6875,1.059239 -3.75,1.131641 l -3.75,0.131641 3.5,0.673503 c 3.997495,0.769236 10.331228,-1.751609 11.400204,-4.537316 z M 37.5,52 c 1.5808,-1.65 2.452491,-2.985779 1.937091,-2.968399 C 38.384949,49.067082 33,53.601546 33,54.452034 33,55.777477 34.843156,54.773147 37.5,52 Z m 9.074601,-0.120707 c 0.907523,-1.468403 -2.244892,-0.981495 -3.509307,0.542033 -0.968526,1.167002 -0.808714,1.324338 0.893139,0.879293 1.140004,-0.298118 2.31728,-0.937714 2.616168,-1.421326 z M 25.846187,49.718197 C 24.93659,49.048188 23.24909,47.838158 22.096187,47.029241 19.659448,45.319538 19.378104,44 21.45031,44 c 0.79767,0 1.855624,-0.724256 2.351008,-1.609458 0.822401,-1.469549 0.956119,-1.465034 1.538236,0.05194 0.350645,0.913768 0.239845,1.415609 -0.246224,1.115202 -0.486068,-0.300406 -1.13626,0.11181 -1.444871,0.916038 -0.867179,2.259831 1.033234,2.780949 3.720475,1.020202 2.346043,-1.537186 2.420607,-1.508559 2.278245,0.874678 C 29.566231,47.723732 29.05,48.757669 28.5,48.666238 27.95,48.574807 27.6125,49.0625 27.75,49.75 c 0.302882,1.51441 0.192817,1.512571 -1.903813,-0.0318 z M 19.8125,42.316886 c 0.721875,-0.288871 1.584375,-0.253344 1.916667,0.07895 0.332291,0.332292 -0.258334,0.568641 -1.3125,0.52522 -1.164943,-0.04798 -1.4019,-0.284941 -0.604167,-0.604167 z M 14.035435,31.94113 C 14.054925,31.148508 14.713979,29.375 15.5,28 c 1.263292,-2.209898 1.429551,-2.267919 1.432761,-0.5 0.002,1.1 -0.657056,2.873508 -1.464564,3.94113 -1.033458,1.366352 -1.457704,1.514404 -1.432762,0.5 z"
         style="fill:#8488a9"
         sodipodi:nodetypes="sssssssssssssssssssssssssssssssscsssssssssssssssssssssssssssssssss" />
      <path
         id="path861"
         d="m 45.333333,60.475422 c 0,-1.492638 2.348204,-2.790277 3.623262,-2.002248 0.426861,0.263815 1.623752,-0.487077 2.659758,-1.66865 1.036006,-1.181572 1.321147,-1.819402 0.633647,-1.417401 -1.751873,1.024371 -1.557514,-0.389843 0.342047,-2.488833 1.473118,-1.627778 1.442348,-1.720045 -0.411898,-1.235149 -1.10217,0.288224 -2.924775,1.381927 -4.050234,2.430451 C 47.004457,55.142116 45.389811,56 44.541813,56 43.693816,56 43,56.45 43,57 c 0,0.55 -1.6875,1.067424 -3.75,1.149832 -3.382701,0.135157 -3.456161,0.191667 -0.75,0.576947 1.65,0.234914 3.325271,0.74026 3.722825,1.122993 C 43.36378,60.948192 34.848276,60.939948 31.25,59.839149 27.944137,58.827806 26.797305,57 29.468615,57 c 0.823185,0 1.240594,-0.594215 0.949774,-1.35208 -0.285364,-0.743644 0.56562,-2.062647 1.891074,-2.931118 1.325453,-0.868471 3.16418,-2.333302 4.086059,-3.255181 0.954575,-0.954576 2.533045,-1.452058 3.666658,-1.155612 1.186823,0.310362 3.090218,-0.362486 4.714167,-1.666451 C 50.902124,41.720807 51.464544,41.363176 50.5,43 c -0.733693,1.245071 -0.623215,1.289033 0.650051,0.258676 0.843682,-0.682728 1.819471,-0.955821 2.16842,-0.606872 0.348948,0.348949 0.935617,-0.150372 1.303708,-1.109601 C 55.304569,39.763923 53.301844,37.695416 51.797746,38.625 51.358986,38.896169 51,38.138992 51,36.942386 c 0,-1.683319 0.452582,-2.057296 2,-1.652637 1.483493,0.387942 2,0.03068 2,-1.383369 C 55,32.857871 54.55,32 54,32 c -1.791812,0 -1.052371,-1.848603 1,-2.5 2.090822,-0.663601 2.777958,-2.5 0.93544,-2.5 -0.585508,0 -2.235702,-1.391822 -3.667097,-3.092939 -1.431395,-1.701116 -4.402048,-4.228921 -6.601451,-5.617343 -3.345205,-2.111735 -3.731604,-2.673999 -2.363704,-3.439515 2.31029,-1.292903 10.905812,3.246186 14.115185,7.453891 9.543706,12.512444 6.024703,30.383784 -7.313716,37.142872 -3.578808,1.813519 -4.771324,2.070566 -4.771324,1.028456 z M 37.5,52 c 1.5808,-1.65 2.452491,-2.985779 1.937091,-2.968399 C 38.384949,49.067082 33,53.601546 33,54.452034 33,55.777477 34.843156,54.773147 37.5,52 Z m 9.074601,-0.120707 c 0.907523,-1.468403 -2.244892,-0.981495 -3.509307,0.542033 -0.968526,1.167002 -0.808714,1.324338 0.893139,0.879293 1.140004,-0.298118 2.31728,-0.937714 2.616168,-1.421326 z M 25.846187,49.718197 C 24.93659,49.048188 23.24909,47.838158 22.096187,47.029241 19.659448,45.319538 19.378104,44 21.45031,44 c 0.79767,0 1.855624,-0.724256 2.351008,-1.609458 0.822401,-1.469549 0.956119,-1.465034 1.538236,0.05194 0.350645,0.913768 0.239845,1.415609 -0.246224,1.115202 -0.486068,-0.300406 -1.13626,0.11181 -1.444871,0.916038 -0.867179,2.259831 1.033234,2.780949 3.720475,1.020202 2.346043,-1.537186 2.420607,-1.508559 2.278245,0.874678 C 29.566231,47.723732 29.05,48.757669 28.5,48.666238 27.95,48.574807 27.6125,49.0625 27.75,49.75 c 0.302882,1.51441 0.192817,1.512571 -1.903813,-0.0318 z M 19.8125,42.316886 c 0.721875,-0.288871 1.584375,-0.253344 1.916667,0.07895 0.332291,0.332292 -0.258334,0.568641 -1.3125,0.52522 -1.164943,-0.04798 -1.4019,-0.284941 -0.604167,-0.604167 z M 14.035435,31.94113 C 14.054925,31.148508 14.713979,29.375 15.5,28 c 1.263292,-2.209898 1.429551,-2.267919 1.432761,-0.5 0.002,1.1 -0.657056,2.873508 -1.464564,3.94113 -1.033458,1.366352 -1.457704,1.514404 -1.432762,0.5 z M 33.364959,17.2185 c 0.265647,-0.429824 1.979704,-0.856392 3.809017,-0.947928 2.68802,-0.134504 2.94238,0.0019 1.326024,0.711214 -2.539323,1.11431 -5.769451,1.263212 -5.135041,0.236714 z"
         style="fill:#7984b8" />
      <path
         sodipodi:nodetypes="ssssssssssssssssssssssssssssssssssssssssssssssssssss"
         id="path859"
         d="m 45.333333,60.475422 c 0,-1.492638 2.348204,-2.790277 3.623262,-2.002248 0.426861,0.263815 1.623752,-0.487077 2.659758,-1.66865 1.036006,-1.181572 1.321147,-1.819402 0.633647,-1.417401 -1.803051,1.054296 -1.536294,-0.402345 0.5,-2.730277 0.9625,-1.100349 1.225935,-1.695478 0.58541,-1.32251 -0.640524,0.372969 -1.341728,0.146711 -1.55823,-0.502795 -0.23296,-0.698882 -2.324731,-1.154986 -5.124524,-1.117387 -4.189699,0.05626 -4.52622,-0.0917 -2.94177,-1.293507 0.984013,-0.746372 2.548841,-1.371352 3.477396,-1.388844 0.928555,-0.01749 3.018957,-1.269303 4.645337,-2.781803 2.696578,-2.507761 2.936919,-3.264901 2.728452,-8.595367 -0.161048,-4.117973 0.165397,-5.996558 1.104663,-6.356988 C 57.254839,28.688231 57.452276,27 55.93544,27 c -0.585508,0 -2.235702,-1.391822 -3.667097,-3.092939 -1.431395,-1.701116 -4.402048,-4.228921 -6.601451,-5.617343 -3.345205,-2.111735 -3.731604,-2.673999 -2.363704,-3.439515 2.31029,-1.292903 11.391714,2.857464 14.277152,7.16235 8.761736,13.071938 5.862736,30.675325 -7.475683,37.434413 -3.578808,1.813519 -4.771324,2.070566 -4.771324,1.028456 z M 29.269032,58.307009 c 0.972967,-0.253543 2.322967,-0.236869 3,0.03705 C 32.946064,58.617986 32.15,58.825431 30.5,58.805051 28.85,58.784672 28.296064,58.560553 29.269032,58.307009 Z m 5.11665,-0.869697 C 34.723557,56.556824 35,55.662353 35,55.449597 c 0,-0.212755 0.753124,-0.09783 1.673609,0.255397 1.276504,0.48984 1.518455,0.237901 1.019711,-1.061805 -0.462859,-1.206192 0.07196,-2.034752 1.830618,-2.83605 2.649609,-1.207242 4.825249,-0.259016 2.583949,1.126183 -1.106782,0.684029 -1.101846,0.910589 0.02896,1.329202 0.960948,0.355734 0.773044,0.701587 -0.636847,1.172166 -1.1,0.367147 -3.288943,1.328132 -4.864318,2.135524 -2.583828,1.324231 -2.80416,1.311217 -2.25,-0.132902 z m 0.178611,-5.73044 c 0.375531,-0.986221 0.934692,-1.541221 1.242579,-1.233333 0.307887,0.307887 6.34e-4,1.114794 -0.682784,1.793128 -0.987616,0.980267 -1.10248,0.865403 -0.559795,-0.559795 z M 26.354916,47.75 c 0.188302,-1.2375 1.122092,-2.402547 2.075089,-2.588993 1.634994,-0.319874 1.637044,-0.19297 0.03635,2.25 C 26.38443,50.588424 25.911458,50.66436 26.354916,47.75 Z M 23.5,48 c -0.339919,-0.55 0.110081,-1 1,-1 0.889919,0 1.339919,0.45 1,1 -0.339919,0.55 -0.789919,1 -1,1 -0.210081,0 -0.660081,-0.45 -1,-1 z M 20,44.616631 c 0,-0.210852 0.9,-0.618724 2,-0.90638 1.1,-0.287656 2,-0.115141 2,0.383369 C 24,44.592129 23.1,45 22,45 20.9,45 20,44.827484 20,44.616631 Z"
         style="fill:#888996" />
      <path
         id="path857"
         d="m 46.325003,58.877927 c 1.003751,-0.58369 2.075419,-0.810839 2.381483,-0.504775 C 49.491366,59.158032 53,57.141726 53,55.905799 53,55.342691 52.55,55.160081 52,55.5 c -1.593342,0.984739 -1.159395,-0.660295 0.75,-2.843154 0.9625,-1.100349 1.225935,-1.695478 0.58541,-1.32251 -0.640524,0.372969 -1.341728,0.146711 -1.55823,-0.502795 -0.23296,-0.698882 -2.324731,-1.154986 -5.124524,-1.117387 -4.189699,0.05626 -4.52622,-0.0917 -2.94177,-1.293507 0.984013,-0.746372 2.548841,-1.371352 3.477396,-1.388844 0.928555,-0.01749 3.018957,-1.269303 4.645337,-2.781803 2.696791,-2.507959 2.936929,-3.264656 2.728382,-8.597376 -0.205931,-5.265832 0.0034,-5.953109 2.104663,-6.910515 C 57.949999,28.157383 59,27.376202 59,27.006152 c 0,-1.462155 -1.384669,-1.931794 -2.635339,-0.893831 -1.008746,0.837185 -1.952595,0.34241 -4.009106,-2.101614 -1.479361,-1.758122 -4.527055,-4.373464 -6.772651,-5.811872 -3.15632,-2.021768 -3.672498,-2.700697 -2.274491,-2.991635 0.994628,-0.206991 2.569628,-0.04185 3.5,0.366985 0.930373,0.408833 1.97079,0.691323 2.312038,0.627757 1.77459,-0.330565 9.458071,7.844811 11.505848,12.24245 3.023622,6.493282 3.030311,12.606706 0.02085,19.055608 -2.930901,6.28056 -9.626624,12.51136 -13.400032,12.469591 -2.421426,-0.0268 -2.53075,-0.156229 -0.922116,-1.091664 z M 29.269032,58.307009 c 0.972967,-0.253543 2.322967,-0.236869 3,0.03705 C 32.946064,58.617986 32.15,58.825431 30.5,58.805051 28.85,58.784672 28.296064,58.560553 29.269032,58.307009 Z m 5.11665,-0.869697 C 34.723557,56.556824 35,55.662353 35,55.449597 c 0,-0.212755 0.753124,-0.09783 1.673609,0.255397 1.276504,0.48984 1.518455,0.237901 1.019711,-1.061805 -0.462859,-1.206192 0.07196,-2.034752 1.830618,-2.83605 2.649609,-1.207242 4.825249,-0.259016 2.583949,1.126183 -1.106782,0.684029 -1.101846,0.910589 0.02896,1.329202 0.960948,0.355734 0.773044,0.701587 -0.636847,1.172166 -1.1,0.367147 -3.288943,1.328132 -4.864318,2.135524 -2.583828,1.324231 -2.80416,1.311217 -2.25,-0.132902 z m 0.178611,-5.73044 c 0.375531,-0.986221 0.934692,-1.541221 1.242579,-1.233333 0.307887,0.307887 6.34e-4,1.114794 -0.682784,1.793128 -0.987616,0.980267 -1.10248,0.865403 -0.559795,-0.559795 z M 26.354916,47.75 c 0.188302,-1.2375 1.122092,-2.402547 2.075089,-2.588993 1.634994,-0.319874 1.637044,-0.19297 0.03635,2.25 C 26.38443,50.588424 25.911458,50.66436 26.354916,47.75 Z M 23.5,48 c -0.339919,-0.55 0.110081,-1 1,-1 0.889919,0 1.339919,0.45 1,1 -0.339919,0.55 -0.789919,1 -1,1 -0.210081,0 -0.660081,-0.45 -1,-1 z M 20,44.616631 c 0,-0.210852 0.9,-0.618724 2,-0.90638 1.1,-0.287656 2,-0.115141 2,0.383369 C 24,44.592129 23.1,45 22,45 20.9,45 20,44.827484 20,44.616631 Z"
         style="fill:#6f7ab1" />
      <path
         sodipodi:nodetypes="sssssssssssssssssssssssssss"
         id="path855"
         d="m 46.325003,58.877927 c 1.003751,-0.58369 2.075419,-0.810839 2.381483,-0.504775 C 49.491366,59.158032 53,57.141726 53,55.905799 53,55.342691 52.55,55.160081 52,55.5 c -1.593342,0.984739 -1.159395,-0.660295 0.75,-2.843154 0.9625,-1.100349 1.238957,-1.703527 0.614349,-1.340395 -2.232348,1.297833 -2.759074,-4.678188 -0.571378,-7.718091 1.662834,-2.310584 1.973402,-3.923411 1.606788,-8.344297 -0.413983,-4.992098 0.128444,-5.537606 2.260148,-6.508876 1.287051,-0.586419 3.001113,-1.846389 3.001113,-2.216439 0,-1.462155 -2.045689,-1.45439 -3.296359,-0.416427 -1.008746,0.837185 -1.952595,0.34241 -4.009106,-2.101614 -1.479361,-1.758122 -4.527055,-4.373464 -6.772651,-5.811872 -3.15632,-2.021768 -3.672498,-2.700697 -2.274491,-2.991635 0.994628,-0.206991 2.569628,-0.04185 3.5,0.366985 0.930373,0.408833 2.172768,0.526068 2.514016,0.462502 1.77459,-0.330565 11.643111,7.091982 11.30387,12.407705 -0.456187,7.148209 3.030311,12.606706 0.02085,19.055608 -2.930901,6.28056 -9.626624,12.51136 -13.400032,12.469591 -2.421426,-0.0268 -2.53075,-0.156229 -0.922116,-1.091664 z M 38.277355,54.031879 C 38.193173,52.914346 38.509526,52 38.980361,52 c 0.470835,0 1.680368,-0.309254 2.687852,-0.687231 1.497996,-0.562002 1.619506,-0.425336 0.666824,0.75 -0.64073,0.790477 -1.17946,1.887231 -1.197179,2.437231 -0.06315,1.960259 -2.71021,1.527069 -2.860503,-0.468121 z"
         style="fill:#7c809b" />
      <path
         id="path853"
         d="M 50.75,58.01096 C 52.996405,56.6413 54,55.271087 54,53.573715 54,52.223091 54.45,50.839919 55,50.5 c 0.55,-0.339919 1,-1.096576 1,-1.681462 0,-0.716449 -0.446133,-0.69317 -1.367321,0.07135 -1.028954,0.853956 -1.630077,0.818175 -2.4291,-0.144588 -0.784518,-0.945286 -0.427472,-1.889862 1.367322,-3.617291 1.336004,-1.28586 2.476782,-3.078195 2.535062,-3.982967 0.234964,-3.647754 -0.32597,-7.698438 -1.190231,-8.59504 -1.431679,-1.485254 -1.112065,-2.139515 1.662818,-3.403836 2.536139,-1.155542 2.875002,-3.928133 0.409495,-3.350512 C 55.394335,26.169027 51,22.111575 51,20.266669 c 0,-0.761587 -0.356586,-1.16432 -0.792414,-0.894964 -0.435828,0.269356 -0.860423,-0.413102 -0.943546,-1.516574 -0.130048,-1.726434 0.08512,-1.828371 1.542415,-0.730734 5.002262,3.767711 7.683344,6.876593 9.810254,11.375603 3.036981,6.424066 3.046774,12.53637 0.03044,19 C 58.334509,52.455702 51.14688,60.003455 48.747117,59.996262 48.061204,59.994206 48.9625,59.10082 50.75,58.01096 Z M 38.277355,54.031879 C 38.193173,52.914346 38.509526,52 38.980361,52 c 0.470835,0 1.680368,-0.309254 2.687852,-0.687231 1.497996,-0.562002 1.619506,-0.425336 0.666824,0.75 -0.64073,0.790477 -1.17946,1.887231 -1.197179,2.437231 -0.06315,1.960259 -2.71021,1.527069 -2.860503,-0.468121 z"
         style="fill:#777a96" />
      <path
         id="path851"
         d="M 52.266214,56.66712 C 56.020819,52.912514 59.296903,44.193882 59.09184,38.502105 58.7245,28.306131 58.269534,25.730343 56.678689,24.840062 55.75541,24.323369 55,23.395914 55,22.779051 55,22.162187 54.219535,20.722048 53.265633,19.578741 52.311731,18.435433 53.043646,18.85 54.892111,20.5 c 4.471289,3.991219 8.091506,11.835764 8.076158,17.5 -0.02026,7.476788 -6.0061,17.737189 -12.365676,21.196151 -1.043574,0.567598 -0.294944,-0.570466 1.663621,-2.529031 z M 38.277355,54.031879 C 38.193173,52.914346 38.509526,52 38.980361,52 c 0.470835,0 1.680368,-0.309254 2.687852,-0.687231 1.497996,-0.562002 1.619506,-0.425336 0.666824,0.75 -0.64073,0.790477 -1.17946,1.887231 -1.197179,2.437231 -0.06315,1.960259 -2.71021,1.527069 -2.860503,-0.468121 z"
         style="fill:#5a6eb2" />
      <path
         id="path849"
         d="M 50.959943,57.458799 C 54.714548,53.704193 59.296903,44.193882 59.09184,38.502105 58.7245,28.306131 58.269534,25.730343 56.678689,24.840062 55.75541,24.323369 55,23.395914 55,22.779051 c 0,-0.616864 -1.019167,-2.185535 -1.973069,-3.328842 -0.953902,-1.143308 0.491723,-1.471056 2.340188,0.178942 4.471289,3.991219 8.329009,12.073268 7.917822,18.370847 -0.487146,7.460929 -1.889368,15.876743 -12.167756,21.433655 -1.045,0.564969 -2.115807,-0.01629 -0.157242,-1.974856 z"
         style="fill:#777888"
         sodipodi:nodetypes="ssssssssss" />
      <path
         id="path847"
         d="m 58.581857,50.5 c 3.346812,-9.571505 3.552423,-14.691554 0.923635,-23 -0.348039,-1.1 0.169827,-0.65 1.150813,1 2.68813,4.521384 2.429996,14.845308 -0.500069,20 -1.250539,2.2 -1.959009,3.1 -1.574379,2 z"
         style="fill:#6e6f75" />
    </g>
  </g>
</svg>
