<?xml version="1.0" encoding="UTF-8" standalone="no"?>
<svg
   xmlns:dc="http://purl.org/dc/elements/1.1/"
   xmlns:cc="http://creativecommons.org/ns#"
   xmlns:rdf="http://www.w3.org/1999/02/22-rdf-syntax-ns#"
   xmlns:svg="http://www.w3.org/2000/svg"
   xmlns="http://www.w3.org/2000/svg"
   xmlns:sodipodi="http://sodipodi.sourceforge.net/DTD/sodipodi-0.dtd"
   xmlns:inkscape="http://www.inkscape.org/namespaces/inkscape"
   inkscape:version="1.0 (4035a4f, 2020-05-01)"
   sodipodi:docname="sat.svg"
   viewBox="0 0 76 76"
   height="76"
   width="76"
   id="svg911"
   version="1.1">
  <metadata
     id="metadata917">
    <rdf:RDF>
      <cc:Work
         rdf:about="">
        <dc:format>image/svg+xml</dc:format>
        <dc:type
           rdf:resource="http://purl.org/dc/dcmitype/StillImage" />
        <dc:title />
      </cc:Work>
    </rdf:RDF>
  </metadata>
  <defs
     id="defs915" />
  <sodipodi:namedview
     inkscape:current-layer="g1484"
     inkscape:window-maximized="1"
     inkscape:window-y="23"
     inkscape:window-x="0"
     inkscape:cy="35.341047"
     inkscape:cx="74.143171"
     inkscape:zoom="4.515428"
     showgrid="false"
     id="namedview913"
     inkscape:window-height="803"
     inkscape:window-width="1440"
     inkscape:pageshadow="2"
     inkscape:pageopacity="0"
     guidetolerance="10"
     gridtolerance="10"
     objecttolerance="10"
     borderopacity="1"
     bordercolor="#666666"
     pagecolor="#ffffff"
     inkscape:document-rotation="0" />
  <g
     id="g919"
     inkscape:label="Image"
     inkscape:groupmode="layer">
    <g
       id="g1484">
      <path
         id="path1540"
         d="M 4,58.248446 C 0.02564865,56.263035 -0.97071798,52.757734 1.051549,47.87555 2.29228,44.88016 11.023824,36.317447 15.802954,33.409374 17.286329,32.506749 19.85,29.712529 21.5,27.199997 c 4.149082,-6.318002 9.171279,-8.756804 17.5,-8.498082 3.575,0.111053 10.286232,-0.50166 14.913849,-1.361584 9.40398,-1.74749 15.818992,-1.400625 19.571723,1.058259 C 75.459368,19.69187 76,20.88387 76,23.942466 c 0,3.283539 -0.792524,4.763507 -5.03893,9.409751 -2.771411,3.032366 -7.022668,6.768399 -9.447237,8.302296 -2.424569,1.533898 -4.656919,3.779453 -4.960778,4.990124 -0.882664,3.516813 -5.632029,8.486298 -10.011685,10.475699 -4.4296,2.012089 -10.996102,2.417672 -14.929652,0.922139 -1.734853,-0.65959 -4.633261,-0.509417 -9.3151,0.482636 C 13.265236,60.438806 8.2322691,60.362701 4,58.248446 Z M 19.761915,48.090782 c -1.228734,-2.043612 -1.265869,-2.860631 -1.754972,-5.312452 -0.134803,-0.675754 -0.01912,-1.694997 -0.034,-2.611663 -0.01902,-1.171609 -1.058643,-0.557148 -3.5,2.068648 -5.9866132,6.438888 -4.208196,10.545908 4.633865,10.701299 L 22.713613,53 Z M 65,27.549869 C 65,26.121914 64.179688,24.63135 63.065741,24.035184 61.008802,22.934343 52,22.584648 52,23.605644 c 0,0.333104 1.107094,1.921351 2.460209,3.529437 1.353115,1.608086 2.768081,4.564887 3.144368,6.57067 l 0.684158,3.646877 3.355633,-3.661629 C 63.565138,31.595076 65,28.96914 65,27.549869 Z"
         style="fill:#e1dcb9;fill-opacity:1"
         sodipodi:nodetypes="sssssssssssssssssssscsssssscss" />
      <path
         id="path1538"
         d="M 5.6860671,58.983432 C 4.1384039,58.518868 2.2259039,57.602447 1.4360671,56.94694 -0.96642774,54.953047 -0.26947599,49.672078 2.989987,45.17252 5.8859725,41.174728 16.6,32.001905 18.375,32.000629 20.279729,31.99926 17.801665,38.477132 14.499024,42.13276 8.4668968,48.809604 10.313315,53 19.287466,53 h 4.418949 l -0.45409,-5.25 c -0.24975,-2.8875 -1.046342,-7.06821 -1.770205,-9.290467 -3.658209,-11.230694 7.746579,-22.675376 19.598486,-19.667042 2.748385,0.697615 5.19946,0.558737 9.09115,-0.515103 7.938208,-2.190401 19.788646,-2.188579 23.13427,0.0036 3.112797,2.039583 3.584034,6.097188 1.235541,10.638672 -1.591026,3.076705 -10.138324,11.138394 -14.609816,13.779769 -1.542344,0.911085 -3.069393,2.712886 -3.393442,4.004002 -0.991616,3.950911 -7.714898,9.806148 -12.939618,11.268979 -3.704129,1.037092 -5.839024,1.084825 -9.608078,0.214823 -3.811338,-0.879804 -6.481056,-0.8057 -12.506163,0.347093 C 13.022267,60.153409 9.8812306,60.2427 5.6860671,58.983432 Z M 65,27.549869 C 65,26.121914 64.179688,24.63135 63.065741,24.035184 61.182108,23.027094 52,22.54616 52,23.455591 c 0,0.250575 1.092528,2.06552 2.427839,4.033212 1.335312,1.967692 2.740771,5.00239 3.123243,6.743774 l 0.695404,3.166153 3.376757,-3.68468 C 63.560302,31.600353 65,28.972222 65,27.549869 Z"
         style="fill:#e9ebcf" />
      <path
         id="path1536"
         d="M 6.2561634,59.066918 C 1.6205106,57.906806 0,56.212949 0,52.527594 0,48.223727 4.3403124,42.393995 11.842554,36.621152 15.145597,34.079518 18.096018,32 18.399044,32 c 1.61246,0 -1.09897,6.980174 -3.884473,10 -4.386339,4.755327 -4.8894555,6.625115 -2.441382,9.073189 1.618359,1.618359 3.077733,1.967147 7.227319,1.727319 C 24.248495,52.514536 24.5,52.365432 24.5,49.718011 c 0,-1.530093 0.599529,-3.154536 1.332286,-3.609872 C 27.402687,45.13229 26.682294,37.712247 24.440364,31.771342 21.442259,23.826648 26.174538,19.611309 38.454062,19.288457 42.879328,19.172108 50.325,18.369533 55,17.504957 c 24.025369,-4.443157 28.593168,7.383047 8.575996,22.203581 -3.559341,2.635304 -6.890573,5.939886 -7.402738,7.343515 -1.415604,3.879575 -6.635458,8.577144 -11.665221,10.498028 -3.923258,1.498306 -5.265352,1.562493 -10.305616,0.492876 -4.169965,-0.884927 -6.903614,-0.941952 -9.748678,-0.20336 -5.99794,1.557092 -14.5697694,2.135213 -18.1975796,1.227321 z M 65,27.549869 C 65,24.316863 62.38844,23 55.976848,23 h -5.154635 l 2.562254,3.045066 c 1.40924,1.674787 3.111843,4.879429 3.783562,7.121427 l 1.221307,4.076361 3.305332,-3.606742 C 63.576653,31.582511 65,28.961644 65,27.549869 Z"
         style="fill:#e1e0bd" />
      <path
         id="path1534"
         d="M 6.2561634,59.066918 C 1.6205106,57.906806 0,56.212949 0,52.527594 0,48.223727 4.3403124,42.393995 11.842554,36.621152 15.145597,34.079518 18.096018,32 18.399044,32 c 1.61246,0 -1.09897,6.980174 -3.884473,10 -4.362711,4.729711 -4.886893,6.627678 -2.49189,9.022681 1.453535,1.453535 3.235575,1.950914 6.727319,1.877639 5.166924,-0.108429 11.441664,-1.590927 7.75,-1.831049 -1.830393,-0.119056 -1.853119,-0.215674 -0.267986,-1.139304 1.445431,-0.842229 1.646818,-2.036801 1.217117,-7.219592 C 27.165938,39.294669 26.182516,34.107883 25.263748,31.184183 23.321883,25.004785 23.903416,23.407962 29.074888,20.719228 31.49469,19.461133 34.554581,18.972189 39.5,19.053387 43.35,19.1166 50.325,18.440372 55,17.55066 c 23.996314,-4.566807 28.601356,7.331282 8.575996,22.157878 -3.559341,2.635304 -6.890573,5.939886 -7.402738,7.343515 -1.415604,3.879575 -6.635458,8.577144 -11.665221,10.498028 -3.923258,1.498306 -5.265352,1.562493 -10.305616,0.492876 -4.169965,-0.884927 -6.903614,-0.941952 -9.748678,-0.20336 -5.99794,1.557092 -14.5697694,2.135213 -18.1975796,1.227321 z M 65,27.549869 C 65,24.316863 62.38844,23 55.976848,23 h -5.154635 l 2.562254,3.045066 c 1.40924,1.674787 3.111843,4.879429 3.783562,7.121427 l 1.221307,4.076361 3.305332,-3.606742 C 63.576653,31.582511 65,28.961644 65,27.549869 Z"
         style="fill:#e0ddbc" />
      <path
         id="path1532"
         d="M 6.2561634,59.066918 C 1.6205106,57.906806 0,56.212949 0,52.527594 0,48.223727 4.3403124,42.393995 11.842554,36.621152 15.145597,34.079518 18.096018,32 18.399044,32 c 1.61246,0 -1.09897,6.980174 -3.884473,10 -4.420701,4.792579 -4.8933983,6.621173 -2.365153,9.149418 1.83389,1.83389 2.929591,2.03779 8.533329,1.587976 3.5361,-0.283844 6.573242,-0.678376 6.749204,-0.876737 0.761725,-0.858689 1.144177,-11.716723 0.396419,-11.254584 -0.455603,0.281579 -0.848122,-0.977097 -0.872263,-2.797056 -0.02414,-1.819959 -0.666005,-5.054376 -1.426364,-7.187594 C 22.738374,22.790134 27.730565,18.752235 39.866087,19.025572 43.514739,19.107753 50.325,18.445544 55,17.553996 c 23.994194,-4.575821 28.601956,7.327502 8.575996,22.154542 -3.559341,2.635304 -6.890573,5.939886 -7.402738,7.343515 -1.415604,3.879575 -6.635458,8.577144 -11.665221,10.498028 -3.923258,1.498306 -5.265352,1.562493 -10.305616,0.492876 -4.169965,-0.884927 -6.903614,-0.941952 -9.748678,-0.20336 -5.99794,1.557092 -14.5697694,2.135213 -18.1975796,1.227321 z M 65,27.549869 C 65,24.316863 62.38844,23 55.976848,23 h -5.154635 l 2.562254,3.045066 c 1.40924,1.674787 3.111843,4.879429 3.783562,7.121427 l 1.221307,4.076361 3.305332,-3.606742 C 63.576653,31.582511 65,28.961644 65,27.549869 Z"
         style="fill:#d4d1ce" />
      <path
         id="path1530"
         d="M 3.2282638,57.835988 C 0.62471399,56.505394 -0.50375953,53.143274 0.41907249,49.466418 1.133369,46.620434 11.088212,36.454264 15.855169,33.702636 l 3.113777,-1.797364 -0.657986,3.289929 c -0.361892,1.809461 -1.647824,4.068536 -2.857625,5.020166 -1.209802,0.95163 -2.969562,3.352728 -3.910579,5.335774 -1.6293842,3.433673 -1.6237711,3.701857 0.117757,5.626223 1.567036,1.731556 2.787614,1.966503 8.530414,1.642006 3.685945,-0.208275 6.895046,-0.590336 7.131336,-0.849026 0.8347,-0.913825 1.322583,-11.86888 0.506107,-11.364271 -0.455603,0.281579 -0.848122,-0.977097 -0.872263,-2.797056 -0.02414,-1.819959 -0.666005,-5.054376 -1.426364,-7.187594 -1.834229,-5.145998 -0.698168,-7.790788 4.318163,-10.052838 2.957167,-1.333497 5.573449,-1.698375 9.71512,-1.354916 3.117449,0.258523 8.203587,-0.126763 11.302531,-0.856193 10.567501,-2.487377 21.983438,-1.530677 24.36913,2.042228 2.831886,4.241142 -2.186944,12.365641 -12.096617,19.582047 -3.382061,2.462879 -6.41781,5.324271 -6.746109,6.35865 -1.038782,3.272912 -7.394433,9.505311 -10.859468,10.648875 -1.834564,0.605461 -7.092379,1.021061 -11.684032,0.923557 C 29.256807,57.815328 21,58.019378 15.5,58.366277 8.7101709,58.794528 4.7707339,58.624297 3.2282638,57.835988 Z M 62.204927,33.75 c 3.616989,-4.813163 4.09181,-6.764628 2.164196,-8.894618 C 63.100372,23.453429 61.268953,23 56.875149,23 h -5.814875 l 2.495209,3.676897 c 1.372365,2.022293 2.77102,4.834793 3.108121,6.25 1.231706,5.170896 2.169383,5.310178 5.541323,0.823103 z"
         style="fill:#dbd7b4" />
      <path
         id="path1528"
         d="M 3.2282638,57.769806 C 0.63032431,56.517764 -0.50698326,53.156118 0.41907249,49.466418 1.133369,46.620434 11.088212,36.454264 15.855169,33.702636 l 3.113777,-1.797364 -0.657986,3.289929 c -0.361892,1.809461 -1.647824,4.068536 -2.857625,5.020166 -1.209802,0.95163 -2.969562,3.352728 -3.910579,5.335774 -1.6183043,3.410324 -1.6167808,3.709581 0.02814,5.527198 1.80895,1.998867 7.933934,2.570695 14.17195,1.323092 2.83412,-0.566824 3.026377,-0.919372 3.625079,-6.647442 0.372245,-3.561448 0.219854,-6.545759 -0.370581,-7.25719 -0.551548,-0.664574 -1.173474,-2.510725 -1.382058,-4.102558 -0.208584,-1.591832 -0.882418,-4.161205 -1.497408,-5.709716 -2.372123,-5.972878 3.490767,-10.170215 13.222607,-9.466278 3.310897,0.239489 8.526246,-0.154614 11.589664,-0.875785 10.506316,-2.473332 21.924747,-1.506826 24.304538,2.057242 2.82695,4.233749 -2.185353,12.364482 -12.051259,19.549016 -3.357113,2.444712 -6.601872,5.647281 -7.210575,7.116819 -1.434649,3.463549 -6.706561,8.52289 -10.287953,9.873127 -3.478263,1.311356 -11.948542,1.39232 -13.2349,0.126506 -0.589896,-0.580475 -3.224342,-0.396868 -6.95,0.484379 -7.038473,1.664842 -19.0282422,1.783414 -22.2717362,0.220255 z M 62.204927,33.75 c 3.616989,-4.813163 4.09181,-6.764628 2.164196,-8.894618 C 63.100372,23.453429 61.268953,23 56.875149,23 h -5.814875 l 2.495209,3.676897 c 1.372365,2.022293 2.77102,4.834793 3.108121,6.25 1.231706,5.170896 2.169383,5.310178 5.541323,0.823103 z"
         style="fill:#d3c9a6" />
      <path
         id="path1526"
         d="M 3.2282638,57.769806 C 0.63032431,56.517764 -0.50698326,53.156118 0.41907249,49.466418 1.133369,46.620434 11.088212,36.454264 15.855169,33.702636 l 3.113777,-1.797364 -0.657986,3.289929 c -0.361892,1.809461 -1.647824,4.068536 -2.857625,5.020166 -1.209802,0.95163 -2.969562,3.352728 -3.910579,5.335774 -1.6183043,3.410324 -1.6167808,3.709581 0.02814,5.527198 C 12.835807,52.47605 14.646582,53 18.212168,53 c 6.431597,0 14.42718,-1.979316 12.620914,-3.124323 -1.047915,-0.664282 -1.058162,-0.848327 -0.0479,-0.860364 0.920535,-0.01097 1.015526,-0.519173 0.334792,-1.791136 -0.596838,-1.115203 -0.599311,-2.40317 -0.0066,-3.462204 C 32.204935,41.811384 31.259498,37 29.784603,37 c -0.549219,0 -0.717672,-0.732037 -0.374339,-1.626748 0.343333,-0.894712 0.23177,-2.132212 -0.247918,-2.75 -1.892548,-2.437404 -3.121119,-7.831768 -2.18294,-9.584772 1.51398,-2.828896 6.483624,-4.33067 12.641199,-3.820036 3.08578,0.255897 8.146008,-0.131538 11.244952,-0.860968 10.567501,-2.487377 21.983438,-1.530677 24.36913,2.042228 2.82695,4.233749 -2.185353,12.364482 -12.051259,19.549016 -3.357113,2.444712 -6.601872,5.647281 -7.210575,7.116819 -1.434649,3.463549 -6.706561,8.52289 -10.287953,9.873127 -3.549744,1.338306 -9.245382,1.366925 -11.689753,0.05874 -1.309893,-0.701034 -3.771573,-0.555088 -8.184258,0.485219 -7.309904,1.723337 -19.2866287,1.875646 -22.5826252,0.287184 z M 62.204927,33.75 c 3.616989,-4.813163 4.09181,-6.764628 2.164196,-8.894618 C 63.100372,23.453429 61.268953,23 56.875149,23 h -5.814875 l 2.495209,3.676897 c 1.372365,2.022293 2.77102,4.834793 3.108121,6.25 1.231706,5.170896 2.169383,5.310178 5.541323,0.823103 z"
         style="fill:#cec39c" />
      <path
         id="path1524"
         d="M 3.2282638,57.769806 C 0.63032431,56.517764 -0.50698326,53.156118 0.41907249,49.466418 1.133369,46.620434 11.088212,36.454264 15.855169,33.702636 l 3.113777,-1.797364 -0.657986,3.289929 c -0.361892,1.809461 -1.647824,4.068536 -2.857625,5.020166 -1.209802,0.95163 -2.969562,3.352728 -3.910579,5.335774 -1.6183043,3.410324 -1.6167808,3.709581 0.02814,5.527198 2.020987,2.233166 8.884612,2.591168 15.884667,0.828533 4.089769,-1.029815 4.335607,-1.290549 4.244582,-4.501761 -0.05314,-1.874749 0.508816,-3.970342 1.248795,-4.656873 C 34.046355,41.730089 34.180847,41.822579 33.678563,43.25 33.339877,44.2125 33.498646,45 34.031385,45 35.784872,45 35.041052,40.479632 33,38.732028 31.9,37.790179 31,36.11354 31,35.006163 c 0,-1.107376 -0.9,-3.692617 -2,-5.744978 -1.1,-2.052362 -2,-4.514175 -2,-5.470696 0,-2.990028 5.588562,-5.060632 12.340485,-4.572242 3.310897,0.239489 8.526246,-0.154614 11.589664,-0.875785 10.506316,-2.473332 21.924747,-1.506826 24.304538,2.057242 2.82695,4.233749 -2.185353,12.364482 -12.051259,19.549016 -3.357113,2.444712 -6.601872,5.647281 -7.210575,7.116819 -1.434649,3.463549 -6.706561,8.52289 -10.287953,9.873127 -3.549744,1.338306 -9.245382,1.366925 -11.689753,0.05874 -1.309893,-0.701034 -3.771573,-0.555088 -8.184258,0.485219 -7.309904,1.723337 -19.2866287,1.875646 -22.5826252,0.287184 z M 62.204927,33.75 c 3.616989,-4.813163 4.09181,-6.764628 2.164196,-8.894618 C 63.100372,23.453429 61.268953,23 56.875149,23 h -5.814875 l 2.495209,3.676897 c 1.372365,2.022293 2.77102,4.834793 3.108121,6.25 1.231706,5.170896 2.169383,5.310178 5.541323,0.823103 z"
         style="fill:#c4baae" />
      <path
         id="path1522"
         d="M 2.6348587,56.92742 C -0.7488878,54.265764 -0.70120056,51.345024 2.8113959,46.114894 5.4820927,42.138322 13.243582,35.010374 17.220391,32.882051 18.862718,32.003104 18.992115,32.201687 18.403395,34.697579 18.039832,36.23891 16.74435,38.625 15.524547,40 12.342087,43.587367 10,47.254921 10,48.651078 c 0,4.102709 9.452996,5.791521 18.031388,3.221372 3.417381,-1.023872 3.754632,-1.437808 3.667781,-4.501762 -0.0526,-1.855816 0.509792,-3.935919 1.249771,-4.62245 C 34.046355,41.730089 34.180847,41.822579 33.678563,43.25 33.339877,44.2125 33.498646,45 34.031385,45 35.784872,45 35.041052,40.479632 33,38.732028 31.9,37.790179 31,36.11354 31,35.006163 c 0,-1.107376 -0.9,-3.692617 -2,-5.744978 -1.1,-2.052362 -2,-4.548693 -2,-5.547403 0,-2.788057 6.437274,-5.051666 12.566895,-4.419033 2.827272,0.2918 7.710115,-0.09393 11.007247,-0.869531 10.843711,-2.550833 22.248638,-1.637679 24.660545,1.974486 2.879237,4.312057 -2.179864,12.332413 -12.595157,19.96751 C 58.987789,43.044181 56,45.822155 56,46.540488 c 0,2.179783 -5.017509,7.427797 -9.085953,9.503362 -4.236612,2.161358 -8.404262,2.480668 -12.425065,0.951961 -1.905028,-0.72429 -4.449047,-0.584925 -9.127152,0.5 C 15.659203,59.746 5.908071,59.502129 2.6348587,56.92742 Z M 5.3450766,53.456872 C 5.019392,52.608151 4.5384542,52.128212 4.2763259,52.390341 c -0.2621283,0.262128 -0.1799783,0.956536 0.1825556,1.543128 0.9860493,1.595461 1.5623791,1.28551 0.8861951,-0.476597 z M 63.480917,32.242895 c 2.971502,-4.372959 3.045072,-5.004203 0.864095,-7.414154 C 63.10128,23.454431 61.237574,23 56.845012,23 53.615004,23 51,23.447391 51,24 c 0,0.55 0.367137,1 0.815859,1 1.254641,0 5.162256,7.464881 5.397873,10.311782 0.172982,2.0901 0.51837,2.366776 1.97883,1.585162 0.9731,-0.520787 2.90286,-2.61511 4.288355,-4.654049 z"
         style="fill:#b5b3ae" />
      <path
         id="path1520"
         d="M 2.6348587,56.92742 C -0.4639502,54.489896 -0.69830128,51.643816 1.858589,47.5 4.8766614,42.608771 15.61054,33 18.056419,33 19.54633,33 17.681353,37.555877 14.986246,40.5 12.107609,43.64461 10,47.179449 10,48.86283 c 0,3.896024 9.680094,5.511728 18.031388,3.00962 3.417381,-1.023872 3.754632,-1.437808 3.667781,-4.501762 -0.0526,-1.855816 0.509792,-3.935919 1.249771,-4.62245 C 34.046355,41.730089 34.180847,41.822579 33.678563,43.25 33.339877,44.2125 33.498646,45 34.031385,45 35.784872,45 35.041052,40.479632 33,38.732028 31.9,37.790179 31,36.11354 31,35.006163 c 0,-1.107376 -0.9,-3.692617 -2,-5.744978 -2.91456,-5.437938 -2.585739,-7.118501 1.747032,-8.928848 2.631191,-1.099382 5.399441,-1.392899 9.295881,-0.98564 3.482472,0.36399 7.579949,0.03945 11.002968,-0.871495 8.410783,-2.238299 19.077221,-1.952811 22.31926,0.597378 3.101481,2.439625 3.33353,5.288096 0.767998,9.42742 -2.676194,4.31787 -5.876849,7.508836 -12.26566,12.228527 -3.203443,2.366523 -5.885007,5.205174 -6.235203,6.600466 -0.846057,3.370959 -6.761339,8.329785 -11.702312,9.810136 -3.103233,0.929752 -5.117828,0.958109 -8.26658,0.116362 C 32.442273,56.394401 30.028895,56.457915 25,57.536124 14.946052,59.691718 5.8338071,59.443713 2.6348587,56.92742 Z M 5.7963288,54.045478 C 5.1249884,52.970492 4.3820498,52.284617 4.1453542,52.521312 3.7167585,52.949908 5.8960861,56 6.6309186,56 6.8432346,56 6.4676692,55.120465 5.7963288,54.045478 Z M 62.75,33.093752 C 64.5375,30.756675 66,28.236647 66,27.493689 66,24.522586 62.926349,23 56.928571,23 53.667857,23 51,23.27254 51,23.605644 c 0,0.333104 1.125251,1.942929 2.500557,3.577388 1.375307,1.634458 2.785603,4.75432 3.133992,6.933025 0.762727,4.769836 1.820624,4.59299 6.115451,-1.022305 z m 8.374088,-11.360419 c -0.987616,-0.980267 -1.10248,-0.865403 -0.559795,0.559795 0.375531,0.986221 0.934692,1.541221 1.242579,1.233333 0.307887,-0.307887 6.34e-4,-1.114794 -0.682784,-1.793128 z"
         style="fill:#c5b695" />
      <path
         id="path1518"
         d="M 2.6348587,56.92742 C -0.4639502,54.489896 -0.69830128,51.643816 1.858589,47.5 4.8766614,42.608771 15.61054,33 18.056419,33 19.54633,33 17.681353,37.555877 14.986246,40.5 7.4322098,48.751996 8.7588382,53 18.889927,53 27.543969,53 36.443774,49.999946 34.75,47.653695 34.6125,47.463227 35.039504,46.657327 35.698897,45.862807 36.358291,45.068286 37.152209,42.974123 37.46316,41.209112 37.935495,38.528052 37.717046,38 36.135583,38 34.422856,38 31.57171,33.423873 31.462726,30.5 31.442225,29.95 30.622743,28.292676 29.641654,26.817058 26.097996,21.487177 31.567591,17.988597 41.256674,19.387611 43.812807,19.756693 47.68686,19.40855 51,18.512023 54.025,17.693466 59.701814,17.018397 63.615141,17.011869 80.764483,16.983262 79.948075,27.371608 61.744115,40.819662 58.584852,43.153546 56,45.689367 56,46.454819 c 0,2.394938 -5.239486,7.749026 -9.45863,9.665517 -4.765743,2.164777 -8.982675,2.393337 -10.677761,0.578741 -0.99556,-1.06575 -2.674849,-0.979665 -9.289427,0.476202 C 15.182901,59.682499 6.0167235,59.587595 2.6348587,56.92742 Z M 5.7963288,54.045478 C 5.1249884,52.970492 4.3820498,52.284617 4.1453542,52.521312 3.7167585,52.949908 5.8960861,56 6.6309186,56 6.8432346,56 6.4676692,55.120465 5.7963288,54.045478 Z M 62.75,33.093752 C 64.5375,30.756675 66,28.236647 66,27.493689 66,24.522586 62.926349,23 56.928571,23 53.667857,23 51,23.27254 51,23.605644 c 0,0.333104 1.125251,1.942929 2.500557,3.577388 1.375307,1.634458 2.785603,4.75432 3.133992,6.933025 0.762727,4.769836 1.820624,4.59299 6.115451,-1.022305 z m 8.374088,-11.360419 c -0.987616,-0.980267 -1.10248,-0.865403 -0.559795,0.559795 0.375531,0.986221 0.934692,1.541221 1.242579,1.233333 0.307887,-0.307887 6.34e-4,-1.114794 -0.682784,-1.793128 z"
         style="fill:#b5a58f" />
      <path
         id="path1516"
         d="M 4.098156,57.735258 C 0.73596197,56.006096 -0.41006151,53.769951 0.4038867,50.526923 1.2021461,47.346405 10.334314,37.387562 14.923025,34.693464 L 18,32.886928 v 2.382222 c 0,1.310222 -1.167756,3.473163 -2.595014,4.806536 -11.8284122,11.050339 -1.877356,16.891997 17.698753,10.389858 4.776051,-1.58635 7.296001,-3.450551 4.705278,-3.480857 -0.966928,-0.01131 -0.924965,-0.2582 0.16057,-0.944729 0.88674,-0.560804 1.590434,-2.891906 1.774288,-5.877624 0.260362,-4.228157 0.04651,-4.927408 -1.469587,-4.805271 C 37.29843,35.435678 36.5,34.825 36.5,34 36.5,33.175 35.643646,31.7125 34.59699,30.75 33.550335,29.7875 33.19238,29 33.801536,29 c 0.609155,0 0.003,-1.104545 -1.346991,-2.454545 -2.697062,-2.697063 -2.870751,-3.338903 -1.49306,-5.517377 C 31.84439,19.631985 36.459184,19.203225 43,19.909581 c 1.375,0.148489 4.975,-0.440081 8,-1.307932 10.265386,-2.945067 21.633357,-1.778486 24.299099,2.493574 2.420927,3.879726 -0.822255,8.319716 -16.416772,22.474931 -1.86028,1.688585 -4.282327,4.613585 -5.382327,6.5 -3.559228,6.103801 -12.744267,9.202632 -17.121277,5.776344 -0.667802,-0.52275 -4.509864,-0.06539 -9.5,1.130881 -9.467702,2.269667 -19.2107791,2.593806 -22.780567,0.757879 z M 6.25,54.166667 C 5.2875,53.158333 4.3233747,52.472459 4.1074993,52.642501 3.5167681,53.107811 6.1138768,56 7.1224447,56 7.6051001,56 7.2125,55.175 6.25,54.166667 Z M 61.190722,35.25 C 68.632585,27.271098 67.146539,23 56.928571,23 51.537447,23 49.535283,23.976721 51.913477,25.446526 53.226041,26.257735 57,34.322166 57,36.315724 57,38.721902 58.248678,38.404356 61.190722,35.25 Z m 9.388001,-14.02381 c -1.72194,-1.649287 -1.74325,-1.627977 -0.478332,0.478332 0.728145,1.212486 1.539148,1.989272 1.80223,1.72619 0.263082,-0.263082 -0.332672,-1.255117 -1.323898,-2.204522 z"
         style="fill:#a99886" />
      <path
         id="path1514"
         d="M 4.098156,57.735258 C 0.73596197,56.006096 -0.41006151,53.769951 0.4038867,50.526923 1.2021461,47.346405 10.334314,37.387562 14.923025,34.693464 L 18,32.886928 v 2.382222 c 0,1.310222 -1.167756,3.473163 -2.595014,4.806536 -11.9147827,11.131028 -2.051391,16.83009 17.96044,10.377531 3.225984,-1.040177 6.075725,-2.439264 6.332758,-3.109082 0.257034,-0.669818 1.042621,-0.997092 1.745751,-0.727276 1.407486,0.540104 1.464979,-5.177764 0.09545,-9.49277 -0.514924,-1.622382 -0.406583,-2.160047 0.342028,-1.697381 0.668593,0.413214 0.880075,0.115311 0.542551,-0.764262 -0.328038,-0.854852 -1.346778,-1.233885 -2.503408,-0.93142 -1.548829,0.405028 -1.808563,0.140702 -1.261809,-1.284117 0.53489,-1.3939 0.315129,-1.650862 -0.985137,-1.151903 C 36.753124,31.64823 36,31.501354 36,30.968615 36,30.435877 36.45,30 37,30 38.724222,30 38.088659,28.162915 36.151757,27.548166 35.135223,27.225531 33.751948,25.751001 33.077811,24.271433 32.02124,21.95251 32.103789,21.394648 33.676055,20.228561 34.860901,19.349808 36.551181,19.12172 38.5,19.577613 c 4.311248,1.008543 6.317295,0.856339 12.5,-0.94841 10.20183,-2.977942 21.625521,-1.818597 24.299099,2.46602 2.420927,3.879726 -0.822255,8.319716 -16.416772,22.474931 -1.86028,1.688585 -4.282417,4.599531 -5.382528,6.468769 -1.431132,2.431688 -3.409191,3.921762 -6.952606,5.237403 -5.146273,1.91077 -11.42593,1.607292 -8.495038,-0.410541 C 39.179436,54.089685 39.057185,53.987862 37.5,54.405893 20.381217,59.001485 8.8040047,60.155456 4.098156,57.735258 Z M 6.75,54.919901 C 5.7271589,54.324151 4.9377419,52.570829 4.8501679,50.70031 4.704595,47.590974 4.6883277,47.579892 4.2779103,50.310472 3.8428437,53.205047 5.3838844,56.02322 7.3724447,55.969591 7.9926001,55.952867 7.7125,55.480506 6.75,54.919901 Z M 61.190722,35.25 c 7.79467,-8.357169 6.029811,-12.269208 -5.512151,-12.218399 L 48.5,23.063202 51,25.289898 c 2.471945,2.201709 5,7.779153 5,11.0311 0,2.505528 2.296953,2.031599 5.190722,-1.070998 z m 9.388001,-14.02381 c -1.72194,-1.649287 -1.74325,-1.627977 -0.478332,0.478332 0.728145,1.212486 1.539148,1.989272 1.80223,1.72619 0.263082,-0.263082 -0.332672,-1.255117 -1.323898,-2.204522 z"
         style="fill:#a3907b" />
      <path
         id="path1512"
         d="M 4.098156,57.804236 C 0.71751686,55.9685 -0.40625596,53.754789 0.4038867,50.526923 1.2021461,47.346405 10.334314,37.387562 14.923025,34.693464 L 18,32.886928 v 2.382222 c 0,1.310222 -1.167756,3.473163 -2.595014,4.806536 -3.503122,3.272686 -5.6397546,7.609263 -4.899002,9.943168 1.545535,4.869548 14.20058,4.194049 28.237531,-1.507259 2.421789,-0.983645 3.96532,-2.173692 3.595491,-2.772088 -0.378119,-0.611811 -0.167167,-0.751338 0.506486,-0.334999 1.764951,1.0908 3.678524,-0.436845 2.011271,-1.605639 -1.047725,-0.734486 -1.073863,-1.066053 -0.114753,-1.45567 0.935929,-0.3802 0.97105,-1.010834 0.142514,-2.558969 -0.892847,-1.668299 -1.27865,-1.7941 -2.052686,-0.66933 -0.64979,0.944225 -0.757388,0.386835 -0.33804,-1.751157 C 43.080189,34.3741 40.705916,28.528647 38.75,28.146525 38.3375,28.065936 37.97315,27.6625 37.940333,27.25 c -0.03282,-0.4125 -0.932817,-1.072999 -2,-1.467776 C 34.87315,25.387448 34,24.374948 34,23.532224 c 0,-0.842723 -0.5625,-1.534996 -1.25,-1.538385 -0.6875,-0.0034 0.08496,-0.702267 1.716589,-1.553064 2.404077,-1.253587 3.395788,-1.317204 5.230106,-0.335507 1.844574,0.987186 3.238894,0.88083 7.533411,-0.574633 6.81631,-2.310128 21.397504,-3.094453 24.671738,-1.327096 3.367269,1.817575 4.505331,4.038011 3.704676,7.228074 -0.829167,3.303665 -8.490798,11.701771 -14.362968,15.74361 -2.341046,1.611352 -5.120657,4.62372 -6.176912,6.694152 -2.495845,4.892261 -3.951753,6.017548 -9.77202,7.552906 -4.835556,1.275595 -10.614774,0.682023 -6.971505,-0.71603 0.922287,-0.353915 2.464385,-0.398627 3.426885,-0.09936 1.459913,0.453925 1.4989,0.379422 0.235197,-0.449452 -1.068998,-0.701165 -4.011984,-0.25497 -10,1.51613 -10.13802,2.998564 -24.2966001,4.080329 -27.887041,2.130667 z M 6.75,54.919901 C 5.7271589,54.324151 4.9377419,52.570829 4.8501679,50.70031 4.704595,47.590974 4.6883277,47.579892 4.2779103,50.310472 3.8428437,53.205047 5.3838844,56.02322 7.3724447,55.969591 7.9926001,55.952867 7.7125,55.480506 6.75,54.919901 Z M 61.190722,35.25 c 7.79467,-8.357169 6.029811,-12.269208 -5.512151,-12.218399 L 48.5,23.063202 51,25.289898 c 2.471945,2.201709 5,7.779153 5,11.0311 0,2.505528 2.296953,2.031599 5.190722,-1.070998 z m 9.388001,-14.02381 c -1.72194,-1.649287 -1.74325,-1.627977 -0.478332,0.478332 0.728145,1.212486 1.539148,1.989272 1.80223,1.72619 0.263082,-0.263082 -0.332672,-1.255117 -1.323898,-2.204522 z"
         style="fill:#969088" />
      <path
         id="path1510"
         d="M 4.098156,57.735258 C -2.0487843,54.573913 -1.1332891,49.94555 7.3064625,41.515395 10.712908,38.112823 14.5125,34.789065 15.75,34.129266 c 3.856258,-2.056043 2.802289,2.436401 -1.797617,7.662169 -5.3345874,6.060412 -5.1545782,9.120071 0.654724,11.1285 3.646355,1.260641 4.915404,1.223479 11.312181,-0.33126 9.372788,-2.278059 17.215639,-5.561342 16.407599,-6.868777 -0.366286,-0.592663 -0.146402,-0.726386 0.518605,-0.31539 1.764951,1.0908 3.678524,-0.436845 2.011271,-1.605639 -1.047725,-0.734486 -1.073863,-1.066053 -0.114753,-1.45567 0.935929,-0.3802 0.97105,-1.010834 0.142514,-2.558969 -0.892847,-1.668299 -1.27865,-1.7941 -2.052686,-0.66933 -0.64979,0.944225 -0.757388,0.386835 -0.33804,-1.751157 C 43.080189,34.3741 40.705916,28.528647 38.75,28.146525 38.3375,28.065936 37.97315,27.6625 37.940333,27.25 c -0.03282,-0.4125 -0.932817,-1.072999 -2,-1.467776 C 34.87315,25.387448 34,24.374948 34,23.532224 c 0,-0.842723 -0.5625,-1.534996 -1.25,-1.538385 -0.6875,-0.0034 0.08496,-0.702267 1.716589,-1.553064 2.130697,-1.111035 3.539541,-1.272104 5,-0.571636 C 40.584965,20.405536 42.625,21.106987 44,21.427917 48.924687,22.57736 54.302141,29.34307 55.885391,36.38167 l 0.648197,2.881669 3.269123,-2.750785 c 4.021933,-3.384234 6.502738,-7.974809 5.691305,-10.531408 -0.765857,-2.413002 -6.695673,-4.132441 -11.565799,-3.353677 -2.333197,0.373093 -4.678181,0.04346 -6.506822,-0.914662 l -2.858986,-1.497974 3.968795,-1.174185 c 6.287808,-1.860275 20.551135,-2.375916 23.37064,-0.844884 3.361859,1.825538 4.505227,4.0462 3.711524,7.208565 -0.850689,3.389415 -7.477063,10.673834 -14.314174,15.735672 -2.860443,2.117722 -5.939395,5.406865 -6.842115,7.309205 -2.138911,4.50742 -3.371437,5.445432 -9.162459,6.973075 -4.835556,1.275595 -10.614774,0.682023 -6.971505,-0.71603 0.922287,-0.353915 2.464385,-0.398627 3.426885,-0.09936 1.60185,0.498057 1.608556,0.452618 0.07921,-0.536748 -1.198365,-0.775246 -2.47077,-0.772601 -4.5,0.0094 C 31.898699,56.172128 17.457449,58.956769 12,58.963616 8.975,58.967411 5.4191702,58.41465 4.098156,57.735258 Z m 4.2209707,-2.19706 C 5.835081,54.457764 5.0486349,53.425765 4.7291638,50.82734 L 4.3200741,47.5 4.1600371,50.693296 c -0.1664576,3.321407 2.6411394,6.348827 5.8124691,6.267562 0.8401218,-0.02153 0.096101,-0.661725 -1.6533795,-1.42266 z M 70.949813,21.439528 c -0.657086,-0.79174 -1.702102,-1.425844 -2.322258,-1.409119 -0.620155,0.01672 -0.340055,0.489085 0.622445,1.04969 1.022841,0.59575 1.812258,2.349072 1.899832,4.219591 0.145573,3.109336 0.16184,3.120418 0.572258,0.389838 0.232334,-1.545759 -0.115191,-3.458259 -0.772277,-4.25 z"
         style="fill:#958677" />
      <path
         id="path1508"
         d="M 3.25,57.01096 C 1.0145059,55.647953 0,54.268686 0,52.592438 0,49.379795 5.2000695,42.68187 12.013071,37.119059 c 5.121238,-4.181487 5.50836,-4.333731 5.80848,-2.284303 0.211412,1.443666 -1.073054,3.780127 -3.75,6.821298 -4.1456482,4.709705 -5.1070527,8.239666 -2.771937,10.177641 4.217393,3.500125 18.651087,1.248772 30.57115,-4.768457 5.987276,-3.022367 6.06458,-3.114593 4.876828,-5.818143 -0.663786,-1.510902 -1.666043,-3.077704 -2.227238,-3.481782 -0.646979,-0.465846 -0.562946,-0.740291 0.229646,-0.75 1.963263,-0.02405 1.46137,-2.866363 -0.75,-4.247386 -1.1,-0.686961 -2,-1.608996 -2,-2.048966 0,-0.43997 -0.96061,-2.099241 -2.134689,-3.687268 -3.060467,-4.139502 -1.908429,-6.462652 2.823966,-5.69469 C 47.031249,22.041607 52,26.96446 52,30.561718 c 0,1.369911 0.526339,2.328741 1.201232,2.188282 0.660678,-0.1375 1.707708,1.249055 2.326735,3.081233 l 1.125502,3.331233 3.209183,-2.700349 C 63.262518,33.601319 66,29.15724 66,26.498633 66,23.994628 59.568131,21.792258 54.48256,22.554886 51.311165,23.030466 49.527311,22.782324 47.894141,21.638407 45.375146,19.874034 45.6351,19.691395 53,18.051114 63.079409,15.806268 72.829351,17.137259 75.299099,21.095223 77.753011,25.02781 71.827385,33.402063 61,41.303093 c -3.025,2.207423 -5.646266,4.126029 -5.825035,4.26357 -0.17877,0.137541 -0.417387,0.879308 -0.530262,1.648372 -0.62796,4.278564 -9.333767,9.117834 -12.16933,6.764527 -0.990063,-0.82168 -3.089358,-0.59729 -8.154346,0.871603 C 18.015101,59.580032 8.5434237,60.238424 3.25,57.01096 Z M 9,55.693558 C 4.3272698,54.10008 3.8050262,50.06893 7.5446502,44.459848 9.4786295,41.559062 9.6368654,41.0349 8.1362964,42.5 c -1.1266303,1.1 -2.7534784,3.697667 -3.615218,5.772594 -1.5236305,3.668651 -1.4985413,3.840852 0.9106066,6.25 1.3625733,1.362573 3.5103605,2.452007 4.77286,2.420964 1.781816,-0.04381 1.512283,-0.323517 -1.204545,-1.25 z m 61.949813,-34.25403 c -0.657086,-0.79174 -1.702102,-1.425844 -2.322258,-1.409119 -0.620155,0.01672 -0.340055,0.489085 0.622445,1.04969 1.022841,0.59575 1.812258,2.349072 1.899832,4.219591 0.145573,3.109336 0.16184,3.120418 0.572258,0.389838 0.232334,-1.545759 -0.115191,-3.458259 -0.772277,-4.25 z M 39.5,55 c 0.339919,-0.55 0.816476,-1 1.059017,-1 C 40.801558,54 41,54.45 41,55 41,55.55 40.523442,56 39.940983,56 39.358524,56 39.160081,55.55 39.5,55 Z M 35,24 c 0,-0.55 0.45,-1 1,-1 0.55,0 1,0.45 1,1 0,0.55 -0.45,1 -1,1 -0.55,0 -1,-0.45 -1,-1 z"
         style="fill:#87786a" />
      <path
         id="path1506"
         d="M 4.3454467,57.618654 C 0.13886898,55.695967 -0.55719115,53.012509 1.9008724,48.194306 3.8025067,44.466795 12.256313,36.00356 16.170528,33.908736 19.631542,32.056458 18.232522,37.024082 14,41.615826 5.1614341,51.204538 11.969662,56.331329 28.002645,52.160221 38.514058,49.425594 46.95181,45.25695 48.102712,42.229848 c 0.734241,-1.931202 1.469202,-2.353674 3.439401,-1.977047 1.378092,0.263439 2.746439,0.08933 3.040771,-0.38691 0.470542,-0.761353 -1.705595,-1.3202 -3.832884,-0.984312 -0.779912,0.123144 -1.116728,-1.425199 -0.806848,-3.709081 0.09906,-0.730126 -0.747619,-1.57011 -1.881518,-1.866631 C 46.927735,33.009346 46,32.342664 46,31.824352 46,31.30604 46.45,31.160081 47,31.5 c 0.55,0.339919 1,0.141476 1,-0.440983 C 48,30.476558 47.325,30 46.5,30 45.675,30 45,29.55 45,29 c 0,-0.55 0.9,-1 2,-1 1.1,0 2,-0.476558 2,-1.059017 0,-0.582459 0.498043,-0.751209 1.106763,-0.375 0.771662,0.476914 0.697443,0.93699 -0.245129,1.519532 -1.093787,0.675998 -1.019142,1.081704 0.390977,2.125 0.958578,0.709217 1.844107,2.552033 1.967843,4.095147 0.193556,2.413831 0.389252,2.581 1.40126,1.196998 1.029084,-1.407358 1.29773,-1.257899 2.146764,1.194337 L 56.738957,39.5 61.369478,34.732441 c 5.889557,-6.063855 6.177988,-9.187922 1.046242,-11.332102 -2.408907,-1.006506 -5.010383,-1.28375 -7.93316,-0.845453 -3.099815,0.464846 -4.958395,0.225234 -6.471032,-0.834258 -2.095196,-1.467532 -2.080166,-1.501359 1.18316,-2.662922 5.208328,-1.853878 19.86718,-2.412928 22.707156,-0.865992 3.37047,1.835897 4.504679,4.052435 3.704676,7.239899 -0.892116,3.554473 -8.267552,11.40265 -15.207837,16.182607 -3.009818,2.072941 -6.392513,5.257763 -7.5171,7.077382 C 50.755346,52.131927 49,53.002295 49,50.616242 49,49.560871 47.516775,49.834469 42.75,51.769123 28.109563,57.711126 10.43699,60.402897 4.3454467,57.618654 Z M 10.5,56.280761 C 3.5910766,54.597622 3.3509742,48.944834 9.8721864,41.5 L 12.5,38.5 9.2961353,41.392891 C 4.9121377,45.351368 2.5958513,50.376324 3.9708604,52.945552 5.2876407,55.405979 7.8925869,56.965178 10.5,56.85359 l 2,-0.08559 -2,-0.487236 z M 69.976851,20.780172 c -1.20913,-0.979095 -2.936066,-1.762558 -3.837635,-1.74103 -0.901569,0.02153 -0.176716,0.674805 1.610784,1.451726 2.660932,1.156551 3.277157,2.010402 3.399832,4.710858 L 71.299664,28.5 71.737467,25.530172 c 0.323725,-2.195984 -0.135037,-3.433686 -1.760616,-4.75 z M 42.542705,31.069098 C 42.226274,30.557102 42.424717,29.855545 42.983688,29.510081 43.54266,29.164618 44,29.583524 44,30.440983 c 0,1.756526 -0.600055,2.015159 -1.457295,0.628115 z m 0.888197,-5.180901 c -0.377923,-0.611492 -0.128562,-1.457019 0.554135,-1.87895 0.965941,-0.596984 0.938906,-0.88739 -0.121884,-1.309249 -1.004672,-0.399541 -0.935139,-0.562865 0.264402,-0.621051 0.895156,-0.04342 2.208828,0.621444 2.919273,1.477477 1.068038,1.286907 1.04595,1.503363 -0.127555,1.25 C 46.138673,24.637891 45.6125,25.0625 45.75,25.75 c 0.309805,1.549023 -1.384751,1.650003 -2.319098,0.138197 z m -4.168659,-1.57988 c 0.969234,-0.252825 1.462205,-0.945153 1.095491,-1.538507 -0.399721,-0.646764 -0.197845,-0.789027 0.504069,-0.35522 1.564059,0.966641 0.448888,2.614821 -1.67082,2.469409 -1.511763,-0.103707 -1.504211,-0.164721 0.07126,-0.575682 z"
         style="fill:#766f66" />
      <path
         sodipodi:nodetypes="sssssscsssssccsssssssssssssssssssssssscssssssssssssssssss"
         id="path1504"
         d="M 4.3454467,57.618654 C 2.6104424,56.825641 0.89975614,55.25952 0.54392164,54.138385 -0.28884224,51.514578 2.2337142,46.529836 6.8131324,41.75 11.661002,36.689964 13.18033,36.951114 8.5717358,42.052277 3.3468241,47.83563 2.4236766,50.749658 4.8041121,53.945244 c 1.7451073,2.342697 2.5585206,2.564019 9.7994809,2.666351 L 22.5,56.72319 15.399123,56.111595 C 7.7015869,55.44861 5,53.997943 5,50.527594 5,48.381496 9.7244521,40.906366 11.950262,39.53074 c 0.595299,-0.367915 0.84473,-1.053432 0.554292,-1.523372 -0.290439,-0.469939 0.827221,-1.819487 2.483688,-2.998996 l 5.31554,-5.044679 -1.188173,3.835034 -0.68454,4.20749 C 18.014043,40.569443 16.172064,39.259415 13.93792,41.683175 3.8592973,52.61719 14.743738,57.333063 34.106244,50.421451 44.188588,46.822473 49,44.030218 49,41.77801 c 0,-1.425342 0.635487,-1.787191 2.75,-1.565859 2.265508,0.237136 2.815998,-0.152598 3.124605,-2.212151 0.345183,-2.303645 0.433993,-2.342916 1.130728,-0.5 0.687939,1.819649 1.17797,1.56455 5.434201,-2.828932 3.575386,-3.690682 4.605287,-5.453081 4.369272,-7.476829 C 65.367518,23.410354 61.713615,21.80318 55,22.439973 c -3.868113,0.366894 -6.046557,0.103799 -7.342078,-0.886718 -1.71184,-1.308822 -1.570435,-1.486717 2,-2.516115 6.533764,-1.883761 16.691054,-2.407101 20.74584,-1.068901 9.116078,3.008577 5.697219,12.114213 -8.36976,22.291647 -3.043701,2.202113 -7.048345,5.632003 -8.899208,7.621978 -1.850863,1.989975 -2.750863,2.746382 -2,1.680905 C 52.313541,47.890125 52.295131,47.711681 51,48.25625 33.483376,55.621547 25.929257,57.779262 15,58.539083 9.6453634,58.911347 6.5976449,58.64806 4.3454467,57.618654 Z M 71.485062,28.390236 c 1.202523,-2.534129 1.334472,-3.858924 0.533423,-5.355697 -1.261136,-2.356453 -4.173018,-4.070003 -6.702744,-3.944351 -0.998657,0.0496 -0.358957,0.510989 1.421557,1.025301 5.396905,1.558927 5.594892,6.850973 0.491593,13.139907 L 64.595982,36.5 67.241651,34.128615 c 1.455117,-1.304261 3.364652,-3.886532 4.243411,-5.738379 z m -20.075274,9.637711 c -1.652409,-0.668233 -1.99518,-1.492772 -1.636501,-3.936613 0.561095,-3.822981 2.488575,-4.142478 2.05922,-0.341334 -0.200946,1.779002 0.126875,2.661727 0.928434,2.5 C 53.442424,36.1125 54,36.675 54,37.5 c 0,0.825 -0.1125,1.471476 -0.25,1.436614 -0.1375,-0.03486 -1.190595,-0.443763 -2.340212,-0.908667 z M 45,29 c 0,-0.55 0.926558,-1 2.059017,-1 1.132459,0 1.780902,0.45 1.440983,1 -0.339919,0.55 -1.266476,1 -2.059017,1 C 45.648442,30 45,29.55 45,29 Z m -2,-3.893011 c 0,-0.491156 0.711804,-1.166156 1.581787,-1.5 2.44686,-0.938948 2.689131,-0.73505 1.06107,0.893011 C 43.942816,26.200041 43,26.416579 43,25.106989 Z"
         style="fill:#746759" />
      <path
         id="path1502"
         d="M 2.3790909,57.563615 C -0.92843468,54.699546 -0.77069531,52.048119 1.0409257,47.929395 2.9797231,43.521536 18.010615,29.548405 19.465221,29.457511 23.709503,29.192299 10.792774,39.6875 8.8211805,41.75 4.9996628,45.747721 3,49.008753 3,51.243129 c 0,4.458881 6.15047,6.88571 14.5,5.721355 l 5,-0.697258 -6.527494,-0.133613 C 4.9698294,55.908396 2.3230319,51.995524 7.9339501,44.249877 9.5476226,42.022266 11.354963,39.898655 11.950262,39.53074 c 0.595299,-0.367915 0.84473,-1.053432 0.554292,-1.523372 -0.290439,-0.469939 4.589031,-5.884669 6.245498,-7.064178 3.296471,-2.347294 0.31518,2.252102 -2.547182,4.896517 -0.988421,0.913161 -1.202547,1.258668 -0.475834,0.767792 2.987249,-2.017808 2.112168,0.456647 -1.732408,4.898708 C 6.9641186,49.629326 9.9336055,54.615172 21.180821,53.572012 30.04394,52.749973 49,45.534698 49,42.983154 49,42.442419 49.36674,42.1125 49.814978,42.25 51.428446,42.744943 60.744921,36.200982 63.420066,32.693686 68.605195,25.895632 64.989435,21.492465 55,22.439973 c -3.868113,0.366894 -6.046557,0.103799 -7.342078,-0.886718 -1.711211,-1.308341 -1.569124,-1.484786 2,-2.483615 2.113143,-0.591369 6.80931,-1.357051 10.435927,-1.701515 19.647643,-1.866177 20.608847,9.459467 1.940153,22.860384 -3.043701,2.184855 -6.83083,5.389745 -8.415842,7.121977 -1.585011,1.732233 -2.570954,2.587014 -2.190983,1.899514 0.951399,-1.721411 0.08667,0.507793 -6.510887,3.438295 -14.825572,6.585224 -37.7228022,9.044226 -42.5371991,4.87532 z M 71.529383,28.296837 c 1.483517,-3.126281 1.48637,-3.62385 0.03348,-5.841232 -1.634761,-2.49496 -5.487257,-4.047962 -7.769955,-3.13219 -0.711102,0.28528 -0.203346,0.554217 1.128346,0.597638 1.331693,0.04342 3.244193,0.823691 4.25,1.733935 3.118992,2.822648 2.148807,6.917363 -3.043445,12.845012 L 63.5,37.5 66.703865,34.607109 c 1.762125,-1.59109 3.933608,-4.430712 4.825518,-6.310272 z M 51,36.940983 c 0,-0.582459 0.45,-0.780902 1,-0.440983 0.55,0.339919 1,0.816476 1,1.059017 C 53,37.801558 52.55,38 52,38 51.45,38 51,37.523442 51,36.940983 Z"
         style="fill:#665a4b"
         sodipodi:nodetypes="sssssscssssssssssssssssssssssssssscsssssss" />
      <path
         id="path1500"
         d="M 7.3544294,58.363661 C 1.8107349,57.135347 0.00738963,50.925026 3.6414585,45.577013 6.2630296,41.719025 17.039098,32.705765 17.945902,33.612569 c 0.295591,0.29559 -0.358814,1.022636 -1.454232,1.615657 -3.816135,2.065923 -12.3439451,11.33501 -13.0624972,14.19795 -0.9518311,3.792396 0.4300745,5.793915 5.0739369,7.348968 2.7317313,0.914753 5.3891213,1.019535 9.4024303,0.370741 L 23.5,56.24148 16.472506,56.12074 C 7.7242048,55.970435 4.5175456,54.162272 5.3771373,49.864313 6.1001269,46.249365 11.480448,40.79903 15.765523,37.432142 c 4.299041,-3.377862 3.237681,0.68813 0.253409,3.101004 C 10.395278,45.08004 8.8693041,50.213034 12.536126,52.615628 22.721667,59.289451 67.08304,38.150033 65.81208,27.228166 65.36753,23.407975 61.738467,21.800823 55,22.439973 c -3.868113,0.366894 -6.046557,0.103799 -7.342078,-0.886718 -1.711211,-1.308341 -1.569124,-1.484786 2,-2.483615 11.608742,-3.248739 23.440568,-2.142346 25.503277,2.384809 4.003865,8.787526 -22.095173,28.518377 -45.712619,34.558702 -7.992233,2.044069 -18.454003,3.157055 -22.0941506,2.35051 z M 26.729167,55.395833 c -0.332292,-0.332291 -1.194792,-0.367818 -1.916667,-0.07895 -0.797733,0.319226 -0.560776,0.556183 0.604167,0.604167 1.054166,0.04342 1.644791,-0.192928 1.3125,-0.52522 z M 71.513048,28.33126 c 0.882926,-1.860627 1.345037,-4.203035 1.026914,-5.205352 -0.670404,-2.112254 -4.651047,-4.164263 -7.837015,-4.039955 -1.860486,0.07259 -1.765504,0.21726 0.610986,0.930615 6.781176,2.035515 7.360311,5.606011 2.052942,12.656836 -3.47579,4.617576 -3.499441,4.701317 -0.546136,1.933705 1.697845,-1.59109 3.809384,-4.415222 4.692309,-6.275849 z"
         style="fill:#555148"
         sodipodi:nodetypes="ssssssscssssssssssssssssssssssss" />
      <path
         id="path1498"
         d="m 9,58.200801 c 0,-0.43956 1.575,-0.615327 3.5,-0.390594 1.925,0.224733 3.5,0.584372 3.5,0.799199 C 16,58.824233 14.425,59 12.5,59 10.575,59 9,58.64036 9,58.200801 Z m 10.269032,-0.893792 c 0.972967,-0.253543 2.322967,-0.236869 3,0.03705 C 22.946064,57.617986 22.15,57.825431 20.5,57.805051 18.85,57.784672 18.296064,57.560553 19.269032,57.307009 Z M 25.5,56.075589 C 26.830737,55.463898 25.280912,55.342117 20.868562,55.711664 11.262922,56.516165 7.3964806,55.576102 6.2005205,52.145369 4.9878974,48.666836 5.8191661,46.987052 11.839707,40.75 18.068552,34.297152 15.896336,34.703168 9.1646684,41.25 6.1956463,44.1375 4.2455239,45.560941 4.8310632,44.413203 5.7251792,42.660612 10.695439,38.211058 16.941958,33.571097 18.08798,32.719824 18.195718,32.807849 17.466917,34 c -0.50435,0.825 -0.79431,2.246979 -0.644355,3.159953 0.149954,0.912975 -0.558887,2.262975 -1.575202,3 C 7.1100861,46.061051 9.0385151,54 18.609208,54 34.170487,54 66,36.298807 66,27.644788 c 0,-3.792149 -2.591421,-5.142791 -9.906133,-5.163051 -3.626627,-0.01004 -7.469265,-0.527124 -8.539195,-1.149064 -1.762765,-1.024677 -1.57507,-1.234381 2,-2.234525 6.845115,-1.914954 16.833952,-2.455025 20.855999,-1.127629 5.231093,1.726416 6.339088,4.639508 3.718449,9.776385 C 72.130809,31.663916 62.554036,41 60.534352,41 c -0.55,0 1.366621,-2.070262 4.259157,-4.600583 8.023293,-7.018582 9.921567,-11.723671 6.148223,-15.239075 C 68.376997,18.770928 63.976337,18.065787 57.5,19.006503 52.500815,19.732656 52.501146,19.732796 59.527494,19.866387 67.264632,20.013492 71,21.746391 71,25.18867 c 0,3.05303 -3.566902,8.300251 -8.062789,11.86106 -2.170698,1.719224 -3.737253,3.464792 -3.481234,3.879039 C 60.544929,42.69073 47.248332,50.116222 36.5,53.748548 c -6.662421,2.251519 -14.393962,3.887121 -11,2.327041 z"
         style="fill:#4d4639" />
      <path
         id="path1496"
         d="m 19.269032,57.307009 c 0.972967,-0.253543 2.322967,-0.236869 3,0.03705 C 22.946064,57.617986 22.15,57.825431 20.5,57.805051 18.85,57.784672 18.296064,57.560553 19.269032,57.307009 Z M 24.8125,56.316886 c 0.721875,-0.288871 1.584375,-0.253344 1.916667,0.07895 0.332291,0.332292 -0.258334,0.568641 -1.3125,0.52522 -1.164943,-0.04798 -1.4019,-0.284941 -0.604167,-0.604167 z M 12.506986,55.011304 C 12.163225,54.455087 12.021024,53.991541 12.190983,53.981202 12.360942,53.970862 15.875,53.802831 20,53.607798 33.331562,52.977472 53.785079,43.514696 62.380565,34.00052 68.91805,26.764306 66.046307,21.570737 55.781391,22.065863 c -2.904765,0.14011 -4.324679,2.697898 -5.046992,1.425955 -1.574418,-2.772438 -14.320868,-4.536387 -8.554605,-5.274083 3.071243,-0.392914 16.741983,-1.810268 20.777104,-1.826549 6.778873,-0.02735 9.793014,0.593161 11.975983,3.131014 2.00309,2.328731 1.070727,6.343271 0.215821,8.795657 -2.719029,7.799811 -19.151831,19.036775 -34.11876,24.808634 -6.771915,2.611527 -10.298939,2.150477 -18.191095,2.484854 -5.919867,0.250815 -9.950683,0.01672 -10.331861,-0.600041 z M 66.082524,35.326039 c 5.740414,-5.369485 7.6596,-9.401839 6.101915,-12.820584 -1.502838,-3.298372 -7.369447,-4.785551 -14.321247,-3.630422 L 52.5,19.766194 l 7.027494,0.116903 c 11.894618,0.197868 14.349727,4.061117 7.926699,12.473101 -1.950193,2.554091 -3.862693,4.659985 -4.25,4.679765 C 62.816887,37.055743 61.15,38.220715 59.5,39.624791 c -2.517547,2.142319 -2.607919,2.355919 -0.561952,1.328213 1.340926,-0.673558 4.55594,-3.205693 7.144476,-5.626965 z M 51.729167,20.395833 c -0.332292,-0.332291 -1.194792,-0.367818 -1.916667,-0.07895 -0.797733,0.319226 -0.560776,0.556183 0.604167,0.604167 1.054166,0.04342 1.644791,-0.192928 1.3125,-0.52522 z M 8,45.477657 c 0,-0.287289 1.857312,-2.537289 4.12736,-5 4.327828,-4.695139 4.307516,-6.081104 -0.03265,-2.227657 -1.501901,1.333474 -1.971677,1.518131 -1.153265,0.45332 0.759509,-0.988174 2.770891,-2.748502 4.469739,-3.911838 1.698848,-1.163337 2.561479,-1.537496 1.916959,-0.831465 -0.64452,0.706031 -0.968308,1.814129 -0.719527,2.46244 0.24878,0.648311 -1.292261,3.068477 -3.424535,5.378145 C 9.6180999,45.663257 8,46.81097 8,45.477657 Z"
         style="fill:#413c30"
         sodipodi:nodetypes="ssssssssssssssssssssssssscssssssssssssssssssss" />
      <path
         id="path1494"
         d="m 19.8125,57.316886 c 0.721875,-0.288871 1.584375,-0.253344 1.916667,0.07895 0.332291,0.332292 -0.258334,0.568641 -1.3125,0.52522 -1.164943,-0.04798 -1.4019,-0.284941 -0.604167,-0.604167 z M 18,55.067388 c 0,-0.587064 1.4625,-1.071412 3.25,-1.076331 4.864126,-0.01338 21.294785,-6.023171 29.312197,-10.721422 C 58.907177,38.379427 66,31.155002 66,27.545396 c 0,-3.7273 -3.84133,-5.78714 -10.218609,-5.479533 -2.904765,0.14011 -6.388483,-0.199815 -7.741595,-0.75539 -2.285271,-0.938311 -2.071956,-1.106014 3,-2.358525 7.299159,-1.802514 17.474672,-1.85008 19.157746,-0.08955 1.090906,1.141107 0.896395,1.22232 -1.197542,0.5 -3.016069,-1.040417 -13.342948,-0.76735 -17.5,0.46274 -2.045366,0.605234 -0.136099,0.736101 6,0.411261 7.836673,-0.414868 9.30656,-0.227273 11.371682,1.451317 4.268559,3.469605 1.234949,9.329838 -9.379051,18.118158 -2.306479,1.909749 -2.973905,2.808433 -1.580395,2.12799 C 60.590459,40.6261 70.828954,30.626679 72.691193,27.5 c 1.00218,-1.68265 1.200524,-1.732895 1.25,-0.316655 C 74.110667,32.03451 55.310604,46.224803 41.473389,51.690051 33.498956,54.839692 25.282777,57.134859 29.5,55.034785 c 1.47848,-0.736247 0.696201,-0.848715 -3,-0.431309 -2.75,0.310553 -5.7875,0.78214 -6.75,1.047971 -0.9625,0.26583 -1.75,0.003 -1.75,-0.584059 z M 12,41.201673 C 12,40.198304 15.295027,37 16.328741,37 c 1.400201,0 0.51578,1.567418 -1.860166,3.296685 C 13.110859,41.284862 12,41.692106 12,41.201673 Z m -1,-2.579228 c 0,-0.207656 0.7875,-0.995156 1.75,-1.75 C 14.336056,35.628574 14.371426,35.663944 13.127555,37.25 11.821186,38.915748 11,39.445479 11,38.622445 Z m 4,-3 c 0,-0.207656 0.7875,-0.995156 1.75,-1.75 C 18.336056,32.628574 18.371426,32.663944 17.127555,34.25 15.821186,35.915748 15,36.445479 15,35.622445 Z"
         style="fill:#38342a" />
      <path
         id="path1492"
         d="m 23,54.375686 c 0,-0.164229 1.9125,-0.789345 4.25,-1.389147 C 45.795534,48.227758 66,35.106623 66,27.821608 66,23.855775 62.413742,21.810306 55.810594,22.009946 48.987031,22.21625 47.908971,21.98992 51,21 c 1.375,-0.440352 5.242756,-0.845496 8.595012,-0.90032 6.679249,-0.109235 8.680702,1.122344 9.924623,6.107041 0.577274,2.313281 -0.06457,3.489185 -4.41563,8.089793 -2.800097,2.96069 -4.843083,5.631074 -4.53997,5.934188 1.348874,1.348874 -12.963847,9.258269 -14.75284,8.15261 -0.63886,-0.394837 -0.843356,-0.244367 -0.475907,0.350178 1.060505,1.715934 -10.008494,5.597057 -16.477321,5.777442 C 25.636085,54.600775 23,54.539914 23,54.375686 Z m 10.729167,-0.979853 c -0.332292,-0.332291 -1.194792,-0.367818 -1.916667,-0.07895 -0.797733,0.319226 -0.560776,0.556183 0.604167,0.604167 1.054166,0.04342 1.644791,-0.192928 1.3125,-0.52522 z m 25.83267,-13.167329 c -0.335201,-0.335201 -1.386242,0.203825 -2.335647,1.197835 -1.650222,1.727753 -1.6234,1.754575 0.609456,0.609456 1.284606,-0.65881 2.061392,-1.472091 1.726191,-1.807291 z m 6.396371,-4.572257 C 68.410222,33.095311 70.533599,31 70.676823,31 c 1.206206,0 -1.583285,3.376569 -4.988656,6.038573 L 61.5,40.312494 Z M 49.8125,19.316886 c 0.721875,-0.288871 1.584375,-0.253344 1.916667,0.07895 0.332291,0.332292 -0.258334,0.568641 -1.3125,0.52522 -1.164943,-0.04798 -1.4019,-0.284941 -0.604167,-0.604167 z m 4.456532,-1.009877 c 0.972967,-0.253543 2.322967,-0.236869 3,0.03705 C 57.946064,18.617986 57.15,18.825431 55.5,18.805051 53.85,18.784672 53.296064,18.560553 54.269032,18.307009 Z M 61.25,17.310674 c 0.9625,-0.251527 2.5375,-0.251527 3.5,0 0.9625,0.251528 0.175,0.457323 -1.75,0.457323 -1.925,0 -2.7125,-0.205795 -1.75,-0.457323 z"
         style="fill:#2b2822" />
      <path
         id="path1490"
         d="m 33,54.051313 c 1.122932,-0.808286 0.368795,-0.935001 -3,-0.504079 -4.046944,0.517667 -3.764179,0.31621 2.808576,-2.000981 15.004042,-5.289598 29.458922,-14.48482 32.437251,-20.634399 1.435821,-2.964645 1.727373,-3.145269 2.370724,-1.468723 0.573863,1.495463 -0.447504,3.000492 -4.691493,6.913121 -2.983782,2.750815 -5.322702,5.340559 -5.1976,5.754987 0.379591,1.257486 -6.606445,5.081585 -7.863729,4.304541 -0.682029,-0.421517 -0.906657,-0.294255 -0.53683,0.304137 0.362095,0.585882 -2.262584,2.317993 -6.095491,4.022613 C 35.462791,54.19749 30.622055,55.762958 33,54.051313 Z M 38,52 c 0.825,-0.533156 1.05,-0.969374 0.5,-0.969374 -0.55,0 -1.675,0.436218 -2.5,0.969374 -0.825,0.533156 -1.05,0.969374 -0.5,0.969374 0.55,0 1.675,-0.436218 2.5,-0.969374 z m 5,-2 c 0.825,-0.533156 1.05,-0.969374 0.5,-0.969374 -0.55,0 -1.675,0.436218 -2.5,0.969374 -0.825,0.533156 -1.05,0.969374 -0.5,0.969374 0.55,0 1.675,-0.436218 2.5,-0.969374 z m 12.44113,-6.531803 c 1.067621,-0.807509 1.517621,-1.453885 1,-1.436394 -0.517622,0.01749 -1.814638,0.692492 -2.88226,1.5 -1.067621,0.807509 -1.517621,1.453885 -1,1.436394 0.517622,-0.01749 1.814638,-0.692492 2.88226,-1.5 z M 63.5,38 c 0.995486,-1.1 2.034975,-2 2.309975,-2 0.275,0 -0.314489,0.9 -1.309975,2 -0.995486,1.1 -2.034975,2 -2.309975,2 -0.275,0 0.314489,-0.9 1.309975,-2 z M 49.394448,21.823643 C 48.897374,21.025929 58.92296,19.64491 61.535178,20.151263 62.524677,20.343069 63.48443,20.95 63.667963,21.5 64.040941,22.617724 50.086421,22.934134 49.394448,21.823643 Z M 49.8125,19.316886 c 0.721875,-0.288871 1.584375,-0.253344 1.916667,0.07895 0.332291,0.332292 -0.258334,0.568641 -1.3125,0.52522 -1.164943,-0.04798 -1.4019,-0.284941 -0.604167,-0.604167 z M 54.75,18.337719 c 0.6875,-0.277412 1.8125,-0.277412 2.5,0 0.6875,0.277413 0.125,0.504386 -1.25,0.504386 -1.375,0 -1.9375,-0.226973 -1.25,-0.504386 z"
         style="fill:#26241c" />
      <path
         id="path1488"
         d="M 32.895881,51.401387 C 45.585447,47.128225 59.688162,38.877775 63.856977,33.28835 c 1.548937,-2.076769 2.087747,-2.354455 2.111343,-1.088122 0.01742,0.935126 -1.971998,3.375096 -4.420939,5.422157 -2.44894,2.04706 -4.241599,4.063363 -3.983688,4.480673 0.257912,0.41731 -0.05794,1.084368 -0.70189,1.482352 -0.773437,0.478011 -0.901432,0.287728 -0.377116,-0.560633 0.53237,-0.861392 0.336298,-1.118053 -0.595491,-0.779509 -0.764058,0.277603 -1.270737,1.028859 -1.125953,1.66946 0.144783,0.6406 -3.605921,3.021282 -8.334899,5.290405 -6.697251,3.213566 -9.944868,4.182227 -14.689686,4.381463 l -6.091545,0.255785 z M 38,52 c 1.827966,-1.181322 0.249085,-1.181322 -2.5,0 -1.31874,0.566682 -1.489055,0.878155 -0.5,0.914402 0.825,0.03023 2.175,-0.381246 3,-0.914402 z m 10,-4.5 c 3.575,-1.871627 6.05,-3.402959 5.5,-3.402959 -0.55,0 -3.925,1.531332 -7.5,3.402959 -3.575,1.871627 -6.05,3.402959 -5.5,3.402959 0.55,0 3.925,-1.531332 7.5,-3.402959 z M 63.5,38 c 0.995486,-1.1 2.034975,-2 2.309975,-2 0.275,0 -0.314489,0.9 -1.309975,2 -0.995486,1.1 -2.034975,2 -2.309975,2 -0.275,0 0.314489,-0.9 1.309975,-2 z M 49.422923,21.87762 C 49.017268,21.218786 54.959647,20.029546 58.75,20.011006 59.9875,20.004953 61,20.408353 61,20.90745 61,21.927644 50.020254,22.847757 49.422923,21.87762 Z M 54.75,18.337719 c 0.6875,-0.277412 1.8125,-0.277412 2.5,0 0.6875,0.277413 0.125,0.504386 -1.25,0.504386 -1.375,0 -1.9375,-0.226973 -1.25,-0.504386 z"
         style="fill:#211e19" />
      <path
         id="path1486"
         d="M 34.5,51.034124 C 42.40729,48.267602 53.134017,42.542558 58.796386,38.066713 61.658374,35.804442 64,34.398452 64,34.94229 c 0,0.543838 -2.680366,2.879042 -5.956369,5.189342 -3.276002,2.3103 -5.738398,4.553228 -5.471991,4.984283 0.266407,0.431056 -0.482532,1.301212 -1.664309,1.93368 -1.488872,0.79682 -1.939966,0.812227 -1.468991,0.05017 0.92243,-1.492523 0.23696,-1.389439 -3.909684,0.587958 -2.529141,1.206063 -3.180954,1.938236 -2.283927,2.565506 0.813968,0.569188 0.513787,0.671 -0.853852,0.2896 -2.402375,-0.669963 -6.075901,0.415766 -4.565379,1.34932 0.546254,0.337603 -1.103515,0.676261 -3.666154,0.752573 L 29.5,52.783473 Z M 62,39.622445 c 0,-0.207656 0.7875,-0.995156 1.75,-1.75 C 65.336056,36.628574 65.371426,36.663944 64.127555,38.25 62.821186,39.915748 62,40.445479 62,39.622445 Z M 49.083333,21.639159 C 50.227981,20.647872 58,20.080462 58,20.988182 58,21.544682 55.9,22 53.333333,22 c -2.566666,0 -4.479166,-0.162379 -4.25,-0.360841 z M 54.8125,18.316886 c 0.721875,-0.288871 1.584375,-0.253344 1.916667,0.07895 0.332291,0.332292 -0.258334,0.568641 -1.3125,0.52522 -1.164943,-0.04798 -1.4019,-0.284941 -0.604167,-0.604167 z"
         style="fill:#151310" />
    </g>
  </g>
</svg>
