<?xml version="1.0" encoding="UTF-8" standalone="no"?>
<!DOCTYPE svg PUBLIC "-//W3C//DTD SVG 1.1//EN" "http://www.w3.org/Graphics/SVG/1.1/DTD/svg11.dtd">
<svg width="100%" height="100%" viewBox="0 0 64 64" version="1.1" xmlns="http://www.w3.org/2000/svg" xmlns:xlink="http://www.w3.org/1999/xlink" xml:space="preserve" xmlns:serif="http://www.serif.com/" style="fill-rule:evenodd;clip-rule:evenodd;stroke-linejoin:round;stroke-miterlimit:2;">
    <g transform="matrix(0.14333,0,0,0.14333,-124.402,-31.7078)">
        <path d="M1103.77,431.913L1103.67,430.267L1103.57,428.621L1103.47,426.975L1103.38,425.329L1103.18,422.037L1103.08,420.391L1102.88,417.099L1102.79,415.453L1102.69,413.807L1102.39,408.869L1102.3,407.223L1102.2,405.577L1101.8,398.993L1101.71,397.347L1101.41,392.409L1101.31,390.763L1101.22,389.117L1101.12,387.47L1100.92,384.178L1100.82,382.532L1100.72,380.886L1100.63,379.24L1100.43,375.948L1100.33,374.302L1100.23,372.656L1100.14,371.01L1100.04,369.364L1099.94,367.718L1099.64,362.78L1099.55,361.134L1099.45,359.488L1099.15,354.55L1099.06,352.904L1098.96,351.258L1098.86,349.612L1098.76,347.966L1098.56,344.674L1098.47,343.028L1098.17,338.09L1098.07,336.444L1097.97,334.798L1097.88,333.152L1097.68,329.86L1097.58,328.214L1097.48,326.568L1097.39,324.922L1097.29,323.275L1097.19,321.629L1096.89,316.691L1096.8,315.045L1096.7,313.399L1096.4,308.461L1096.31,306.815L1096.21,305.169L1095.81,298.585L1095.72,296.939L1095.42,292.001L1095.32,290.355L1095.23,288.709L1094.93,283.771L1094.83,282.125L1094.73,280.479L1094.64,278.833L1094.54,277.187L1094.44,275.541L1094.24,272.249L1094.15,270.603L1094.05,268.957L1093.95,267.311L1093.65,262.373L1093.56,260.727L1093.46,259.08L1093.06,252.496L1092.97,250.85L1092.67,245.912L1092.57,244.266L1092.48,242.62L1092.18,237.682L1092.08,236.036L1091.98,234.39L1091.89,232.744L1091.79,231.098L1091.69,229.452L1091.49,226.16L1091.4,224.514L1091.3,222.868L1091.2,221.222L1090.9,226.16L1090.81,227.806L1090.71,229.452L1090.41,234.39L1090.32,236.036L1089.92,242.62L1089.82,244.266L1089.73,245.912L1089.43,250.85L1089.33,252.496L1089.24,254.142L1089.04,257.434L1088.94,259.08L1088.84,260.727L1088.74,262.373L1088.65,264.019L1088.55,265.665L1088.45,267.311L1088.25,270.603L1088.16,272.249L1088.06,273.895L1087.96,275.541L1087.66,280.479L1087.57,282.125L1087.17,288.709L1087.07,290.355L1086.98,292.001L1086.68,296.939L1086.58,298.585L1086.49,300.231L1086.29,303.523L1086.19,305.169L1086.09,306.815L1085.99,308.461L1085.9,310.107L1085.8,311.753L1085.7,313.399L1085.5,316.691L1085.41,318.337L1085.31,319.983L1085.21,321.629L1085.11,323.275L1085.01,324.922L1084.91,326.568L1084.82,328.214L1084.42,334.798L1084.33,336.444L1083.93,343.028L1083.83,344.674L1083.74,346.32L1083.64,347.966L1083.54,349.612L1083.44,351.258L1083.34,352.904L1083.25,354.55L1083.05,357.842L1082.95,359.488L1082.75,362.78L1082.66,364.426L1082.56,366.072L1082.46,367.718L1082.26,371.01L1082.17,372.656L1082.07,374.302L1081.67,380.886L1081.58,382.532L1081.28,387.47L1081.18,389.117L1081.09,390.763L1080.99,392.409L1080.79,395.701L1080.69,397.347L1080.59,398.993L1080.5,400.639L1080.3,403.931L1080.2,405.577L1080.1,407.223L1080.01,408.869L1079.81,412.161L1079.71,413.807L1079.51,417.099L1079.42,418.745L1079.32,420.391L1078.92,426.975L1078.83,428.621L1078.63,431.913L1076.98,432.011L1075.34,432.11L1073.69,432.208L1072.05,432.306L1070.4,432.404L1068.75,432.502L1067.11,432.601L1065.46,432.699L1063.82,432.797L1062.17,432.895L1060.52,432.993L1058.88,433.092L1057.23,433.19L1055.59,433.288L1053.94,433.386L1052.29,433.484L1050.65,433.583L1049,433.681L1047.36,433.779L1045.71,433.877L1044.06,433.975L1042.42,434.074L1040.77,434.172L1039.13,434.27L1037.48,434.368L1035.83,434.467L1034.19,434.565L1032.54,434.663L1030.9,434.761L1029.25,434.859L1027.6,434.958L1025.96,435.056L1024.31,435.154L1022.67,435.252L1021.02,435.35L1019.37,435.449L1017.73,435.547L1016.08,435.645L1014.43,435.743L1012.79,435.841L1011.14,435.94L1009.5,436.038L1007.85,436.136L1006.2,436.234L1004.56,436.332L1002.91,436.431L1001.27,436.529L999.62,436.627L996.328,436.823L994.682,436.922L991.39,437.118L989.744,437.216L988.098,437.314L986.452,437.413L984.806,437.511L983.16,437.609L981.514,437.707L979.868,437.806L978.222,437.904L976.576,438.002L973.284,438.198L971.638,438.297L968.346,438.493L966.7,438.591L965.054,438.689L963.408,438.788L960.116,438.984L958.47,439.082L956.823,439.18L955.177,439.279L953.531,439.377L948.593,439.671L946.947,439.77L945.301,439.868L943.655,439.966L942.009,440.064L940.363,440.162L938.717,440.261L933.779,440.555L932.133,440.653L930.487,440.752L925.549,441.046L923.903,441.145L922.257,441.243L920.611,441.341L918.965,441.439L917.319,441.537L915.673,441.636L914.027,441.734L912.38,441.832L910.734,441.93L909.088,442.028L907.442,442.127L902.504,442.421L900.858,442.519L899.212,442.618L897.566,442.716L892.628,443.01L890.982,443.109L887.69,443.305L886.044,443.403L884.398,443.501L882.752,443.6L877.814,443.894L876.168,443.992L874.522,444.091L871.23,444.287L869.583,444.385L867.938,444.483L869.583,444.582L871.23,444.68L872.876,444.778L874.522,444.876L876.168,444.974L877.814,445.073L881.106,445.269L882.752,445.367L884.398,445.465L886.044,445.564L892.628,445.956L894.274,446.055L895.92,446.153L900.858,446.447L902.504,446.546L904.15,446.644L905.796,446.742L909.088,446.938L910.734,447.037L912.38,447.135L914.027,447.233L915.673,447.331L917.319,447.429L918.965,447.528L925.549,447.92L927.195,448.019L928.841,448.117L933.779,448.411L935.425,448.51L938.717,448.706L940.363,448.804L942.009,448.902L943.655,449.001L948.593,449.295L950.239,449.393L951.885,449.492L956.823,449.786L958.47,449.884L960.116,449.983L961.762,450.081L963.408,450.179L966.7,450.375L968.346,450.474L971.638,450.67L973.284,450.768L974.93,450.866L976.576,450.965L983.16,451.357L984.806,451.456L986.452,451.554L991.39,451.848L993.036,451.947L994.682,452.045L996.328,452.143L999.62,452.339L1001.27,452.438L1002.91,452.536L1004.56,452.634L1006.2,452.732L1007.85,452.83L1009.5,452.929L1011.14,453.027L1012.79,453.125L1014.43,453.223L1016.08,453.321L1017.73,453.42L1019.37,453.518L1021.02,453.616L1022.67,453.714L1024.31,453.812L1025.96,453.911L1027.6,454.009L1029.25,454.107L1030.9,454.205L1032.54,454.303L1034.19,454.402L1035.83,454.5L1037.48,454.598L1039.13,454.696L1040.77,454.794L1042.42,454.893L1044.06,454.991L1045.71,455.089L1047.36,455.187L1049,455.285L1050.65,455.384L1052.29,455.482L1053.94,455.58L1055.59,455.678L1057.23,455.776L1058.88,455.875L1060.52,455.973L1062.17,456.071L1063.82,456.169L1065.46,456.267L1067.11,456.366L1068.75,456.464L1072.05,456.66L1073.69,456.758L1075.34,456.857L1076.98,456.955L1078.63,457.053L1078.83,460.345L1078.92,461.991L1079.32,468.575L1079.42,470.221L1079.51,471.867L1079.61,473.513L1079.71,475.159L1079.81,476.805L1080.01,480.097L1080.1,481.743L1080.2,483.389L1080.3,485.035L1080.5,488.327L1080.59,489.974L1080.69,491.62L1080.79,493.266L1081.09,498.204L1081.18,499.85L1081.58,506.434L1081.67,508.08L1082.07,514.664L1082.17,516.31L1082.26,517.956L1082.46,521.248L1082.56,522.894L1082.66,524.54L1082.75,526.186L1082.95,529.478L1083.05,531.124L1083.25,534.416L1083.34,536.062L1083.44,537.708L1083.54,539.354L1083.74,542.646L1083.83,544.292L1083.93,545.938L1084.33,552.522L1084.42,554.168L1084.52,555.815L1084.62,557.461L1084.82,560.753L1084.91,562.399L1085.21,567.337L1085.31,568.983L1085.41,570.629L1085.5,572.275L1085.7,575.567L1085.8,577.213L1085.9,578.859L1085.99,580.505L1086.19,583.797L1086.29,585.443L1086.49,588.735L1086.58,590.381L1086.68,592.027L1086.98,596.965L1087.07,598.611L1087.17,600.257L1087.57,606.841L1087.66,608.487L1087.96,613.425L1088.06,615.071L1088.16,616.717L1088.25,618.363L1088.35,620.01L1088.45,621.656L1088.55,623.302L1088.65,624.948L1088.74,626.594L1088.94,629.886L1089.04,631.532L1089.24,634.824L1089.33,636.47L1089.43,638.116L1089.73,643.054L1089.82,644.7L1089.92,646.346L1090.12,649.638L1090.22,651.284L1090.32,652.93L1090.41,654.576L1090.71,659.514L1090.81,661.16L1090.9,662.806L1091.2,667.744L1091.3,666.098L1091.4,664.452L1091.49,662.806L1091.69,659.514L1091.79,657.868L1091.89,656.222L1091.98,654.576L1092.08,652.93L1092.18,651.284L1092.28,649.638L1092.48,646.346L1092.57,644.7L1092.67,643.054L1092.97,638.116L1093.06,636.47L1093.46,629.886L1093.56,628.24L1093.65,626.594L1093.95,621.656L1094.05,620.01L1094.15,618.363L1094.24,616.717L1094.44,613.425L1094.54,611.779L1094.64,610.133L1094.73,608.487L1094.83,606.841L1094.93,605.195L1095.23,600.257L1095.32,598.611L1095.42,596.965L1095.72,592.027L1095.81,590.381L1096.21,583.797L1096.31,582.151L1096.4,580.505L1096.7,575.567L1096.8,573.921L1096.89,572.275L1097.19,567.337L1097.29,565.691L1097.39,564.045L1097.48,562.399L1097.58,560.753L1097.68,559.107L1097.78,557.461L1097.88,555.815L1097.97,554.168L1098.07,552.522L1098.17,550.876L1098.47,545.938L1098.56,544.292L1098.96,537.708L1099.06,536.062L1099.15,534.416L1099.45,529.478L1099.55,527.832L1099.64,526.186L1099.94,521.248L1100.04,519.602L1100.14,517.956L1100.23,516.31L1100.33,514.664L1100.43,513.018L1100.63,509.726L1100.72,508.08L1100.82,506.434L1100.92,504.788L1101.22,499.85L1101.31,498.204L1101.71,491.62L1101.8,489.974L1101.9,488.327L1102.2,483.389L1102.3,481.743L1102.39,480.097L1102.69,475.159L1102.79,473.513L1102.88,471.867L1103.08,468.575L1103.18,466.929L1103.38,463.637L1103.47,461.991L1103.57,460.345L1103.67,458.699L1103.77,457.053L1105.41,456.955L1107.06,456.857L1108.71,456.758L1110.35,456.66L1112,456.562L1113.64,456.464L1115.29,456.366L1116.94,456.267L1118.58,456.169L1120.23,456.071L1121.88,455.973L1123.52,455.875L1125.17,455.776L1126.81,455.678L1128.46,455.58L1130.11,455.482L1131.75,455.384L1133.4,455.285L1135.04,455.187L1136.69,455.089L1138.34,454.991L1139.98,454.893L1141.63,454.794L1143.27,454.696L1144.92,454.598L1146.57,454.5L1148.21,454.402L1149.86,454.303L1151.5,454.205L1153.15,454.107L1154.8,454.009L1156.44,453.911L1158.09,453.812L1159.73,453.714L1163.03,453.518L1164.67,453.42L1166.32,453.321L1167.96,453.223L1171.26,453.027L1172.9,452.929L1174.55,452.83L1176.19,452.732L1179.49,452.536L1181.13,452.438L1182.78,452.339L1184.42,452.241L1186.07,452.143L1187.72,452.045L1189.36,451.947L1191.01,451.848L1192.65,451.75L1194.3,451.652L1195.95,451.554L1197.59,451.456L1199.24,451.357L1200.88,451.259L1204.18,451.063L1205.82,450.965L1207.47,450.866L1209.11,450.768L1210.76,450.67L1212.41,450.572L1214.05,450.474L1215.7,450.375L1217.35,450.277L1218.99,450.179L1220.64,450.081L1222.28,449.983L1223.93,449.884L1225.58,449.786L1227.22,449.688L1228.87,449.59L1230.51,449.492L1232.16,449.393L1233.81,449.295L1235.45,449.197L1237.1,449.099L1238.74,449.001L1240.39,448.902L1242.04,448.804L1243.68,448.706L1245.33,448.608L1246.97,448.51L1248.62,448.411L1250.27,448.313L1251.91,448.215L1253.56,448.117L1255.2,448.019L1256.85,447.92L1258.5,447.822L1260.14,447.724L1261.79,447.626L1263.43,447.528L1265.08,447.429L1266.73,447.331L1268.37,447.233L1270.02,447.135L1271.66,447.037L1273.31,446.938L1274.96,446.84L1276.6,446.742L1278.25,446.644L1279.89,446.546L1281.54,446.447L1283.19,446.349L1284.83,446.251L1286.48,446.153L1288.12,446.055L1289.77,445.956L1291.42,445.858L1293.06,445.76L1294.71,445.662L1296.35,445.564L1298,445.465L1299.65,445.367L1301.29,445.269L1302.94,445.171L1304.59,445.073L1306.23,444.974L1307.88,444.876L1309.52,444.778L1311.17,444.68L1312.82,444.582L1314.46,444.483L1312.82,444.385L1311.17,444.287L1309.52,444.189L1307.88,444.091L1306.23,443.992L1304.59,443.894L1302.94,443.796L1301.29,443.698L1299.65,443.6L1298,443.501L1296.35,443.403L1294.71,443.305L1293.06,443.207L1291.42,443.109L1289.77,443.01L1288.12,442.912L1286.48,442.814L1284.83,442.716L1283.19,442.618L1281.54,442.519L1279.89,442.421L1278.25,442.323L1276.6,442.225L1274.96,442.127L1273.31,442.028L1271.66,441.93L1270.02,441.832L1268.37,441.734L1266.73,441.636L1265.08,441.537L1263.43,441.439L1261.79,441.341L1260.14,441.243L1258.5,441.145L1256.85,441.046L1255.2,440.948L1253.56,440.85L1251.91,440.752L1250.27,440.653L1248.62,440.555L1246.97,440.457L1245.33,440.359L1243.68,440.261L1242.04,440.162L1238.74,439.966L1237.1,439.868L1235.45,439.77L1233.81,439.671L1230.51,439.475L1228.87,439.377L1227.22,439.279L1225.58,439.18L1223.93,439.082L1222.28,438.984L1220.64,438.886L1218.99,438.788L1217.35,438.689L1215.7,438.591L1214.05,438.493L1212.41,438.395L1210.76,438.297L1209.11,438.198L1207.47,438.1L1205.82,438.002L1204.18,437.904L1202.53,437.806L1200.88,437.707L1199.24,437.609L1197.59,437.511L1195.95,437.413L1194.3,437.314L1192.65,437.216L1191.01,437.118L1189.36,437.02L1187.72,436.922L1186.07,436.823L1184.42,436.725L1182.78,436.627L1181.13,436.529L1179.49,436.431L1177.84,436.332L1176.19,436.234L1174.55,436.136L1172.9,436.038L1171.26,435.94L1169.61,435.841L1167.96,435.743L1166.32,435.645L1164.67,435.547L1163.03,435.449L1161.38,435.35L1159.73,435.252L1158.09,435.154L1156.44,435.056L1154.8,434.958L1153.15,434.859L1151.5,434.761L1149.86,434.663L1148.21,434.565L1146.57,434.467L1144.92,434.368L1143.27,434.27L1141.63,434.172L1139.98,434.074L1138.34,433.975L1136.69,433.877L1135.04,433.779L1133.4,433.681L1131.75,433.583L1130.11,433.484L1128.46,433.386L1126.81,433.288L1125.17,433.19L1123.52,433.092L1121.88,432.993L1118.58,432.797L1116.94,432.699L1115.29,432.601L1113.64,432.502L1112,432.404L1110.35,432.306L1108.71,432.208L1107.06,432.11L1105.41,432.011L1103.77,431.913Z" style="fill:rgb(255,211,60);fill-rule:nonzero;"/>
    </g>
    <g transform="matrix(0.14333,0,0,0.14333,-124.402,-31.7078)">
        <path d="M1102.2,444.483L1102.88,443.719L1103.55,442.956L1104.23,442.193L1104.91,441.43L1105.59,440.666L1106.26,439.903L1106.94,439.14L1107.62,438.377L1108.3,437.613L1108.97,436.85L1109.65,436.087L1110.33,435.324L1111,434.56L1111.68,433.797L1112.36,433.034L1113.04,432.271L1113.71,431.507L1114.39,430.744L1115.07,429.981L1115.75,429.218L1116.42,428.454L1117.1,427.691L1117.78,426.928L1118.46,426.164L1119.13,425.401L1119.81,424.638L1120.49,423.875L1121.16,423.111L1121.84,422.348L1122.52,421.585L1123.2,420.822L1123.87,420.058L1124.55,419.295L1125.23,418.532L1125.91,417.769L1126.58,417.005L1127.26,416.242L1127.94,415.479L1128.62,414.716L1129.29,413.952L1129.97,413.189L1130.65,412.426L1131.32,411.663L1132,410.899L1132.68,410.136L1133.36,409.373L1134.03,408.61L1134.71,407.846L1135.39,407.083L1136.07,406.32L1136.74,405.556L1137.42,404.793L1138.1,404.03L1138.78,403.267L1139.45,402.503L1140.13,401.74L1140.81,400.977L1141.48,400.214L1142.16,399.45L1142.84,398.687L1143.52,397.924L1144.19,397.161L1144.87,396.397L1145.55,395.634L1146.23,394.871L1146.9,394.108L1147.58,393.344L1148.26,392.581L1148.93,391.818L1149.61,391.055L1150.29,390.291L1150.97,389.528L1151.64,388.765L1152.32,388.002L1153,387.238L1153.68,386.475L1154.35,385.712L1155.03,384.949L1155.71,384.185L1156.39,383.422L1157.06,382.659L1157.74,381.895L1158.42,381.132L1159.09,380.369L1159.77,379.606L1160.45,378.842L1161.13,378.079L1161.8,377.316L1162.48,376.553L1163.16,375.789L1163.84,375.026L1164.51,374.263L1165.19,373.5L1165.87,372.736L1166.55,371.973L1167.22,371.21L1167.9,370.447L1168.58,369.683L1169.25,368.92L1169.93,368.157L1170.61,367.394L1171.29,366.63L1171.96,365.867L1172.64,365.104L1173.32,364.341L1174,363.577L1174.67,362.814L1175.35,362.051L1176.03,361.288L1176.71,360.524L1177.38,359.761L1178.06,358.998L1178.74,358.234L1179.41,357.471L1180.09,356.708L1180.77,355.945L1181.45,355.181L1182.12,354.418L1182.8,353.655L1183.48,352.892L1184.16,352.128L1184.83,351.365L1185.51,350.602L1186.19,349.839L1186.86,349.075L1187.54,348.312L1188.22,347.549L1188.9,346.786L1188.13,347.463L1187.37,348.14L1186.61,348.818L1185.84,349.495L1184.32,350.849L1183.55,351.527L1182.03,352.881L1181.26,353.559L1179.74,354.913L1178.97,355.591L1177.45,356.945L1176.68,357.623L1175.16,358.977L1174.4,359.655L1173.63,360.332L1172.87,361.009L1172.11,361.687L1171.34,362.364L1170.58,363.041L1169.82,363.719L1169.05,364.396L1167.53,365.75L1166.76,366.428L1165.24,367.782L1164.47,368.46L1162.95,369.814L1162.18,370.492L1160.66,371.846L1159.89,372.524L1158.37,373.878L1157.6,374.556L1156.08,375.91L1155.31,376.587L1154.55,377.265L1153.79,377.942L1153.02,378.619L1152.26,379.297L1151.5,379.974L1150.73,380.651L1149.97,381.329L1149.21,382.006L1148.44,382.683L1147.68,383.361L1146.92,384.038L1146.15,384.715L1145.39,385.393L1144.63,386.07L1143.86,386.747L1143.1,387.425L1142.34,388.102L1141.57,388.779L1140.81,389.457L1139.29,390.811L1138.52,391.488L1137.76,392.166L1137,392.843L1136.23,393.52L1135.47,394.198L1134.71,394.875L1133.94,395.552L1133.18,396.23L1132.42,396.907L1131.65,397.584L1130.89,398.262L1130.13,398.939L1129.36,399.616L1128.6,400.294L1127.84,400.971L1127.07,401.648L1126.31,402.326L1125.55,403.003L1124.78,403.68L1124.02,404.357L1123.26,405.035L1122.49,405.712L1121.73,406.389L1120.97,407.067L1120.2,407.744L1119.44,408.421L1118.68,409.099L1117.91,409.776L1117.15,410.453L1116.39,411.131L1115.62,411.808L1114.86,412.485L1114.1,413.163L1113.33,413.84L1112.57,414.517L1111.81,415.195L1111.04,415.872L1110.28,416.549L1109.52,417.227L1108.75,417.904L1107.23,419.258L1106.46,419.936L1104.94,421.29L1104.18,421.968L1103.41,422.645L1102.65,423.322L1101.89,424L1101.12,424.677L1100.36,425.354L1099.6,426.032L1098.83,426.709L1098.07,427.386L1097.31,428.064L1096.54,428.741L1095.02,430.095L1094.25,430.773L1092.73,432.127L1091.96,432.805L1091.2,433.482L1090.44,432.805L1089.67,432.127L1088.15,430.773L1087.38,430.095L1085.86,428.741L1085.09,428.064L1084.33,427.386L1083.57,426.709L1082.8,426.032L1082.04,425.354L1081.28,424.677L1080.51,424L1079.75,423.322L1078.99,422.645L1078.22,421.968L1077.46,421.29L1076.7,420.613L1075.93,419.936L1075.17,419.258L1074.41,418.581L1073.64,417.904L1072.88,417.227L1072.12,416.549L1071.35,415.872L1070.59,415.195L1069.83,414.517L1069.07,413.84L1068.3,413.163L1067.54,412.485L1066.78,411.808L1066.01,411.131L1065.25,410.453L1064.49,409.776L1063.72,409.099L1062.96,408.421L1062.2,407.744L1061.43,407.067L1060.67,406.389L1059.91,405.712L1059.14,405.035L1058.38,404.357L1057.62,403.68L1056.85,403.003L1056.09,402.326L1055.33,401.648L1054.56,400.971L1053.8,400.294L1053.04,399.616L1052.27,398.939L1051.51,398.262L1050.75,397.584L1049.98,396.907L1049.22,396.23L1048.46,395.552L1047.69,394.875L1046.93,394.198L1046.17,393.52L1045.4,392.843L1044.64,392.166L1043.88,391.488L1043.11,390.811L1042.35,390.134L1041.59,389.457L1040.82,388.779L1040.06,388.102L1039.3,387.425L1038.53,386.747L1037.01,385.393L1036.24,384.715L1034.72,383.361L1033.95,382.683L1033.19,382.006L1032.43,381.329L1031.67,380.651L1030.9,379.974L1030.14,379.297L1029.38,378.619L1028.61,377.942L1027.85,377.265L1027.09,376.587L1026.32,375.91L1025.56,375.233L1024.8,374.556L1024.03,373.878L1022.51,372.524L1021.74,371.846L1020.22,370.492L1019.45,369.814L1017.93,368.46L1017.16,367.782L1016.4,367.105L1015.64,366.428L1014.87,365.75L1013.35,364.396L1012.58,363.719L1011.82,363.041L1011.06,362.364L1010.29,361.687L1009.53,361.009L1008.77,360.332L1008,359.655L1007.24,358.977L1006.48,358.3L1005.71,357.623L1004.95,356.945L1004.19,356.268L1003.42,355.591L1002.66,354.913L1001.9,354.236L1001.13,353.559L1000.37,352.881L999.608,352.204L998.845,351.527L998.082,350.849L997.318,350.172L995.792,348.818L995.029,348.14L994.265,347.463L993.502,346.786L994.179,347.549L994.857,348.312L995.534,349.075L996.211,349.839L996.889,350.602L997.566,351.365L998.243,352.128L998.921,352.892L999.598,353.655L1000.28,354.418L1000.95,355.181L1001.63,355.945L1002.31,356.708L1002.98,357.471L1003.66,358.235L1004.34,358.998L1005.02,359.761L1005.69,360.524L1006.37,361.288L1007.05,362.051L1007.73,362.814L1008.4,363.577L1009.08,364.341L1009.76,365.104L1010.43,365.867L1011.11,366.63L1011.79,367.394L1012.47,368.157L1013.14,368.92L1013.82,369.684L1014.5,370.447L1015.18,371.21L1015.85,371.973L1016.53,372.737L1017.89,374.263L1018.56,375.026L1019.24,375.79L1019.92,376.553L1020.59,377.316L1021.27,378.079L1021.95,378.843L1022.63,379.606L1023.3,380.369L1023.98,381.133L1024.66,381.896L1025.34,382.659L1026.01,383.422L1026.69,384.186L1027.37,384.949L1028.05,385.712L1028.72,386.475L1029.4,387.239L1030.08,388.002L1030.75,388.765L1031.43,389.528L1032.11,390.292L1032.79,391.055L1033.46,391.818L1034.14,392.581L1034.82,393.345L1035.5,394.108L1036.17,394.871L1036.85,395.635L1037.53,396.398L1038.2,397.161L1038.88,397.924L1039.56,398.688L1040.24,399.451L1040.91,400.214L1041.59,400.977L1042.27,401.741L1042.95,402.504L1043.62,403.267L1044.3,404.03L1044.98,404.794L1045.66,405.557L1046.33,406.32L1047.01,407.083L1047.69,407.847L1048.36,408.61L1049.04,409.373L1049.72,410.137L1050.4,410.9L1051.07,411.663L1051.75,412.426L1052.43,413.19L1053.11,413.953L1053.78,414.716L1054.46,415.479L1055.14,416.243L1055.82,417.006L1056.49,417.769L1057.17,418.532L1057.85,419.296L1058.52,420.059L1059.2,420.822L1059.88,421.586L1060.56,422.349L1061.23,423.112L1061.91,423.875L1062.59,424.639L1063.27,425.402L1063.94,426.165L1064.62,426.928L1065.3,427.692L1065.97,428.455L1066.65,429.218L1067.33,429.981L1068.01,430.745L1068.68,431.508L1069.36,432.271L1070.04,433.035L1070.72,433.798L1071.39,434.561L1072.07,435.324L1072.75,436.088L1073.43,436.851L1074.1,437.614L1074.78,438.377L1075.46,439.141L1076.13,439.904L1076.81,440.667L1077.49,441.43L1078.17,442.194L1078.84,442.957L1079.52,443.72L1080.2,444.483L1079.52,445.247L1078.84,446.01L1078.17,446.773L1077.49,447.537L1076.81,448.3L1076.13,449.063L1075.46,449.826L1074.78,450.59L1074.1,451.353L1073.43,452.116L1072.75,452.879L1072.07,453.643L1071.39,454.406L1070.72,455.169L1070.04,455.932L1069.36,456.696L1068.68,457.459L1068.01,458.222L1067.33,458.985L1066.65,459.749L1065.97,460.512L1065.3,461.275L1064.62,462.038L1063.94,462.802L1063.27,463.565L1062.59,464.328L1061.91,465.091L1061.23,465.855L1060.56,466.618L1059.88,467.381L1059.2,468.145L1058.52,468.908L1057.85,469.671L1057.17,470.434L1056.49,471.198L1055.82,471.961L1055.14,472.724L1054.46,473.487L1053.78,474.251L1053.11,475.014L1052.43,475.777L1051.75,476.54L1051.07,477.304L1050.4,478.067L1049.72,478.83L1049.04,479.593L1048.36,480.357L1047.69,481.12L1047.01,481.883L1046.33,482.646L1045.66,483.41L1044.98,484.173L1044.3,484.936L1043.62,485.699L1042.95,486.463L1042.27,487.226L1041.59,487.989L1040.91,488.752L1040.24,489.516L1039.56,490.279L1038.88,491.042L1038.2,491.806L1037.53,492.569L1036.85,493.332L1036.17,494.095L1035.5,494.859L1034.82,495.622L1034.14,496.385L1033.46,497.148L1032.79,497.912L1032.11,498.675L1031.43,499.438L1030.75,500.201L1030.08,500.965L1029.4,501.728L1028.72,502.491L1028.05,503.254L1027.37,504.018L1026.69,504.781L1026.01,505.544L1025.34,506.307L1024.66,507.071L1023.98,507.834L1023.3,508.597L1022.63,509.36L1021.95,510.124L1021.27,510.887L1020.59,511.65L1019.92,512.413L1019.24,513.177L1018.56,513.94L1017.89,514.703L1017.21,515.466L1016.53,516.23L1015.85,516.993L1015.18,517.756L1014.5,518.52L1013.82,519.283L1013.14,520.046L1012.47,520.809L1011.79,521.573L1011.11,522.336L1010.43,523.099L1009.76,523.862L1009.08,524.626L1008.4,525.389L1007.73,526.152L1007.05,526.915L1006.37,527.679L1005.69,528.442L1005.02,529.205L1004.34,529.968L1003.66,530.732L1002.98,531.495L1002.31,532.258L1001.63,533.021L1000.95,533.785L1000.28,534.548L999.598,535.311L998.921,536.074L998.243,536.838L997.566,537.601L996.889,538.364L995.534,539.891L994.857,540.654L994.179,541.417L993.502,542.181L994.265,541.503L995.029,540.826L995.792,540.149L996.555,539.471L997.318,538.794L998.082,538.117L998.845,537.439L999.608,536.762L1000.37,536.085L1001.13,535.407L1001.9,534.73L1002.66,534.053L1003.42,533.375L1004.19,532.698L1004.95,532.021L1005.71,531.343L1006.48,530.666L1007.24,529.989L1008,529.311L1008.77,528.634L1009.53,527.957L1010.29,527.279L1011.06,526.602L1011.82,525.925L1012.58,525.247L1013.35,524.57L1014.87,523.216L1015.64,522.538L1016.4,521.861L1017.16,521.184L1017.93,520.506L1019.45,519.152L1020.22,518.474L1021.74,517.12L1022.51,516.442L1024.03,515.088L1024.8,514.41L1025.56,513.733L1026.32,513.056L1027.09,512.378L1027.85,511.701L1028.61,511.024L1029.38,510.346L1030.9,508.992L1031.66,508.314L1032.43,507.637L1033.19,506.96L1033.95,506.283L1034.72,505.605L1036.24,504.251L1037.01,503.573L1038.53,502.219L1039.3,501.541L1040.06,500.864L1040.82,500.187L1041.59,499.509L1042.35,498.832L1043.11,498.155L1043.88,497.477L1045.4,496.123L1046.17,495.445L1046.93,494.768L1047.69,494.091L1048.46,493.413L1049.22,492.736L1049.98,492.059L1050.75,491.381L1052.27,490.027L1053.04,489.349L1054.56,487.995L1055.33,487.318L1056.09,486.64L1056.85,485.963L1057.62,485.286L1058.38,484.608L1059.14,483.931L1059.91,483.254L1060.67,482.576L1061.43,481.899L1062.2,481.222L1062.96,480.544L1063.72,479.867L1064.49,479.19L1065.25,478.512L1066.77,477.158L1067.54,476.48L1069.06,475.126L1069.83,474.448L1071.35,473.094L1072.12,472.416L1073.64,471.062L1074.41,470.384L1075.93,469.03L1076.7,468.353L1077.46,467.675L1078.22,466.998L1078.99,466.321L1079.75,465.643L1080.51,464.966L1081.28,464.289L1082.04,463.611L1082.8,462.934L1083.57,462.257L1084.33,461.579L1085.09,460.902L1085.86,460.225L1086.62,459.547L1087.38,458.87L1088.15,458.193L1088.91,457.515L1089.67,456.838L1090.44,456.161L1091.2,455.483L1091.96,456.161L1092.73,456.838L1093.49,457.515L1094.25,458.193L1095.02,458.87L1095.78,459.547L1096.54,460.225L1097.31,460.902L1098.07,461.579L1098.83,462.257L1099.59,462.934L1100.36,463.611L1101.12,464.289L1101.88,464.966L1102.65,465.643L1103.41,466.321L1104.17,466.998L1104.94,467.675L1105.7,468.353L1106.46,469.03L1107.23,469.707L1107.99,470.384L1108.75,471.062L1109.52,471.739L1110.28,472.416L1111.04,473.094L1111.81,473.771L1112.57,474.448L1113.33,475.126L1114.1,475.803L1114.86,476.48L1115.62,477.158L1116.39,477.835L1117.15,478.512L1117.91,479.19L1118.68,479.867L1119.44,480.544L1120.2,481.222L1120.97,481.899L1121.73,482.576L1122.49,483.254L1123.26,483.931L1124.02,484.608L1124.78,485.286L1125.55,485.963L1126.31,486.64L1127.07,487.318L1127.84,487.995L1129.36,489.349L1130.13,490.027L1131.65,491.381L1132.42,492.059L1133.18,492.736L1133.94,493.413L1134.71,494.091L1136.23,495.445L1136.99,496.123L1137.76,496.8L1138.52,497.477L1139.28,498.155L1140.05,498.832L1140.81,499.509L1141.57,500.187L1142.34,500.864L1143.1,501.541L1143.86,502.219L1144.63,502.896L1145.39,503.573L1146.15,504.251L1146.92,504.928L1147.68,505.605L1148.44,506.283L1149.21,506.96L1150.73,508.314L1151.5,508.992L1153.02,510.346L1153.79,511.024L1155.31,512.378L1156.08,513.056L1157.6,514.41L1158.37,515.088L1159.89,516.442L1160.66,517.12L1162.18,518.474L1162.95,519.152L1164.47,520.506L1165.24,521.184L1166.76,522.538L1167.53,523.216L1169.05,524.57L1169.82,525.247L1170.58,525.925L1171.34,526.602L1172.11,527.279L1172.87,527.957L1174.39,529.311L1175.16,529.989L1176.68,531.343L1177.45,532.021L1178.97,533.375L1179.74,534.053L1181.26,535.407L1182.03,536.085L1183.55,537.439L1184.32,538.117L1185.84,539.471L1186.61,540.149L1188.13,541.503L1188.9,542.181L1188.22,541.417L1187.54,540.654L1186.86,539.891L1186.19,539.128L1185.51,538.364L1184.83,537.601L1184.16,536.838L1183.48,536.074L1182.8,535.311L1182.12,534.548L1181.45,533.785L1180.77,533.021L1180.09,532.258L1179.41,531.495L1178.74,530.732L1178.06,529.968L1177.38,529.205L1176.71,528.442L1176.03,527.679L1175.35,526.915L1174.67,526.152L1174,525.389L1173.32,524.625L1172.64,523.862L1171.96,523.099L1171.29,522.336L1170.61,521.572L1169.93,520.809L1169.25,520.046L1168.58,519.283L1167.9,518.519L1167.22,517.756L1166.55,516.993L1165.87,516.23L1165.19,515.466L1164.51,514.703L1163.84,513.94L1163.16,513.177L1162.48,512.413L1161.8,511.65L1161.13,510.887L1160.45,510.123L1159.77,509.36L1159.09,508.597L1158.42,507.834L1157.74,507.07L1157.06,506.307L1156.39,505.544L1155.71,504.781L1155.03,504.017L1154.35,503.254L1153.68,502.491L1153,501.728L1152.32,500.964L1151.64,500.201L1150.97,499.438L1150.29,498.674L1149.61,497.911L1148.93,497.148L1148.26,496.385L1147.58,495.621L1146.9,494.858L1146.23,494.095L1145.55,493.332L1144.87,492.568L1144.19,491.805L1143.52,491.042L1142.84,490.279L1142.16,489.515L1141.48,488.752L1140.81,487.989L1140.13,487.226L1139.45,486.462L1138.78,485.699L1138.1,484.936L1137.42,484.172L1136.74,483.409L1136.07,482.646L1135.39,481.883L1134.71,481.119L1134.03,480.356L1133.36,479.593L1132.68,478.83L1132,478.066L1131.32,477.303L1130.65,476.54L1129.97,475.777L1129.29,475.013L1128.62,474.25L1127.94,473.487L1127.26,472.723L1126.58,471.96L1125.91,471.197L1125.23,470.434L1124.55,469.67L1123.87,468.907L1123.2,468.144L1122.52,467.381L1121.84,466.617L1121.16,465.854L1120.49,465.091L1119.81,464.328L1119.13,463.564L1118.46,462.801L1117.78,462.038L1117.1,461.275L1116.42,460.511L1115.75,459.748L1115.07,458.985L1114.39,458.221L1113.71,457.458L1113.04,456.695L1112.36,455.932L1111.68,455.168L1111,454.405L1110.33,453.642L1109.65,452.879L1108.97,452.115L1108.3,451.352L1107.62,450.589L1106.94,449.826L1106.26,449.062L1105.59,448.299L1104.91,447.536L1104.23,446.772L1103.55,446.009L1102.88,445.246L1102.2,444.483Z" style="fill:rgb(255,211,60);fill-rule:nonzero;"/>
    </g>
</svg>
