<?xml version="1.0" encoding="UTF-8" standalone="no"?>
<svg
   xmlns:dc="http://purl.org/dc/elements/1.1/"
   xmlns:cc="http://creativecommons.org/ns#"
   xmlns:rdf="http://www.w3.org/1999/02/22-rdf-syntax-ns#"
   xmlns:svg="http://www.w3.org/2000/svg"
   xmlns="http://www.w3.org/2000/svg"
   xmlns:sodipodi="http://sodipodi.sourceforge.net/DTD/sodipodi-0.dtd"
   xmlns:inkscape="http://www.inkscape.org/namespaces/inkscape"
   version="1.1"
   id="svg833"
   width="76"
   height="76"
   viewBox="0 0 76 76"
   sodipodi:docname="ter.svg"
   inkscape:version="1.0 (4035a4f, 2020-05-01)">
  <metadata
     id="metadata839">
    <rdf:RDF>
      <cc:Work
         rdf:about="">
        <dc:format>image/svg+xml</dc:format>
        <dc:type
           rdf:resource="http://purl.org/dc/dcmitype/StillImage" />
        <dc:title />
      </cc:Work>
    </rdf:RDF>
  </metadata>
  <defs
     id="defs837" />
  <sodipodi:namedview
     inkscape:document-rotation="0"
     pagecolor="#ffffff"
     bordercolor="#666666"
     borderopacity="1"
     objecttolerance="10"
     gridtolerance="10"
     guidetolerance="10"
     inkscape:pageopacity="0"
     inkscape:pageshadow="2"
     inkscape:window-width="1384"
     inkscape:window-height="737"
     id="namedview835"
     showgrid="false"
     inkscape:zoom="7.6052778"
     inkscape:cx="21.784223"
     inkscape:cy="44.080666"
     inkscape:window-x="0"
     inkscape:window-y="23"
     inkscape:window-maximized="0"
     inkscape:current-layer="g841" />
  <g
     inkscape:groupmode="layer"
     inkscape:label="Image"
     id="g841">
    <g
       id="g997"
       style="opacity:1">
      <path
         sodipodi:nodetypes="sssssssssssssssss"
         style="fill:#ecf1f4"
         d="M 35.45108,57.084322 C 29.729394,56.144097 24.956257,53.065484 21.697647,48.213531 18.762513,43.843221 18.17411,37.568122 18.473668,35.517627 c 0.167436,-1.146114 0.580488,-2.11239 0.779613,-3.319906 0.204572,-1.240544 0.813537,-2.39544 1.428826,-3.726161 0.638998,-1.381999 1.835543,-2.277234 2.288393,-2.902067 1.312623,-1.811134 5.213148,-6.431298 9.666387,-6.520684 2.418929,-0.04855 5.02713,-0.157511 6.13186,-0.264441 1.357202,-0.131368 3.604202,-0.419245 3.908924,0.485717 0.221092,0.656603 -0.946157,0.386432 -0.210015,0.103948 2.19591,-0.84265 9.213858,3.341849 12.224412,7.288889 C 57.204212,29.956518 57.5,31.150765 57.5,38 c 0,6.877984 -0.289827,8.035667 -2.853059,11.396238 -1.569183,2.057304 -4.044183,4.223015 -5.5,4.812689 -1.455818,0.589675 -4.064949,1.683897 -5.79807,2.431605 -1.733121,0.747707 -3.308121,1.303143 -3.5,1.234301 -0.191879,-0.06884 -2.170885,-0.424571 -4.397791,-0.790511 z"
         id="path1057" />
      <path
         style="fill:#e5ecf3"
         d="M 32.5,56.310187 C 26.424802,54.741186 17.810399,44.542434 19.29423,40.675631 19.596444,39.888075 19.349508,38.749508 18.745484,38.145484 17.947849,37.347849 18.10609,36.540253 19.323629,35.194888 20.245633,34.176085 21,32.645552 21,31.793704 c 0,-0.851848 0.68516,-2.117447 1.522578,-2.812442 0.837418,-0.694995 1.311926,-1.987595 1.054462,-2.872445 -0.520111,-1.787511 5.997658,-6.605987 6.919053,-5.115139 0.296688,0.480052 2.605836,0.168727 5.13144,-0.691833 3.608795,-1.22964 4.7567,-1.298177 5.361187,-0.320097 0.599504,0.970018 0.876483,0.943857 1.25562,-0.118595 0.380708,-1.066855 1.529914,-0.824741 5.287049,1.11387 9.958381,5.138339 13.527136,17.128283 7.937236,26.666727 -2.564374,4.375773 -4.548925,5.940287 -9.968625,7.858731 -3.350395,1.18596 -9.94815,1.595886 -13,0.807706 z m 6.945201,-9.536853 c 0.134216,-3.080515 -1.732365,-4.337175 -3.420646,-2.302921 -0.772671,0.931011 -0.795419,1.553167 -0.07311,1.999576 1.720757,1.063487 1.187253,2.511857 -0.701442,1.904294 -1.481502,-0.476576 -1.519859,-0.395239 -0.25,0.530132 2.392002,1.743098 4.316606,0.82042 4.445201,-2.131081 z m 4.145496,-3.51597 C 42.8972,42.563866 41,43.972907 41,45.181462 c 0,0.663093 0.573782,0.587231 1.524166,-0.201518 0.838291,-0.69572 1.31823,-1.470881 1.066531,-1.72258 z M 28.572942,40.234687 c 2.309372,-1.581322 2.284505,-3.978608 -0.05232,-5.043335 C 25.691662,33.902389 25,34.486919 25,38.166667 c 0,2.774133 1.37742,3.571384 3.572942,2.06802 z M 32.5,34 c 0.339919,-0.55 0.168034,-1 -0.381966,-1 -0.55,0 -1.278115,0.45 -1.618034,1 -0.339919,0.55 -0.168034,1 0.381966,1 0.55,0 1.278115,-0.45 1.618034,-1 z m -5,-7 C 27.839919,26.45 27.641476,26 27.059017,26 26.476558,26 26,26.45 26,27 c 0,0.55 0.198442,1 0.440983,1 0.242541,0 0.719098,-0.45 1.059017,-1 z M 31,23.559017 C 31,23.316476 30.55,22.839919 30,22.5 29.45,22.160081 29,22.358524 29,22.940983 29,23.523442 29.45,24 30,24 c 0.55,0 1,-0.198442 1,-0.440983 z"
         id="path1055" />
      <path
         style="fill:#e6e9e7"
         d="m 33.275048,56.029061 c -4.04879,-0.961952 -8.515531,-3.830935 -7.790602,-5.003895 0.301498,-0.487833 0.02131,-1.212592 -0.622643,-1.610576 -0.731227,-0.451923 -0.902922,-0.290138 -0.457295,0.430902 C 24.796948,50.480471 24.897119,51 24.627111,51 23.404748,51 19.733725,44.571116 19.538423,42.088428 19.419031,40.570725 18.960865,38.745695 18.520276,38.032807 18.022039,37.226642 18.339335,36.389603 19.359602,35.818633 20.261821,35.313726 21,33.79798 21,32.45031 c 0,-2.581551 0.939277,-3.111033 2.590188,-1.460122 0.653585,0.653585 1.59064,-0.02629 2.756536,-2 C 27.318216,27.345585 27.690115,26 27.173167,26 c -0.516947,0 -1.17526,0.9 -1.462916,2 -0.797156,3.04833 -2.376918,2.383704 -2.376918,-1 0,-1.65 0.458497,-3 1.018882,-3 0.560386,0 2.116281,-1.0125 3.457545,-2.25 l 2.438662,-2.25 -0.691599,2.25 c -0.714897,2.325799 0.844264,3.232971 1.718705,1 0.732006,-1.869249 9.064348,-4.230371 9.570481,-2.711972 0.286043,0.858127 0.632316,0.80954 1.246306,-0.174875 0.68988,-1.106089 1.735551,-0.896034 5.544948,1.11387 9.863137,5.203964 13.383793,17.192219 7.831362,26.666727 -2.583487,4.408387 -4.517812,5.919985 -10.157483,7.937669 -2.339667,0.837054 -3.510506,0.844969 -4.396704,0.02972 -0.899185,-0.827193 -1.027502,-0.791708 -0.502125,0.138858 0.79952,1.41614 -1.906123,1.521928 -7.137265,0.279061 z m 6.17418,-9.255727 C 39.581255,43.636738 37.702911,42.448118 35.950668,44.559441 35.293112,45.351748 35.090311,46 35.5,46 c 0.409689,0 0.243693,0.603904 -0.368879,1.342009 -1.391679,1.676871 -0.33101,2.834498 2.244956,2.450174 1.358315,-0.202656 1.993545,-1.127656 2.073151,-3.018849 z m 4.141469,-3.51597 C 42.8972,42.563866 41,43.972907 41,45.181462 c 0,0.663093 0.573782,0.587231 1.524166,-0.201518 0.838291,-0.69572 1.31823,-1.470881 1.066531,-1.72258 z M 28.646132,40.535305 c 1.15013,-0.805582 2.344769,-1.211071 2.654753,-0.901086 0.309985,0.309984 0.330958,-0.326049 0.04661,-1.413407 -0.432895,-1.655394 -5.165492,-4.921307 -5.808313,-4.008253 -4.555249,6.470216 -4.549303,6.563615 0.488314,7.67144 0.290121,0.0638 1.468509,-0.543112 2.618638,-1.348694 z M 32.5,34 c 0.339919,-0.55 0.168034,-1 -0.381966,-1 -0.55,0 -1.278115,0.45 -1.618034,1 -0.339919,0.55 -0.168034,1 0.381966,1 0.55,0 1.278115,-0.45 1.618034,-1 z M 31,30 c 0,-0.55 -0.476558,-1 -1.059017,-1 -0.582459,0 -0.780902,0.45 -0.440983,1 0.339919,0.55 0.816476,1 1.059017,1 C 30.801558,31 31,30.55 31,30 Z"
         id="path1053" />
      <path
         style="fill:#d9e2ea"
         d="m 33.275048,56.029061 c -4.04879,-0.961952 -8.515531,-3.830935 -7.790602,-5.003895 0.301498,-0.487833 0.02131,-1.212592 -0.622643,-1.610576 -0.731227,-0.451923 -0.902922,-0.290138 -0.457295,0.430902 C 24.796948,50.480471 24.897119,51 24.627111,51 23.404748,51 19.733725,44.571116 19.538423,42.088428 19.419031,40.570725 18.960865,38.745695 18.520276,38.032807 18.022039,37.226642 18.339335,36.389603 19.359602,35.818633 20.261821,35.313726 21,33.83548 21,32.533643 c 0,-1.301837 0.5186,-2.539843 1.152445,-2.751125 0.633844,-0.211281 1.222116,-1.329857 1.307271,-2.485723 0.08516,-1.155866 1.650252,-3.359891 3.477992,-4.897834 3.097547,-2.606413 3.275788,-2.646987 2.625341,-0.59761 -0.775097,2.442115 0.882469,3.085988 1.798577,0.698649 0.316583,-0.825 1.519311,-1.5 2.672731,-1.5 1.153419,0 3.024771,-0.49646 4.158558,-1.103245 1.543373,-0.825988 2.250362,-0.797552 2.813208,0.113152 0.572965,0.927077 0.867476,0.892171 1.238217,-0.146754 0.382632,-1.072246 1.462105,-0.860438 5.05827,0.992503 11.587111,5.970315 14.301532,21.383952 5.313466,30.172118 -3.99065,3.901896 -9.918493,6.223749 -11.701638,4.583368 -0.899185,-0.827193 -1.027502,-0.791708 -0.502125,0.138858 0.79952,1.41614 -1.906123,1.521928 -7.137265,0.279061 z M 39,50 c 0,-0.55 0.648442,-1 1.440983,-1 0.792541,0 1.715913,-0.444846 2.051938,-0.988546 0.350339,-0.56686 -0.05106,-0.734507 -0.940983,-0.393011 C 40.698372,47.945987 40,47.715833 40,47.106989 40,46.498145 40.659167,46 41.464816,46 42.270465,46 43.411298,45.1 44,44 44.854313,42.403701 44.76049,42 43.535184,42 42.690833,42 42,42.519744 42,43.154988 c 0,0.659581 -0.847741,0.387792 -1.976419,-0.633647 -1.08703,-0.983749 -1.70578,-2.226537 -1.375,-2.761751 0.354633,-0.573808 0.960466,-0.416382 1.476419,0.383647 0.725519,1.124981 1.043219,1.100511 1.859687,-0.143237 1.278131,-1.94701 1.28599,-4 0.01531,-4 -0.55,0 -1,0.352977 -1,0.784392 0,0.431416 -1.400053,1.611424 -3.111228,2.622241 -2.05575,1.214361 -2.70918,2.086327 -1.926112,2.57029 0.86947,0.537362 0.7469,1.17066 -0.4602,2.37776 C 34.479549,45.377594 34.308773,46 35.051016,46 c 0.91766,0 0.921356,0.328363 0.01598,1.419278 -0.930439,1.121111 -0.7986,1.639931 0.627556,2.469591 C 37.995742,51.227578 39,51.261342 39,50 Z M 37.584097,42.358556 C 37.05743,40.986084 37.203761,40.924217 38.477108,41.981001 40.212353,43.421127 40.392948,44 39.106989,44 38.615833,44 37.930531,43.26135 37.584097,42.358556 Z m -6.89243,-1.682401 c 0.761609,-0.0061 0.995917,-0.988233 0.649256,-2.721541 -0.298326,-1.49163 -0.04708,-3.018187 0.558333,-3.392351 1.763618,-1.089975 1.270955,-2.450787 -0.829978,-2.292528 -1.061897,0.07999 -1.710339,0.502023 -1.440983,0.937851 C 29.897651,33.643414 29.0635,34 27.774625,34 25.772929,34 22,38.136424 22,40.330968 c 0,0.893292 3.401347,1.440217 5.5,0.884382 1.1,-0.291339 2.53625,-0.533977 3.191667,-0.539195 z M 26.340929,29 c 0.974679,-1.65 1.481334,-3 1.1259,-3 -0.810197,0 -4.388643,4.237417 -4.43356,5.25 -0.07645,1.723536 1.656972,0.544392 3.30766,-2.25 z M 31,30 c 0,-0.55 -0.476558,-1 -1.059017,-1 -0.582459,0 -0.780902,0.45 -0.440983,1 0.339919,0.55 0.816476,1 1.059017,1 C 30.801558,31 31,30.55 31,30 Z m 5,0.606989 C 36,30.390833 35.301628,29.945987 34.448062,29.618443 33.558137,29.276947 33.15674,29.444594 33.507079,30.011454 34.094337,30.961658 36,31.416902 36,30.606989 Z"
         id="path1051" />
      <path
         style="fill:#e5e5da"
         d="m 40,56.023036 c 1.182779,-0.919121 0.548338,-1.052353 -3,-0.629999 -5.340032,0.635618 -11.669507,-1.960601 -11.22348,-4.603638 0.152086,-0.901221 -0.185414,-1.924075 -0.75,-2.273009 -0.564586,-0.348933 -1.040564,-0.04537 -1.05773,0.674593 C 23.951625,49.910942 22.817463,48.7 21.448431,46.5 c -1.565,-2.514913 -2.288882,-4.835361 -1.949739,-6.25 0.305792,-1.275523 0.0725,-2.25 -0.538657,-2.25 -0.592938,0 -0.795417,-0.45734 -0.449954,-1.016312 0.345464,-0.558971 1.047021,-0.757414 1.559017,-0.440983 0.836609,0.517053 1.290857,-1.032337 1.220925,-4.164439 -0.01378,-0.616953 0.702835,-0.964461 1.592466,-0.77224 0.897835,0.193994 2.65244,-0.975395 3.943569,-2.628266 C 28.729957,26.540438 28.86038,26 27.544674,26 c -0.884094,0 -1.866465,0.675 -2.183048,1.5 -0.316582,0.825 -1.067459,1.5 -1.668615,1.5 -0.773541,0 -0.76511,-0.327901 0.02884,-1.121855 0.61702,-0.61702 0.956026,-1.62952 0.753347,-2.25 -0.202679,-0.62048 1.01336,-2.221144 2.702309,-3.557033 3.020311,-2.388939 3.059444,-2.39305 2.379266,-0.25 C 28.762789,24.322747 30.164101,24.712123 32,22.5 32.684689,21.675 34.224789,21 35.422445,21 36.6201,21 38.19625,20.4375 38.925,19.75 c 1.06,-1 1.416667,-1 1.783333,0 0.252084,0.6875 0.897391,1.25 1.434017,1.25 0.536626,0 0.697569,-0.45 0.35765,-1 -1.02599,-1.660086 1.495793,-1.130334 5.600101,1.176416 7.795229,4.381164 11.776321,14.60794 8.982272,23.07399 C 55.534416,48.940762 49.679286,54.623703 45.707236,55.291021 43.943256,55.587375 41.6,56.135581 40.5,56.509256 38.835479,57.074701 38.751609,56.993142 40,56.023036 Z M 39,49.883369 C 39,49.397516 39.648442,49 40.440983,49 c 0.792541,0 1.715913,-0.444846 2.051938,-0.988546 0.350339,-0.56686 -0.05106,-0.734507 -0.940983,-0.393011 C 40.698372,47.945987 40,47.715833 40,47.106989 40,46.498145 40.659167,46 41.464816,46 42.270465,46 43.411298,45.1 44,44 44.854313,42.403701 44.76049,42 43.535184,42 42.690833,42 42,42.519744 42,43.154988 c 0,0.659581 -0.847741,0.387792 -1.976419,-0.633647 -1.08703,-0.983749 -1.70578,-2.226537 -1.375,-2.761751 0.354633,-0.573808 0.960466,-0.416382 1.476419,0.383647 0.725519,1.124981 1.043219,1.100511 1.859687,-0.143237 0.541578,-0.825 0.977267,-2.4 0.968197,-3.5 -0.01458,-1.768048 -0.157772,-1.817321 -1.234687,-0.424861 -0.670009,0.866327 -2.482548,2.398175 -4.027865,3.404106 -1.797092,1.169826 -2.401146,2.081448 -1.676111,2.529544 0.795791,0.491826 0.643302,1.190831 -0.511761,2.345894 C 34.479549,45.377594 34.308773,46 35.051016,46 c 0.907034,0 0.897316,0.357329 -0.04045,1.487265 -1.764422,2.125998 -0.578694,4.474064 1.928259,3.818481 C 38.072473,51.009291 39,50.369221 39,49.883369 Z M 37.584097,42.358556 C 37.05743,40.986084 37.203761,40.924217 38.477108,41.981001 40.212353,43.421127 40.392948,44 39.106989,44 38.615833,44 37.930531,43.26135 37.584097,42.358556 Z m -6.151041,-3.649515 c -0.354648,-1.622745 -0.09472,-3.411787 0.620993,-4.274166 1.701349,-2.050001 0.388363,-3.02918 -1.779883,-1.327376 -1.562804,1.226608 -1.630823,1.20831 -0.570955,-0.153585 1.625704,-2.088975 1.286866,-5.887337 -0.46521,-5.215002 -0.744118,0.285545 -1.116204,1.136104 -0.826856,1.89013 C 29.050638,31.295535 28.118388,34 26.904442,34 25.272852,34 22,37.429316 22,39.138908 c 0,2.089455 1.410895,2.648919 6.271508,2.486848 3.587286,-0.119613 3.741713,-0.262081 3.161548,-2.916715 z m 6.373816,-8.235502 c -0.307887,-0.307888 -0.867048,0.247112 -1.242579,1.233333 -0.542685,1.425198 -0.427821,1.540062 0.559795,0.559795 0.683418,-0.678334 0.990671,-1.485241 0.682784,-1.793128 z M 36,30.606989 C 36,30.390833 35.301628,29.945987 34.448062,29.618443 33.558137,29.276947 33.15674,29.444594 33.507079,30.011454 34.094337,30.961658 36,31.416902 36,30.606989 Z"
         id="path1049" />
      <path
         style="fill:#d3dde6"
         d="m 40,56.023036 c 1.182779,-0.919121 0.548338,-1.052353 -3,-0.629999 -5.340032,0.635618 -11.669507,-1.960601 -11.22348,-4.603638 0.152086,-0.901221 -0.185414,-1.924075 -0.75,-2.273009 -0.564586,-0.348933 -1.040564,-0.04537 -1.05773,0.674593 C 23.951625,49.910942 22.817463,48.7 21.448431,46.5 c -1.565,-2.514913 -2.288882,-4.835361 -1.949739,-6.25 0.305792,-1.275523 0.0725,-2.25 -0.538657,-2.25 -0.592938,0 -0.795417,-0.45734 -0.449954,-1.016312 0.345464,-0.558971 1.047021,-0.757414 1.559017,-0.440983 0.836609,0.517053 1.290857,-1.032337 1.220925,-4.164439 -0.01378,-0.616953 0.702835,-0.964461 1.592466,-0.77224 0.897835,0.193994 2.65244,-0.975395 3.943569,-2.628266 C 28.729957,26.540438 28.86038,26 27.544674,26 c -0.884094,0 -1.866465,0.675 -2.183048,1.5 -0.316582,0.825 -1.067459,1.5 -1.668615,1.5 -0.773541,0 -0.76511,-0.327901 0.02884,-1.121855 0.61702,-0.61702 0.956026,-1.62952 0.753347,-2.25 -0.202679,-0.62048 1.01336,-2.221144 2.702309,-3.557033 3.020311,-2.388939 3.059444,-2.39305 2.379266,-0.25 C 28.762789,24.322747 30.164101,24.712123 32,22.5 32.684689,21.675 34.224789,21 35.422445,21 c 1.197655,0 2.736293,-0.558738 3.419196,-1.241641 0.988854,-0.988854 1.436754,-0.937957 2.2,0.25 0.789606,1.228985 1.111078,1.254929 1.825658,0.147339 0.720094,-1.116137 1.360103,-1.089464 3.770785,0.157148 12.556592,6.493266 15.216867,21.800915 5.442533,31.31721 -1.768211,1.72153 -4.647209,3.370746 -6.397773,3.664923 C 43.93228,55.589157 41.6,56.135581 40.5,56.509256 38.835479,57.074701 38.751609,56.993142 40,56.023036 Z M 39,49.883369 C 39,49.397516 39.642041,49 40.426758,49 c 0.784717,0 2.134717,-1.419137 3,-3.153638 2.033975,-4.0772 2.011191,-4.173096 -0.8225,-3.461885 -1.685195,0.422957 -2.581746,0.116572 -3.022892,-1.033036 -0.524107,-1.365801 -0.376933,-1.426666 0.895742,-0.37044 C 41.734539,42.024576 42,41.962075 42,40.622445 42,39.7301 42.407871,39 42.90638,39 c 0.49851,0 0.653626,-0.966537 0.344703,-2.14786 -0.474276,-1.813635 -0.732024,-1.918649 -1.656381,-0.674861 -0.602086,0.81015 -2.354804,2.293251 -3.894929,3.29578 -1.540124,1.002529 -2.577904,2.402143 -2.306177,3.110253 0.271728,0.70811 -0.04317,1.541546 -0.699773,1.85208 -0.89662,0.424049 -0.872245,0.713293 0.09792,1.161854 0.98564,0.455719 1.01837,0.926633 0.138124,1.987265 -1.697184,2.044981 -0.445689,4.363141 2.008966,3.721235 C 38.072473,51.009291 39,50.369221 39,49.883369 Z M 31.433056,38.709041 c -0.361575,-1.654444 -0.09111,-3.416136 0.66419,-4.326216 1.007172,-1.213567 1.015209,-1.69529 0.03836,-2.299018 -0.679686,-0.420069 -1.305287,-1.68633 -1.390226,-2.813915 -0.0963,-1.278439 -0.663705,-1.854727 -1.507376,-1.53098 -0.744118,0.285545 -1.116204,1.136104 -0.826856,1.89013 C 29.050638,31.295535 28.118388,34 26.904442,34 25.272852,34 22,37.429316 22,39.138908 c 0,2.089455 1.410895,2.648919 6.271508,2.486848 3.587286,-0.119613 3.741713,-0.262081 3.161548,-2.916715 z m 6.551631,-8.018058 C 37.975486,29.975367 37.58246,30.098708 37,31 c -0.533156,0.825 -0.976265,0.985645 -0.984687,0.356989 -0.0084,-0.628656 -0.777583,-1.435522 -1.709246,-1.793035 -1.498379,-0.574982 -1.482951,-0.41689 0.133647,1.36943 1.853022,2.047567 3.572904,1.929963 3.544973,-0.242401 z"
         id="path1047" />
      <path
         style="fill:#c7d7e7"
         d="M 29,54.111862 C 26.697827,53.004268 25.601146,51.838849 25.795544,50.706557 25.978076,49.643379 25.164635,48.632893 23.668262,48.063973 21.243638,47.142133 18.129903,41 20.087203,41 c 0.62629,0 0.607408,-0.702108 -0.05202,-1.934259 -1.269283,-2.371676 -1.325273,-3.36306 -0.148874,-2.636005 0.48747,0.301273 1.120341,-0.347169 1.40638,-1.440983 C 21.578729,33.894939 22.52989,33 23.40638,33 24.282871,33 25,32.3801 25,31.622445 25,30.864789 25.675,29.684689 26.5,29 c 1.26347,-1.048587 1.5,-0.86102 1.5,1.189497 0,1.545319 -1.095636,3.244425 -3,4.652382 -3.484636,2.576303 -3.846678,5.148268 -0.976968,6.940432 1.438188,0.898163 2.573616,0.96874 3.927558,0.244133 1.047489,-0.5606 2.592343,-0.755332 3.433008,-0.432738 1.274361,0.489018 1.381782,0.07502 0.646115,-2.490101 -0.559934,-1.952378 -0.514262,-3.304137 0.124987,-3.699215 0.554045,-0.342418 0.726265,-1.742529 0.382711,-3.111357 -0.450504,-1.794948 -0.264005,-2.356948 0.668973,-2.015905 0.711489,0.26008 1.169967,1.01257 1.018839,1.672202 -0.151127,0.659631 0.186373,0.914323 0.75,0.565983 C 36.39459,31.638096 36.2644,33.3356 34.8,34.8 34.072557,35.527443 34.009347,36 34.639485,36 35.842136,36 38.339207,31.005874 37.537441,30.204107 37.241848,29.908515 37,30.277675 37,31.024463 37,31.951759 36.587221,31.81775 35.698098,30.601802 34.982051,29.62255 33.661561,28.974042 32.763675,29.160672 31.865788,29.347302 31.0338,29.05 30.914811,28.5 30.51099,26.63342 27.571463,25.110764 26.341862,26.131243 25.660826,26.696453 24.9465,26.722452 24.619848,26.193918 23.922145,25.06501 28.745537,20.412204 29.662724,21.32939 30.031559,21.698226 29.808333,22 29.166667,22 28.525,22 28,22.45 28,23 c 0,0.55 1.9125,0.955144 4.25,0.90032 3.535629,-0.08292 3.829782,-0.22688 1.75,-0.856432 l -2.5,-0.756753 3,-0.781455 c 1.65,-0.4298 3.596797,-1.25297 4.326215,-1.829265 0.956214,-0.755482 1.583943,-0.647265 2.25,0.387887 0.765559,1.189792 1.072336,1.205446 1.791084,0.0914 1.947163,-3.018077 12.142987,5.31541 14.226236,11.627715 C 59.545112,39.21177 56.616358,48.629605 50.405907,53.28846 46.94966,55.881206 33.734264,56.389554 29,54.111862 Z M 35.8,52.8 c 0.933333,-0.933333 1.466667,-0.933333 2.4,0 0.66,0.66 1.8975,1.185688 2.75,1.168197 1.304278,-0.02676 1.272572,-0.242401 -0.2,-1.360243 C 38.637425,51.004281 38.457859,49 40.426758,49 c 0.784717,0 2.134717,-1.419137 3,-3.153638 2.033975,-4.0772 2.011191,-4.173096 -0.8225,-3.461885 -1.685195,0.422957 -2.581746,0.116572 -3.022892,-1.033036 -0.524107,-1.365801 -0.376933,-1.426666 0.895742,-0.37044 C 41.734539,42.024576 42,41.962075 42,40.622445 42,39.7301 42.407871,39 42.90638,39 c 0.49851,0 0.653626,-0.966537 0.344703,-2.14786 -0.474276,-1.813635 -0.732024,-1.918649 -1.656381,-0.674861 -0.602086,0.81015 -2.354804,2.293251 -3.894929,3.29578 -1.7198,1.119487 -2.583554,2.38742 -2.238659,3.286201 0.378617,0.986661 0.08579,1.280847 -0.898846,0.903008 -0.979872,-0.376012 -1.277444,-0.0836 -0.904352,0.88866 C 33.96375,45.347917 34.685577,46 35.261976,46 c 0.5764,0 0.361974,0.7875 -0.476501,1.75 -0.838474,0.9625 -1.320719,2.3125 -1.071654,3 0.249065,0.6875 -0.06121,1.25 -0.689505,1.25 -0.628292,0 -0.864235,0.45 -0.524316,1 0.818297,1.324032 1.837753,1.262247 3.3,-0.2 z"
         id="path1045" />
      <path
         style="fill:#d5d8d8"
         d="M 31.5,55 C 31.160081,54.45 31.58352,54 32.440983,54 33.298442,54 34,54.45 34,55 34,55.55 33.576558,56 33.059017,56 32.541476,56 31.839919,55.55 31.5,55 Z m 9.849116,-0.467398 c 0.365315,-0.951995 0.01193,-1.840561 -0.865975,-2.177445 C 38.587211,51.62762 38.543054,49 40.426758,49 c 0.784717,0 2.134717,-1.419137 3,-3.153638 2.033975,-4.0772 2.011191,-4.173096 -0.8225,-3.461885 -1.685195,0.422957 -2.581746,0.116572 -3.022892,-1.033036 -0.524107,-1.365801 -0.376933,-1.426666 0.895742,-0.37044 C 41.734539,42.024576 42,41.962075 42,40.622445 42,39.7301 42.407871,39 42.90638,39 c 0.49851,0 0.653626,-0.966537 0.344703,-2.14786 -0.474276,-1.813635 -0.732024,-1.918649 -1.656381,-0.674861 -0.602086,0.81015 -2.354804,2.293251 -3.894929,3.29578 -1.7198,1.119487 -2.583554,2.38742 -2.238659,3.286201 0.378617,0.986661 0.08579,1.280847 -0.898846,0.903008 -0.979872,-0.376012 -1.277444,-0.0836 -0.904352,0.88866 C 33.96375,45.347917 34.595114,46 35.060948,46 c 0.465834,0 -0.139512,1.485724 -1.345215,3.301608 -3.1345,4.720809 -6.26918,4.702906 -8.253876,-0.04714 -1.117481,-2.674508 -1.788137,-3.34457 -2.383448,-2.381337 -1.055704,1.708165 -1.856693,0.383303 -1.840797,-3.044738 0.01116,-2.405887 0.236026,-2.569711 2.260895,-1.64712 1.564112,0.712658 2.873713,0.689888 4.302558,-0.07481 1.129728,-0.604612 2.741868,-0.835355 3.582533,-0.512761 1.274361,0.489018 1.381782,0.07502 0.646115,-2.490101 -0.559934,-1.952378 -0.514262,-3.304137 0.124987,-3.699215 0.554045,-0.342418 0.726265,-1.742529 0.382711,-3.111357 -0.450504,-1.794948 -0.264005,-2.356948 0.668973,-2.015905 0.711489,0.26008 1.169967,1.01257 1.018839,1.672202 -0.151127,0.659631 0.186373,0.914323 0.75,0.565983 C 36.39459,31.638096 36.2644,33.3356 34.8,34.8 34.072557,35.527443 34.009347,36 34.639485,36 35.842136,36 38.339207,31.005874 37.537441,30.204107 37.241848,29.908515 37,30.277675 37,31.024463 c 0,0.927296 -0.412779,0.793287 -1.301902,-0.422661 -0.716047,-0.979252 -1.966846,-1.62776 -2.779554,-1.44113 -0.812708,0.18663 -1.546887,-0.03915 -1.631508,-0.501738 -0.305247,-1.668643 -3.768277,-3.504429 -4.87621,-2.584926 -1.480967,1.229093 -2.644793,-0.08717 -1.401578,-1.585151 0.607177,-0.731603 3.027952,-1.073659 6.241324,-0.881899 2.887185,0.172295 4.370869,0.05568 3.297074,-0.259141 -1.635365,-0.479468 -1.320688,-0.879652 1.938112,-2.464757 3.029104,-1.473379 4.07022,-1.614569 4.702354,-0.637706 0.643257,0.994053 0.992028,0.975431 1.679187,-0.08966 1.947163,-3.018077 12.142987,5.31541 14.226236,11.627715 1.595826,4.835403 0.636807,12.528908 -2.048827,16.436219 -3.049201,4.436262 -5.806541,6.339696 -10.428733,7.199113 -3.324963,0.61822 -3.795191,0.490669 -3.266859,-0.886143 z M 36,53 c 0,-0.55 0.476558,-1 1.059017,-1 0.582459,0 0.780902,0.45 0.440983,1 -0.339919,0.55 -0.816476,1 -1.059017,1 C 36.198442,54 36,53.55 36,53 Z M 22.614619,35.281285 c -1.008894,-1.008893 -0.695538,-2.449329 0.387254,-1.780128 0.55103,0.340556 1.423272,-0.489174 1.938316,-1.843843 C 26.279486,28.134698 28,27.386092 28,30.325973 c 0,2.419191 -4.125479,6.215215 -5.385381,4.955312 z"
         id="path1043" />
      <path
         style="fill:#c9d5db"
         d="M 31.5,55 C 31.160081,54.45 31.58352,54 32.440983,54 33.298442,54 34,54.45 34,55 34,55.55 33.576558,56 33.059017,56 32.541476,56 31.839919,55.55 31.5,55 Z m 9.851478,-0.473553 c 0.311,-0.810454 -0.154034,-1.8762 -1.033409,-2.368323 C 38.544649,51.165668 39.345398,49 41.485775,49 c 0.752258,0 2.0757,-1.419137 2.940983,-3.153638 C 46.395885,41.899154 46.408621,42 43.940983,42 c -1.329557,0 -1.800176,-0.418813 -1.328398,-1.182166 0.40184,-0.650191 0.804993,-2.432357 0.895894,-3.960369 l 0.165276,-2.778203 -3.371674,2.960369 C 38.447661,38.667834 36.604312,40 36.205751,40 c -0.398562,0 -1.272894,0.877866 -1.942961,1.950814 -0.965227,1.545574 -0.952226,2.220694 0.06259,3.25 1.042636,1.057527 0.898992,1.85721 -0.772243,4.299186 -3.10293,4.533942 -6.121986,4.467645 -8.062664,-0.177052 -1.136153,-2.719195 -1.817739,-3.41145 -2.412061,-2.449817 -1.055704,1.708165 -1.856693,0.383303 -1.840797,-3.044738 0.01116,-2.405887 0.236026,-2.569711 2.260895,-1.64712 1.564112,0.712658 2.873713,0.689888 4.302558,-0.07481 1.129728,-0.604612 2.741868,-0.835355 3.582533,-0.512761 1.267632,0.486436 1.38219,0.07644 0.671265,-2.402409 -0.550886,-1.920827 -0.473399,-3.372761 0.216834,-4.062994 0.75071,-0.75071 0.761706,-1.759576 0.03652,-3.351177 -0.570641,-1.252419 -1.068469,-2.655606 -1.106285,-3.118192 -0.131782,-1.612002 -3.665914,-3.518756 -4.79111,-2.584926 -1.480967,1.229093 -2.644793,-0.08717 -1.401578,-1.585151 0.617288,-0.743786 2.974443,-1.058375 6.241324,-0.832974 C 35.018254,23.915836 35.935464,23.757167 34.5,23.09376 32.702649,22.263105 32.829304,22.097537 35.75,21.459725 37.5375,21.069376 39,20.35625 39,19.875 39,19.39375 39.476558,19 40.059017,19 c 0.582459,0 0.780902,0.45 0.440983,1 -0.339919,0.55 0.08352,1 0.940983,1 C 42.298442,21 43,20.573409 43,20.05202 c 0,-2.040764 6.057497,1.286695 9.868025,5.42063 6.693952,7.262081 6.892087,17.466475 0.477011,24.567196 -4.168987,4.614571 -13.362371,8.053671 -11.993558,4.486601 z M 49.127555,51.25 C 50.371426,49.663944 50.336056,49.628574 48.75,50.872445 47.084252,52.178814 46.554521,53 47.377555,53 c 0.207656,0 0.995156,-0.7875 1.75,-1.75 z M 36.507143,34.635714 C 37.563056,33.579801 37.603419,32.981561 36.685714,31.98901 35.76602,30.994307 35.780442,30.864923 36.75,31.412313 37.4375,31.800459 38,31.69026 38,31.167425 c 0,-1.0197 -4.926257,-2.574501 -5.701332,-1.799426 -0.255934,0.255934 0.427165,1.357834 1.517999,2.448668 C 35.259091,33.259091 35.5,34.1 34.7,34.9 34.095,35.505 33.947143,36 34.371429,36 c 0.424285,0 1.385357,-0.613929 2.135714,-1.364286 z M 36,53 c 0,-0.55 0.476558,-1 1.059017,-1 0.582459,0 0.780902,0.45 0.440983,1 -0.339919,0.55 -0.816476,1 -1.059017,1 C 36.198442,54 36,53.55 36,53 Z M 22.614619,35.281285 c -1.008894,-1.008893 -0.695538,-2.449329 0.387254,-1.780128 0.55103,0.340556 1.423272,-0.489174 1.938316,-1.843843 C 26.279486,28.134698 28,27.386092 28,30.325973 c 0,2.419191 -4.125479,6.215215 -5.385381,4.955312 z"
         id="path1041" />
      <path
         style="fill:#b5cbe6"
         d="M 31.5,55 C 31.160081,54.45 31.58352,54 32.440983,54 33.298442,54 34,54.45 34,55 34,55.55 33.576558,56 33.059017,56 32.541476,56 31.839919,55.55 31.5,55 Z m 10.067845,0.109776 c -0.330258,-0.534369 -0.07496,-1.296363 0.567334,-1.693321 0.837019,-0.517306 0.706549,-1.059018 -0.460613,-1.912468 -1.459181,-1.066979 -1.379296,-1.324051 0.768676,-2.473611 1.3184,-0.705587 2.177339,-1.855552 1.908751,-2.55548 -0.268587,-0.699927 -0.0077,-1.56967 0.579833,-1.932762 C 46.693256,43.453511 46.14035,42 43.964816,42 c -1.702249,0 -1.865838,-0.316424 -1,-1.934259 C 43.983657,38.16202 44.403655,34 43.576923,34 c -0.232692,0 -1.920192,1.388657 -3.75,3.085904 -1.829808,1.697247 -4.097601,3.783263 -5.039541,4.635591 -1.168994,1.057781 -1.437786,2.063214 -0.846795,3.167491 1.214485,2.269285 -1.879394,7.533267 -4.653526,7.917594 -1.740124,0.241076 -2.551302,-0.503236 -3.796591,-3.483632 -1.136153,-2.719195 -1.817739,-3.41145 -2.412061,-2.449817 -1.060602,1.716091 -1.856615,0.379275 -1.840797,-3.091417 0.0107,-2.346713 0.268689,-2.581118 1.887388,-1.714816 1.03125,0.551908 1.905456,1.775137 1.94268,2.718286 0.05241,1.327825 0.312568,1.207047 1.152815,-0.535184 1.006902,-2.087789 2.48034,-2.714452 5.488139,-2.334145 0.802943,0.101524 1.067393,-0.950351 0.78785,-3.133743 -0.619528,-4.838868 0.696357,-6.470908 4.002728,-4.964425 2.494141,1.136407 2.602839,1.077094 1.936832,-1.056856 -0.818371,-2.622139 -2.209209,-3.723994 -4.727857,-3.745518 -0.985498,-0.0084 -2.703944,-0.865092 -3.81877,-1.90371 -1.280119,-1.192612 -2.830636,-1.681396 -4.208186,-1.326585 -1.933573,0.498023 -2.026314,0.372909 -0.816809,-1.101937 0.96329,-1.174616 2.139268,-1.465828 4,-0.990535 4.164866,1.063843 5.943589,0.617657 8.489661,-2.1296 C 39.688671,19.043884 41.712253,18.038533 40.5,20 c -0.339919,0.55 0.08352,1 0.940983,1 C 42.298442,21 43,20.573409 43,20.05202 c 0,-2.032893 6.050617,1.279231 9.832959,5.382588 4.388206,4.760641 5.803293,9.839975 4.647421,16.68152 -0.767301,4.541616 -6.165286,11.377326 -9.808166,12.42052 -1.194718,0.342125 -2.921843,0.829645 -3.838057,1.083376 -0.916214,0.253732 -1.936054,0.02412 -2.266312,-0.510248 z M 49.127555,51.25 C 50.371426,49.663944 50.336056,49.628574 48.75,50.872445 47.084252,52.178814 46.554521,53 47.377555,53 c 0.207656,0 0.995156,-0.7875 1.75,-1.75 z M 36,34.881966 c 0,-0.55 -0.45,-0.721885 -1,-0.381966 -0.55,0.339919 -1,1.068034 -1,1.618034 0,0.55 0.45,0.721885 1,0.381966 0.55,-0.339919 1,-1.068034 1,-1.618034 z M 40.789427,27.60496 C 40.080242,26.837689 39.15516,26.418783 38.733688,26.674059 37.590275,27.366599 38.899806,29 40.598444,29 c 1.215945,0 1.250062,-0.249214 0.190983,-1.39504 z M 25.5,32 C 24.770798,30.820126 25.716667,29 27.059017,29 27.576558,29 28,29.9 28,31 c 0,2.109085 -1.454882,2.691037 -2.5,1 z"
         id="path1039" />
      <path
         style="fill:#b8c9d4"
         d="m 41.567845,55.109776 c -0.330258,-0.534369 -0.07496,-1.296363 0.567334,-1.693321 0.837019,-0.517306 0.706549,-1.059018 -0.460613,-1.912468 -1.459181,-1.066979 -1.379296,-1.324051 0.768676,-2.473611 1.3184,-0.705587 2.177339,-1.855552 1.908751,-2.55548 -0.268587,-0.699927 -0.0077,-1.56967 0.579833,-1.932762 C 46.693256,43.453511 46.14035,42 43.964816,42 c -1.702249,0 -1.865838,-0.316424 -1,-1.934259 C 43.983657,38.16202 44.403655,34 43.576923,34 c -0.232692,0 -1.920192,1.388657 -3.75,3.085904 -1.829808,1.697247 -4.10077,3.7866 -5.046582,4.643007 -1.178146,1.066779 -1.441911,2.053412 -0.837627,3.133208 C 34.838946,46.463597 32.709134,52 31.196826,52 29.263273,52 26.001585,48.659506 26.015313,46.693296 26.038282,43.403337 27.479537,41.75 30.324505,41.75 c 2.277274,0 2.508866,-0.33661 2.151579,-3.127226 -0.599968,-4.686089 0.748775,-6.296982 4.023128,-4.805087 2.494141,1.136407 2.602839,1.077094 1.936832,-1.056856 -0.818371,-2.622139 -2.209209,-3.723994 -4.727857,-3.745518 -0.985498,-0.0084 -2.703944,-0.865092 -3.81877,-1.90371 -1.280119,-1.192612 -2.830636,-1.681396 -4.208186,-1.326585 -1.933573,0.498023 -2.026314,0.372909 -0.816809,-1.101937 0.96329,-1.174616 2.139268,-1.465828 4,-0.990535 4.164866,1.063843 5.943589,0.617657 8.489661,-2.1296 C 39.688671,19.043884 41.712253,18.038533 40.5,20 c -0.339919,0.55 0.08352,1 0.940983,1 C 42.298442,21 43,20.573409 43,20.05202 c 0,-2.032893 6.050617,1.279231 9.832959,5.382588 4.388206,4.760641 5.803293,9.839975 4.647421,16.68152 -0.767301,4.541616 -6.165286,11.377326 -9.808166,12.42052 -1.194718,0.342125 -2.921843,0.829645 -3.838057,1.083376 -0.916214,0.253732 -1.936054,0.02412 -2.266312,-0.510248 z M 49.127555,51.25 C 50.371426,49.663944 50.336056,49.628574 48.75,50.872445 47.084252,52.178814 46.554521,53 47.377555,53 c 0.207656,0 0.995156,-0.7875 1.75,-1.75 z M 36,34.881966 c 0,-0.55 -0.45,-0.721885 -1,-0.381966 -0.55,0.339919 -1,1.068034 -1,1.618034 0,0.55 0.45,0.721885 1,0.381966 0.55,-0.339919 1,-1.068034 1,-1.618034 z M 40.789427,27.60496 C 40.080242,26.837689 39.15516,26.418783 38.733688,26.674059 37.590275,27.366599 38.899806,29 40.598444,29 c 1.215945,0 1.250062,-0.249214 0.190983,-1.39504 z M 25.5,32 C 24.770798,30.820126 25.716667,29 27.059017,29 27.576558,29 28,29.9 28,31 c 0,2.109085 -1.454882,2.691037 -2.5,1 z"
         id="path1037" />
      <path
         style="fill:#c5c5bc"
         d="m 42.668402,52.907992 c 0.514455,-2.572277 0.361307,-3.071978 -0.762304,-2.487295 -0.773354,0.402423 -0.47159,-0.09908 0.670586,-1.114459 1.142175,-1.015375 1.905922,-2.358421 1.697213,-2.984547 -0.208708,-0.626125 0.09428,-1.431205 0.673317,-1.789067 C 46.695334,43.452226 46.13202,42 43.964816,42 c -1.702249,0 -1.865838,-0.316424 -1,-1.934259 0.569351,-1.063842 1.023079,-3.201342 1.008283,-4.75 L 43.946198,32.5 41.223099,35.759015 c -1.497704,1.792458 -3.233845,3.254958 -3.858089,3.25 -1.899718,-0.01509 -4.262501,4.422774 -3.284855,6.169731 0.609749,1.089561 0.177109,2.374552 -1.428671,4.243315 -2.282618,2.656447 -2.324125,2.663603 -4.628133,0.797931 -3.309276,-2.679689 -2.171232,-7.040416 2.058129,-7.886288 1.854976,-0.370995 2.84243,-1.089608 2.548777,-1.854854 -0.568238,-1.480805 4.690807,-6.824453 5.711687,-5.803573 0.386803,0.386804 0.547283,-0.318903 0.356621,-1.568237 -0.407257,-2.668595 -2.294149,-4.070417 -5.507582,-4.091727 -1.269959,-0.0084 -2.07157,-0.39951 -1.781357,-0.869085 0.751425,-1.215831 -4.042493,-3.199503 -6.147777,-2.543885 -1.526136,0.475263 -1.550634,0.410954 -0.183113,-0.480683 0.868304,-0.566144 3.429071,-0.955565 5.690593,-0.865382 3.307209,0.131883 4.603362,-0.366373 6.623515,-2.546154 C 39.856067,19.052263 41.719637,18.026587 40.5,20 c -0.339919,0.55 0.08352,1 0.940983,1 C 42.298442,21 43,20.573409 43,20.05202 c 0,-2.032893 6.050617,1.279231 9.832959,5.382588 4.388206,4.760641 5.803293,9.839975 4.647421,16.68152 -0.767301,4.541616 -6.165286,11.377326 -9.808166,12.42052 -5.98155,1.712907 -5.691036,1.807464 -5.003812,-1.628656 z M 49.127555,51.25 C 50.371426,49.663944 50.336056,49.628574 48.75,50.872445 47.084252,52.178814 46.554521,53 47.377555,53 c 0.207656,0 0.995156,-0.7875 1.75,-1.75 z M 30,48.440983 c 0,-0.857459 -0.45734,-1.276365 -1.016312,-0.930902 -0.558971,0.345464 -0.757414,1.047021 -0.440983,1.559017 C 29.399945,50.456142 30,50.197509 30,48.440983 Z M 42,28 c -1.231273,-2.300654 -4,-2.694887 -4,-0.569551 0,0.786747 1.0125,1.625465 2.25,1.863818 1.2375,0.238353 2.378333,0.494651 2.535184,0.569551 C 42.942035,29.938718 42.588702,29.1 42,28 Z m -9,7.059017 c 0,-0.517541 0.444846,-1.215913 0.988546,-1.551938 0.56686,-0.350339 0.734507,0.05106 0.393011,0.940983 C 33.716766,36.180479 33,36.497449 33,35.059017 Z M 25.63617,31.494256 C 25.287868,30.586597 25.639301,30 26.531385,30 c 1.617389,0 1.985323,1.562623 0.5734,2.435239 -0.492369,0.304301 -1.153245,-0.119142 -1.468615,-0.940983 z"
         id="path1035" />
      <path
         style="fill:#b7c3cb"
         d="M 42.678408,52.857962 C 43.18988,50.300601 43.04083,49.85257 41.906098,50.536467 40.708275,51.258391 40.70329,51.1333 41.872445,49.691958 42.627289,48.761381 43.902289,48 44.705778,48 c 0.803489,0 1.259196,-0.5625 1.012683,-1.25 -0.246513,-0.6875 -0.05935,-2.007283 0.415913,-2.932851 0.648089,-1.262137 0.346049,-1.847281 -1.208154,-2.340566 -1.821811,-0.57822 -1.901459,-0.858279 -0.658983,-2.317149 1.142901,-1.341953 1.179993,-2.104076 0.193876,-3.983522 l -1.219414,-2.324088 -2.188944,3.074088 C 39.848836,37.61666 38.271208,39 37.546916,39 c -2.048105,0 -4.489488,4.351234 -3.466761,6.178746 0.609749,1.089561 0.177109,2.374552 -1.428671,4.243315 -2.282618,2.656447 -2.324125,2.663603 -4.628133,0.797931 -3.309276,-2.679689 -2.171232,-7.040416 2.058129,-7.886288 1.854976,-0.370995 2.84243,-1.089608 2.548777,-1.854854 -0.568238,-1.480805 4.690807,-6.824453 5.711687,-5.803573 0.386803,0.386804 0.547283,-0.318903 0.356621,-1.568237 -0.407257,-2.668595 -2.294149,-4.070417 -5.507582,-4.091727 -1.269959,-0.0084 -2.07157,-0.39951 -1.781357,-0.869085 0.751425,-1.215831 -4.042493,-3.199503 -6.147777,-2.543885 -1.526136,0.475263 -1.550634,0.410954 -0.183113,-0.480683 0.868304,-0.566144 3.429071,-0.955565 5.690593,-0.865382 3.307209,0.131883 4.603362,-0.366373 6.623515,-2.546154 C 39.856067,19.052263 41.719637,18.026587 40.5,20 c -0.339919,0.55 0.08352,1 0.940983,1 C 42.298442,21 43,20.592129 43,20.09362 c 0,-1.837188 4.215129,0.279086 8.534345,4.284806 7.116797,6.600249 8.388589,16.032312 3.191307,23.667873 -2.649221,3.89209 -6.212266,6.529976 -9.953343,7.368918 -2.612487,0.585854 -2.700922,0.477849 -2.093901,-2.557255 z M 49.127555,51.25 C 50.371426,49.663944 50.336056,49.628574 48.75,50.872445 47.084252,52.178814 46.554521,53 47.377555,53 c 0.207656,0 0.995156,-0.7875 1.75,-1.75 z M 30,48.440983 c 0,-0.857459 -0.45734,-1.276365 -1.016312,-0.930902 -0.558971,0.345464 -0.757414,1.047021 -0.440983,1.559017 C 29.399945,50.456142 30,50.197509 30,48.440983 Z M 42,28 c -1.231273,-2.300654 -4,-2.694887 -4,-0.569551 0,0.786747 1.0125,1.625465 2.25,1.863818 1.2375,0.238353 2.378333,0.494651 2.535184,0.569551 C 42.942035,29.938718 42.588702,29.1 42,28 Z m -9,7.059017 c 0,-0.517541 0.444846,-1.215913 0.988546,-1.551938 0.56686,-0.350339 0.734507,0.05106 0.393011,0.940983 C 33.716766,36.180479 33,36.497449 33,35.059017 Z M 25.63617,31.494256 C 25.287868,30.586597 25.639301,30 26.531385,30 c 1.617389,0 1.985323,1.562623 0.5734,2.435239 -0.492369,0.304301 -1.153245,-0.119142 -1.468615,-0.940983 z"
         id="path1033" />
      <path
         style="fill:#c1bebe"
         d="m 42,55.059017 c 0,-0.517541 0.489203,-1.243327 1.087118,-1.612859 0.597915,-0.369532 0.872644,-1.492027 0.610508,-2.494434 -0.271436,-1.037974 0.157344,-2.065829 0.99604,-2.387667 0.809958,-0.31081 1.271036,-1.127372 1.02462,-1.814583 -0.246417,-0.687211 -0.05918,-2.006757 0.416088,-2.932325 0.648089,-1.262137 0.346049,-1.847281 -1.208154,-2.340566 -1.873366,-0.594583 -1.926142,-0.819187 -0.549837,-2.339988 0.990477,-1.094464 1.213755,-2.181731 0.63901,-3.111689 -0.485885,-0.786178 -0.680779,-1.757306 -0.433098,-2.158062 0.247681,-0.400756 0.03704,-0.984072 -0.468085,-1.296258 -0.505127,-0.312186 -1.847291,1.00672 -2.982586,2.930901 C 39.996328,37.425669 38.429029,39 37.648735,39 c -2.057825,0 -5.093992,4.954743 -3.818043,6.230692 0.651442,0.651442 0.672643,1.42162 0.05899,2.143098 -0.526843,0.619415 -1.505246,1.922237 -2.17423,2.895159 -1.118512,1.626684 -1.397252,1.64223 -3.465894,0.193296 C 27.012302,49.595636 26,48.044252 26,47.014725 26,44.411209 28.926832,41.747603 31.149076,42.328733 32.545552,42.69392 33,42.259988 33,40.561368 33,38.223055 35.79483,35 37.822466,35 c 0.640742,0 1.012725,-0.997699 0.82663,-2.217108 -0.373986,-2.450583 -10.151179,-8.186852 -12.451034,-7.305009 -0.751789,0.288262 -1.020318,0.04354 -0.635479,-0.579144 0.391178,-0.632939 2.013862,-0.825578 3.928542,-0.466382 4.14612,0.777817 8.149619,-0.725082 8.990694,-3.375073 C 38.840945,19.925778 39.581009,19 40.126405,19 c 0.545396,0 0.713514,0.45 0.373595,1 -0.339919,0.55 0.08352,1 0.940983,1 C 42.298442,21 43,20.592129 43,20.09362 c 0,-1.741333 4.010827,0.163767 8.307805,3.946118 4.422683,3.893002 6.713467,8.898989 6.670233,14.576282 -0.03244,4.260585 -3.243964,10.58851 -6.961308,13.716449 -3.708589,3.120571 -5.312789,2.791286 -2.427266,-0.498232 C 49.768872,50.489703 49.925976,49.991004 49,50.531068 48.175,51.012239 46.679839,52.439591 45.67742,53.702962 43.805563,56.062105 42,56.727909 42,55.059017 Z M 30.512158,47.178825 c -0.79461,-0.79461 -2.513955,1.009251 -1.90347,1.997036 0.415239,0.67187 0.930597,0.569592 1.461939,-0.290138 0.451345,-0.730291 0.650034,-1.498395 0.441531,-1.706898 z M 43,29.056704 c 0,-0.518813 -1.0125,-1.699182 -2.25,-2.623043 -1.976614,-1.47565 -2.006991,-1.597479 -0.25,-1.002666 1.862856,0.630652 1.886579,0.562404 0.345961,-0.995281 -0.909721,-0.9198 -2.104975,-1.393669 -2.65612,-1.053042 -1.185414,0.732626 -0.335882,4.799459 1.222443,5.852015 C 40.952316,30.274887 43,30.173303 43,29.056704 Z M 25.5,31 c -0.339919,-0.55 0.110081,-1 1,-1 0.889919,0 1.339919,0.45 1,1 -0.339919,0.55 -0.789919,1 -1,1 -0.210081,0 -0.660081,-0.45 -1,-1 z"
         id="path1031" />
      <path
         style="fill:#aabac8"
         d="m 42,55.40437 c 0,-0.327596 0.931434,-1.903708 2.069853,-3.50247 2.648888,-3.72002 3.699034,-12.13418 1.40454,-11.2537 -1.32929,0.510096 -1.372403,0.222061 -0.314344,-2.100125 0.983353,-2.158223 0.969735,-2.84983 -0.06875,-3.491649 -0.974453,-0.602245 -0.719665,-1.20332 1.029362,-2.428387 C 47.399054,31.732618 47.921442,31 47.281523,31 c -0.639919,0 -1.446141,0.45734 -1.791604,1.016312 -0.345464,0.558971 -1.002967,0.784641 -1.461119,0.501487 -0.458152,-0.283153 -1.761881,1.059507 -2.897176,2.983688 C 39.996328,37.425669 38.429029,39 37.648735,39 c -2.057825,0 -5.093992,4.954743 -3.818043,6.230692 0.651442,0.651442 0.672643,1.42162 0.05899,2.143098 -0.526843,0.619415 -1.505246,1.922237 -2.17423,2.895159 -1.118512,1.626684 -1.397252,1.64223 -3.465894,0.193296 C 27.012302,49.595636 26,48.044252 26,47.014725 26,44.411209 28.926832,41.747603 31.149076,42.328733 32.545552,42.69392 33,42.259988 33,40.561368 33,38.223055 35.79483,35 37.822466,35 c 0.640742,0 1.012725,-0.997699 0.82663,-2.217108 C 38.260478,30.236427 28.45764,24.61145 26.030481,25.54219 c -0.808236,0.309934 -1.10777,0.202232 -0.665631,-0.239337 0.442138,-0.441569 3.055857,-0.807858 5.808263,-0.813974 3.727724,-0.0083 5.353633,-0.488762 6.373445,-1.883437 1.05915,-1.448474 2.114333,-1.729239 4.661256,-1.240277 C 44.54228,21.81334 45.063639,21.711159 44,21.013915 41.616878,19.451716 44.644425,19.763319 47.79966,21.404986 53.466291,24.353332 58,31.729259 58,38 c 0,5.875889 -4.473192,13.553275 -9.462623,16.240798 -1.90944,1.028508 -1.91559,0.985373 -0.226947,-1.591822 C 50.71144,48.984572 48.634551,49.300114 46,53 c -1.925446,2.70404 -4,3.951039 -4,2.40437 z M 30.512158,47.178825 c -0.79461,-0.79461 -2.513955,1.009251 -1.90347,1.997036 0.415239,0.67187 0.930597,0.569592 1.461939,-0.290138 0.451345,-0.730291 0.650034,-1.498395 0.441531,-1.706898 z M 43,29.056704 c 0,-0.518813 -1.0125,-1.699182 -2.25,-2.623043 -1.976614,-1.47565 -2.006991,-1.597479 -0.25,-1.002666 1.862856,0.630652 1.886579,0.562404 0.345961,-0.995281 -0.909721,-0.9198 -2.104975,-1.393669 -2.65612,-1.053042 -1.185414,0.732626 -0.335882,4.799459 1.222443,5.852015 C 40.952316,30.274887 43,30.173303 43,29.056704 Z M 25.5,31 c -0.339919,-0.55 0.110081,-1 1,-1 0.889919,0 1.339919,0.45 1,1 -0.339919,0.55 -0.789919,1 -1,1 -0.210081,0 -0.660081,-0.45 -1,-1 z"
         id="path1029" />
      <path
         style="fill:#97b1c9"
         d="M 43.872445,53.691958 C 44.627289,52.761381 44.909689,52 44.5,52 c -0.409689,0 -0.211645,-0.642521 0.440099,-1.427823 0.651743,-0.785303 1.385213,-3.472473 1.629933,-5.971489 0.380237,-3.882888 0.208795,-4.453046 -1.178877,-3.920547 -1.39167,0.534034 -1.456304,0.310108 -0.45209,-1.566283 0.644453,-1.204172 0.902079,-3.039007 0.572503,-4.077411 -0.384136,-1.210306 0.04467,-2.300703 1.194601,-3.037733 1.709928,-1.095949 1.708153,-1.122807 -0.03796,-0.574219 C 45.660729,31.741023 44.252824,32 43.539533,32 c -0.713291,0 -1.849882,1.335036 -2.525759,2.966746 -0.675876,1.631711 -2.191243,3.272193 -3.367482,3.645516 -1.176238,0.373324 -2.688531,1.400788 -3.36065,2.283254 -1.111961,1.459961 -1.2249,1.450363 -1.253839,-0.106561 C 33.001492,39.158183 36.615783,35 38.063561,35 38.441103,35 38.75,33.891334 38.75,32.536298 38.75,30.624706 37.99367,29.822985 35.375,28.958746 33.51875,28.346129 32,27.429794 32,26.922448 32,26.415102 31.325,26 30.5,26 29.675,26 29,25.6625 29,25.25 c 0,-0.4125 1.594662,-0.75 3.543694,-0.75 2.794928,0 3.658005,0.45545 4.084694,2.155517 0.462397,1.842336 2.890689,3.281108 5.621612,3.330828 1.614021,0.02939 0.626425,-3.200829 -1.685433,-5.512687 -2.741197,-2.741197 -1.826078,-3.980837 2.242268,-3.037424 2.00851,0.465754 2.311836,0.36647 1.193165,-0.390544 -2.339676,-1.583281 0.600426,-1.305265 3.79966,0.359296 C 53.466291,24.353332 58,31.729259 58,38 c 0,5.875889 -4.473192,13.553275 -9.462623,16.240798 -1.90944,1.028508 -1.91559,0.985373 -0.226947,-1.591822 1.928267,-2.942907 0.563568,-3.70322 -1.503726,-0.837769 C 46.088017,52.80737 44.825,54.018751 44,54.503165 42.706285,55.262793 42.688743,55.151233 43.872445,53.691958 Z M 27.2,49.8 c -1.935057,-1.935057 -1.387574,-4.630991 1.297764,-6.390492 2.377767,-1.557973 2.586569,-1.526929 4.346243,0.646177 1.803744,2.227528 1.799433,2.339182 -0.178099,4.613545 C 30.3994,51.275942 28.971369,51.571369 27.2,49.8 Z m 3.623324,-2.132866 c 0.356025,-1.835744 -0.58763,-2.102489 -2.701439,-0.763625 -1.575614,0.997978 -0.535049,3.400638 1.219756,2.816411 0.637097,-0.212109 1.303855,-1.135863 1.481683,-2.052786 z"
         id="path1027" />
      <path
         style="fill:#acafb2"
         d="M 43.872445,53.691958 C 44.627289,52.761381 44.909689,52 44.5,52 c -0.409689,0 -0.211645,-0.642521 0.440099,-1.427823 0.651743,-0.785303 1.385213,-3.472473 1.629933,-5.971489 0.380237,-3.882888 0.208795,-4.453046 -1.178877,-3.920547 -1.39167,0.534034 -1.456304,0.310108 -0.45209,-1.566283 0.644453,-1.204172 0.902079,-3.039007 0.572503,-4.077411 -0.386444,-1.217577 0.03776,-2.274341 1.194601,-2.975966 1.450388,-0.879659 1.219458,-0.960119 -1.206169,-0.420247 -1.65,0.367241 -3.287188,1.106075 -3.638197,1.641853 -0.854664,1.304561 -2.505974,0.186607 -3.104379,-2.101696 -0.390755,-1.494252 -0.02874,-1.76375 1.879294,-1.399007 3.183741,0.608611 3.147077,-2.088498 -0.07215,-5.307726 -2.741197,-2.741197 -1.826078,-3.980837 2.242268,-3.037424 2.00851,0.465754 2.311836,0.36647 1.193165,-0.390544 -2.339676,-1.583281 0.600426,-1.305265 3.79966,0.359296 C 53.466291,24.353332 58,31.729259 58,38 c 0,5.875889 -4.473192,13.553275 -9.462623,16.240798 -1.90944,1.028508 -1.91559,0.985373 -0.226947,-1.591822 1.928267,-2.942907 0.563568,-3.70322 -1.503726,-0.837769 C 46.088017,52.80737 44.825,54.018751 44,54.503165 42.706285,55.262793 42.688743,55.151233 43.872445,53.691958 Z M 31,47.122445 C 31,45.866785 30.363313,45 29.440983,45 28.583524,45 28.160081,44.55 28.5,44 c 1.001499,-1.620459 3.350798,-1.147304 4.443803,0.894995 0.752996,1.406986 0.633295,2.211093 -0.464816,3.122445 C 31.25268,49.035184 31,48.882277 31,47.122445 Z m 2,-6.563428 C 33,39.701558 33.45,39 34,39 c 0.55,0 1,0.423442 1,0.940983 0,0.517541 -0.45,1.219098 -1,1.559017 -0.55,0.339919 -1,-0.08352 -1,-0.940983 z m 1.68221,-2.21014 c -0.919361,-0.919361 2.440194,-3.278966 4.722778,-3.317074 1.841697,-0.03075 1.844853,0.03464 0.09501,1.968197 -1.835376,2.028068 -3.634799,2.531868 -4.81779,1.348877 z M 32.803571,27.660714 c -0.736607,-0.736607 -2.00625,-1.601081 -2.821428,-1.921052 -0.866257,-0.340021 -0.339415,-0.614573 1.267857,-0.660715 1.5125,-0.04342 2.75,0.419198 2.75,1.028042 0,0.608844 0.675,0.847967 1.5,0.531385 0.913711,-0.350624 1.5,-0.0016 1.5,0.893011 0,1.835261 -2.416037,1.909721 -4.196429,0.129329 z"
         id="path1025" />
      <path
         style="fill:#91a7b3"
         d="m 49.535056,50.932209 c 0.872529,-1.687285 1.387724,-3.599785 1.144877,-4.25 -0.242846,-0.650215 -0.91742,0.01158 -1.499053,1.470652 -0.581632,1.459073 -1.611744,2.995393 -2.289136,3.414045 -0.900197,0.556353 -1.012446,0.246123 -0.417131,-1.152861 C 46.922583,49.36132 47.313098,47.6 47.342425,46.5 c 0.02933,-1.1 0.726316,-2.507606 1.548864,-3.128013 1.318599,-0.994554 1.300215,-1.32334 -0.155384,-2.778939 -0.908009,-0.908009 -1.398357,-2.30911 -1.089661,-3.113557 0.312427,-0.814173 -0.138368,-1.731106 -1.016791,-2.068189 C 45.238962,34.877721 45.22663,34.630513 46.525699,33.331444 47.336564,32.520578 48,31.198453 48,30.393388 48,29.205125 47.595043,29.146359 45.84837,30.08115 44.008481,31.065828 43.787866,30.995197 44.325689,29.593653 44.967278,27.921697 42.849613,25.169287 39.362837,23.143245 37.575016,22.104406 37.580539,22.054956 39.5,21.915254 c 1.1,-0.08006 2.83669,-0.05712 3.859311,0.05097 1.109892,0.117317 1.589932,-0.239331 1.190983,-0.884845 -1.092489,-1.767684 0.92321,-1.236866 4.528026,1.19242 9.731403,6.557991 11.460259,19.487454 3.776008,28.239333 -3.782212,4.307702 -5.438281,4.516791 -3.319272,0.419079 z M 31,47.122445 C 31,45.866785 30.363313,45 29.440983,45 28.583524,45 28.160081,44.55 28.5,44 c 1.001499,-1.620459 3.350798,-1.147304 4.443803,0.894995 0.752996,1.406986 0.633295,2.211093 -0.464816,3.122445 C 31.25268,49.035184 31,48.882277 31,47.122445 Z m 2,-6.563428 C 33,39.701558 33.45,39 34,39 c 0.55,0 1,0.423442 1,0.940983 0,0.517541 -0.45,1.219098 -1,1.559017 -0.55,0.339919 -1,-0.08352 -1,-0.940983 z m 1.68221,-2.21014 c -0.919361,-0.919361 2.440194,-3.278966 4.722778,-3.317074 1.841697,-0.03075 1.844853,0.03464 0.09501,1.968197 -1.835376,2.028068 -3.634799,2.531868 -4.81779,1.348877 z M 39.314423,32.25 c -0.342544,-0.9625 -0.801231,-2.081437 -1.019305,-2.486527 -0.218075,-0.405091 0.559687,-0.382812 1.728358,0.04951 1.168672,0.43232 2.091482,1.101257 2.050691,1.486527 C 42.033375,31.684779 42,32.45 42,33 c 0,1.677931 -2.022517,1.113103 -2.685577,-0.75 z m -6.510852,-4.589286 c -0.736607,-0.736607 -2.00625,-1.601081 -2.821428,-1.921052 -0.866257,-0.340021 -0.339415,-0.614573 1.267857,-0.660715 1.5125,-0.04342 2.75,0.419198 2.75,1.028042 0,0.608844 0.675,0.847967 1.5,0.531385 0.913711,-0.350624 1.5,-0.0016 1.5,0.893011 0,1.835261 -2.416037,1.909721 -4.196429,0.129329 z"
         id="path1023" />
      <path
         style="fill:#8a9daa"
         d="m 49.47432,51.04966 c 1.65208,-3.194771 2.005478,-5.464225 0.727934,-4.67466 -0.43876,0.271169 -1.449068,0.09049 -2.245128,-0.401498 -1.21536,-0.751133 -1.136624,-1.121764 0.491161,-2.31203 1.801914,-1.317592 1.822186,-1.533856 0.287618,-3.068424 -0.908009,-0.908009 -1.398357,-2.30911 -1.089661,-3.113557 0.312427,-0.814173 -0.138368,-1.731106 -1.016791,-2.068189 -1.390491,-0.533581 -1.402823,-0.780789 -0.103754,-2.079858 2.120026,-2.120026 1.869226,-4.24748 -0.429849,-3.646258 -2.332526,0.609969 -2.402042,-2.55309 -0.09585,-4.361263 1.281622,-1.004857 1.20883,-1.150442 -0.5,-1 -1.1,0.09684 -2.225,0.425829 -2.5,0.731081 -0.275,0.305253 -1.2875,-0.257247 -2.25,-1.25 C 39.07464,22.076986 39.130471,22 42.059017,22 43.843718,22 44.860575,21.583423 44.5,21 c -1.045911,-1.692319 1.036734,-1.112878 4.57832,1.273797 9.731403,6.557991 11.460259,19.487454 3.776008,28.239333 -3.739975,4.259596 -5.44526,4.530287 -3.380008,0.53653 z M 47,49.618034 c 0,-0.825 0.45,-1.778115 1,-2.118034 0.55,-0.339919 1,0.05697 1,0.881966 0,0.825 -0.45,1.778115 -1,2.118034 -0.55,0.339919 -1,-0.05697 -1,-0.881966 z M 30.542705,45.069098 C 29.859635,43.963867 31.437113,42.770446 32.36052,43.693853 33.311305,44.644639 33.134107,46 32.059017,46 31.541476,46 30.859136,45.581094 30.542705,45.069098 Z M 35,38.122445 c 0,-1.583591 2.866752,-3.297448 4.701961,-2.811018 1.562831,0.414236 1.503708,0.571108 -0.451961,1.199207 C 38.0125,36.90808 37,37.630779 37,38.116631 37,38.602484 36.55,39 36,39 35.45,39 35,38.6051 35,38.122445 Z M 31.210573,26.461963 C 30.145228,25.254065 30.188673,25 31.460573,25 32.307258,25 33,25.417004 33,25.926676 c 0,0.509672 0.7875,1.132471 1.75,1.383998 1.461691,0.38198 1.420504,0.470168 -0.25,0.535287 -1.1,0.04288 -2.580242,-0.579919 -3.289427,-1.383998 z"
         id="path1021" />
      <path
         sodipodi:nodetypes="ssssssssssssssssssssss"
         style="fill:#8d9194"
         d="m 50.138485,50.955704 c -1.851374,0 1.293297,-3.56917 1.037426,-4.25 -0.274698,-0.730925 -0.930888,-0.214043 -1.602291,1.262126 -1.136854,2.499522 -1.136964,2.499458 -0.573989,-0.333789 0.3634,-1.828863 0.194245,-2.605835 -0.477,-2.190983 -1.732322,1.070634 -1.163528,-0.664477 0.653334,-1.992998 1.574062,-1.150983 1.577057,-1.354614 0.04249,-2.889182 -0.908009,-0.908009 -1.398357,-2.30911 -1.089661,-3.113557 0.312427,-0.814173 -0.138368,-1.731106 -1.016791,-2.068189 -1.390491,-0.533581 -1.402823,-0.780789 -0.103754,-2.079858 1.766344,-1.766344 1.907787,-3.945501 0.319793,-4.926936 -0.7153,-0.442079 -0.883063,-0.274316 -0.440984,0.440984 0.424688,0.68716 0.07204,1.154508 -0.871172,1.154508 -1.438527,0 -1.435171,-0.289151 0.03638,-3.134813 1.616607,-3.126174 1.614294,-3.133517 -0.839079,-2.664525 -1.353084,0.258659 -3.308512,-0.17594 -4.345395,-0.965774 -1.728058,-1.316331 -1.576665,-1.403207 1.815811,-1.041991 2.94072,0.313116 3.480517,0.128343 2.627556,-0.899412 -1.696138,-2.043721 0.517196,-1.53743 4.181561,0.956515 9.775299,6.65301 11.524756,19.515413 3.844159,28.26313 -3.762742,4.285527 1.299724,0.474744 -3.198392,0.474744 z"
         id="path1019" />
      <path
         style="fill:#7e9099"
         d="m 48.697637,52.87435 c 0.6587,-0.799199 1.61538,-3.312329 2.125956,-5.584734 0.784863,-3.49317 0.697711,-4.043153 -0.563971,-3.559001 -1.223696,0.469577 -1.29466,0.203371 -0.39427,-1.479024 0.861736,-1.610167 0.782802,-2.172629 -0.366807,-2.613776 -0.83538,-0.320565 -1.209144,-1.228406 -0.869811,-2.112696 0.32726,-0.852824 0.01111,-2.254155 -0.702556,-3.114069 C 46.858712,33.124832 46.871804,32.697264 48,32 c 1.128196,-0.697264 1.141288,-1.124832 0.07382,-2.41105 -0.713665,-0.859914 -1.01138,-2.309289 -0.661587,-3.220833 0.360545,-0.939567 -0.09122,-2.460903 -1.043112,-3.512735 -2.841876,-3.140237 0.669796,-2.27197 4.894129,1.210083 4.793639,3.951322 7.388404,11.832763 5.803127,17.62665 -1.39913,5.113559 -4.453128,9.910471 -7.262868,11.407783 -1.982074,1.056248 -2.13639,1.024775 -1.105874,-0.225548 z M 39.709792,22.79948 c -0.73781,-0.468898 -0.159946,-0.774828 1.481191,-0.784167 1.480041,-0.0084 2.952267,0.407453 3.271613,0.924166 0.677179,1.095699 -2.977841,0.988036 -4.752804,-0.139999 z"
         id="path1017" />
      <path
         sodipodi:nodetypes="sssssssssssssssssssss"
         style="fill:#757b83"
         d="m 49.180186,52.84218 c -1.035667,0 1.61538,-3.312329 2.125956,-5.584734 0.790248,-3.517138 0.702918,-4.045152 -0.587165,-3.5501 -1.222491,0.469114 -1.31329,0.220246 -0.46965,-1.287254 0.792501,-1.416122 0.678322,-2.13753 -0.47137,-2.978205 -1.35025,-0.987327 -1.33994,-1.286668 0.09369,-2.720303 2.121361,-2.121356 2.032004,-2.753754 -0.389098,-2.753754 -2.141266,0 -2.753306,-1.582231 -0.856602,-2.214466 0.850018,-0.283339 0.838152,-0.95149 -0.04624,-2.604 -0.654303,-1.222577 -0.89975,-2.691923 -0.545437,-3.265214 0.354313,-0.573291 -0.144621,-1.913991 -1.108743,-2.979333 -2.898677,-3.203002 0.542911,-2.39729 4.820278,1.128478 4.793639,3.951322 7.388404,11.832763 5.803127,17.62665 -1.39913,5.113559 -4.453128,9.910471 -7.262868,11.407783 C 48.30399,54.123976 50.800459,52.84218 49.18019,52.84218 Z M 42.482549,22.96783 c -2.327257,-0.745318 -2.348609,-0.807528 -0.309017,-0.90032 1.205041,-0.05482 2.469098,0.35032 2.809017,0.90032 0.339919,0.55 0.478976,0.955144 0.309017,0.90032 -0.169959,-0.05482 -1.434017,-0.459968 -2.809017,-0.90032 z"
         id="path1015" />
      <path
         sodipodi:nodetypes="sssssssssssssss"
         style="fill:#6b6e71"
         d="m 51.139901,49.245477 c -4.075099,0 1.057052,-10.837207 -0.707878,-9.74642 -0.522211,0.322744 -0.949474,-0.114751 -0.949474,-0.97221 0,-0.857459 0.707996,-1.559017 1.573324,-1.559017 0.960126,0 1.441972,-0.682057 1.236305,-1.75 -0.18536,-0.9625 -1.005856,-1.760099 -1.823324,-1.772442 -0.874731,-0.01321 -1.358389,-0.763812 -1.175432,-1.824189 0.170981,-0.99096 -0.20526,-2.423649 -0.836089,-3.183753 -0.63083,-0.760103 -0.862413,-1.842418 -0.51463,-2.405144 0.347784,-0.562726 0.127462,-1.966501 -0.489604,-3.119499 -1.051122,-1.96404 -0.975142,-2.020353 1.203756,-0.892168 5.9726,3.09248 8.913457,8.397413 8.978216,16.195564 0.04149,4.996396 -3.668381,12.968135 -6.549628,14.073773 -1.25021,0.479751 3.419104,-3.044495 0.05446,-3.044495 z"
         id="path1013" />
      <path
         sodipodi:nodetypes="ssscsscsssss"
         style="fill:#5c6166"
         d="m 50.057466,51.909788 c 1.718955,-2.305909 3.587769,-9.869709 2.766761,-11.198129 -0.413012,-0.668267 -0.624371,-2.684011 -0.469687,-4.47943 0.243608,-2.827552 -0.03011,-3.266448 -2.045373,-3.279712 -1.445458,-0.0095 -1.874197,-0.302939 -1.132044,-0.774762 1.56474,-0.994782 0.919443,-4.800366 -0.746683,-4.403501 -1.045091,0.248937 -1.0441,0.01443 0.0053,-1.25 1.032659,-1.244301 1.04205,-1.857232 0.04681,-3.056424 -1.963085,-2.365372 0.213579,-1.688794 3.298369,1.025241 6.388032,5.620266 7.678144,16.446186 2.767681,23.224882 -1.613673,2.227611 -3.526173,4.406509 -4.25,4.841997 -1.007541,0.606183 -1.064067,0.453772 -0.241133,-0.650162 z"
         id="path1011" />
      <path
         sodipodi:nodetypes="sssssscssssssss"
         style="fill:#5a5d62"
         d="m 52.015732,47.523831 c 0.765814,-2.544606 1.660693,-5.060682 1.98862,-5.591279 0.327927,-0.530597 0.151021,-0.964722 -0.393124,-0.964722 -0.544146,0 -0.938863,-1.2375 -0.877148,-2.75 0.133226,-3.265128 -2.0243,-11.249698 -3.040075,-11.250706 -0.391301,-3.89e-4 -0.778907,-1.166419 -0.861346,-2.59118 l -0.14989,-2.590473 2.985946,2.841179 c 3.900208,3.711115 5.716926,6.901706 3.430168,6.024195 -0.888984,-0.341135 -1.616334,-0.184369 -1.616334,0.34837 0,0.532738 0.689123,0.968615 1.531385,0.968615 2.08934,0 3.088997,2.993561 1.364332,4.085612 -0.997642,0.631703 -1.039202,0.88813 -0.145717,0.899075 2.98511,0.03657 0.24925,9.896041 -3.750403,13.515677 -1.802962,1.631659 -1.816974,1.543206 -0.466414,-2.944363 z"
         id="path1009" />
      <path
         style="fill:#54575a"
         d="m 51.178107,49 c 0.604378,-1.925 1.469581,-4.49643 1.922672,-5.714289 0.458153,-1.231466 0.427386,-2.459287 -0.06932,-2.766267 -0.491216,-0.303588 -0.682144,-1.715442 -0.424284,-3.137453 0.25786,-1.422011 0.042,-3.102191 -0.479684,-3.733733 C 51.605806,33.016716 50.855028,30.7 50.459096,28.5 50.063164,26.3 49.254985,23.825 48.663143,23 48.0713,22.175 49.254976,23.050775 51.293533,24.946167 54.698118,28.111652 56.082314,30.360771 54.25,29.75 53.394668,29.464889 53,30.33316 53,32.5 c 0,0.825 0.476558,1.5 1.059017,1.5 0.582459,0 0.784087,-0.444846 0.448062,-0.988546 -0.350339,-0.56686 0.05106,-0.734507 0.940983,-0.393011 1.862754,0.714806 2.049194,3.013123 0.301938,3.722093 -0.965805,0.391886 -0.935831,0.72697 0.131834,1.473828 2.078551,1.453996 0.630407,7.162545 -2.849309,11.231907 L 50.079237,52.5 Z"
         id="path1007" />
      <path
         sodipodi:nodetypes="sssssscssssssssss"
         style="fill:#46484a"
         d="m 52.603608,46.967502 c 0.519102,-2.474819 1.041725,-5.174672 1.161382,-5.999672 0.214354,-1.477899 1.620883,-2.954756 2.842559,-2.984687 1.253842,-0.03072 0.585369,4.881851 -0.733141,5.387811 -0.746978,0.286642 -1.121042,1.139038 -0.831254,1.894214 0.289788,0.755175 -0.352921,2.459561 -1.428241,3.787526 l -1.955127,2.414481 z M 52.046842,32.260958 c -0.542685,-1.425198 -0.427821,-1.540062 0.559795,-0.559795 0.683418,0.678334 0.990671,1.485241 0.682784,1.793128 -0.307887,0.307888 -0.867048,-0.247112 -1.242579,-1.233333 z m -0.346748,-3.602569 c -0.853704,-1.09444 -2.316416,-5.690559 -1.811017,-5.690559 0.120609,0 1.456313,1.291175 2.968231,2.869277 2.190638,2.286533 2.446583,2.985303 1.260205,3.440559 -0.818806,0.314205 -1.906644,0.03553 -2.417419,-0.619277 z"
         id="path1005" />
      <path
         style="fill:#3f4144"
         d="m 52.030409,45.70034 c -0.07099,-1.866951 3.315133,-7.131728 3.752674,-5.834686 0.253377,0.75111 0.02988,1.65111 -0.496661,2 C 54.75988,42.214544 53.818716,43.4 53.194945,44.5 c -0.62377,1.1 -1.147812,1.640153 -1.164536,1.20034 z M 50.5,28 C 50.160081,27.45 50.358524,27 50.940983,27 51.523442,27 52,27.45 52,28 52,28.55 51.801558,29 51.559017,29 51.316476,29 50.839919,28.55 50.5,28 Z"
         id="path1003" />
      <path
         sodipodi:nodetypes="sssssssss"
         style="fill:#3b3e41"
         d="m 55.025254,41.036928 c -0.316431,-0.511996 -0.192988,-1.167201 0.274316,-1.456011 0.467305,-0.28881 0.849646,0.130095 0.849646,0.930902 0,1.686167 -0.315337,1.833491 -1.123962,0.525109 z M 50.982549,27.96783 c -0.339919,-0.55 -0.141476,-1 0.440983,-1 0.582459,0 1.059017,0.45 1.059017,1 0,0.55 -0.198442,1 -0.440983,1 -0.242541,0 -0.719098,-0.45 -1.059017,-1 z"
         id="path1001" />
      <path
         style="fill:#2e3134"
         d="m 54.542705,41.069098 c -0.316431,-0.511996 -0.192988,-1.167201 0.274316,-1.456011 0.467305,-0.28881 0.849646,0.130095 0.849646,0.930902 0,1.686167 -0.315337,1.833491 -1.123962,0.525109 z"
         id="path999" />
    </g>
  </g>
</svg>
