<?xml version="1.0" encoding="UTF-8" standalone="no"?>
<svg
   xmlns:dc="http://purl.org/dc/elements/1.1/"
   xmlns:cc="http://creativecommons.org/ns#"
   xmlns:rdf="http://www.w3.org/1999/02/22-rdf-syntax-ns#"
   xmlns:svg="http://www.w3.org/2000/svg"
   xmlns="http://www.w3.org/2000/svg"
   xmlns:sodipodi="http://sodipodi.sourceforge.net/DTD/sodipodi-0.dtd"
   xmlns:inkscape="http://www.inkscape.org/namespaces/inkscape"
   version="1.1"
   id="svg1560"
   width="76"
   height="76"
   viewBox="0 0 76 76"
   sodipodi:docname="ura.svg"
   inkscape:version="1.0 (4035a4f, 2020-05-01)">
  <metadata
     id="metadata1566">
    <rdf:RDF>
      <cc:Work
         rdf:about="">
        <dc:format>image/svg+xml</dc:format>
        <dc:type
           rdf:resource="http://purl.org/dc/dcmitype/StillImage" />
        <dc:title />
      </cc:Work>
    </rdf:RDF>
  </metadata>
  <defs
     id="defs1564" />
  <sodipodi:namedview
     inkscape:document-rotation="0"
     pagecolor="#ffffff"
     bordercolor="#666666"
     borderopacity="1"
     objecttolerance="10"
     gridtolerance="10"
     guidetolerance="10"
     inkscape:pageopacity="0"
     inkscape:pageshadow="2"
     inkscape:window-width="1440"
     inkscape:window-height="803"
     id="namedview1562"
     showgrid="false"
     inkscape:zoom="2.616486"
     inkscape:cx="100.05752"
     inkscape:cy="70.709841"
     inkscape:window-x="0"
     inkscape:window-y="23"
     inkscape:window-maximized="1"
     inkscape:current-layer="g1568" />
  <g
     inkscape:groupmode="layer"
     inkscape:label="Image"
     id="g1568">
    <g
       id="g2133">
      <path
         style="fill:#d1ebf6"
         d="M 27.229066,59.426858 C 18.097844,54.876579 13.189286,45.584755 14.411743,35.163872 c 0.745584,-6.35575 2.402211,-9.82398 6.786868,-14.208637 4.681903,-4.681903 10.249865,-6.90749 17.345626,-6.933273 5.061978,-0.01839 6.929827,0.507236 11.493632,3.234406 16.165224,9.659774 16.165224,31.82749 0,41.487264 -7.202063,4.303701 -15.07048,4.539395 -22.808803,0.683226 z"
         id="path2205" />
      <path
         sodipodi:nodetypes="sssssssss"
         style="fill:#b3e3f3"
         d="M 30.557825,60.568804 C 20.276599,57.578108 16.036485,50.323652 15.26913,40.764024 14.395616,29.881878 18.0638,22.398264 26.783886,17.272296 30.737358,14.948307 32.643906,14.5 38.573823,14.5 c 6.127547,0 7.729269,0.404851 11.973565,3.026436 3.041291,1.878522 6.047654,4.883141 7.926176,7.92158 C 61.152428,29.780976 61.5,31.222512 61.5,38 c 0,6.777488 -0.347572,8.219024 -3.026436,12.551984 -5.747369,9.296152 -17.771838,12.96757 -27.915739,10.01682 z"
         id="path2203" />
      <path
         style="fill:#b3e2ec"
         d="m 31.993526,61.125174 c -5.051214,-1.656447 -8.9471,-4.200096 -11.294302,-7.374123 -3.386929,-4.580007 -4.259948,-6.215632 -2.853732,-5.346543 1.684099,1.040831 1.411055,-0.0051 -0.500296,-1.916455 -0.910142,-0.910142 -1.865354,-3.846037 -2.122692,-6.524212 -0.382348,-3.979172 0.01058,-5.685847 2.149213,-9.335155 1.439406,-2.456161 2.15999,-4.618117 1.601298,-4.804348 -1.366356,-0.455452 5.610774,-7.542818 9.456007,-9.605407 1.996701,-1.071034 5.545513,-1.659811 10.144801,-1.683105 6.162248,-0.03121 7.705233,0.354179 11.973565,2.99061 3.041291,1.878522 6.047654,4.883141 7.926176,7.92158 C 61.152428,29.780976 61.5,31.222512 61.5,38 c 0,6.777488 -0.347572,8.219024 -3.026436,12.551984 -4.100748,6.632806 -10.470853,10.500424 -18.130511,11.007968 -3.213679,0.212944 -6.970966,0.01729 -8.349527,-0.434778 z M 25,42.405799 C 25,40.311221 24.594403,39.132639 24,39.5 c -0.55,0.339919 -1,1.851476 -1,3.359017 0,1.507541 -0.5625,3.336066 -1.25,4.06339 -1.031582,1.091337 -0.856848,1.120136 1,0.164816 C 24.438658,46.218434 25,45.050488 25,42.405799 Z"
         id="path2201" />
      <path
         style="fill:#a9e1f5"
         d="m 30.8448,60.57556 c -2.01036,-0.772873 -4.85701,-2.192679 -6.325889,-3.155126 -3.128238,-2.0497 -7.667009,-8.371789 -6.900589,-9.611883 0.291429,-0.471542 0.222613,-2.256282 -0.152923,-3.96609 -0.502761,-2.289055 -0.913768,-2.744047 -1.558784,-1.725601 -0.704588,1.112507 -0.878986,1.056728 -0.891302,-0.285073 -0.02412,-2.627736 1.104395,-4.875837 2.129553,-4.242255 0.547486,0.338365 0.665056,-0.49868 0.283548,-2.018729 -0.400166,-1.59439 -0.131947,-3.223098 0.694848,-4.219324 1.478857,-1.781914 1.799984,-4.535727 0.630647,-5.40808 -0.410351,-0.306131 1.103262,-2.424443 3.363583,-4.70736 C 32.920054,10.325486 50.374205,12.34761 58.473564,25.448016 61.152428,29.780976 61.5,31.222512 61.5,38 c 0,6.777488 -0.347572,8.219024 -3.026436,12.551984 C 52.779146,59.76249 40.406121,64.251361 30.8448,60.57556 Z M 25,42.631483 c 0,-2.220736 -0.475638,-3.29815 -1.456011,-3.29815 -0.800807,0 -1.22176,0.379027 -0.935453,0.842282 0.75787,1.226259 -0.603223,4.945702 -1.587274,4.337526 -0.459109,-0.283746 -0.602038,0.373969 -0.31762,1.461587 C 21.57648,49.312466 25,46.648426 25,42.631483 Z m -3.019375,-6.143457 c 0.445393,0.275268 1.076804,-0.195301 1.403136,-1.045707 0.326332,-0.850407 0.260985,-1.367209 -0.145215,-1.148449 -0.4062,0.21876 -1.554568,0.688954 -2.551928,1.044875 -1.09651,0.391304 -1.518287,1.124604 -1.066915,1.854938 0.582783,0.942963 0.834687,0.943146 1.148792,8.32e-4 0.221279,-0.663837 0.766738,-0.981757 1.21213,-0.706489 z m 0.400932,-4.039964 C 22.723053,31.558137 22.555406,31.15674 21.988546,31.507079 21.444846,31.843104 21,32.541476 21,33.059017 c 0,1.438432 0.716766,1.121462 1.381557,-0.610955 z"
         id="path2199" />
      <path
         style="fill:#ade0ec"
         d="m 30.275727,60.406885 c -2.32335,-0.85602 -5.69835,-2.982025 -7.5,-4.724455 L 19.5,52.514375 22.216542,52.193994 c 2.208444,-0.260458 2.836828,-0.96156 3.35965,-3.748438 0.411016,-2.190907 1.054647,-3.181493 1.783457,-2.744848 0.627193,0.375765 0.539111,-0.05846 -0.195739,-0.964945 -0.734849,-0.906484 -1.016099,-2.165909 -0.625,-2.798721 0.516989,-0.836505 0.945753,-0.780221 1.570777,0.206195 0.507087,0.800287 0.865968,0.894296 0.875,0.229208 0.02032,-1.496238 -2.491288,-3.532511 -3.326696,-2.697102 C 25.296096,40.037238 25,39.583333 25,38.666667 25,37.75 25.476558,37 26.059017,37 26.641476,37 26.835382,36.54266 26.489919,35.983688 25.560949,34.480583 24,35.818621 24,38.118034 c 0,1.25713 -0.428825,1.734972 -1.154508,1.286474 -0.718469,-0.444037 -0.882933,-0.274105 -0.435453,0.449932 0.901819,1.459173 -0.259946,5.356356 -1.388777,4.658701 -0.459109,-0.283746 -0.60055,0.379659 -0.314313,1.474232 0.286237,1.094573 0.919271,1.743636 1.406741,1.442363 C 22.601161,47.128462 23,47.310379 23,47.833994 c 0,1.533228 -2.766951,2.155064 -3.811414,0.856565 -0.526702,-0.654807 -1.283517,-2.712972 -1.681811,-4.573699 -0.527228,-2.463077 -0.962401,-3.006988 -1.60016,-2 -0.704588,1.112507 -0.878986,1.056728 -0.891302,-0.285073 -0.02361,-2.572453 1.096197,-4.880904 2.074414,-4.276333 0.484086,0.299182 0.623142,-0.741108 0.309012,-2.311757 -0.381157,-1.905788 -0.06328,-3.277215 0.955617,-4.122824 0.839719,-0.696904 1.280366,-1.909198 0.979214,-2.693986 -0.736993,-1.920574 1.14008,-1.81038 3.13447,0.18401 1.481196,1.481197 1.466945,1.716158 -0.176999,2.918239 -0.983343,0.719038 -1.451104,1.644134 -1.039469,2.05577 C 21.663208,33.996541 22,33.808333 22,33.166667 22,32.525 22.45,32 23,32 c 2.003652,0 0.932642,2.075111 -1.560174,3.022878 -1.486801,0.565281 -2.27291,1.438181 -1.875,2.082012 0.478548,0.774308 0.944427,0.699481 1.544861,-0.248127 0.472828,-0.74622 0.866578,-0.919135 0.875,-0.384257 0.0084,0.534879 0.606605,0.08488 1.329295,-1 1.89602,-2.846241 1.909232,-6.437579 0.03936,-10.698133 -1.60008,-3.645819 -1.58389,-3.768266 0.755777,-5.716132 3.805033,-3.16784 11.497296,-5.350518 16.994815,-4.822276 6.709951,0.644741 13.576786,5.077264 17.369633,11.212051 C 61.152428,29.780976 61.5,31.222512 61.5,38 c 0,6.777488 -0.347572,8.219024 -3.026436,12.551984 -5.827361,9.425537 -17.905906,13.646884 -28.197837,9.854901 z M 29.683114,37.8125 c -0.319226,-0.797733 -0.556183,-0.560776 -0.604167,0.604167 -0.04342,1.054166 0.192928,1.644791 0.52522,1.3125 0.332291,-0.332292 0.367818,-1.194792 0.07895,-1.916667 z"
         id="path2197" />
      <path
         sodipodi:nodetypes="sscsssssssssssssssssssssssssssscsssssssssssssssss"
         style="fill:#a2dbf4"
         d="M 30.457265,60.467398 C 28.233761,59.64466 24.018687,57.971582 22.237217,56.071777 l -3.169246,-3.379764 2.764546,-0.361197 c 2.20648,-0.288285 3.220345,-1.095674 3.743675,-3.88526 0.411016,-2.190907 1.054647,-3.181493 1.783457,-2.744848 0.627193,0.375765 0.539111,-0.05846 -0.195739,-0.964945 -0.734849,-0.906484 -1.016099,-2.165909 -0.625,-2.798721 0.516989,-0.836505 0.945753,-0.780221 1.570777,0.206195 0.507087,0.800287 0.865968,0.894296 0.875,0.229208 0.02032,-1.496238 -2.491288,-3.532511 -3.326696,-2.697102 C 25.296096,40.037238 25,39.583333 25,38.666667 25,37.75 25.476558,37 26.059017,37 c 0.582459,0 0.776365,-0.45734 0.430902,-1.016312 -0.345464,-0.558971 -1.023437,-0.77199 -1.506607,-0.473374 -0.483171,0.298616 -0.661113,-1.26052 -0.395427,-3.464746 0.310585,-2.576723 -0.09319,-5.122046 -1.130859,-7.12867 -1.542058,-2.982012 -1.514977,-3.226309 0.608157,-5.486282 3.138263,-3.340529 11.093626,-5.765902 17.038748,-5.194651 6.709951,0.644741 13.576786,5.077264 17.369633,11.212051 C 61.152428,29.780976 61.5,31.222512 61.5,38 c 0,6.777488 -0.347572,8.219024 -3.026436,12.551984 -5.781427,9.35124 -17.925472,13.64921 -28.016299,9.915414 z M 29.683114,37.8125 c -0.319226,-0.797733 -0.556183,-0.560776 -0.604167,0.604167 -0.04342,1.054166 0.192928,1.644791 0.52522,1.3125 0.332291,-0.332292 0.367818,-1.194792 0.07895,-1.916667 z m -11.512972,7.661575 c -0.617273,-1.354766 -0.873609,-3.703156 -0.569636,-5.218643 0.455861,-2.272743 1.108588,-2.778623 3.726086,-2.887816 L 24.5,37.235233 21.82285,38.285038 c -2.448576,0.960173 -4.445771,4.425374 -3.243524,5.627622 0.275,0.275 0.759636,-0.492849 1.076969,-1.70633 C 19.973627,40.992848 20.590961,40 21.028148,40 c 1.286442,0 0.457546,3.078565 -1.098522,4.079968 -1.193832,0.768287 -1.20585,1.064349 -0.07286,1.795032 0.784173,0.505727 0.951391,1.125533 0.396228,1.468643 -0.528295,0.326504 -1.465577,-0.514802 -2.082849,-1.869568 z M 17.614144,34.436858 C 17.310888,33.646586 17.525204,33 18.090402,33 18.655599,33 18.839919,32.55 18.5,32 c -0.344632,-0.557626 0.403415,-0.993226 1.690983,-0.984687 1.703746,0.0113 1.947766,0.244125 0.930902,0.888196 -0.757964,0.480086 -1.098048,1.326043 -0.755744,1.879903 0.342305,0.55386 -0.0128,1.250758 -0.789126,1.548661 -0.776323,0.297903 -1.659616,-0.104944 -1.962871,-0.895215 z"
         id="path2195" />
      <path
         sodipodi:nodetypes="ssssssssssssssssssssscsssssssssssssssssssssssssss"
         style="fill:#a6dce9"
         d="m 30.763876,60.547543 c -4.180181,-1.603587 -10.124692,-5.008571 -10.172547,-6.240585 -0.01728,-0.444959 0.409275,-0.536649 0.947908,-0.203756 1.78917,1.105768 6.685888,-1.134319 6.148263,-3.190202 -0.27554,-1.053668 -0.144963,-1.695728 0.290171,-1.4268 1.774766,1.096866 3.957407,-13.217789 2.272329,-14.902867 -0.4125,-0.4125 -0.772121,-1.05 -0.799157,-1.416666 C 29.423807,32.8 29.128132,31.6 28.793788,30.5 c -0.334344,-1.1 -0.893565,-3.278414 -1.242715,-4.840921 -0.407289,-1.822696 -1.116863,-2.655943 -1.97976,-2.324818 -0.950947,0.364913 -1.185481,-0.09368 -0.800605,-1.565451 0.415959,-1.590629 0.212381,-1.886211 -0.863184,-1.253288 -0.774138,0.455547 -0.5671,-0.130499 0.460084,-1.302324 2.71947,-3.102405 10.907138,-5.537344 16.736323,-4.977233 6.709951,0.644741 13.576786,5.077264 17.369633,11.212051 C 61.152428,29.780976 61.5,31.222512 61.5,38 c 0,6.777488 -0.347572,8.219024 -3.026436,12.551984 -5.716313,9.245921 -18.058323,13.697984 -27.709688,9.995559 z M 18.170142,45.474075 c -0.617273,-1.354766 -0.873609,-3.703156 -0.569636,-5.218643 0.455861,-2.272743 1.108588,-2.778623 3.726086,-2.887816 L 24.5,37.235233 21.82285,38.285038 c -2.448576,0.960173 -4.445771,4.425374 -3.243524,5.627622 0.275,0.275 0.759636,-0.492849 1.076969,-1.70633 C 19.973627,40.992848 20.590961,40 21.028148,40 c 1.286442,0 0.457546,3.078565 -1.098522,4.079968 -1.193832,0.768287 -1.20585,1.064349 -0.07286,1.795032 0.784173,0.505727 0.951391,1.125533 0.396228,1.468643 -0.528295,0.326504 -1.465577,-0.514802 -2.082849,-1.869568 z M 17.614144,34.436858 C 17.310888,33.646586 17.525204,33 18.090402,33 18.655599,33 18.839919,32.55 18.5,32 c -0.344632,-0.557626 0.403415,-0.993226 1.690983,-0.984687 1.703746,0.0113 1.947766,0.244125 0.930902,0.888196 -0.757964,0.480086 -1.098048,1.326043 -0.755744,1.879903 0.342305,0.55386 -0.0128,1.250758 -0.789126,1.548661 -0.776323,0.297903 -1.659616,-0.104944 -1.962871,-0.895215 z m 9.464803,-1.020191 c 0.04798,-1.164943 0.284941,-1.4019 0.604167,-0.604167 0.288871,0.721875 0.253344,1.584375 -0.07895,1.916667 -0.332292,0.332291 -0.568641,-0.258334 -0.52522,-1.3125 z M 26,29.940983 c 0,-0.582459 0.45,-0.780902 1,-0.440983 0.55,0.339919 1,0.816476 1,1.059017 C 28,30.801558 27.55,31 27,31 26.45,31 26,30.523442 26,29.940983 Z"
         id="path2193" />
      <path
         sodipodi:nodetypes="ssssssssssssssssssssssssssss"
         style="fill:#9cd7f3"
         d="M 30.24312,60.221224 C 27.901836,59.236427 23.704752,57.683871 22.471036,56.38974 21.23732,55.095608 20.469095,54.44052 21.145228,54.816647 23.180132,55.948648 28.254212,53.08011 27.6875,50.913 27.41196,49.859332 27.542537,49.217272 27.977671,49.4862 29.752437,50.583066 31.935078,36.268411 30.25,34.583333 c -0.4125,-0.4125 -0.772121,-1.05 -0.799157,-1.416666 C 29.423807,32.8 29.128132,31.6 28.793788,30.5 28.459444,29.4 27.900223,27.221586 27.551073,25.659079 27.143784,23.836383 26.43421,23.003136 25.571313,23.334261 24.620366,23.699174 24.385832,23.240581 24.770708,21.76881 25.188246,20.172142 24.987172,19.88487 23.907524,20.535587 22.738705,21.240046 22.71733,21.115561 23.781485,19.801558 24.486302,18.93126 27.383022,17.22114 30.21864,16.00129 40.577302,11.545113 52.301527,15.464979 58.473564,25.448016 61.152428,29.780976 61.5,31.222512 61.5,38 c 0,6.777488 -0.347572,8.219024 -3.026436,12.551984 -5.924083,9.581981 -18.333202,13.832242 -28.230444,9.66924 z M 27.078947,33.416667 c 0.04798,-1.164943 0.284941,-1.4019 0.604167,-0.604167 0.288871,0.721875 0.253344,1.584375 -0.07895,1.916667 -0.332292,0.332291 -0.568641,-0.258334 -0.52522,-1.3125 z M 26,29.940983 c 0,-0.582459 0.45,-0.780902 1,-0.440983 0.55,0.339919 1,0.816476 1,1.059017 C 28,30.801558 27.55,31 27,31 26.45,31 26,30.523442 26,29.940983 Z"
         id="path2191" />
      <path
         sodipodi:nodetypes="sssssssssssss"
         style="fill:#c9cbce"
         d="m 30.256152,60.226319 c -4.055822,-1.706338 -9.854847,-5.555358 -6.256158,-4.198847 3.174201,1.196502 5.910082,-4.100481 6.85878,-12.575189 C 31.367181,38.910696 31.373924,35.09255 30.874495,34.55 30.393523,34.0275 30,32.333894 30,30.786431 c 0,-1.547463 -0.519942,-3.819963 -1.155426,-5.05 C 28.20909,24.506394 27.359314,22.825 26.956184,22 26.553053,21.175 25.482207,20.565131 24.576526,20.644736 21.632793,20.903476 24.709742,18.371154 30.21864,16.00129 40.577302,11.545113 52.301527,15.464979 58.473564,25.448016 61.152428,29.780976 61.5,31.222512 61.5,38 c 0,6.777488 -0.347572,8.219024 -3.026436,12.551984 -5.920523,9.576222 -18.334313,13.832287 -28.217412,9.674335 z"
         id="path2189" />
      <path
         sodipodi:nodetypes="ssssssssssssssss"
         style="fill:#9ad2ec"
         d="m 33.5,61.02402 c -4.914968,-1.263569 -9.117534,-2.645286 -10.550087,-4.371406 -1.144092,-1.378546 -1.130484,-1.542698 0.0891,-1.074702 3.053763,1.171839 6.885677,-3.781428 7.819766,-12.125629 C 31.367181,38.910696 31.373924,35.09255 30.874495,34.55 30.393523,34.0275 30,32.333894 30,30.786431 c 0,-1.547463 -0.519942,-3.819963 -1.155426,-5.05 C 28.20909,24.506394 27.359314,22.825 26.956184,22 26.553053,21.175 25.502838,20.561693 24.622372,20.637095 22.118274,20.851544 23.738455,19.176177 28.317849,16.815746 33.590089,14.09819 42.91553,13.88754 48.107578,16.368722 56.966198,20.602089 61.5,28.094455 61.5,38.50046 c 0,6.051563 -0.406644,7.64706 -3,11.77073 -3.487583,5.54557 -8.638964,9.289984 -14.706013,10.689443 -4.897066,1.129585 -6.11751,1.1371 -10.293987,0.06339 z"
         id="path2187" />
      <path
         sodipodi:nodetypes="sscsssssssssss"
         style="fill:#95c9e9"
         d="m 33.5,61.064931 c -1.65,-0.40169 -4.672353,-1.119957 -6.597354,-2.131594 l -3.5,-1.839338 3.28908,-0.866673 c 1.931019,-0.508823 3.758253,-2.217802 4.286938,-3.516045 C 31.942158,50.345323 33.370675,41.799164 33.354125,38.5 33.327372,33.16687 32.916815,30.933377 32.060521,31.462596 31.543807,31.781943 31.161908,31.246 31.211855,30.271613 31.410326,26.399773 28.859383,19.883534 26.854904,19.142029 23.368898,17.852471 32.269747,14.509466 38.947672,14.600195 52.380869,14.782703 61.5,24.446878 61.5,38.50046 c 0,6.051563 -0.406644,7.64706 -3,11.77073 -3.487583,5.54557 -8.638964,9.289984 -14.706013,10.689443 C 38.935039,62.081425 37.725724,62.093678 33.5,61.064931 Z"
         id="path2185" />
      <path
         sodipodi:nodetypes="sscsssssssssscssssss"
         style="fill:#8dc2e4"
         d="m 33.5,61.068545 c -1.65,-0.399703 -4.836768,-1.022532 -6.486768,-1.91951 l -3,-1.630869 3.098126,-0.04004 c 2.636059,-0.03407 3.856118,-1.079597 5.403434,-4.510933 1.000198,-2.218041 1.781296,-4.805541 1.735774,-5.75 C 34.205045,46.272738 34.42868,44.825 34.747533,44 c 0.729629,-1.887837 0.97008,-2.740904 1.127467,-4 0.06875,-0.55 0.8,-1 1.625,-1 0.825,0 1.5,-0.45 1.5,-1 0,-0.55 -0.869676,-1 -1.932612,-1 -2.146737,0 -2.846442,-1.562731 -3.618411,-8.081403 -0.918713,-7.757811 -1.060322,-8.185465 -3.314992,-10.011186 L 27.91892,17.11376 30.20946,15.87748 C 33.585103,14.055535 43.857026,14.337463 48.107578,16.368722 56.966198,20.602089 61.5,28.094455 61.5,38.50046 c 0,6.051563 -0.406644,7.64706 -3,11.77073 -3.487583,5.54557 -8.638964,9.289984 -14.706013,10.689443 C 38.938454,62.080637 37.73027,62.093303 33.5,61.068545 Z"
         id="path2183" />
      <path
         style="fill:#aebbc7"
         d="m 33.465736,61.068061 c -1.668845,-0.399969 -3.86288,-1.190934 -4.875633,-1.757699 -1.682085,-0.941342 -1.615818,-1.087092 0.766075,-1.684909 3.298853,-0.827959 5.196665,-4.544249 6.096128,-11.937421 0.434553,-3.57183 1.254526,-6.022038 2.127393,-6.356989 C 39.418809,38.62531 39.418639,37 37.579455,37 36.053478,37 35.247325,34.326905 34.46333,26.667349 33.907,21.232061 31.264096,16.811519 29,17.52934 c -1.042013,0.330365 -0.959296,0.05483 0.270915,-0.902423 4.692817,-3.651588 16.185493,-2.584994 22.714355,2.10804 16.388226,11.780075 11.356847,37.716596 -8.191283,42.225676 -4.855605,1.120021 -6.051375,1.132458 -10.328251,0.107428 z"
         id="path2181" />
      <path
         sodipodi:nodetypes="ssssssssssss"
         style="fill:#8bbee0"
         d="m 32.052337,61.005855 c -5.884799,-1.564123 -6.682641,-2.684903 -3.444601,-3.4976 3.222627,-0.808827 5.951144,-4.476675 6.84457,-11.820223 0.434553,-3.57183 1.254526,-6.022038 2.127393,-6.356989 C 39.418809,38.62531 39.418639,37 37.579455,37 c -1.525977,0 -2.33213,-2.673095 -3.116125,-10.332651 -0.533215,-5.20945 -3.270136,-9.689881 -5.2919,-8.975423 -2.544437,0.899162 -1.07274,-0.779129 1.57857,-1.791972 4.168237,-1.592333 13.755459,-1.228464 17.765132,0.674251 4.685192,2.223269 10.844574,9.34532 12.308851,14.232638 2.482731,8.286618 0.991199,15.712528 -4.42745,22.043 -6.26167,7.315353 -15.436373,10.523627 -24.344196,8.156012 z"
         id="path2179" />
      <path
         sodipodi:nodetypes="ssssscsssss"
         style="fill:#8ab8d7"
         d="m 32.933152,61.386773 c -4.705396,-1.083132 -7.001477,-2.851328 -3.702576,-2.851328 3.142103,0 6.46289,-5.574428 7.306291,-12.912877 0.387013,-3.367412 1.172522,-6.41923 1.745576,-6.781817 0.666594,-0.421773 0.443161,-1.258004 -0.620264,-2.321429 -1.158156,-1.158156 -1.663312,-3.384095 -1.665917,-7.340751 -0.0042,-6.324205 -2.724222,-12.133936 -5.731564,-12.241957 -4.548508,-0.163378 3.78605,-2.07601 8.974144,-2.059406 7.175476,0.02297 11.710665,2.122469 16.611431,7.690033 8.03657,9.130026 8.255667,21.275894 0.54626,30.282602 -5.987824,6.995426 -15.011595,10.48244 -23.463381,8.53693 z"
         id="path2177" />
      <path
         sodipodi:nodetypes="sscsssssssss"
         style="fill:#abaeb3"
         d="m 34.199254,60.99805 c -4.303757,-0.999039 -4.82515,-0.699284 -1.955436,-1.419537 2.689433,-0.675004 5.769286,-8.856904 5.761128,-14.499772 -0.0027,-1.881693 0.732159,-4.235752 1.633066,-5.231243 1.203905,-1.3303 1.35165,-2.155028 0.557485,-3.111938 -0.594289,-0.716075 -1.366493,-3.537016 -1.716008,-6.268758 -0.910077,-7.112986 -4.116128,-13.459178 -6.818695,-13.497211 -1.990899,-0.02802 -2.018856,-0.11298 -0.355576,-1.080591 2.792346,-1.624444 13.217382,-1.209376 17.209914,0.685205 4.685192,2.223269 10.844574,9.34532 12.308851,14.232638 2.482731,8.286618 0.991199,15.712528 -4.42745,22.043 -5.797807,6.773434 -14.445169,9.947719 -22.197279,8.148207 z"
         id="path2175" />
      <path
         sodipodi:nodetypes="sscsssssssss"
         style="fill:#8ab1cd"
         d="m 31.106302,60.798419 c -1.006336,-0.637783 -0.74436,-1.003187 1.040389,-1.45113 2.739286,-0.687517 5.866495,-8.568868 5.858255,-14.268548 -0.0027,-1.881693 0.732159,-4.235752 1.633066,-5.231243 1.203905,-1.3303 1.35165,-2.155028 0.557485,-3.111938 C 39.601208,36.019485 38.829004,33.198544 38.479489,30.466802 37.567691,23.340368 34.11485,16.969194 31.660794,16.984687 29.304045,16.999566 29.777055,16.240337 31,15.450009 33.335705,13.940561 43.659075,14.830754 47.782119,16.553048 56.374714,20.14238 61.426024,28.082571 61.426024,38 c 0,9.917429 -5.05131,17.85762 -13.643905,21.446952 -3.974654,1.660308 -14.450283,2.761938 -16.675817,1.351467 z"
         id="path2173" />
      <path
         sodipodi:nodetypes="ssssssssssss"
         style="fill:#85aac6"
         d="m 33.805293,60.178384 c 1.375,-0.760949 2.573089,-2.282518 2.424445,-2.607842 -0.148644,-0.325323 0.411105,-1.909116 1.243887,-3.519538 0.832782,-1.610423 1.48902,-3.968208 1.458306,-5.239523 -0.03071,-1.271314 0.636971,-4.733241 1.483743,-7.693169 0.846772,-2.959928 1.29914,-5.770736 1.005262,-6.24624 C 41.127058,34.396567 40.732612,33.218327 40.544388,32.253759 38.4823,21.686417 36.367647,17.068531 32.982143,15.739662 32.166964,15.41969 34.326953,15.122368 37.782119,15.078947 52.025516,14.899951 61.426024,24.013062 61.426024,38 c 0,13.961231 -9.547375,23.677976 -23.838612,23.597364 -5.895274,-0.03325 -6.128172,-0.120633 -3.782119,-1.41898 z"
         id="path2171" />
      <path
         style="fill:#7fa7c4"
         d="M 34.57746,60.032665 C 36.766067,59.147131 40.299801,51.370613 39.915271,48.286004 39.792816,47.303702 39.974784,45.825 40.319645,45 42.005328,40.967387 42.833002,34.503706 41.819991,33.283103 41.234307,32.577396 40.987821,32 41.272244,32 c 0.284424,0 0.101551,-1.6875 -0.406383,-3.75 -0.507934,-2.0625 -1.104082,-4.508296 -1.324773,-5.435103 -0.773127,-3.246798 -2.69111,-5.935478 -4.85646,-6.807917 -1.647765,-0.6639 -0.763696,-0.895784 3.597491,-0.943594 13.7331,-0.150548 23.143905,9.175967 23.143905,22.936614 0,13.760647 -9.410805,23.087162 -23.143905,22.936614 -4.150736,-0.0455 -5.195979,-0.300545 -3.704659,-0.903949 z"
         id="path2169" />
      <path
         sodipodi:nodetypes="sssssss"
         style="fill:#84a3ba"
         d="M 34.800189,59.950272 C 38.030686,58.654028 40.834811,51.652878 41.824988,42.411225 43.118848,30.335194 39.807355,18.069546 34.69764,16.011793 33.030838,15.340549 33.867645,14.211773 38.253097,14.163697 51.986197,14.013149 61.426024,24.239353 61.426024,38 c 0,13.760647 -10.09228,24.158052 -23.82538,24.007504 -4.567815,-0.05007 -4.617581,-1.328107 -2.800455,-2.057232 z"
         id="path2167" />
      <path
         style="fill:#7ea1bb"
         d="M 37.991604,57.016458 C 40.123463,52.837668 43.208449,40.071862 42.127892,39.90032 41.782551,39.845496 42.625,39.440352 44,39 c 2.48025,-0.794315 2.481661,-0.801427 0.178571,-0.90032 -2.08302,-0.08944 -2.164408,-0.2567 -0.792489,-1.628619 C 45.022605,34.834538 44.622095,32.578295 42.193013,29.75 41.366369,28.7875 40.925692,28 41.21373,28 c 0.288038,0 -0.02146,-2.3625 -0.687763,-5.25 -0.666308,-2.8875 -1.019731,-5.8125 -0.785385,-6.5 0.963123,-2.825505 9.695964,-0.102333 14.601001,4.553048 4.898419,4.649099 7.084441,9.955506 7.084441,17.196952 0,12.945541 -9.361239,23 -21.414229,23 h -4.052443 z"
         id="path2165" />
      <path
         sodipodi:nodetypes="sssssssssscs"
         style="fill:#7c9cb4"
         d="M 37.965232,58.25 C 39.572441,55.261648 43,45.713556 43,41.919825 c 0,-1.090427 0.686486,-2.246024 1.525523,-2.567993 1.189638,-0.456507 1.268351,-0.895272 0.3575,-1.992781 -0.642414,-0.774061 -0.937963,-1.637444 -0.656777,-1.91863 0.281186,-0.281187 -0.492431,-3.982812 -1.71915,-8.225835 C 39.653053,17.34291 39.742609,17.71691 39.881579,16.25 c 0.282434,-2.981252 9.619202,-0.04137 14.460004,4.553048 4.898419,4.649099 7.084441,9.955506 7.084441,17.196952 0,12.950216 -12.267303,24.244326 -21.423843,24.022213 l -4.013379,-0.09735 z"
         id="path2163" />
      <path
         style="fill:#8498a9"
         d="M 37.774861,60.329432 C 38.972972,59.847624 41.780788,54.321684 42.515292,51 c 0.182427,-0.825 0.399555,-1.5 0.482507,-1.5 0.160396,0 0.719971,-2.701133 1.242978,-6 0.174396,-1.1 0.623094,-2.489643 0.997107,-3.088095 C 45.91732,39.324752 44.427207,26.835853 43.279698,24 42.945867,23.175 42.633868,22.185 42.586367,21.8 42.538865,21.415 41.9375,20.5375 41.25,19.85 40.5625,19.1625 40,17.79 40,16.8 c 0,-2.252265 2.77104,-2.340199 7.782119,-0.246952 15.05598,6.289243 18.607018,27.209546 6.559464,38.643904 -3.719456,3.530144 -9.349696,5.822412 -14.059464,5.724101 -2.080166,-0.04342 -3.208431,-0.309651 -2.507258,-0.591621 z"
         id="path2161" />
      <path
         sodipodi:nodetypes="ssssssssssssssssssssss"
         style="fill:#7a94a8"
         d="M 37.965359,61.2323 C 39.270925,60.877132 41.053936,56.346382 42.454133,51 42.670198,50.175 42.915838,49.5 43,49.5 c 0.235971,0 0.953997,-3.734816 1.213666,-6.312888 0.128128,-1.272089 0.813018,-2.794294 1.521978,-3.382679 0.779833,-0.647204 0.942477,-1.511152 0.411739,-2.187112 -1.470268,-1.872564 -2.074971,-9.464772 -0.7956,-9.988968 C 46.148313,27.301991 46.117138,27.133714 45.25,27.078947 43.062786,26.940808 43.90764,25 46.154988,25 48.246633,25 48.256774,24.94121 46.5,23 c -0.995486,-1.1 -2.447374,-2 -3.226416,-2 -1.141446,0 -1.103693,-0.312748 0.194456,-1.610897 1.481196,-1.481197 1.466819,-1.72018 -0.178571,-2.968197 -2.463746,-1.868733 -0.133198,-1.800185 4.49265,0.132142 14.969489,6.253113 18.537809,27.275232 6.559464,38.643904 -3.742343,3.551865 -9.424714,6.706875 -14.108141,6.56323 -2.080166,-0.0638 -3.100803,-0.301348 -2.268083,-0.527882 z M 50,37.081787 C 50,32.727633 49.213975,30 47.959232,30 c -0.454735,0 -0.561328,1.2375 -0.236873,2.75 0.324455,1.5125 0.613226,3.9875 0.641713,5.5 C 48.445471,42.571729 50,41.461643 50,37.081787 Z"
         id="path2159" />
      <path
         sodipodi:nodetypes="sssssssssssssss"
         style="fill:#858b94"
         d="m 41.843246,59.872473 c 0,-2.631703 6.074452,-14.163722 6.021276,-20.338833 -0.02507,-2.910876 0.287811,-4.366465 0.770641,-3.585229 0.447062,0.723361 0.653795,2.141056 0.459407,3.150432 -0.194388,1.009377 0.07073,1.83523 0.58915,1.83523 1.338681,0 1.17052,-7.705577 -0.225069,-10.313259 -0.642208,-1.199977 -1.229786,-3.082894 -1.305728,-4.184259 -0.07594,-1.101365 -0.912054,-3.464982 -1.858029,-5.252482 -0.945974,-1.7875 -1.397388,-3.25 -1.003143,-3.25 0.394246,0 -0.156698,-0.660688 -1.224319,-1.468197 -2.582714,-1.953466 -0.360286,-1.94259 4.340989,0.02125 8.58142,3.584664 13.578308,11.477255 13.578308,21.446952 0,9.969697 -4.996888,17.862288 -13.578308,21.446952 -4.322202,1.805487 -6.565175,3.867858 -6.565175,0.491448 z"
         id="path2157" />
      <path
         sodipodi:nodetypes="sssssssssssssssss"
         style="fill:#778795"
         d="m 41.794569,60.748656 c 2.273653,-1.32528 6.123129,-15.039905 6.069953,-21.215016 -0.02507,-2.910876 0.287811,-4.366465 0.770641,-3.585229 0.447062,0.723361 0.653795,2.141056 0.459407,3.150432 -0.528529,2.744431 1.398121,2.215761 2.098784,-0.575904 0.362202,-1.443127 -0.196187,-4.222703 -1.390848,-6.923433 -2.059071,-4.654871 -1.86494,-6.481923 0.481787,-4.534312 2.412354,2.002076 1.437921,-0.762482 -1.197764,-3.398166 -1.799005,-1.799005 -2.163588,-2.691574 -1.25,-3.060233 1.012552,-0.408594 0.977629,-0.737579 -0.162481,-1.530608 -0.79874,-0.555581 -1.92374,-0.742694 -2.5,-0.415806 -0.57626,0.326889 -0.717241,0.229191 -0.31329,-0.217106 0.403952,-0.446296 -0.04605,-1.441743 -1,-2.212104 -1.572289,-1.269698 -1.500712,-1.336581 0.765544,-0.715346 7.643733,2.095328 12.968192,6.440766 15.537987,12.680978 5.172358,12.559998 -0.636918,27.459245 -12.476563,31.636515 -5.157703,1.819744 -8.68664,2.54362 -5.893157,0.915338 z"
         id="path2155" />
      <path
         sodipodi:nodetypes="ssssssssssss"
         style="fill:#727a86"
         d="M 43.473861,60.757185 C 45.490161,59.776581 48,52.895568 48,48.956732 c 0,-1.315292 0.423193,-1.813218 1.156098,-1.360258 0.825131,0.509959 0.977648,-0.177744 0.532755,-2.40221 -0.342839,-1.714194 -0.198103,-3.37953 0.321636,-3.700747 1.448969,-0.895512 0.919796,-14.686994 -0.650979,-16.966023 -0.74773,-1.084879 -1.367286,-2.659879 -1.376791,-3.5 -0.0095,-0.840122 -1.472004,-2.58003 -3.25,-3.866463 C 41.8641,15.085499 41.781574,14.903437 44,15.544561 c 7.79018,2.251361 12.97547,6.49563 15.537987,12.718169 5.172358,12.559998 -0.636918,27.459245 -12.476563,31.636515 -4.856911,1.713618 -6.688539,2.366063 -3.587563,0.85794 z"
         id="path2153" />
      <path
         sodipodi:nodetypes="ssssssssscs"
         style="fill:#696c74"
         d="m 48.110028,56.544296 c 1.32299,-2.11805 2.520114,-3.610223 2.234678,-3.610223 -0.285435,0 0.239989,-3.0375 1.167609,-6.75 2.096882,-8.39209 1.98199,-18.172665 -0.250923,-21.360594 -0.899299,-1.28393 -1.63509,-3.103966 -1.63509,-4.044525 0,-0.940558 -0.9,-1.995755 -2,-2.344881 -2.78727,-0.884645 -2.544493,-2.796063 0.25,-1.968291 7.672564,2.272731 14.083333,12.045152 14.083333,21.468291 0,9.496123 -6.454482,19.625677 -14.266973,21.949217 L 45.3077,61.030702 Z"
         id="path2151" />
      <path
         sodipodi:nodetypes="ssssssssss"
         style="fill:#63646b"
         d="m 49.41238,56.184073 c 1.693945,-2.423363 2.557234,-4.70056 3.885789,-10.25 0.197507,-0.825 0.401171,-4.897643 0.452585,-9.050317 0.072,-5.815609 -0.374775,-8.42398 -1.944601,-11.352935 -1.120945,-2.09144 -1.799235,-4.425043 -1.507311,-5.185785 0.330118,-0.860273 -0.50519,-1.777038 -2.209573,-2.425043 -1.507189,-0.573032 -2.479541,-1.30268 -2.160782,-1.621439 1.195796,-1.195795 9.214268,4.286417 11.899289,8.135519 7.188469,10.305002 3.904681,27.773904 -6.203507,33.001051 -4.054731,2.096783 -4.411137,1.895199 -2.211889,-1.251051 z"
         id="path2149" />
      <path
         sodipodi:nodetypes="sssssssss"
         style="fill:#5a5c63"
         d="m 48.126302,58.16876 c 3.414203,-2.508371 6.394539,-11.699415 6.464378,-19.935466 0.07477,-8.81784 -3.562669,-20.299221 -6.431041,-20.299221 -0.778417,0 -1.707695,-0.473101 -2.065064,-1.051335 -1.031481,-1.668971 6.76595,1.922748 9.259235,4.265068 1.240141,1.165052 3.215733,4.103294 4.390203,6.529426 1.775171,3.667014 2.055353,5.658455 1.660889,11.805045 -0.540146,8.416624 -3.475426,14.076748 -9.068622,17.487095 -3.064299,1.8684 -6.422997,2.825265 -4.209978,1.199388 z"
         id="path2147" />
      <path
         sodipodi:nodetypes="ssssssscs"
         style="fill:#4b4c51"
         d="m 50.459402,56.315841 c 1.148299,-1.584972 2.229505,-4.006768 2.402679,-5.381768 0.173174,-1.375 0.697122,-3.110388 1.164328,-3.856417 2.353974,-3.758798 -0.55395,-26.353655 -3.644173,-28.315586 -0.968256,-0.614729 -0.93443,-0.800879 0.147676,-0.812684 2.225665,-0.02428 8.994774,7.959285 10.089299,11.899436 3.066712,11.039781 -0.732432,22.567404 -9.052271,27.467019 l -3.195354,1.881768 z"
         id="path2145" />
      <path
         sodipodi:nodetypes="sssssssss"
         style="fill:#3e4045"
         d="m 51.746021,55.729804 c 1.833025,-3.396295 3.717697,-15.568791 3.297225,-21.295731 -0.435065,-5.925716 -2.288155,-13.417497 -3.822115,-15.452276 -2.08691,-2.768259 2.923578,1.212723 5.603662,4.452276 6.154249,7.438951 6.440582,20.314859 0.631426,28.394103 -0.918545,1.277493 -2.150891,2.025558 -2.738545,1.662368 -0.612529,-0.378564 -0.854937,-0.103906 -0.568074,0.643648 0.275215,0.717197 -0.431786,1.886148 -1.571112,2.597669 -1.958414,1.223049 -2.00386,1.168344 -0.832467,-1.002057 z"
         id="path2143" />
      <path
         style="fill:#3b3c42"
         d="M 51.217979,56.022568 C 51.912692,54.910155 52.822848,54 53.240547,54 54.68431,54 53.992581,55.52354 51.977432,56.782021 50.101436,57.9536 50.0464,57.898564 51.217979,56.022568 Z M 53.872377,53.75 C 53.331738,52.690946 53.239051,48.21373 53.73264,47 c 0.335503,-0.825 0.680473,-2.625 0.766599,-4 0.08613,-1.375 0.68403,-2.3875 1.328677,-2.25 1.570955,0.335077 1.504481,-1.448459 -0.07792,-2.090536 -0.940676,-0.38169 -0.878811,-0.769712 0.25,-1.56802 1.166391,-0.824886 1.198198,-1.064224 0.143011,-1.076131 C 55.350046,36.006365 55.025269,35.376534 55.361626,34.5 55.678209,33.675 55.469149,33 54.89705,33 c -0.5721,0 -0.909361,-1.0125 -0.74947,-2.25 0.159892,-1.2375 -0.07164,-2.832212 -0.514524,-3.543805 -0.908982,-1.460497 1.116518,-4.479 2.451779,-3.653764 0.472021,0.291725 1.771033,2.593973 2.886693,5.116107 3.188325,7.207739 2.402601,16.312408 -1.991909,23.081462 -1.25721,1.936535 -2.674081,2.848515 -3.107242,2 z m -2.197114,-32.699131 -1.481707,-2.970152 2.403222,1.574651 c 2.537922,1.662911 3.003464,2.855628 1.481707,3.796126 -0.506833,0.31324 -1.588283,-0.767041 -2.403222,-2.400625 z"
         id="path2141" />
      <path
         sodipodi:nodetypes="sssssssssssssssssssssssssscssssss"
         style="fill:#34353a"
         d="m 51.844281,55.956641 c 0.694713,-1.112413 1.604869,-2.022568 2.022568,-2.022568 1.443763,0 0.752034,1.52354 -1.263115,2.782021 -1.875996,1.171579 -1.931032,1.116543 -0.759453,-0.759453 z m 2.500613,-2.772568 c -0.370716,-0.696062 -0.132336,-6.120785 0.318588,-7.25 0.109814,-0.275 0.146373,-0.8375 0.08124,-1.25 -0.06513,-0.4125 0.28945,-0.75 0.787959,-0.75 0.49851,0 0.645473,-1.0125 0.326586,-2.25 -0.536596,-2.082356 -0.440809,-2.138237 1.285578,-0.75 1.079376,0.867958 1.548941,0.973298 1.114397,0.25 -0.477253,-0.794391 -0.161221,-1.25 0.86706,-1.25 0.889919,0 1.357014,-0.42234 1.037989,-0.938533 -0.319025,-0.516193 -1.470583,-0.767031 -2.559017,-0.557417 -1.088435,0.209613 -1.978972,-0.04305 -1.978972,-0.561468 0,-0.51842 0.397516,-0.942582 0.883369,-0.942582 0.485852,0 1.114701,-0.884616 1.39744,-1.965813 0.28274,-1.081198 0.222724,-1.927908 -0.133369,-1.881579 -2.174162,0.282867 -3.14744,-0.401031 -3.14744,-2.211625 0,-1.132459 0.418906,-1.800119 0.930902,-1.483688 0.511996,0.316431 1.256524,0.04846 1.654508,-0.595492 0.423821,-0.685756 0.292243,-0.904222 -0.317595,-0.527322 -0.572661,0.353924 -1.59729,-0.02655 -2.276953,-0.845491 -0.981418,-1.182537 -0.979537,-1.797709 0.0091,-2.98899 0.705641,-0.850245 0.808499,-1.5 0.237455,-1.5 -0.554089,0 -1.80385,-1.237499 -2.777247,-2.75 l -1.769811,-2.75 2.388456,2 c 7.706193,6.452866 10.916189,17.340813 7.719082,26.182257 -0.956601,2.645431 -1.62026,3.211736 -3.25,2.773248 -1.817301,-0.488951 -1.852736,-0.428466 -0.314651,0.537081 1.441718,0.905052 1.527416,1.417731 0.509453,3.047749 -1.280313,2.050108 -2.348888,2.47754 -3.024145,1.209665 z"
         id="path2139" />
      <path
         sodipodi:nodetypes="sssssssssssssssscssscssssssssssssscssssss"
         style="fill:#23242a"
         d="m 51.749304,56.184073 c 0.746951,-1.2375 1.74799,-2.25 2.224534,-2.25 0.476543,0 0.616214,-0.652083 0.31038,-1.449072 -0.397518,-1.035916 -0.07162,-1.267651 1.143012,-0.81277 1.359482,0.509127 1.47648,0.349047 0.585379,-0.800927 -2.681259,-3.46019 -0.114206,-6.153102 2.873816,-3.014714 1.008054,1.058783 0.772446,1.17809 -1.260123,0.638099 -2.25233,-0.598375 -2.330297,-0.526968 -0.787003,0.72079 1.575442,1.273751 1.385327,1.699486 -2.367545,5.301779 -2.34882,2.254577 -3.504187,2.961948 -2.72245,1.666815 z m 5.876998,-10.567321 c -0.825,-0.650473 -1.579677,-2.073244 -1.677061,-3.161712 -0.158369,-1.770105 0.03621,-1.717319 1.843087,0.5 1.397421,1.714852 1.840855,1.923571 1.438515,0.677095 -0.319898,-0.991066 -0.168959,-1.546892 0.335419,-1.235169 0.504378,0.311723 1.113511,-0.227405 1.353629,-1.198062 0.240119,-0.970657 0.263854,-0.428894 0.05275,1.203919 -0.488313,3.776798 -1.454957,4.705195 -3.346339,3.213929 z m 0.07487,-9.182679 c -0.08161,-2.320574 -0.32504,-2.660287 -1.074875,-1.5 -0.533156,0.825 -0.976265,1.023508 -0.984687,0.44113 -0.0084,-0.582379 0.660791,-1.932379 1.487141,-3 1.479623,-1.911634 1.492582,-1.910739 0.852821,0.05887 -0.516247,1.589352 -0.386825,1.757146 0.630329,0.817217 0.703979,-0.65053 0.989884,-1.938711 0.635345,-2.862624 -0.545976,-1.422793 -0.910589,-1.478713 -2.382782,-0.365445 -1.477089,1.116969 -1.550413,1.103845 -0.488167,-0.08738 1.773336,-1.98865 1.547929,-3.041685 -0.5,-2.335855 -1.441883,0.496954 -1.397866,0.306245 0.25,-1.083163 1.963379,-1.655435 1.954368,-1.673567 -0.492158,-0.990287 -2.220915,0.62027 -2.344631,0.518265 -1.136693,-0.937211 1.703901,-2.053076 2.795071,-1.389866 4.524914,2.75023 2.0269,4.851055 2.964718,8.427948 1.746008,6.659381 -0.774011,-1.123229 -1.203315,-0.688561 -1.975318,2 l -0.986376,3.435133 z m 1.925125,0.5 c 0,-0.55 0.45,-1 1,-1 0.55,0 1,0.45 1,1 0,0.55 -0.45,1 -1,1 -0.55,0 -1,-0.45 -1,-1 z"
         id="path2137" />
      <path
         sodipodi:nodetypes="ssss"
         style="fill:#1b1c22"
         d="m 57.626302,36.99309 c 0,-1.067541 0.384994,-2.178923 0.855543,-2.469738 0.470549,-0.290815 0.643089,0.582628 0.383423,1.940983 -0.564016,2.95046 -1.238966,3.238509 -1.238966,0.528755 z"
         id="path2135" />
    </g>
  </g>
</svg>
