<?xml version="1.0" encoding="UTF-8" standalone="no"?>
<svg
   xmlns:dc="http://purl.org/dc/elements/1.1/"
   xmlns:cc="http://creativecommons.org/ns#"
   xmlns:rdf="http://www.w3.org/1999/02/22-rdf-syntax-ns#"
   xmlns:svg="http://www.w3.org/2000/svg"
   xmlns="http://www.w3.org/2000/svg"
   xmlns:sodipodi="http://sodipodi.sourceforge.net/DTD/sodipodi-0.dtd"
   xmlns:inkscape="http://www.inkscape.org/namespaces/inkscape"
   inkscape:version="1.0 (4035a4f, 2020-05-01)"
   sodipodi:docname="ven.svg"
   viewBox="0 0 76 76"
   height="76"
   width="76"
   id="svg2225"
   version="1.1">
  <metadata
     id="metadata2231">
    <rdf:RDF>
      <cc:Work
         rdf:about="">
        <dc:format>image/svg+xml</dc:format>
        <dc:type
           rdf:resource="http://purl.org/dc/dcmitype/StillImage" />
        <dc:title />
      </cc:Work>
    </rdf:RDF>
  </metadata>
  <defs
     id="defs2229" />
  <sodipodi:namedview
     inkscape:current-layer="g2233"
     inkscape:window-maximized="1"
     inkscape:window-y="23"
     inkscape:window-x="0"
     inkscape:cy="37.745276"
     inkscape:cx="40.097036"
     inkscape:zoom="11.931766"
     showgrid="false"
     id="namedview2227"
     inkscape:window-height="803"
     inkscape:window-width="1440"
     inkscape:pageshadow="2"
     inkscape:pageopacity="0"
     guidetolerance="10"
     gridtolerance="10"
     objecttolerance="10"
     borderopacity="1"
     bordercolor="#666666"
     pagecolor="#ffffff"
     inkscape:document-rotation="0" />
  <g
     id="g2233"
     inkscape:label="Image"
     inkscape:groupmode="layer">
    <g
       id="g2798">
      <path
         sodipodi:nodetypes="ssssssss"
         id="path2878"
         d="M 30.543649,54.443964 C 22.975129,50.518171 20.218128,46.93383 19.302295,38.423399 c -0.45897,-4.265007 -0.147865,-5.703833 1.945991,-9 3.158959,-4.972861 5.395358,-6.958731 10.006194,-8.885261 5.154369,-2.153633 9.412522,-1.90644 15.431151,0.895804 7.254533,3.377674 10.781036,8.825701 10.781036,16.655416 0,4.808062 -0.504146,6.501727 -2.983334,10.022445 -5.6812,8.067925 -15.83698,10.535034 -23.939684,6.332161 z"
         style="fill:#eae6e5" />
      <path
         id="path2876"
         d="m 30.715714,54.564258 c -5.189296,-2.63286 -9.160233,-5.738916 -9.212899,-8.377289 -0.0183,-0.916666 -0.468589,-1.949298 -1.072684,-2.150663 C 19.826036,43.834941 19.572963,41.390958 19.29145,38.89338 18.196211,29.176445 27.76143,19.011154 38,19.011154 c 6.137713,0 14.573163,5.328968 17.551083,11.08763 C 56.347987,31.639827 57,35.307951 57,38.250172 c 0,7.217105 -3.63962,12.456534 -10.44076,15.845685 -6.214044,3.096589 -9.78893,3.540281 -15.843526,0.468403 z"
         style="fill:#f4ecd4"
         sodipodi:nodetypes="ssssssssss" />
      <path
         sodipodi:nodetypes="ssssssssssss"
         id="path2874"
         d="m 30.601639,54.506505 c -2.694099,-1.366818 -5.619099,-3.500359 -6.5,-4.741201 -2.014209,-2.837226 -3.181104,-8.909397 -1.993225,-10.372144 0.494367,-0.608761 0.608706,-2.557559 0.254086,-4.33066 -0.453387,-2.266937 -0.895146,-2.828859 -1.488319,-1.89316 -0.58572,0.923939 -0.848236,0.963916 -0.858868,0.130792 -0.02717,-2.128574 5.724637,-9.74987 8.647657,-11.458384 6.91105,-4.039527 15.698731,-3.097102 21.901243,2.348775 C 55.392396,28.429724 57,31.941703 57,38.250172 57,45.467277 53.36038,50.401161 46.55924,53.790312 40.318829,56.90004 36.770755,57.636331 30.601639,54.5065 Z"
         style="fill:#f1e8c7" />
      <path
         sodipodi:nodetypes="sssssssss"
         id="path2872"
         d="M 30.715714,54.564258 C 22.865008,50.581096 21.984911,48.910592 22.647478,39.25 23.035951,33.585856 22.869414,31 22.116154,31 20.497952,31 26.089396,23.434271 29,21.685536 35.476795,17.794177 44.46886,18.838732 50.564213,24.190523 55.392396,28.429724 57,31.941703 57,38.250172 c 0,7.217105 -3.63962,12.369236 -10.44076,15.758387 -6.214044,3.096589 -9.78893,3.627579 -15.843526,0.555701 z"
         style="fill:#eee2bb" />
      <path
         sodipodi:nodetypes="ssssssssss"
         id="path2870"
         d="M 30.715714,54.564258 C 28.084357,53.229203 25.079495,51.093587 24.038241,49.818443 21.810079,47.089781 21.669814,40.340682 23.824087,39.51401 24.832918,39.126885 24.930681,38.621402 24.173236,37.708737 22.737504,35.978785 22.977152,30.078284 24.614737,26.838296 29.059492,18.044281 42.053918,16.718386 50.564213,24.190523 55.392396,28.429724 57,31.941703 57,38.250172 57,45.467277 53.506224,51.439958 46.471941,54.314104 40.388845,56.799602 36.77031,57.636138 30.715714,54.56426 Z"
         style="fill:#e3d7cf" />
      <path
         id="path2868"
         d="m 30.489056,54.49189 c -2.75602,-1.373166 -5.653007,-3.508091 -6.437749,-4.744278 -2.023189,-3.187083 -2.22722,-9.46613 -0.331234,-10.193688 1.090105,-0.418313 1.21507,-0.927146 0.453163,-1.845187 -1.406131,-1.694285 -1.20793,-7.606129 0.359102,-10.711098 1.936513,-3.837072 4.533016,-5.738202 9.563805,-7.00251 5.936037,-1.49181 11.648079,-0.03661 16.46807,4.195394 C 55.392396,28.429724 57,31.941703 57,38.250172 57,51.849488 42.730938,60.591314 30.489056,54.49189 Z"
         style="fill:#e9d9b4" />
      <path
         id="path2866"
         d="m 30.530938,54.486714 c -5.590737,-2.833264 -6.785228,-4.362778 -7.596971,-9.727715 -0.459644,-3.037861 -0.2247,-3.849336 1.25,-4.317388 2.15328,-0.683425 2.405133,-3.001574 0.40931,-3.767444 -2.652167,-1.017732 -0.54053,-10.631335 3.04196,-13.849065 3.100641,-2.784941 10.409473,-4.159423 15.224036,-2.862996 4.678657,1.259832 10.509717,5.916975 12.69181,10.136678 2.43188,4.702736 1.869693,12.851946 -1.214779,17.608909 -5.365169,8.274321 -15.282194,11.098378 -23.805366,6.779021 z"
         style="fill:#d3c9c7" />
      <path
         id="path2864"
         d="m 29.998953,54.059635 c -4.871485,-2.576903 -6.702618,-4.949191 -7.183243,-9.30611 -0.325776,-2.953192 -0.03241,-3.86736 1.385502,-4.317387 2.139073,-0.678916 2.380847,-2.998803 0.392065,-3.761971 -0.917983,-0.352263 -1.295033,-1.692303 -1.085249,-3.856988 0.854724,-8.819601 5.369599,-12.807248 14.507574,-12.813441 12.533778,-0.0085 20.878225,10.087758 18.558247,22.454303 -0.757154,4.035981 -5.458599,9.913881 -9.672633,12.093042 -3.905741,2.019737 -12.634818,1.765932 -16.902263,-0.491448 z"
         style="fill:#e6d3a8" />
      <path
         id="path2862"
         d="M 30.5,54.338367 C 25.005316,51.441646 23,48.926794 23,44.932675 c 0,-3.661821 2.321624,-6.170237 3.356445,-3.626498 0.267113,0.656603 0.521187,-0.316822 0.564608,-2.163166 0.06094,-2.591226 -0.263218,-3.225688 -1.421053,-2.781385 -1.915398,0.735008 -1.915398,-0.08909 0,-2.004483 1.837805,-1.837805 1.962825,-3.471976 0.214286,-2.800999 -0.77692,0.298133 -1.285715,-0.278827 -1.285715,-1.457965 0,-1.073238 0.316955,-1.755453 0.704343,-1.516034 0.387388,0.239419 1.003432,-0.926441 1.368987,-2.590801 C 27.367277,22.051314 31.377926,20 38.215942,20 50.545297,20 58.875268,30.190423 56.573849,42.458041 55.816695,46.494022 51.11525,52.371922 46.901216,54.551083 43.227537,56.450816 34.28708,56.334862 30.5,54.338367 Z"
         style="fill:#e3cca3" />
      <path
         id="path2860"
         d="m 30.5,54.338367 c -5.769887,-3.041804 -7.54326,-5.379736 -7.2606,-9.572036 0.210657,-3.124389 0.595981,-3.777777 2.0106,-3.409348 0.9625,0.250678 1.771161,0.160407 1.797025,-0.200603 C 27.497533,34.868145 27.378949,30 26.775264,30 c -0.419493,0 -0.573978,-1.0125 -0.3433,-2.25 0.230679,-1.2375 0.452855,-2.800944 0.493726,-3.47432 C 27.055218,22.141601 32.710274,20 38.215942,20 50.545297,20 58.875268,30.190423 56.573849,42.458041 55.816695,46.494022 51.11525,52.371922 46.901216,54.551083 43.227537,56.450816 34.28708,56.334862 30.5,54.338367 Z"
         style="fill:#dbc2ac" />
      <path
         id="path2858"
         d="m 29.780876,53.947755 c -4.304033,-2.27271 -6.124129,-5.089994 -6.312241,-9.770572 -0.110935,-2.760249 0.176699,-3.241687 1.69891,-2.84362 1.00785,0.263559 1.853616,0.183827 1.87948,-0.177183 C 27.497533,34.868145 27.378949,30 26.775264,30 c -0.628638,0 -0.40252,-3.899634 0.275426,-4.75 0.10962,-0.1375 0.25556,-0.736459 0.32431,-1.33102 0.447557,-3.870544 13.655494,-5.260125 19.615547,-2.063714 10.424037,5.590472 13.280012,19.211243 5.811685,27.717198 -1.704516,1.941336 -4.359973,4.181715 -5.901016,4.978619 -4.001562,2.069289 -12.635156,1.765037 -17.12034,-0.603328 z"
         style="fill:#e1c99a" />
      <path
         id="path2856"
         d="m 29.768138,53.94122 c -4.900762,-2.587557 -7.406106,-7.245616 -5.796791,-10.777679 0.93913,-2.061166 1.344331,-2.277461 2.082047,-1.111388 0.791551,1.251167 0.924449,1.244082 0.978318,-0.05215 0.03429,-0.825 0.190404,-3.975 0.346928,-7 0.156525,-3.025 -0.09085,-6.26019 -0.549729,-7.189312 -0.492614,-0.997433 -0.416969,-1.947248 0.184697,-2.319098 0.560458,-0.346383 0.771962,-1.029528 0.470008,-1.5181 C 26.479893,22.349432 32.825667,20 38.215942,20 50.545297,20 58.875268,30.190423 56.573849,42.458041 55.816695,46.494022 51.11525,52.371922 46.901216,54.551083 42.894183,56.6232 34.266052,56.316076 29.768138,53.94122 Z"
         style="fill:#dec298" />
      <path
         id="path2854"
         d="M 29.780876,53.947755 C 25.463261,51.667873 24,49.388655 24,44.943297 c 0,-2.631155 0.246521,-2.983592 1.410972,-2.017183 2.083579,1.729217 2.453834,0.371345 2.446049,-8.97065 -0.0039,-4.650505 0.02671,-9.170732 0.06797,-10.044949 0.188189,-3.987623 12.906103,-5.358602 19.06556,-2.055249 10.424037,5.590472 13.280012,19.211243 5.811685,27.717198 -1.704516,1.941336 -4.359973,4.181715 -5.901016,4.978619 -4.001562,2.069289 -12.635156,1.765037 -17.12034,-0.603328 z"
         style="fill:#c7b7b4" />
      <path
         id="path2852"
         d="M 30.323934,54.001768 C 25.618894,51.909594 24,49.590673 24,44.943297 c 0,-2.631155 0.246521,-2.983592 1.410972,-2.017183 2.083579,1.729217 2.453834,0.371345 2.446049,-8.97065 -0.0039,-4.650505 0.02671,-9.198943 0.06797,-10.107639 C 28.019519,21.765749 32.959101,20 38.689061,20 c 5.604419,0 11.426248,2.973554 15.003007,7.662927 2.434897,3.192314 2.807932,4.57614 2.807932,10.41641 0,6.005397 -0.327713,7.139921 -3.025054,10.472576 -5.94157,7.341006 -14.413203,9.335268 -23.151012,5.449855 z"
         style="fill:#d9b995" />
      <path
         id="path2850"
         d="M 30.396619,54.032638 C 25.981114,52.067648 24.482764,49.917236 26.278145,48.121855 27.107285,47.292715 26.956435,47 25.7,47 24.633975,47 24,46.208484 24,44.877555 c 0,-1.765734 0.25011,-1.914872 1.488167,-0.887376 1.191107,0.988532 1.572588,0.96307 1.911087,-0.127555 1.158841,-3.733716 1.325226,-5.914871 0.490554,-6.430726 -0.507337,-0.313552 -0.629213,-1.044533 -0.270834,-1.624403 0.358379,-0.579869 0.70322,-3.798088 0.766312,-7.151598 0.102418,-5.443743 0.382681,-6.232835 2.614714,-7.361852 3.787215,-1.915666 11.522168,-1.578464 15.981906,0.696724 2.146227,1.094923 5.165799,3.647394 6.710162,5.672158 2.434897,3.192314 2.807932,4.57614 2.807932,10.41641 0,6.005397 -0.327713,7.139921 -3.025054,10.472576 -5.923541,7.31873 -14.416126,9.33558 -23.078327,5.480725 z"
         style="fill:#d7b58c" />
      <path
         id="path2848"
         d="M 30.396619,54.032638 C 25.981114,52.067648 24.482764,49.917236 26.278145,48.121855 27.107285,47.292715 27.086895,47 26.2,47 25.54,47 25,46.55 25,46 c 0,-0.55 0.675,-1 1.5,-1 0.898551,0 1.5,-0.922222 1.5,-2.3 0,-1.265 0.5625,-2.89625 1.25,-3.625 0.760805,-0.806453 0.858644,-1.471903 0.25,-1.700368 -0.55,-0.206453 -0.982368,-3.633204 -0.960818,-7.615002 0.03609,-6.668726 0.233239,-7.337832 2.5,-8.48489 3.75136,-1.898314 11.50038,-1.550286 15.942724,0.716029 2.146227,1.094923 5.165799,3.647394 6.710162,5.672158 2.434897,3.192314 2.807932,4.57614 2.807932,10.41641 0,6.005397 -0.327713,7.139921 -3.025054,10.472576 -5.923541,7.31873 -14.416126,9.33558 -23.078327,5.480725 z"
         style="fill:#b4a8a7" />
      <path
         sodipodi:nodetypes="ssssssssssssccc"
         id="path2846"
         d="M 30.194455,54.516707 C 25.458908,52.03849 24.430645,50.110097 25.874102,48.370837 26.633537,47.455775 26.92266,47 26.122445,47 25.5051,47 25,46.55 25,46 c 0,-0.55 0.675,-1 1.5,-1 0.898551,0 1.5,-0.922222 1.5,-2.3 0,-1.265 0.5625,-2.89625 1.25,-3.625 0.760805,-0.806453 0.858644,-1.471903 0.25,-1.700368 -1.337795,-0.502166 -1.207731,-14.066901 0.147877,-15.422509 0.586973,-0.586973 3.567482,-1.325274 6.623352,-1.640667 13.080617,-1.350039 23.138857,10.02445 19.806799,22.398769 C 53.096826,53.781566 40.403943,59.859561 30.194455,54.516707 Z M 37.5,38 c -0.339919,0.55 -0.141476,1 0.440983,1 C 39.646962,38.474325 38.767964,36.504834 37.5,38 Z"
         style="fill:#d2a987" />
      <path
         sodipodi:nodetypes="sssssssssssssss"
         id="path2844"
         d="m 30.444455,54.630303 c -2.0625,-1.088831 -3.797835,-2.531443 -3.856299,-3.205804 -0.05847,-0.67436 -0.170965,-2.12611 -0.25,-3.22611 -0.07904,-1.1 1.128668,-3.769532 2.310342,-5.078706 1.753399,-1.942587 2.098044,-3.413752 1.874132,-8 -0.150903,-3.090826 -0.594482,-7.249477 -0.985733,-9.241448 -0.673008,-3.426481 -0.536856,-3.682599 2.525092,-4.75 13.938758,-4.859077 27.785283,7.584089 24.016039,21.58199 -1.457959,5.414449 -4.580245,9.159261 -9.499429,11.393444 -5.25284,2.385721 -11.409965,3.020615 -16.134144,0.526634 z M 39,38 c 0,-0.55 -0.198442,-1 -0.440983,-1 -0.242541,0 -0.719098,0.45 -1.059017,1 -0.339919,0.55 -0.141476,1 0.440983,1 C 38.523442,39 39,38.55 39,38 Z"
         style="fill:#c79883" />
      <path
         id="path2842"
         d="m 30.963485,54.82765 c -1.7875,-0.88961 -3.032026,-2.896361 -3.115799,-3.759077 -0.08377,-0.862715 -0.202013,-2.099312 -0.262754,-2.747994 -0.06074,-0.648681 -0.43421,-1.50319 -0.829929,-1.898909 -0.395718,-0.395719 0.490661,-1.759339 1.969733,-3.030267 1.479072,-1.270929 2.399811,-2.60019 2.046087,-2.953914 -0.353724,-0.353724 -0.233003,-1.721864 0.26827,-3.040312 0.501273,-1.318447 0.585043,-2.396836 0.186156,-2.396418 -0.398887,4.17e-4 -0.665365,-1.912083 -0.592173,-4.25 0.07319,-2.337918 -0.338151,-4.835844 -0.914097,-5.550947 -1.71896,-2.13429 1.580214,-4.426058 7.140817,-4.960362 15.78146,-1.516398 25.771332,16.789426 15.965411,29.255633 -4.578061,5.820062 -15.16504,8.665397 -21.861722,5.332567 z m 6.454728,-15.434639 c 2.503972,-0.960864 1.838491,-2.164739 -0.906558,-1.63999 -1.36859,0.261623 -2.242033,0.87422 -1.940983,1.361328 0.649621,1.051109 0.796993,1.065531 2.847541,0.278662 z"
         style="fill:#c7967b"
         sodipodi:nodetypes="sssssssssssssssss" />
      <path
         id="path2840"
         d="m 31.328967,54.292017 c -3.373569,-1.680994 -4.635444,-4.200002 -3.221712,-6.431319 0.656811,-1.036657 0.895574,-0.884411 1.002599,0.639302 0.07726,1.1 0.589064,-0.025 1.137335,-2.5 1.182948,-5.340052 1.487565,-17.352051 0.540072,-21.296708 -0.568808,-2.368095 -0.287492,-2.942806 1.83559,-3.75 4.064829,-1.545445 9.440443,-1.101065 14.127408,1.167857 13.296959,6.436947 13.192426,25.912854 -0.17166,31.98252 -4.942911,2.244958 -10.972781,2.319433 -15.249632,0.188348 z M 37.418213,39.393011 C 39.927523,38.430098 39.254007,37.228787 36.5,37.755249 35.125,38.018097 34,38.630695 34,39.116577 c 0,1.031822 1.197363,1.128654 3.418213,0.276434 z"
         style="fill:#b08f88" />
      <path
         id="path2838"
         d="m 31.484884,54.56395 c -4.146946,-2.473323 -4.894777,-5.410667 -3.102132,-7.745866 0.79974,-1.041785 0.878385,0.107125 0.988998,1.681916 0.07726,1.1 0.327168,-0.025 0.875439,-2.5 1.049972,-4.739773 0.867539,-16.546473 0.13159,-21.619241 -0.417099,-2.874991 0.318544,-2.918881 4.856632,-3.795633 15.659593,-3.02541 27.306607,14.411407 18.427228,27.587517 -4.703281,6.979198 -15.460097,10.397853 -22.177755,6.391307 z M 38.55887,38.531803 C 40.637685,36.959467 39.870676,36.659982 36.25,37.630286 35.0125,37.961923 34,38.630779 34,39.116631 c 0,1.357148 2.398077,1.049514 4.55887,-0.584828 z M 36.526461,27.193128 c -0.307887,-0.307887 -1.114794,-6.34e-4 -1.793128,0.682784 -0.980267,0.987616 -0.865403,1.10248 0.559795,0.559795 0.986221,-0.375531 1.541221,-0.934692 1.233333,-1.242579 z"
         style="fill:#c18b75"
         sodipodi:nodetypes="ssssssssssssssss" />
      <path
         id="path2836"
         d="m 31.444455,54.478862 c -3.910975,-2.266891 -4.811804,-3.780473 -2.25,-3.780473 1.482232,0 2.187818,-2.156218 1.857187,-6.352878 -0.09336,-1.184968 0.355042,-2.478821 0.996443,-2.875229 0.814958,-0.503672 0.963034,-0.08067 0.491661,1.404489 C 32.139554,44.135663 32.299334,45 32.932612,45 33.519676,45 34,44.298442 34,43.440983 c 0,-0.857459 0.444846,-1.284087 0.988546,-0.948062 0.56686,0.350339 0.734507,-0.05106 0.393011,-0.940983 C 35.054013,40.698372 35.198159,40 35.701882,40 c 0.503722,0 1.789367,-0.705658 2.856988,-1.568129 1.873061,-1.513141 1.853173,-1.549666 -0.567178,-1.041609 -3.820399,0.801942 -4.849895,-0.44949 -5.112982,-6.215223 -0.132529,-2.904489 -0.616796,-5.513167 -1.076148,-5.797063 -0.459352,-0.283895 -0.576288,-0.935078 -0.259857,-1.447074 0.316431,-0.511996 -0.253344,-1.183294 -0.772514,-1.64151 -1.035787,-0.914178 1.292709,-2.112199 5.739572,-2.638865 16.641188,-1.970902 26.875952,19.163758 15.103716,30.935994 -5.473609,5.473609 -13.965125,7.488263 -20.169024,3.892341 z m 5.082006,-27.285734 c -0.307887,-0.307887 -1.114794,-6.34e-4 -1.793128,0.682784 -0.980267,0.987616 -0.865403,1.10248 0.559795,0.559795 0.986221,-0.375531 1.541221,-0.934692 1.233333,-1.242579 z"
         style="fill:#b78576"
         sodipodi:nodetypes="sssssssssssssssssssssss" />
      <path
         id="path2834"
         d="M 33.25,54.779505 C 31.020893,53.704447 30.10399,51 31.968615,51 c 0.532739,0 0.709594,-0.675 0.393011,-1.5 -0.316582,-0.825 -0.132053,-1.5 0.410065,-1.5 0.542118,0 1.56309,-1.4625 2.268827,-3.25 0.705737,-1.7875 2.188773,-4.2625 3.295634,-5.5 L 40.348628,37 h -2.674314 c -1.470873,0 -2.585158,-0.3375 -2.476189,-0.75 0.108969,-0.4125 -0.156591,-1.794749 -0.590133,-3.071664 -0.559907,-1.649101 -0.282714,-2.880283 0.956863,-4.25 C 37.012017,27.329241 37.054812,27 35.815503,27 c -1.485286,0 -4.335267,-4.81357 -3.402341,-5.746496 0.268424,-0.268423 2.438805,-0.707922 4.823069,-0.976663 12.143742,-1.368776 22.0236,10.61707 18.755591,22.753529 C 53.446814,52.481809 41.395462,58.707914 33.25,54.779505 Z"
         style="fill:#978786" />
      <path
         id="path2832"
         d="M 33.25,54.779505 C 31.020893,53.704447 30.10399,51 31.968615,51 c 0.532739,0 0.709594,-0.675 0.393011,-1.5 -0.316582,-0.825 -0.132053,-1.5 0.410065,-1.5 0.542118,0 1.562028,-1.4625 2.266467,-3.25 0.704439,-1.7875 2.413727,-4.482806 3.798418,-5.989569 1.38469,-1.506763 2.212925,-3.044263 1.840522,-3.416667 C 40.304694,34.971361 40,35.191667 40,35.833333 40,36.475 38.875,37 37.5,37 c -1.375,0 -2.410844,-0.3375 -2.301875,-0.75 0.108969,-0.4125 -0.173196,-1.847067 -0.627033,-3.187926 -0.652057,-1.926501 -0.355712,-2.81806 1.412659,-4.25 C 38.08116,27.113696 38.099201,27 36.271299,27 35.151825,27 33.826662,25.914981 33.160515,24.452947 31.605432,21.039912 31.522528,21.1802 35.539929,20.426531 47.818878,18.122987 58.975609,30.268506 55.878616,42.567778 53.410362,52.370107 41.538462,58.77688 33.25,54.779505 Z"
         style="fill:#a77a74" />
      <path
         id="path2830"
         d="M 33.571429,54.428571 C 31.865824,52.722967 31.498228,51 32.83994,51 c 0.8578,0 3.832318,-7.951828 3.431682,-9.173973 -0.121515,-0.370685 1.230159,-0.494255 3.00372,-0.274599 2.090373,0.258892 2.737357,0.09403 1.839311,-0.468694 -0.887711,-0.556244 -1.163662,-1.751329 -0.768209,-3.326942 0.799379,-3.184977 -0.258594,-4.197686 -2.079202,-1.990248 -1.316731,1.5965 -1.3883,1.599314 -0.899805,0.03538 0.371046,-1.187913 0.09476,-1.531784 -0.918365,-1.143012 C 34.59726,35.368524 34.596325,33.297463 36.446858,29.75 37.235852,28.2375 37.466654,27 36.959749,27 36.452844,27 35.763266,25.904958 35.427353,24.566573 35.036984,23.01122 34.308433,22.328149 33.408301,22.673562 32.633735,22.970791 32,22.736224 32,22.152302 c 0,-1.771459 6.802006,-2.467659 11.435272,-1.170425 12.853212,3.598677 17.309147,20.207037 7.936163,29.580021 -5.021087,5.021088 -14.571063,7.095617 -17.800006,3.866673 z"
         style="fill:#a6746b" />
      <path
         id="path2828"
         d="m 33.635199,54.492342 c -1.343544,-1.343544 -1.22313,-1.942239 1.106203,-5.5 C 36.179026,46.796554 37.72533,45 38.177632,45 c 0.452302,0 0.769079,-0.3375 0.703947,-0.75 -0.35133,-2.225092 0.293572,-3.130887 1.868421,-2.624283 1.36206,0.438153 1.442897,0.34415 0.364653,-0.424051 -0.896575,-0.63877 -1.159892,-1.885284 -0.74633,-3.533047 0.35146,-1.400326 0.187366,-2.825184 -0.364653,-3.166351 -0.552018,-0.341166 -1.029069,-0.03124 -1.060112,0.688715 C 38.912515,35.910942 38.320954,34.925 37.628978,33 36.828052,30.77191 36.711358,29.045746 37.307865,28.25 37.909238,27.447762 37.866958,27 37.189832,27 c -0.580281,0 -1.371033,-1.0125 -1.757226,-2.25 -0.386192,-1.2375 -1.180547,-2.556581 -1.765232,-2.931292 -2.17485,-1.393809 4.863249,-2.09185 9.273576,-0.919757 13.327228,3.541859 18.024404,20.069029 8.430485,29.662947 -4.971777,4.971778 -14.568269,7.098411 -17.736236,3.930444 z"
         style="fill:#977775" />
      <path
         id="path2826"
         d="M 33.347936,55.659437 C 30.281754,54.036564 32.430295,52.522265 34.797926,48.906009 36.204462,46.757704 37.72533,45 38.177632,45 c 0.452302,0 0.733212,-0.3375 0.624243,-0.75 -0.380406,-1.440023 1.341341,-5.25 2.372501,-5.25 0.571781,0 0.78611,-0.660589 0.476287,-1.467975 -0.309823,-0.807386 -0.132968,-1.733944 0.393011,-2.059017 0.525979,-0.325073 0.9208,-1.126984 0.877379,-1.782025 -0.05651,-0.852441 -0.222912,-0.833894 -0.585411,0.06525 -0.278554,0.690926 -0.968339,0.970775 -1.532856,0.621884 -0.564516,-0.34889 -1.324096,-0.152652 -1.687954,0.436084 -0.363859,0.588736 -1.140151,-0.458633 -1.725092,-2.327486 -0.834983,-2.667719 -0.776238,-3.508158 0.273365,-3.910929 C 38.398397,28.293626 39,28.498646 39,29.031385 c 0,0.532738 0.5625,0.953644 1.25,0.935346 0.690979,-0.01839 0.301461,-0.825984 -0.870982,-1.80582 -1.16654,-0.974903 -2.434365,-2.759932 -2.817388,-3.966731 -0.383023,-1.206799 -1.453581,-2.201071 -2.379018,-2.209493 -1.451845,-0.01321 -1.683412,-1.159286 -0.277351,-1.789965 7.303412,-3.275893 14.941935,1.96837 19.522734,8.559334 3.848551,5.537387 4.028323,11.898788 0.514313,18.199432 -2.767427,4.962014 -7.256936,7.728048 -13.985682,8.616724 -3.410836,0.450475 -5.028639,0.925516 -6.60869,0.08922 z M 42,42 c 0,-0.55 -0.476558,-1 -1.059017,-1 -0.582459,0 -0.780902,0.45 -0.440983,1 0.339919,0.55 0.816476,1 1.059017,1 C 41.801558,43 42,42.55 42,42 Z"
         style="fill:#9a716c"
         sodipodi:nodetypes="ssssssssssssssssssssssssssss" />
      <path
         id="path2824"
         d="M 35,54.635924 C 35,53.736166 34.517857,53 33.928571,53 c -0.589285,0 -0.364285,-0.707143 0.5,-1.571429 1.465283,-1.465282 1.974574,-2.87532 1.68985,-4.678571 C 36.053289,46.3375 36.642857,46 37.428571,46 39.085656,46 42,43.336206 42,41.821583 42,41.252024 41.347917,41.03625 40.550928,41.342084 39.582406,41.71374 39.28626,41.417594 39.657916,40.449072 39.96375,39.652083 40.663978,39 41.213978,39 c 0.55,0 0.746508,-0.660589 0.436685,-1.467975 -0.309823,-0.807386 -0.132968,-1.733944 0.393011,-2.059017 0.525979,-0.325073 0.949435,-1.126984 0.941013,-1.782025 -0.01178,-0.91603 -0.191017,-0.914592 -0.776393,0.0062 -0.507477,0.798283 -1.252108,0.881587 -2.234687,0.25 C 38.678518,33.114749 38.681715,32.867429 40,31.905668 41.287011,30.966722 41.261895,30.887286 39.823113,31.346227 37.581887,32.06113 35.327955,29.471865 37.474477,28.648168 38.313514,28.326199 39,28.498646 39,29.031385 c 0,0.532738 0.5625,0.953644 1.25,0.935346 0.6875,-0.0183 0.253281,-0.865151 -0.96493,-1.881895 -1.218212,-1.016744 -2.46213,-3.251773 -2.764263,-4.966731 -0.507008,-2.877866 -0.336356,-3.114929 2.214931,-3.076885 4.653374,0.06939 11.511646,4.136497 14.692257,8.712836 3.848551,5.537387 4.028323,11.898788 0.514313,18.199432 -2.791236,5.004704 -7.238344,7.714153 -14.235682,8.673245 C 35.752926,56.168648 35,56.010147 35,54.635924 Z"
         style="fill:#956b67" />
      <path
         id="path2822"
         d="m 35.013655,54.885924 c 0.03412,-3.4628 1.46197,-6.116258 3.761728,-6.990624 1.376096,-0.523191 2.218488,-1.234762 1.871981,-1.581269 -0.346507,-0.346507 -0.172048,-1.181825 0.387685,-1.856263 1.561425,-1.881402 1.906746,-11.372663 0.392633,-10.791643 -0.673959,0.258622 -1.522456,-0.01046 -1.885548,-0.597951 C 39.179041,32.480678 39.318706,32 39.852499,32 41.290167,32 40.573359,28.89442 38.839614,27.611666 38.013236,27.00025 37.04751,25.0375 36.693555,23.25 36.092534,20.2148 36.230101,20.002724 38.775,20.04122 c 4.618199,0.06986 11.482969,4.151726 14.652995,8.712836 3.848551,5.537387 4.028323,11.898788 0.514313,18.199432 -2.791236,5.004704 -7.238344,7.714153 -14.235682,8.673245 -3.658172,0.501408 -4.703584,0.336385 -4.692971,-0.740809 z m 3.065292,-25.469257 c 0.04798,-1.164943 0.284941,-1.4019 0.604167,-0.604167 0.288871,0.721875 0.253344,1.584375 -0.07895,1.916667 -0.332292,0.332291 -0.568641,-0.258334 -0.52522,-1.3125 z"
         style="fill:#876866" />
      <path
         id="path2820"
         d="M 35.980581,56.483583 C 33.387409,56.130106 34.84646,53 36.059017,53 c 0.582459,0 0.721078,0.5625 0.308042,1.25 -0.484424,0.806324 -0.13363,0.74892 0.988317,-0.161729 1.36785,-1.11024 1.462234,-1.587479 0.441958,-2.234687 C 37.0838,51.400957 36.95,51.016844 37.5,51 38.05,50.983156 37.825,50.483816 37,49.890355 35.713954,48.965243 35.738061,48.887199 37.169011,49.343205 39.150303,49.974589 43,46.919672 43,44.716038 c 0,-0.852154 0.514529,-1.720881 1.143398,-1.930504 0.822157,-0.274052 0.848262,-0.9326 0.09292,-2.343977 -0.577765,-1.079564 -0.814835,-3.195554 -0.526821,-4.7022 C 43.997507,34.23271 43.821094,33 43.317466,33 42.813837,33 41.83225,31.425 41.13616,29.5 40.440071,27.575 39.449672,26 38.935272,26 38.420872,26 38,24.9125 38,23.583333 c 0,-1.329166 -1.117033,-3.105751 -1.804533,-3.383163 -0.6875,-0.277413 0.706799,-1.090049 2.081799,-1.128097 2.998205,-0.08296 12.18093,4.737271 13.094916,5.832758 0,0 1.916305,1.369051 3.354583,3.577886 4.417343,6.783929 5.113521,18.280877 -6.647963,25.373078 -4.168166,2.513413 -10.719533,2.815717 -12.098221,2.627788 z"
         style="fill:#85615d"
         sodipodi:nodetypes="ssssssssssssssssssssss" />
      <path
         id="path2818"
         d="M 39.507225,53.022764 C 39.101117,51.743232 39.606641,50.26522 40.939837,48.834202 42.072927,47.617973 43,45.84523 43,44.894772 c 0,-0.950458 0.514529,-1.899615 1.143398,-2.109238 0.822157,-0.274052 0.848262,-0.9326 0.09292,-2.343977 -0.577765,-1.079564 -0.814835,-3.195554 -0.526821,-4.7022 C 43.997507,34.23271 43.821094,33 43.317466,33 42.813837,33 41.83225,31.425 41.13616,29.5 40.440071,27.575 39.449672,26 38.935272,26 c -1.172195,0 -1.193121,-3.044577 -0.03351,-4.875291 0.713699,-1.126737 1.885668,-0.910825 6.484687,1.194676 C 48.473903,23.732867 51,25.346718 51,25.905721 c 0,0.559003 0.959264,1.910059 2.131698,3.002347 3.875346,3.610435 4.058112,12.38596 0.388374,18.647894 C 49.800244,53.903369 40.89,57.379503 39.507225,53.022764 Z"
         style="fill:#776463" />
      <path
         id="path2816"
         d="M 41.25,53.959518 C 40.0125,53.46723 39,52.326803 39,51.425235 39,50.328659 39.53341,49.990711 40.611341,50.404352 41.799587,50.860325 42.059182,50.596609 41.6,49.4 c -0.460483,-1.2 -0.2,-1.460483 1,-1 1.119142,0.429455 1.457224,0.191506 1.089486,-0.766804 -0.293258,-0.764217 -0.05145,-1.871237 0.537363,-2.460045 1.122492,-1.122492 1.732072,-8.268203 0.648053,-7.596716 C 44.531098,37.789402 43.960137,36.152173 43.6061,33.938149 42.846235,29.186213 41.058066,26 39.151045,26 38.158424,26 37.972384,25.246165 38.472876,23.25205 38.852206,21.740677 39.28858,20.378087 39.442595,20.224071 39.990301,19.676365 45,21.964571 45,22.762445 c 0,0.44657 1.003805,0.887561 2.230677,0.979978 C 49.561579,23.918005 52,26.44814 52,28.69113 52,29.411008 52.675,30 53.5,30 c 0.825,0 1.5,0.45 1.5,1 0,0.55 -0.45,1 -1,1 -1.464195,0 -1.220429,1.636713 0.5,3.357143 2.114768,2.114768 1.862234,7.233537 -0.567683,11.506702 C 50.552701,52.80712 45.483149,55.643501 41.25,53.959518 Z"
         style="fill:#75605e" />
      <path
         id="path2814"
         d="m 42.905168,52.250573 c -0.7178,-1.887958 -0.707969,-2.816306 0.03244,-3.063109 C 43.521924,48.992692 44,47.970833 44,46.916667 44,45.8625 44.368857,45 44.819682,45 45.969651,45 45.711499,34.822183 44.515313,33 43.973735,32.175 43.501614,31.275 43.466156,31 43.141479,28.481937 41.58463,26.124641 39.966881,25.70159 38.885096,25.418697 38,24.664786 38,24.026232 38,23.3203 38.783931,23.114035 40,23.5 c 1.471573,0.467059 2,0.1797 2,-1.0876 0,-1.571999 0.183781,-1.556055 2.104988,0.182612 1.157743,1.047744 2.272431,1.83192 2.477085,1.742615 C 49.273892,23.162993 53,28.606714 53,33.714009 c 0,1.139607 0.6396,2.317451 1.421334,2.61743 3.355539,1.287642 0.03717,11.959656 -4.871999,15.668561 -4.0793,3.081933 -5.546646,3.137272 -6.644167,0.250573 z M 49,36 c 0,-1.1 -0.407871,-2 -0.90638,-2 -0.49851,0 -0.671025,0.9 -0.383369,2 0.287656,1.1 0.695528,2 0.90638,2 C 48.827484,38 49,37.1 49,36 Z m 1.796329,-5.954522 C 50.124988,28.970492 49.38205,28.284617 49.145354,28.521312 48.716759,28.949908 50.896086,32 51.630919,32 c 0.212316,0 -0.16325,-0.879535 -0.83459,-1.954522 z M 45.222266,27.064557 C 44.295674,25.450063 43.399755,24.266911 43.231336,24.435331 42.690033,24.976634 45.29229,30 46.114005,30 c 0.436136,0 0.03485,-1.320949 -0.891739,-2.935443 z m -5.639317,25.069658 c -0.430771,-0.697003 -0.513159,-1.537338 -0.183085,-1.867413 0.894961,-0.894961 1.870768,0.421303 1.387387,1.871444 -0.338725,1.016175 -0.574267,1.015386 -1.204302,-0.004 z M 39,20.940983 c 0,-0.582459 0.45,-0.780902 1,-0.440983 0.55,0.339919 1,0.816476 1,1.059017 C 41,21.801558 40.55,22 40,22 39.45,22 39,21.523442 39,20.940983 Z"
         style="fill:#755d5b" />
      <path
         id="path2812"
         d="m 43.432707,53.891118 c -1.124145,-1.818906 0.514989,-7.84842 1.980704,-7.285972 1.048426,0.402319 1.185125,-0.332006 0.628477,-3.376077 -0.391258,-2.139625 -0.288489,-4.978967 0.228376,-6.309648 0.899904,-2.316824 0.974727,-2.33461 1.76446,-0.419421 0.777992,1.886715 0.828687,1.870072 0.894991,-0.293837 0.05048,-1.647496 -0.42156,-2.211041 -1.675254,-2 -1.211539,0.203946 -2.323523,-0.981442 -3.634856,-3.874797 -1.039125,-2.292749 -2.77391,-4.399961 -3.855077,-4.682692 -1.081168,-0.282732 -1.725013,-0.903593 -1.430769,-1.379691 0.594464,-0.961862 7.017073,-0.833594 10.240951,0.204525 C 50.690304,25.154749 53,29.977654 53,33.714009 c 0,1.139607 0.664316,2.326935 1.476257,2.638507 1.868006,0.716821 1.04847,7.88366 -1.328155,11.614709 -2.758545,4.330624 -8.526487,7.847585 -9.715395,5.923893 z m 7.363622,-23.84564 C 50.124988,28.970492 49.38205,28.284617 49.145354,28.521312 48.716759,28.949908 50.896086,32 51.630919,32 c 0.212316,0 -0.16325,-0.879535 -0.83459,-1.954522 z M 47,29 C 47,28.45 46.580324,28 46.067388,28 45.554451,28 44.838363,27.066088 44.476082,25.924639 44.1138,24.783191 43.616627,24.050039 43.371253,24.295413 42.712814,24.953852 45.180132,30 46.160515,30 46.622232,30 47,29.55 47,29 Z"
         style="fill:#685757" />
      <path
         id="path2810"
         d="m 43.710511,52.000996 c -0.287513,-1.099452 -0.08432,-2.26997 0.451543,-2.601151 0.535861,-0.33118 0.728743,-1.242041 0.428625,-2.024135 -0.43073,-1.122465 -0.141918,-1.205908 1.371138,-0.396145 1.276902,0.683377 2.123688,0.691102 2.536512,0.02314 C 48.839167,46.451217 48.416476,46 47.559017,46 c -2.190815,0 -1.938333,-1.620909 0.520776,-3.343336 1.143886,-0.801209 1.996562,-2.289225 1.894837,-3.306704 -0.269526,-2.695839 1.107711,-6.417104 2.13906,-5.779696 C 52.601161,33.871538 53,35.403976 53,36.975684 c 0,1.571707 0.5625,3.063899 1.25,3.315983 1,0.366666 1,0.723333 0,1.783333 -1.570784,1.665031 -1.637078,3.282261 -0.09549,2.329508 0.699101,-0.432067 0.883698,-0.275344 0.467975,0.39731 -0.75206,1.216859 -3.691749,0.473111 -4.85717,-1.228876 -0.493842,-0.72121 -0.739707,-0.663167 -0.75,0.177058 -0.0084,0.6875 0.84169,2.107003 1.889138,3.154451 1.872601,1.872601 1.859143,1.947858 -0.804719,4.5 -3.239714,3.103843 -5.674109,3.331136 -6.389221,0.596545 z M 46,39.940983 c 0,-0.582459 0.45,-0.780902 1,-0.440983 0.55,0.339919 1,0.816476 1,1.059017 C 48,40.801558 47.55,41 47,41 46.45,41 46,40.523442 46,39.940983 Z m 0,-2.881966 c 0,-0.517541 0.45,-1.219098 1,-1.559017 0.55,-0.339919 1,0.08352 1,0.940983 C 48,37.298442 47.55,38 47,38 46.45,38 46,37.576558 46,37.059017 Z m 1,-6.118034 c 0,-0.582459 0.422343,-0.797995 0.93854,-0.478968 0.516196,0.319028 1.382445,-0.213166 1.924997,-1.182652 0.551472,-0.985426 1.350248,-1.375288 1.81146,-0.884128 0.453752,0.483216 0.259699,1.080402 -0.431228,1.32708 C 50.552843,29.968993 50.2419,30.582386 50.552786,31.08541 50.863673,31.588435 50.191476,32 49.059017,32 47.926558,32 47,31.523442 47,30.940983 Z M 41.687148,26.88562 C 39.691799,24.838652 39.321809,24 40.414095,24 c 1.453285,0 5.297577,4.657162 4.471363,5.416828 -0.212002,0.194927 -1.651242,-0.944117 -3.19831,-2.531208 z m 4.718552,1.020106 c -2.493254,-3.202807 -2.726469,-4.146214 -0.776377,-3.140622 1.028872,0.530553 2.433177,0.762948 3.120677,0.516435 0.6875,-0.246513 1.25,0.06585 1.25,0.694145 0,0.628292 -0.415943,0.885283 -0.924318,0.57109 -0.508375,-0.314193 -1.070875,0.179326 -1.25,1.096709 -0.274263,1.404625 -0.498453,1.446029 -1.419982,0.262243 z"
         style="fill:#614d4c" />
      <path
         id="path2808"
         d="m 44.012045,52.022505 c -0.889782,-1.662571 -0.789633,-1.874388 0.628861,-1.330061 1.261707,0.484163 1.479293,0.289351 0.862814,-0.772505 -0.453404,-0.780967 -0.450646,-1.080861 0.0061,-0.666431 0.456775,0.414429 1.855455,0.08193 3.108178,-0.738885 3.094522,-2.027609 3.826069,-0.348917 1.266162,2.905478 -1.768062,2.247727 -2.332519,2.457581 -3.678333,1.367537 -1.209229,-0.979416 -1.410012,-0.988425 -0.838797,-0.03764 0.413036,0.6875 0.51525,1.25 0.227142,1.25 -0.288109,0 -1.000079,-0.889873 -1.582156,-1.977495 z M 46.638374,44.5 c 0.316582,-0.825 0.963335,-1.5 1.43723,-1.5 0.473895,0 0.602605,0.675 0.286022,1.5 -0.316582,0.825 -0.963335,1.5 -1.43723,1.5 -0.473895,0 -0.602605,-0.675 -0.286022,-1.5 z m 2.78286,0.391444 c 0.25686,-0.765294 0.671679,-3.108461 0.921819,-5.207037 0.56466,-4.737273 1.257971,-5.528052 2.200422,-2.509768 0.399348,1.278949 1.175254,2.613888 1.724236,2.966533 0.619424,0.397894 0.378571,1.525743 -0.634781,2.972506 C 52.734818,44.395912 52,45.064785 52,44.600062 52,44.135339 51.314699,44.32386 50.477108,45.018999 49.23251,46.051924 49.039559,46.028614 49.421234,44.891444 Z M 46.5,37 c 0.339919,-0.55 0.816476,-1 1.059017,-1 C 47.801558,36 48,36.45 48,37 48,37.55 47.523442,38 46.940983,38 46.358524,38 46.160081,37.55 46.5,37 Z m 0.166667,-8.666667 C 45.734534,27.401201 45.83462,26 46.833333,26 c 0.458334,0 0.833334,0.675 0.833334,1.5 0,1.699352 -0.07308,1.760252 -1,0.833333 z"
         style="fill:#5a4948" />
      <path
         id="path2806"
         d="m 43.992115,51.985267 c -0.867815,-1.621527 -0.761237,-1.833901 0.648791,-1.292823 1.229693,0.471878 1.465228,0.288301 0.86863,-0.677014 -0.559753,-0.905699 -0.433612,-1.08654 0.398969,-0.571977 0.671615,0.415081 1.991791,0.05177 2.944355,-0.810293 1.577364,-1.427494 1.73921,-1.398468 1.869814,0.335342 0.268837,3.568897 -5.138062,5.992372 -6.730559,3.016765 z M 47,44.5 c 0,-0.825 0.435877,-1.5 0.968615,-1.5 0.532739,0 0.709594,0.675 0.393011,1.5 C 48.045044,45.325 47.609167,46 47.393011,46 47.176855,46 47,45.325 47,44.5 Z m 3.128258,-2.002344 c 0.535243,-1.938489 0.75504,-3.877466 0.488439,-4.308837 -0.266602,-0.431371 -0.09534,-1.414355 0.380578,-2.18441 0.645996,-1.045243 1.048473,-0.652965 1.587989,1.547746 0.397474,1.621315 1.065034,3.175695 1.483465,3.454179 0.418432,0.278484 0.0776,1.403484 -0.757399,2.5 C 51.824522,45.458796 51.807009,45.453499 52.46396,43.25 52.865558,41.902991 52.706402,41 52.067388,41 51.480324,41 51,41.873442 51,42.940983 c 0,1.067541 -0.415105,2.197532 -0.922455,2.511092 -0.544559,0.336556 -0.523784,-0.873762 0.05071,-2.954419 z"
         style="fill:#5a403f" />
      <path
         id="path2804"
         d="m 45,53.530333 c 0,-0.223793 1.254555,-1.780459 2.787901,-3.459257 2.417158,-2.64645 2.807173,-2.796509 2.932827,-1.128414 0.07971,1.05817 -0.387346,2.334103 -1.037901,2.835407 C 48.251935,52.880684 45,54.097524 45,53.530333 Z m 5.128258,-11.032677 c 0.535243,-1.938489 0.75504,-3.877466 0.488439,-4.308837 -0.266602,-0.431371 -0.09534,-1.414355 0.380578,-2.18441 0.645996,-1.045243 1.048473,-0.652965 1.587989,1.547746 0.397474,1.621315 1.065034,3.175695 1.483465,3.454179 0.418432,0.278484 0.0776,1.403484 -0.757399,2.5 C 51.824522,45.458796 51.807009,45.453499 52.46396,43.25 52.865558,41.902991 52.706402,41 52.067388,41 51.480324,41 51,41.873442 51,42.940983 c 0,1.067541 -0.415105,2.197532 -0.922455,2.511092 -0.544559,0.336556 -0.523784,-0.873762 0.05071,-2.954419 z"
         style="fill:#523e40" />
      <path
         id="path2802"
         d="m 46,52 c 0.588702,-1.1 1.295368,-2 1.570368,-2 0.275,0 0.01833,0.9 -0.570368,2 -0.588702,1.1 -1.295368,2 -1.570368,2 -0.275,0 -0.01833,-0.9 0.570368,-2 z m 3.458881,-2.066531 c -0.362533,-0.586592 -0.444683,-1.281 -0.182555,-1.543128 0.262128,-0.262129 0.743066,0.21781 1.068751,1.066531 0.676184,1.762107 0.09985,2.072058 -0.886196,0.476597 z m 2.576303,-9.867728 c -0.569351,-1.063842 -1.004728,-2.526342 -0.967504,-3.25 C 51.104904,36.092084 51.654953,36.625 52.29001,38 c 0.635058,1.375 1.617102,2.830609 2.18232,3.234687 0.663313,0.474207 0.596961,0.740117 -0.187146,0.75 -0.668149,0.0084 -1.680649,-0.855103 -2.25,-1.918946 z"
         style="fill:#4c3737" />
      <path
         id="path2800"
         d="m 51.458881,37.933469 c -0.362533,-0.586592 -0.444683,-1.281 -0.182555,-1.543128 0.262128,-0.262129 0.743066,0.21781 1.068751,1.066531 0.676184,1.762107 0.09985,2.072058 -0.886196,0.476597 z"
         style="fill:#392827" />
    </g>
  </g>
</svg>
